<svg xmlns="http://www.w3.org/2000/svg" xmlns:xlink="http://www.w3.org/1999/xlink" width="400" height="300" viewBox="0 0 400 300">
    <defs>
        <radialGradient id="nczgbjk28c" cx="0%" cy="100%" r="160.182%" fx="0%" fy="100%" gradientTransform="scale(.41839 1) rotate(-23.624 0 1)">
            <stop offset="0%" stop-color="#FFF" stop-opacity=".803"/>
            <stop offset="100%" stop-color="#DAE1E3"/>
        </radialGradient>
        <path id="gqjgkm6wda" d="M0 0H400V300H0z"/>
    </defs>
    <g fill="none" fill-rule="evenodd">
        <g>
            <g transform="translate(-880 -680) translate(880 680)">
                <mask id="ydgmkro46b" fill="#fff">
                    <use xlink:href="#gqjgkm6wda"/>
                </mask>
                <use fill="#FFF" xlink:href="#gqjgkm6wda"/>
                <g fill="url(#nczgbjk28c)" mask="url(#ydgmkro46b)">
                    <path d="M243.348 0c4.466 0 8.094 3.536 8.094 7.881 0 .319-.02.633-.057.942l2.84-.067c4.372-.085 8.771-.129 13.195-.129 147.454 0 267.42 48.255 267.42 107.568 0 59.32-119.966 107.574-267.42 107.574C119.965 223.769 0 175.509 0 116.195 0 61.627 101.539 16.42 232.606 9.535l2.8-.138c-.1-.493-.152-1.001-.152-1.522 0-4.344 3.629-7.875 8.094-7.875zm24.072 10.09c-4.399 0-8.773.043-13.12.128l-3.245.074c-1.048 3.166-4.105 5.459-7.707 5.459-3.389 0-6.296-2.034-7.5-4.914l-3.047.149C102.467 17.776 1.498 62.37 1.498 116.196c0 58.51 119.292 106.104 265.922 106.104 146.63 0 265.916-47.594 265.916-106.105 0-58.505-119.287-106.104-265.916-106.104zm0 15.643c48.468 0 93.402 6.208 130.15 16.753.273-4.195 3.87-7.528 8.25-7.528 4.56 0 8.27 3.61 8.27 8.046 0 1.568-.463 3.033-1.263 4.272 48.503 16.604 79.318 41.34 79.318 68.92 0 49.882-100.81 90.467-224.725 90.467-123.916 0-224.726-40.585-224.726-90.468s100.81-90.462 224.726-90.462zm0 1.464c-123.085 0-223.222 39.923-223.222 88.998 0 49.08 100.137 88.999 223.222 88.999 123.085 0 223.221-39.924 223.221-88.999 0-27.118-30.576-51.441-78.704-67.778-1.516 1.618-3.695 2.634-6.116 2.634-4.234 0-7.735-3.113-8.214-7.11-36.667-10.534-81.642-16.744-130.187-16.744zm0 13.33c103.549 0 187.802 33.945 187.802 75.668 0 26.164-33.13 49.27-83.373 62.866-.68 3.777-4.076 6.658-8.15 6.658-1.804 0-3.477-.566-4.838-1.526-1.744.878-3.284 1.446-4.28 1.446-.707 0-1.076-.29-1.258-.53v-.005c-.317-.422-.279-.985.002-1.628-25.756 5.362-54.97 8.393-85.905 8.393-103.555 0-187.796-33.95-187.796-75.674 0-41.723 84.247-75.668 187.796-75.668zm0 1.464c-102.724 0-186.298 33.29-186.298 74.204 0 40.915 83.574 74.204 186.298 74.204 31.404 0 61.019-3.111 87.002-8.6.415-.514.908-1.04 1.438-1.563-.278-.806-.43-1.668-.43-2.564 0-4.436 3.71-8.046 8.27-8.046 1.808 0 3.482.568 4.845 1.53 1.744-.877 3.284-1.444 4.279-1.444.708 0 1.077.29 1.258.53.14.186.211.4.222.637.051 1.106-1.191 2.69-2.762 4.24.268.775.417 1.603.427 2.462l.723-.194c48.896-13.389 81.02-35.825 81.02-61.192 0-40.92-83.568-74.204-186.292-74.204zm89.782 140.652l-.629.139-1.499 1.073-.248.301-.121.139c-.07.074-.116.114-.14.114h.017c.363 0 .93-.149 1.66-.436l.457-.189c.238-.102.49-.217.756-.344l.323-.158c-.203-.202-.396-.416-.576-.639zm-2.118 1.201l1.482-1.06-.742.163-.484.582-.256.315zm17.5-12.515l-2.218 1.587c.192.255.37.521.532.798 1.04-1.137 1.564-1.962 1.686-2.385zm.13-.103l.122-.011c-.657.042-1.705.395-3.037 1.029.2.212.387.435.563.667l2.352-1.685zM267.42 60.714c75.767 0 137.412 24.89 137.412 55.481 0 30.59-61.645 55.493-137.412 55.493s-137.412-24.897-137.412-55.493c0-6.958 3.189-13.621 9.006-19.763-1.539-1.78-2.469-4.08-2.469-6.585 0-5.643 4.723-10.239 10.523-10.239 3.545 0 6.688 1.717 8.596 4.34 24.95-14.059 65.749-23.234 111.756-23.234zm0 1.464c-45.715 0-86.229 9.016-110.876 22.81l-.165.093c.774 1.425 1.212 3.047 1.212 4.766 0 5.649-4.723 10.239-10.523 10.239-2.726 0-5.212-1.014-7.082-2.673l-.122.128c-5.4 5.817-8.352 12.1-8.352 18.654 0 29.788 60.966 54.023 135.908 54.023 74.942 0 135.907-24.235 135.907-54.023 0-29.787-60.965-54.017-135.907-54.017zm0 12.613c2.423 0 4.39 1.913 4.39 4.27 0 .258-.024.51-.07.755 47.391.916 85.247 16.83 85.247 36.26 0 20.021-40.183 36.302-89.567 36.302-49.384 0-89.567-16.28-89.567-36.302 0-19.222 37.05-35.004 83.73-36.226l1.516-.034c-.045-.245-.069-.497-.069-.754 0-2.358 1.967-4.271 4.39-4.271zm3.782 6.438l-.061.098c-.777 1.204-2.153 2.005-3.721 2.005-1.61 0-3.017-.843-3.781-2.1l-.566.007c-46.57.9-83.757 16.183-83.757 34.837 0 19.23 39.522 34.878 88.104 34.878s88.104-15.648 88.104-34.878c0-18.73-37.488-34.06-84.322-34.847zm-3.776 2.844c2.207 0 4.418.23 6.507.65l.692.147c39.268 1.425 70.107 14.863 70.107 31.206 0 6.604-5.037 12.734-13.63 17.788.29.658.45 1.382.45 2.142 0 3.007-2.517 5.455-5.607 5.455-2.099 0-3.933-1.13-4.894-2.796-12.059 4.714-27.88 7.848-45.437 8.577l-.989.039c-2.076.466-4.296.744-6.529.79l-.67.007c-2.235 0-4.47-.235-6.572-.663l-.626-.134c-38.885-1.41-69.502-14.595-70.11-30.716l-.01-.49c0-16.18 30.229-29.512 68.938-31.159l1.182-.046c2.282-.513 4.746-.797 7.198-.797zm-16.92 57.741c2.756 1.826 5.87 3.137 9.15 3.906l.649.145c2.331.107 4.72.163 7.109.163 1.92 0 3.843-.032 5.731-.104l1.378-.06.031-.007c3.31-.702 6.455-1.948 9.253-3.712l.509-.328c-3.715.431-7.568.73-11.523.874-2.608.505-5.337.637-8.12.345-.77-.081-1.528-.193-2.274-.334-4.085-.138-8.063-.442-11.893-.888zm4.106-55.277l-.006.008-.003.033c-35.76 2.392-63.032 14.692-63.032 29.498 0 14.805 27.273 27.105 63.026 29.497 0 .042 0 .056.018.041l-.005-.007-.001-.04c-2.307-.986-4.467-2.174-6.478-3.637l-.537-.399-.69-.09-1.34-.186-1.327-.197-.658-.103-1.307-.215-.648-.11-1.286-.232-1.271-.242c-.21-.04-.42-.082-.63-.124l-1.249-.258-1.233-.269c-.613-.136-1.22-.277-1.82-.421l-1.193-.294-.59-.15-1.168-.31c-.387-.104-.77-.21-1.151-.318l-1.133-.329c-2.249-.665-4.39-1.388-6.41-2.163l-1-.39c-7.591-3.035-13.383-6.813-16.657-11.04-.561.187-1.164.288-1.791.288-3.09 0-5.607-2.449-5.607-5.455 0-2.696 2.024-4.944 4.67-5.38 2.306-9.925 18.028-18.304 39.693-22.051l1.421-.238 1.438-.224c.723-.11 1.452-.213 2.186-.312l.744-.097c2.165-1.651 4.505-2.96 7.022-4.043 0-.022 0-.036.003-.04zm25.63.041c2.512 1.082 4.853 2.392 7.018 4.043 26.512 3.417 45.767 13.553 45.767 25.455 0 11.782-18.872 21.834-44.974 25.35l-.8.105c-2.164 1.648-4.497 2.961-7.01 4.036v.006c15.551-1.041 29.497-3.956 40.293-8.136-.13-.457-.198-.936-.198-1.43 0-3.008 2.517-5.456 5.607-5.456 1.832 0 3.462.86 4.486 2.187 8.106-4.763 12.838-10.495 12.838-16.662 0-14.806-27.273-27.106-63.026-29.498zm-38.402 47.267l.38.506c1.54 2.02 3.3 3.862 5.313 5.427l.515.39c2.839.372 5.779.657 8.79.856-3.31-1.396-6.266-3.415-8.735-5.893-1.806-.307-3.557-.656-5.247-1.045l-1.016-.24zm51.15.006c-1.912.464-3.906.877-5.972 1.234-2.481 2.506-5.442 4.523-8.716 5.918 2.477-.167 4.905-.394 7.266-.68l1.208-.153.01-.007c2.245-1.648 4.179-3.642 5.854-5.846l.35-.466zm-47.51-41.522c-.68.097-1.353.2-2.02.305l-1.33.218c-.66.112-1.315.228-1.964.349l-1.29.246c-.427.084-.851.17-1.273.257l-1.257.267-1.24.279c-17.243 3.97-29.382 11.017-31.5 19.245 2.827.277 5.043 2.607 5.043 5.428 0 1.914-1.02 3.602-2.559 4.576 3.751 4.814 11.056 9.01 20.697 12.123l1.081.342c.545.168 1.098.333 1.657.494l1.127.319c.947.261 1.913.513 2.896.754l1.188.285.6.139 1.214.27c.61.132 1.228.26 1.85.385l1.253.244 1.268.234c.425.076.853.15 1.283.223l1.297.212.654.103 1.333.197-.01-.007c-2.064-1.745-3.877-3.78-5.39-6.027l-.341-.516-.948-.259-.933-.267c-.308-.09-.614-.182-.917-.275l-.901-.284c-.744-.24-1.471-.489-2.18-.745l-.843-.312c-.278-.105-.553-.212-.825-.32l-.807-.326c-.532-.221-1.052-.446-1.559-.677l-.751-.349c-.495-.235-.977-.474-1.445-.718l-.693-.37c-6.144-3.356-9.832-7.516-9.964-12.044l-.004-.251c0-4.698 3.662-9 9.93-12.43l.695-.37c.117-.062.235-.122.355-.183l.724-.36c.857-.416 1.755-.817 2.69-1.202l.813-.326c.958-.376 1.953-.736 2.985-1.079l.893-.29c.3-.095.604-.188.91-.28l.927-.273c.156-.045.312-.09.47-.133l.95-.26.483-.126.344-.51c1.397-2.027 3.045-3.918 4.872-5.528l.462-.397zm43.887 0l.46.397c1.98 1.744 3.75 3.818 5.217 6.038 2.394.62 4.643 1.322 6.723 2.099l.882.337c8.711 3.416 14.295 8.164 15.12 13.504 2.127.285 3.775 2.066 3.775 4.219 0 2.352-1.966 4.26-4.378 4.26-.708 0-1.377-.165-1.97-.457-3.574 4.287-10.51 7.923-19.51 10.39l-.59.16c-1.466 2.27-3.234 4.345-5.258 6.132l-.48.415c1.722-.247 3.41-.523 5.058-.825l1.405-.265c21.155-4.126 35.743-12.708 35.743-22.657 0-10.934-17.616-20.216-42.197-23.746zm-21.952-6.89c-2.455 0-4.854.285-7.135.855h-.007c-3.305.697-6.454 1.948-9.252 3.707l-.52.336c-.873.455-1.692 1.025-2.453 1.651h-.006c-2.185 1.648-4.166 3.593-5.8 5.79l-.348.477.015-.003c-.469.57-.878 1.139-1.23 1.708l-.014.004c-2.983 4.669-4.738 10.191-4.738 16.112 0 5.73 1.645 11.089 4.456 15.66l.282.45.015.005c1.887.49 3.867.93 5.927 1.312-1.657-1.956-3.037-4.142-4.088-6.494l9.766-3.392-.844-.84-1.024-1.035c-.145-.153-.328-.43-.537-.803l-.2-.368-.169-.33-.237-.485-.185-.394-.32-.706-.264-.604-.201-.47-.339-.814-.203-.501-.404-1.019-.393-1.025-.375-1.012-.178-.494-.226-.642-.16-.466-.246-.738-.214-.68-.147-.495-.095-.339-.054-.208-.048-.195-.041-.18c-.019-.085-.035-.165-.048-.239-.059-.102-.108-.204-.148-.31.401.334.908.678 1.51 1.026l.247.14c.293.162.607.326.94.49l.44.21.304.14c.155.07.313.14.475.21l.495.209.34.138.529.208.547.206.376.136.776.27.807.266.626.197.643.194.438.127.67.188.686.184.466.121.473.119.964.232.492.113.75.165.762.16.515.104 1.048.2.532.095.808.138.82.132.83.126.934.13.947.122 1.47.167 1.471.142.715.06.949.07.546.034 1.347.072 1.06.04.782.021.517.01.512.006.507.003h.502l.497-.005.735-.011.604-.016.595-.02.933-.042.684-.039.449-.03.66-.05.963-.086.52-.054.61-.07.593-.075.386-.053.379-.056.734-.118.53-.094.511-.1.33-.068.322-.07.467-.11.447-.114.426-.118.537-.164.253-.084c.416-.141.79-.29 1.122-.443l.328-.161.288-.16.168-.1c-.04.096-.09.19-.151.281l-.025.073-.068.167-.064.143-.077.158-.135.264-.217.396-.325.56-.145.243-.48.78-.54.845-.587.891-.306.458-.632.926-.322.465-.324.462-.325.458-.323.451-.321.442-.317.43-.413.553-.3.395-.48.614-.272.338-.174.212-.327.387-.153.174-.144.16-.136.145c-.132.138-.25.253-.354.341l-.157.123-2.164 1.462 8.756 5.405c-.355.485-.727.957-1.113 1.416 1.686-.318 3.319-.674 4.89-1.066l.765-.195c2.89-4.52 4.628-9.839 4.737-15.545l.005-.571c0-5.923-1.755-11.446-4.74-16.116-.357-.57-.76-1.139-1.23-1.708-1.696-2.392-3.81-4.499-6.15-6.264-.76-.626-1.58-1.196-2.458-1.651-2.926-1.936-6.257-3.303-9.774-4.043-2.075-.518-4.247-.8-6.471-.847l-.668-.008zm28.74 15.088c2.634 4.615 4.156 9.911 4.156 15.549 0 5.443-1.418 10.562-3.887 15.065l-.27.482c8.345-2.358 14.717-5.737 17.953-9.657-.813-.774-1.318-1.851-1.318-3.043 0-2.08 1.538-3.813 3.562-4.186-1.016-5.743-8.535-10.825-19.68-14.061l-.516-.149zm-57.465.003l-.47.134-.941.28-.923.288c-.152.05-.304.098-.454.148l-.895.3c-.295.103-.588.206-.876.31l-.857.318c-9.177 3.485-14.893 8.383-14.893 13.768 0 4.578 4.133 8.805 11.013 12.11l.747.351.769.344c.778.34 1.587.668 2.424.985l.847.313c.714.258 1.447.507 2.199.747l.91.285.463.139.937.271c-2.634-4.612-4.156-9.908-4.156-15.545 0-5.638 1.522-10.934 4.156-15.546zm16.282 14.867l.368 2.191c.261 1.295.585 2.534.992 3.8l.322.956.773 2.009c.091.237.223.453.396.654l.188.197.757.692c1.305 1.087 2.79 1.92 4.578 2.61l.686.253 1.9.582.364.075.286.03.37.003 2.04-.181c1.905-.247 3.576-.692 5.156-1.438l.588-.294.844-.499c.217-.131.41-.295.573-.49l.154-.206 1.204-1.852c.686-1.128 1.292-2.255 1.854-3.464l.414-.923.76-1.928c-1.43 2.13-3.965 3.481-6.85 3.457l-.397-.012-.414-.091c-2.092-.517-3.841-1.84-4.852-3.61l-.192-.36-.101-.217-.278.343c-1.334 1.534-3.296 2.497-5.508 2.64l-.446.019-.403-.003-.377-.072c-2.722-.583-4.865-2.47-5.749-4.871zm-1.934-22.349l.295.029.263.033.286.046c.652.117 1.394.336 1.677.725.537.951.768 1.89.89 2.733l.03.228.026.223.033.324.078.885.019.177c.04.347.096.645.2.882.107-.263.193-.518.274-.771l.206-.65.075-.226c.184-.527.421-1.073.85-1.682.877-1.244 3.63-2.785 5.407-2.234.003.185.025.345.051.493l.067.35c.052.294.07.58-.09.993l.321-.189.623-.356.594-.324.568-.294.408-.2.394-.181c1.42-.634 2.555-.91 3.485-.812 1.095.115 2.355.792 3.916 2.036l.242.196.373.311.254.218.26.228.673.607.563.527.735.709.475.468 1.356 1.37 3.604 3.74 2.763 1.044.947.37.344.138.735.301.596.254.784.355.466.225.41.21.23.125c1.655.914 2.43 1.791 2.323 2.818l-.038.22-.068.212-.17.11-.29.171c-.788.44-1.872.843-3.203 1.191l-.324.083-.419.1-.433.097-.356.075-.365.072-.564.104-.583.098-.399.063-.406.06-.415.056-.637.08-.875.097-.449.044-.456.04-.932.072-.476.032-.482.027-.489.025-.745.03-.758.023-.513.01-.78.009h-.525l-.8-.005-.539-.008-.544-.013-.824-.026-.975-.043-.987-.055-.285-.019-.895-.064-.717-.059-1.477-.141-1.474-.169-.95-.123c-.292-.04-.583-.081-.872-.124l-.86-.131-.85-.14-.56-.097-1.101-.204-.543-.106-.802-.166-.527-.113-.779-.176-.764-.181-.994-.25-.728-.193-.476-.132-.7-.2-.456-.137-.45-.138c-.297-.092-.588-.186-.874-.28l-.634-.214-.616-.217-.595-.22-.386-.148c-.51-.197-.994-.397-1.453-.598l-.34-.151-.49-.227-.468-.228c-1.27-.634-2.273-1.27-2.964-1.878-.09-.255-.123-.511-.097-.766.125-1.187 1.233-2.04 3.513-2.66-.071-.093-.133-.183-.191-.27l-.166-.256c-.128-.194-.263-.375-.476-.547.742-.682 2.03-1.173 2.883-1.202.931-.054 1.645.102 2.284.288l.655.2.213.064.211.06c.142.037.283.07.428.097-.278-.154-.63-.456-.996-.82l-.276-.283-.184-.198-.182-.202-.178-.203-.172-.204-.245-.299-.223-.284-.194-.262-.112-.158-.094-.142c-.404-1.237-.142-2.279.23-3.02l.068-.132.105-.184.072-.115.07-.107.07-.1.086-.114c.237-.157.476-.31.718-.46z" transform="rotate(-6 648.446 -179.948)"/>
                </g>
            </g>
        </g>
    </g>
</svg>
