<svg xmlns="http://www.w3.org/2000/svg" xmlns:xlink="http://www.w3.org/1999/xlink" width="200" height="200" viewBox="0 0 200 200">
    <defs>
        <path id="wktr0rgnoa" d="M0 4.449L16.881 108.644 24.593 104.194 7.713 0z"/>
        <path id="9ds9yhhd4c" d="M7.651 4.427L24.533 108.622 16.883 104.172 0 0z"/>
        <path id="xb19e7na3e" d="M7.65 0L0 4.473 7.65 8.9 15.343 4.451z"/>
        <path id="a71lymizeg" d="M40.457 4.449L0 142.825 7.713 138.374 48.169 0z"/>
        <path id="6jqhjwvgai" d="M0 138.352L7.651 142.803 48.105 4.427 40.455 0z"/>
        <path id="dg3leirgyk" d="M7.65 0L0 4.473 7.65 8.9 15.343 4.451z"/>
        <path id="jv2ub7cirm" d="M62.46 34.935L61.256 38.061 0 3.12 1.201 0z"/>
        <path id="rwxm7j4ieo" d="M0 2.492L61.259 37.427 65.634 34.944 4.36 0z"/>
        <path id="9rsuf8hlxq" d="M0 4.451L16.881 108.647 24.594 104.195 7.712 0z"/>
        <path id="ekzbbop99s" d="M7.651 4.426L24.533 108.622 16.882 104.171 0 0z"/>
        <path id="kqri1osseu" d="M0 4.474L7.651 8.9 15.342 4.449 7.651 0z"/>
        <path id="ntj8m1e19w" d="M40.456 4.451L0 142.827 7.713 138.375 48.168 0z"/>
        <path id="uo93qq8t2y" d="M0 138.35L7.652 142.803 48.107 4.426 40.455 0z"/>
        <path id="r4ly3b2yhA" d="M0 4.474L7.651 8.9 15.342 4.449 7.651 0z"/>
        <path id="e954tum92E" d="M0 50.153l71.053 40.864L86.04 40.865 14.988 0 0 50.153zm1.536-.614L15.76 1.942l68.744 39.537-14.225 47.598L1.536 49.539z"/>
        <linearGradient id="7i2cql8yqC" x1="62.606%" x2="41.838%" y1="26.555%" y2="65.884%">
            <stop offset="0%" stop-color="#DAE1E3"/>
            <stop offset="100%" stop-color="#F7FBFC"/>
        </linearGradient>
        <linearGradient id="kz5k2ilm0D" x1="52.361%" x2="31.701%" y1="36.85%" y2="64.114%">
            <stop offset="0%" stop-color="#F7FBFC"/>
            <stop offset="100%" stop-color="#DAE1E3"/>
        </linearGradient>
    </defs>
    <g fill="none" fill-rule="evenodd">
        <g>
            <g>
                <g>
                    <path d="M0 0H200V200H0z" transform="translate(-655 -120) translate(572 120) translate(83)"/>
                    <g>
                        <g transform="translate(-655 -120) translate(572 120) translate(83) translate(29 6) translate(48.086 4.451)">
                            <mask id="o8zrcqbghb" fill="#fff">
                                <use xlink:href="#wktr0rgnoa"/>
                            </mask>
                            <path fill="#EBF0F2" d="M0 4.449L16.881 108.644 24.593 104.194 7.713 0z" mask="url(#o8zrcqbghb)"/>
                        </g>
                        <g transform="translate(-655 -120) translate(572 120) translate(83) translate(29 6) translate(40.455 4.473)">
                            <mask id="1cnnwk9vhd" fill="#fff">
                                <use xlink:href="#9ds9yhhd4c"/>
                            </mask>
                            <path d="M7.651 4.427L24.533 108.622 16.883 104.172 0 0z" mask="url(#1cnnwk9vhd)"/>
                        </g>
                        <g transform="translate(-655 -120) translate(572 120) translate(83) translate(29 6) translate(40.455)">
                            <mask id="khnt5gxeof" fill="#fff">
                                <use xlink:href="#xb19e7na3e"/>
                            </mask>
                            <path d="M7.65 0L0 4.473 7.65 8.9 15.343 4.451z" mask="url(#khnt5gxeof)"/>
                        </g>
                        <g transform="translate(-655 -120) translate(572 120) translate(83) translate(29 6) translate(7.63 4.451)">
                            <mask id="qn08oopj5h" fill="#fff">
                                <use xlink:href="#a71lymizeg"/>
                            </mask>
                            <path fill="#EBF0F2" d="M40.457 4.449L0 142.825 7.713 138.374 48.169 0z" mask="url(#qn08oopj5h)"/>
                        </g>
                        <g transform="translate(-655 -120) translate(572 120) translate(83) translate(29 6) translate(0 4.473)">
                            <mask id="l64jmj3ozj" fill="#fff">
                                <use xlink:href="#6jqhjwvgai"/>
                            </mask>
                            <path fill="#DAE1E3" d="M0 138.352L7.651 142.803 48.105 4.427 40.455 0z" mask="url(#l64jmj3ozj)"/>
                        </g>
                        <g transform="translate(-655 -120) translate(572 120) translate(83) translate(29 6) translate(40.455)">
                            <mask id="m82axzuewl" fill="#fff">
                                <use xlink:href="#dg3leirgyk"/>
                            </mask>
                            <path fill="#F7FBFC" d="M7.65 0L0 4.473 7.65 8.9 15.343 4.451z" mask="url(#m82axzuewl)"/>
                        </g>
                        <g transform="translate(-655 -120) translate(572 120) translate(83) translate(29 6) translate(16.196 118.358)">
                            <mask id="2t3p6o6ien" fill="#fff">
                                <use xlink:href="#jv2ub7cirm"/>
                            </mask>
                            <path fill="#DAE1E3" d="M62.46 34.935L61.256 38.061 0 3.12 1.201 0z" mask="url(#2t3p6o6ien)"/>
                        </g>
                        <g transform="translate(-655 -120) translate(572 120) translate(83) translate(29 6) translate(17.397 115.866)">
                            <mask id="fktqx7hkdp" fill="#fff">
                                <use xlink:href="#rwxm7j4ieo"/>
                            </mask>
                            <path fill="#F7FBFC" d="M0 2.492L61.259 37.427 65.634 34.944 4.36 0z" mask="url(#fktqx7hkdp)"/>
                        </g>
                        <g transform="translate(-655 -120) translate(572 120) translate(83) translate(29 6) translate(117.406 44.173)">
                            <mask id="lurckf04fr" fill="#fff">
                                <use xlink:href="#9rsuf8hlxq"/>
                            </mask>
                            <path fill="#EBF0F2" d="M0 4.451L16.881 108.647 24.594 104.195 7.712 0z" mask="url(#lurckf04fr)"/>
                        </g>
                        <g transform="translate(-655 -120) translate(572 120) translate(83) translate(29 6) translate(109.776 44.197)">
                            <mask id="krtk756mwt" fill="#fff">
                                <use xlink:href="#ekzbbop99s"/>
                            </mask>
                            <path fill="#DAE1E3" d="M7.651 4.426L24.533 108.622 16.882 104.171 0 0z" mask="url(#krtk756mwt)"/>
                        </g>
                        <g transform="translate(-655 -120) translate(572 120) translate(83) translate(29 6) translate(109.776 39.723)">
                            <mask id="m2q6lizkkv" fill="#fff">
                                <use xlink:href="#kqri1osseu"/>
                            </mask>
                            <path d="M0 4.474L7.651 8.9 15.342 4.449 7.651 0z" mask="url(#m2q6lizkkv)"/>
                        </g>
                        <g transform="translate(-655 -120) translate(572 120) translate(83) translate(29 6) translate(76.95 44.173)">
                            <mask id="fbccdsxaix" fill="#fff">
                                <use xlink:href="#ntj8m1e19w"/>
                            </mask>
                            <path fill="#EBF0F2" d="M40.456 4.451L0 142.827 7.713 138.375 48.168 0z" mask="url(#fbccdsxaix)"/>
                        </g>
                        <g transform="translate(-655 -120) translate(572 120) translate(83) translate(29 6) translate(69.32 44.197)">
                            <mask id="v8g7x8kd5z" fill="#fff">
                                <use xlink:href="#uo93qq8t2y"/>
                            </mask>
                            <path fill="#DAE1E3" d="M0 138.35L7.652 142.803 48.107 4.426 40.455 0z" mask="url(#v8g7x8kd5z)"/>
                        </g>
                        <g transform="translate(-655 -120) translate(572 120) translate(83) translate(29 6) translate(109.776 39.723)">
                            <mask id="kjrr3lpgyB" fill="#fff">
                                <use xlink:href="#r4ly3b2yhA"/>
                            </mask>
                            <path fill="#F7FBFC" d="M0 4.474L7.651 8.9 15.342 4.449 7.651 0z" mask="url(#kjrr3lpgyB)"/>
                        </g>
                        <g>
                            <path fill="url(#7i2cql8yqC)" d="M100.61 122.231L9.445 69.638c-3.848-2.214-5.806-7.896-4.373-12.693l4.373-14.637c.728-2.434-2.212-2.573-.445-3.406.145-.066 4.691-1.727 4.84-1.783 1.61-.609 3.435-.487 5.17.513l91.165 52.591c3.849 2.215 5.807 7.898 4.375 12.694l-4.375 14.637c-.784 2.624-2.42 4.439-4.37 5.181-.063.025-4.702 1.768-4.764 1.789-1.57.536 1.246-1.329-.43-2.293" transform="translate(-655 -120) translate(572 120) translate(83) translate(29 6) translate(4.162 6.527)"/>
                            <path fill="#EBF0F2" d="M96.009 123.959L4.844 71.365C.994 69.152-.964 63.47.47 58.673l4.374-14.638c1.433-4.796 5.715-6.89 9.564-4.676l91.165 52.592c3.85 2.216 5.807 7.897 4.374 12.693l-4.374 14.638c-1.434 4.795-5.716 6.888-9.564 4.677" transform="translate(-655 -120) translate(572 120) translate(83) translate(29 6) translate(4.162 6.527)"/>
                            <path fill="url(#kz5k2ilm0D)" d="M111.592 85.481L20.427 32.89c-3.848-2.214-5.807-7.897-4.373-12.692l4.374-14.638c.728-2.434-2.212-2.573-.447-3.405.145-.068 4.691-1.73 4.84-1.786 1.61-.605 3.435-.484 5.171.515l91.165 52.593c3.85 2.213 5.806 7.896 4.374 12.692l-4.374 14.638c-.785 2.622-2.42 4.438-4.371 5.181-.063.025-4.7 1.765-4.764 1.786-1.57.54 1.246-1.328-.43-2.292" transform="translate(-655 -120) translate(572 120) translate(83) translate(29 6) translate(4.162 6.527)"/>
                            <path fill="#EBF0F2" d="M106.99 87.209L15.825 34.616c-3.849-2.214-5.806-7.896-4.374-12.693l4.374-14.636C17.26 2.491 21.542.397 25.39 2.61l91.164 52.594c3.85 2.214 5.807 7.896 4.376 12.691l-4.376 14.64c-1.432 4.795-5.714 6.889-9.564 4.675" transform="translate(-655 -120) translate(572 120) translate(83) translate(29 6) translate(4.162 6.527)"/>
                            <path fill="#FFF" fill-opacity=".696" d="M106.288 91.65L15.123 39.059c-1.67-.962-3.421-1.101-4.986-.568 1.203-.114 2.466.148 3.687.852l91.164 52.592c3.85 2.214 5.807 7.896 4.374 12.693l-4.374 14.638c-.704 2.357-2.1 4.057-3.79 4.918.46-.047.905-.166 1.343-.322 1.67-.867 3.05-2.545 3.747-4.88l4.374-14.637c1.435-4.798-.525-10.48-4.374-12.693M117.27 54.902L26.108 2.309c-1.672-.961-3.424-1.101-4.989-.568 1.204-.113 2.466.148 3.687.851l91.165 52.594c3.85 2.213 5.808 7.895 4.374 12.692l-4.374 14.638c-.705 2.357-2.1 4.058-3.791 4.918.46-.047.907-.167 1.344-.322 1.67-.866 3.05-2.545 3.748-4.88l4.372-14.637c1.435-4.797-.522-10.48-4.372-12.693" transform="translate(-655 -120) translate(572 120) translate(83) translate(29 6) translate(4.162 6.527)"/>
                            <path fill="#FFF" d="M90.862 113.471L13.055 68.722 30.035 11.897 107.844 56.647z" transform="translate(-655 -120) translate(572 120) translate(83) translate(29 6) translate(4.162 6.527)"/>
                        </g>
                        <g transform="translate(-655 -120) translate(572 120) translate(83) translate(29 6) translate(21.624 23.677)">
                            <mask id="wtdb27cixF" fill="#fff">
                                <use xlink:href="#e954tum92E"/>
                            </mask>
                            <path fill="#253E47" fill-opacity=".25" d="M0 50.153l71.053 40.864L86.04 40.865 14.988 0 0 50.153zm1.536-.614L15.76 1.942l68.744 39.537-14.225 47.598L1.536 49.539z" mask="url(#wtdb27cixF)"/>
                        </g>
                        <g fill="#253E47">
                            <path fill-opacity=".25" d="M4.489 0L4.137 0.935 81.347 45.148 64.717 101.035 65.315 101.574 82.296 44.75z" transform="translate(-655 -120) translate(572 120) translate(83) translate(29 6) translate(29.71 18.424)"/>
                            <path fill-opacity=".5" d="M5.931 34.166c-.617-1.365-.664-2.924-.14-4.674l2.28-7.634c.042-.138.113-.228.216-.273.1-.043.217-.028.345.045l1.61.927c.126.072.218.177.275.312.055.134.061.27.022.407L8.257 30.91c-.295.987-.299 1.857-.012 2.609.287.751.834 1.359 1.639 1.821.805.464 1.5.57 2.086.321.588-.248 1.029-.865 1.323-1.855l2.28-7.634c.043-.137.117-.226.224-.266.109-.04.227-.025.354.05l1.61.925c.128.074.218.177.267.306.05.133.055.267.013.404l-2.281 7.634c-.523 1.751-1.349 2.808-2.475 3.17-1.126.365-2.478.094-4.05-.812-1.586-.912-2.687-2.052-3.304-3.417M17.48 41.951c-.056-.134-.065-.263-.029-.39l3.65-12.21c.04-.138.113-.228.215-.273.101-.042.215-.029.345.045l1.363.785c.223.127.36.332.412.611l2.514 11.204 2.443-8.178c.042-.136.113-.229.216-.272.101-.043.216-.029.345.044l1.503.866c.129.075.222.177.276.312.055.135.064.27.022.409l-3.644 12.192c-.04.137-.114.227-.223.267-.107.04-.221.027-.336-.04l-1.382-.795c-.234-.134-.377-.34-.43-.62L22.19 34.9l-2.395 8.01c-.037.125-.108.21-.208.252-.102.045-.218.03-.346-.044l-1.504-.864c-.116-.067-.204-.17-.258-.303M35.457 49.893c.967.558 1.736.729 2.306.515.569-.214 1.026-.852 1.37-1.915.25-.737.402-1.198.457-1.386.06-.2.186-.67.38-1.41.283-1.038.269-1.928-.042-2.672-.312-.742-.955-1.395-1.935-1.958l-2.134-1.228-2.623 8.778 2.22 1.276zm-5.176-.578c-.056-.134-.065-.265-.028-.39l3.65-12.21c.04-.14.113-.23.216-.273.1-.043.216-.03.343.045l4.267 2.454c3.44 1.98 4.687 4.688 3.741 8.13-.193.738-.328 1.233-.402 1.482-.072.238-.227.714-.468 1.425-.569 1.723-1.395 2.762-2.477 3.114-1.084.352-2.492.028-4.229-.97l-4.354-2.506c-.117-.066-.205-.167-.259-.301zM43.013 56.636c-.056-.135-.064-.264-.028-.39l3.65-12.21c.04-.138.113-.228.214-.273.102-.042.216-.03.346.046l7.711 4.436c.13.074.22.178.277.312.055.135.063.27.02.408l-.374 1.257c-.041.14-.115.223-.221.258-.107.034-.222.013-.353-.06l-5.735-3.298-.98 3.282 5.35 3.077c.13.074.222.179.277.312.055.135.062.272.021.41l-.353 1.18c-.04.14-.115.224-.22.258-.106.035-.222.015-.352-.06l-5.352-3.077-1.014 3.396 5.877 3.38c.129.073.22.173.278.3.057.13.065.262.024.4l-.38 1.277c-.042.137-.115.223-.221.256-.107.035-.223.015-.352-.058l-7.852-4.516c-.116-.068-.204-.169-.258-.303M61.2 58.942c.7.403 1.274.537 1.723.407.448-.128.768-.513.958-1.151.192-.638.163-1.229-.085-1.775-.246-.543-.72-1.017-1.418-1.42l-2.433-1.4-1.176 3.94 2.43 1.4zm-6.854 4.213c-.055-.134-.065-.264-.027-.391l3.649-12.21c.04-.138.112-.228.214-.273.102-.043.217-.028.346.046l4.53 2.606c1.435.824 2.45 1.825 3.047 3.005.597 1.178.7 2.423.307 3.738-.273.912-.706 1.56-1.299 1.945-.592.384-1.298.503-2.115.356l1.107 6.24c.013.096.01.175-.009.238-.034.113-.099.183-.197.214-.1.033-.195.021-.288-.034l-1.609-.924c-.187-.107-.318-.239-.396-.392-.076-.154-.133-.33-.17-.527l-.91-5.733-2.397-1.377-1.345 4.501c-.036.126-.108.208-.217.25-.108.04-.226.022-.354-.05l-1.609-.926c-.116-.068-.203-.168-.258-.302zM.215 47.54c-.252-.638-.283-1.333-.089-2.083.04-.16.114-.418.22-.772.11-.36.189-.621.244-.781.246-.72.62-1.18 1.124-1.385.504-.205 1.117-.1 1.837.315.484.28.867.606 1.148.983.282.376.464.764.546 1.157.083.397.083.767-.002 1.114-.016.052-.046.086-.09.096-.046.012-.094.004-.143-.024l-.407-.234c-.054-.032-.092-.071-.116-.119-.025-.047-.034-.111-.03-.19.041-.502-.03-.912-.219-1.231-.186-.32-.486-.598-.9-.835-.943-.543-1.603-.263-1.98.847-.052.153-.127.393-.224.719-.097.326-.169.574-.214.747-.297 1.144.026 1.99.97 2.532.407.235.76.332 1.058.292.298-.04.56-.255.784-.644.035-.06.076-.097.118-.106.04-.011.088 0 .143.031l.408.234c.047.028.086.068.11.12.027.053.032.104.016.158-.118.328-.306.59-.565.789-.26.2-.585.293-.977.283-.392-.01-.829-.154-1.312-.43-.72-.417-1.208-.943-1.458-1.583M8.677 51.804c.343-.133.614-.485.81-1.054.116-.342.19-.573.226-.688.038-.129.103-.365.192-.71.152-.594.14-1.107-.035-1.544-.175-.433-.48-.778-.913-1.028-.434-.249-.827-.306-1.175-.173-.348.134-.617.489-.809 1.06-.055.167-.127.398-.216.694-.087.29-.155.527-.2.704-.158.592-.148 1.103.028 1.536.175.432.484.773.923 1.026.434.25.824.309 1.169.177m-2.843-.992c-.267-.62-.29-1.337-.072-2.153.047-.178.117-.428.214-.747.095-.319.171-.563.227-.728.258-.78.647-1.258 1.168-1.437.521-.178 1.12-.072 1.8.318.677.391 1.155.904 1.429 1.538.274.636.304 1.355.088 2.16-.09.344-.157.592-.202.743-.044.145-.123.389-.238.732-.262.791-.644 1.276-1.145 1.455-.503.179-1.106.066-1.812-.341-.705-.406-1.19-.919-1.457-1.54M11.047 54.343c-.021-.057-.023-.112-.006-.172l1.704-5.702c.02-.064.05-.106.095-.124.042-.02.092-.013.146.018l.359.206c.054.031.09.066.11.105.021.038.04.083.057.135l1.381 6.074 1.32-4.418c.02-.064.053-.105.099-.124.048-.016.097-.012.15.021l.368.21c.059.035.101.081.126.141.023.056.026.118.007.18l-1.702 5.694c-.016.059-.05.098-.098.118-.048.02-.098.016-.153-.015l-.366-.212c-.092-.053-.145-.13-.157-.233l-1.395-6.031-1.31 4.383c-.018.057-.05.097-.096.112-.047.02-.098.013-.15-.02l-.376-.214c-.054-.03-.092-.075-.113-.132M17.523 57.971c-.283-.34-.473-.684-.569-1.029-.098-.346-.109-.664-.035-.956.014-.047.042-.078.085-.094.043-.016.09-.01.138.018l.399.229c.098.056.147.154.151.293-.023.272.053.562.231.873.177.31.481.589.908.836.462.265.834.375 1.114.333.28-.045.466-.22.559-.53.059-.196.052-.391-.022-.583-.072-.193-.205-.4-.396-.624-.191-.222-.485-.529-.883-.921-.38-.369-.671-.696-.874-.984-.205-.287-.336-.572-.398-.86-.06-.283-.044-.587.054-.912.094-.315.256-.55.489-.708.23-.155.516-.221.857-.19.341.027.716.16 1.122.392.424.244.763.534 1.016.867.253.333.424.666.51.997.084.333.095.623.033.875-.016.051-.046.086-.088.101-.043.018-.09.012-.139-.016l-.406-.235c-.044-.025-.08-.063-.11-.113-.029-.05-.043-.11-.042-.179.043-.268-.026-.55-.206-.843-.18-.295-.44-.54-.78-.738-.37-.21-.687-.302-.95-.273-.263.03-.44.195-.53.498-.06.203-.06.399.002.584.062.187.182.39.363.609.177.218.45.507.813.866.42.405.74.754.963 1.045.222.29.365.577.434.858.068.281.055.586-.043.913-.163.545-.485.86-.964.942-.48.083-1.05-.066-1.714-.448-.445-.256-.808-.552-1.092-.893M23.328 61.407c-.023-.06-.027-.116-.011-.175l1.543-5.16-1.571-.904c-.055-.032-.094-.076-.117-.134-.025-.059-.028-.117-.01-.174l.102-.341c.02-.064.051-.105.099-.122.045-.02.097-.011.151.02l3.907 2.248c.06.034.1.08.122.135.022.057.022.118.002.182l-.1.34c-.018.058-.05.096-.098.113-.045.018-.097.012-.15-.02l-1.564-.9-1.542 5.163c-.017.057-.05.093-.1.11-.05.016-.1.009-.154-.022l-.392-.225c-.055-.031-.093-.076-.117-.134M29.999 61.575c.82.471 1.341.338 1.562-.402.221-.738-.08-1.345-.899-1.817l-1.367-.786-.662 2.22 1.366.785zm-3.02 1.933c-.02-.058-.022-.115-.004-.173l1.703-5.702c.019-.064.05-.106.093-.124.046-.02.095-.014.148.018l1.988 1.143c.618.354 1.056.79 1.313 1.3.257.514.296 1.069.119 1.662-.133.442-.344.747-.636.913-.29.166-.637.199-1.04.097l.557 3.053c.007.044.004.082-.003.11-.014.047-.042.077-.086.095-.042.017-.087.01-.13-.013l-.357-.207c-.082-.048-.14-.103-.174-.172-.034-.067-.06-.148-.073-.247l-.53-2.923-1.448-.833-.678 2.27c-.019.058-.052.095-.102.112-.049.016-.1.007-.156-.025l-.389-.224c-.054-.03-.093-.075-.115-.13zM33.119 66.495c-.26-.623-.268-1.345-.022-2.166l1.059-3.545c.02-.063.052-.106.096-.124.043-.02.093-.013.147.017l.39.226c.06.034.102.08.125.138.024.058.027.119.008.182l-1.065 3.563c-.171.57-.175 1.066-.01 1.488.163.422.474.763.929 1.027.45.258.842.318 1.173.178.33-.141.581-.492.75-1.059l1.064-3.563c.02-.062.051-.104.096-.124.043-.018.095-.01.154.024l.392.224c.053.03.093.076.117.135.022.058.025.12.006.182l-1.06 3.545c-.245.821-.616 1.325-1.114 1.513-.497.187-1.096.08-1.798-.323-.699-.403-1.18-.915-1.437-1.538M38.895 69.786c-.252-.639-.282-1.333-.088-2.082.04-.16.113-.419.22-.773.107-.36.188-.622.244-.78.245-.72.62-1.18 1.124-1.386.504-.205 1.116-.1 1.837.315.483.28.867.605 1.148.982.281.377.464.765.545 1.16.082.394.081.765-.003 1.112-.015.054-.044.085-.09.096-.045.012-.092.004-.141-.024l-.407-.234c-.055-.032-.094-.07-.117-.12-.025-.048-.034-.11-.029-.19.04-.5-.031-.91-.219-1.23-.188-.321-.488-.599-.9-.835-.945-.543-1.605-.262-1.98.845-.052.156-.128.395-.226.72-.097.328-.167.576-.213.747-.297 1.147.027 1.99.97 2.533.408.234.761.332 1.058.292.299-.04.56-.255.783-.644.037-.06.079-.095.118-.106.042-.01.09 0 .145.03l.407.236c.048.026.086.068.112.12.026.052.03.104.015.157-.118.327-.307.592-.566.79-.26.198-.585.291-.977.283-.391-.01-.827-.155-1.31-.432-.723-.415-1.209-.943-1.46-1.582M45.278 74.03c-.024-.058-.028-.115-.01-.173l1.542-5.162-1.571-.902c-.054-.032-.094-.078-.116-.134-.027-.06-.029-.118-.011-.176l.102-.34c.019-.064.052-.106.098-.123.046-.017.096-.01.151.02l3.909 2.249c.058.033.1.08.121.136.022.057.022.116.003.18l-.1.341c-.02.058-.052.097-.098.114-.047.018-.097.01-.151-.02l-1.564-.9-1.543 5.161c-.017.058-.05.095-.1.111-.048.016-.1.007-.153-.023l-.392-.224c-.054-.032-.093-.076-.117-.135M48.929 76.131c-.022-.057-.023-.114-.005-.173l1.706-5.71c.018-.06.048-.096.092-.117.044-.018.092-.012.147.019l.407.235c.06.032.102.077.123.132.022.053.025.113.004.176l-1.706 5.71c-.017.058-.05.097-.097.114-.046.017-.097.01-.15-.02l-.408-.234c-.053-.031-.092-.076-.113-.132M54.667 78.254c.346-.132.615-.484.81-1.054.117-.34.191-.572.227-.689.038-.126.102-.364.192-.706.153-.596.14-1.112-.035-1.547-.175-.434-.48-.777-.915-1.026-.434-.25-.825-.307-1.173-.174-.348.134-.617.489-.809 1.06-.056.166-.127.396-.216.694-.088.291-.153.525-.201.704-.157.59-.147 1.104.028 1.535.177.431.485.774.924 1.027.434.25.824.31 1.168.176m-2.842-.989c-.266-.622-.29-1.342-.072-2.156.047-.178.118-.425.214-.747.095-.32.171-.562.227-.728.258-.78.648-1.259 1.169-1.435.52-.178 1.12-.073 1.796.317.68.39 1.158.903 1.432 1.539.273.635.303 1.355.09 2.158-.091.345-.16.592-.204.743-.045.146-.124.392-.237.733-.264.792-.645 1.276-1.146 1.454-.503.18-1.106.066-1.812-.34-.705-.407-1.19-.918-1.457-1.538M57.038 80.794c-.022-.056-.023-.114-.005-.173l1.703-5.7c.019-.065.05-.107.093-.126.046-.02.094-.012.15.019l.357.207c.054.028.09.065.112.104.02.038.038.084.055.134l1.38 6.074 1.321-4.419c.02-.063.052-.104.099-.122.047-.017.097-.011.152.02l.366.212c.058.034.101.08.125.138.024.057.026.12.006.183l-1.7 5.693c-.018.058-.05.097-.098.118-.047.02-.098.016-.151-.016l-.368-.21c-.092-.054-.144-.131-.158-.235l-1.394-6.03-1.31 4.384c-.017.057-.05.095-.096.112-.047.019-.098.01-.15-.02l-.375-.215c-.055-.033-.093-.075-.114-.132" transform="translate(-655 -120) translate(572 120) translate(83) translate(29 6) translate(29.71 18.424)"/>
                        </g>
                    </g>
                </g>
            </g>
        </g>
    </g>
</svg>
