<svg xmlns="http://www.w3.org/2000/svg" width="206" height="48" viewBox="0 0 206 48">
    <g fill="none" fill-rule="evenodd">
        <g>
            <g>
                <path d="M0 0H206V48H0z" transform="translate(-12 -12) translate(12 12)"/>
                <g>
                    <g>
                        <path d="M0 0H136V32H0z" transform="translate(-12 -12) translate(12 12) translate(16 8) translate(36)"/>
                        <path fill="#253E47" fill-rule="nonzero" d="M16.88 22.364c.456 0 .804-.126 1.044-.379.24-.252.36-.607.36-1.064V10.767c0-.961-.468-1.442-1.404-1.442-.924 0-1.386.48-1.386 1.442v3.824H9.59v-3.824c0-.961-.462-1.442-1.386-1.442-.936 0-1.404.48-1.404 1.442v10.154c0 .457.12.812.36 1.064.24.253.588.379 1.044.379.924 0 1.386-.481 1.386-1.443v-4.004h5.904v4.004c0 .457.12.812.36 1.064.24.253.582.379 1.026.379zm6.714.036c.612 0 1.131-.138 1.557-.415.426-.276.729-.65.909-1.118v.108c0 .926.426 1.389 1.278 1.389.84 0 1.26-.463 1.26-1.389v-4.004c0-1.298-.336-2.257-1.008-2.876-.672-.62-1.692-.929-3.06-.929-.42 0-.879.045-1.377.135-.498.09-1.029.244-1.593.46-.336.12-.561.313-.675.577-.114.265-.135.526-.063.785.072.258.222.45.45.577.228.126.51.117.846-.027.444-.18.858-.31 1.242-.388.384-.078.738-.117 1.062-.117.576 0 .984.111 1.224.334.24.222.36.598.36 1.127v.306h-.648c-1.248 0-2.25.082-3.006.244-.756.162-1.302.436-1.638.82-.336.385-.504.896-.504 1.533 0 .541.147 1.028.441 1.461.294.433.693.776 1.197 1.028.504.253 1.086.379 1.746.379zm.612-1.822c-.444 0-.783-.108-1.017-.324-.234-.217-.351-.493-.351-.83 0-.397.192-.676.576-.838.384-.163 1.038-.244 1.962-.244h.63v.36c0 .554-.174 1.005-.522 1.353-.348.35-.774.523-1.278.523zm13.626 1.786c.336 0 .612-.087.828-.262.216-.174.339-.396.369-.667.03-.27-.069-.55-.297-.838l-2.61-3.012 2.304-2.58c.24-.264.36-.537.36-.82 0-.282-.102-.517-.306-.703-.204-.187-.492-.28-.864-.28-.384 0-.684.075-.9.226-.216.15-.456.375-.72.676l-2.61 2.904h-.036v-6.295c0-.925-.45-1.388-1.35-1.388-.912 0-1.368.463-1.368 1.388v10.262c0 .926.456 1.389 1.368 1.389.9 0 1.35-.463 1.35-1.389v-2.597h.036l2.718 3.03c.264.325.513.565.747.721.234.157.561.235.981.235zm10.044 0c.336 0 .612-.087.828-.262.216-.174.339-.396.369-.667.03-.27-.069-.55-.297-.838l-2.61-3.012 2.304-2.58c.24-.264.36-.537.36-.82 0-.282-.102-.517-.306-.703-.204-.187-.492-.28-.864-.28-.384 0-.684.075-.9.226-.216.15-.456.375-.72.676l-2.61 2.904h-.036v-6.295c0-.925-.45-1.388-1.35-1.388-.912 0-1.368.463-1.368 1.388v10.262c0 .926.456 1.389 1.368 1.389.9 0 1.35-.463 1.35-1.389v-2.597h.036l2.718 3.03c.264.325.513.565.747.721.234.157.561.235.981.235zm5.832.036c.612 0 1.131-.138 1.557-.415.426-.276.729-.65.909-1.118v.108c0 .926.426 1.389 1.278 1.389.84 0 1.26-.463 1.26-1.389v-4.004c0-1.298-.336-2.257-1.008-2.876-.672-.62-1.692-.929-3.06-.929-.42 0-.879.045-1.377.135-.498.09-1.029.244-1.593.46-.336.12-.561.313-.675.577-.114.265-.135.526-.063.785.072.258.222.45.45.577.228.126.51.117.846-.027.444-.18.858-.31 1.242-.388.384-.078.738-.117 1.062-.117.576 0 .984.111 1.224.334.24.222.36.598.36 1.127v.306h-.648c-1.248 0-2.25.082-3.006.244-.756.162-1.302.436-1.638.82-.336.385-.504.896-.504 1.533 0 .541.147 1.028.441 1.461.294.433.693.776 1.197 1.028.504.253 1.086.379 1.746.379zm.612-1.822c-.444 0-.783-.108-1.017-.324-.234-.217-.351-.493-.351-.83 0-.397.192-.676.576-.838.384-.163 1.038-.244 1.962-.244h.63v.36c0 .554-.174 1.005-.522 1.353-.348.35-.774.523-1.278.523zm13.104 1.786c.912 0 1.368-.493 1.368-1.479v-3.932h4.428c.744 0 1.116-.366 1.116-1.1 0-.721-.372-1.082-1.116-1.082h-4.428V11.67h4.824c.732 0 1.098-.367 1.098-1.1 0-.721-.366-1.082-1.098-1.082H67.46c-.972 0-1.458.487-1.458 1.46v9.938c0 .481.123.848.369 1.1.246.253.597.379 1.053.379zm9.972-10.64c1.032 0 1.548-.452 1.548-1.353 0-.914-.516-1.371-1.548-1.371-.504 0-.891.117-1.161.352-.27.234-.405.574-.405 1.019 0 .432.135.766.405 1 .27.235.657.352 1.161.352zm0 10.622c.444 0 .78-.13 1.008-.388.228-.258.342-.622.342-1.091v-6.168c0-.48-.117-.85-.351-1.11-.234-.258-.567-.387-.999-.387-.912 0-1.368.5-1.368 1.497v6.168c0 .469.117.833.351 1.091.234.259.573.388 1.017.388zm10.764.018c.912 0 1.368-.463 1.368-1.389v-4.094c0-1.262-.258-2.197-.774-2.804-.516-.607-1.296-.91-2.34-.91-.624 0-1.188.125-1.692.378-.504.252-.906.619-1.206 1.1v-.072c0-.914-.444-1.37-1.332-1.37-.888 0-1.332.456-1.332 1.37v6.402c0 .926.456 1.389 1.368 1.389.9 0 1.35-.463 1.35-1.389V17.26c0-.601.171-1.082.513-1.443.342-.36.801-.54 1.377-.54.444 0 .78.134 1.008.405.228.27.342.712.342 1.326v3.967c0 .445.117.788.351 1.028.234.24.567.36.999.36zm6.39.036c.612 0 1.131-.138 1.557-.415.426-.276.729-.65.909-1.118v.108c0 .926.426 1.389 1.278 1.389.84 0 1.26-.463 1.26-1.389v-4.004c0-1.298-.336-2.257-1.008-2.876-.672-.62-1.692-.929-3.06-.929-.42 0-.879.045-1.377.135-.498.09-1.029.244-1.593.46-.336.12-.561.313-.675.577-.114.265-.135.526-.063.785.072.258.222.45.45.577.228.126.51.117.846-.027.444-.18.858-.31 1.242-.388.384-.078.738-.117 1.062-.117.576 0 .984.111 1.224.334.24.222.36.598.36 1.127v.306h-.648c-1.248 0-2.25.082-3.006.244-.756.162-1.302.436-1.638.82-.336.385-.504.896-.504 1.533 0 .541.147 1.028.441 1.461.294.433.693.776 1.197 1.028.504.253 1.086.379 1.746.379zm.612-1.822c-.444 0-.783-.108-1.017-.324-.234-.217-.351-.493-.351-.83 0-.397.192-.676.576-.838.384-.163 1.038-.244 1.962-.244h.63v.36c0 .554-.174 1.005-.522 1.353-.348.35-.774.523-1.278.523zm13.734 1.786c.912 0 1.368-.463 1.368-1.389v-4.094c0-1.262-.258-2.197-.774-2.804-.516-.607-1.296-.91-2.34-.91-.624 0-1.188.125-1.692.378-.504.252-.906.619-1.206 1.1v-.072c0-.914-.444-1.37-1.332-1.37-.888 0-1.332.456-1.332 1.37v6.402c0 .926.456 1.389 1.368 1.389.9 0 1.35-.463 1.35-1.389V17.26c0-.601.171-1.082.513-1.443.342-.36.801-.54 1.377-.54.444 0 .78.134 1.008.405.228.27.342.712.342 1.326v3.967c0 .445.117.788.351 1.028.234.24.567.36.999.36zm7.704.036c.372 0 .762-.045 1.17-.135.408-.09.816-.238 1.224-.442.288-.144.468-.349.54-.613.072-.265.066-.52-.018-.767-.084-.246-.237-.43-.459-.55-.222-.12-.483-.102-.783.054-.24.132-.48.226-.72.28-.24.054-.468.08-.684.08-.708 0-1.257-.224-1.647-.675-.39-.451-.585-1.073-.585-1.867 0-.806.195-1.428.585-1.867.39-.438.939-.658 1.647-.658.456 0 .924.126 1.404.379.3.156.561.177.783.063.222-.114.384-.298.486-.55.102-.253.117-.508.045-.767-.072-.258-.258-.46-.558-.604-.396-.216-.807-.37-1.233-.46-.426-.09-.825-.135-1.197-.135-.96 0-1.797.183-2.511.55-.714.367-1.263.893-1.647 1.578-.384.686-.576 1.503-.576 2.453s.192 1.773.576 2.47c.384.698.933 1.236 1.647 1.615s1.551.568 2.511.568zm8.892 0c.468 0 .957-.057 1.467-.171.51-.115.975-.286 1.395-.514.312-.169.513-.382.603-.64.09-.26.09-.509 0-.749s-.255-.412-.495-.514c-.24-.102-.534-.07-.882.1-.336.167-.687.285-1.053.35-.366.067-.693.1-.981.1-.732 0-1.305-.16-1.719-.478-.414-.318-.669-.826-.765-1.524h5.292c.564 0 .846-.228.846-.685 0-1.383-.378-2.48-1.134-3.292-.756-.811-1.776-1.217-3.06-1.217-.888 0-1.671.195-2.349.586-.678.391-1.212.932-1.602 1.623-.39.692-.585 1.494-.585 2.408 0 .938.201 1.752.603 2.444.402.691.978 1.226 1.728 1.605s1.647.568 2.691.568zm1.458-5.447h-3.888c.084-.625.303-1.112.657-1.46.354-.35.819-.523 1.395-.523 1.152 0 1.764.66 1.836 1.983z" transform="translate(-12 -12) translate(12 12) translate(16 8) translate(36)"/>
                    </g>
                    <g>
                        <path fill="#FFF" fill-rule="nonzero" d="M16 0c8.837 0 16 7.163 16 16s-7.163 16-16 16S0 24.837 0 16 7.163 0 16 0z" transform="translate(-12 -12) translate(12 12) translate(16 8)"/>
                        <path fill="#2DA287" d="M28.306 12.16c-.016.054-.037.106-.063.157-.014.067-.04.155-.078.26l-.089.231-.115.273-.201.441-.24.498-.27.54-.295.567-.31.58-.318.58-.319.565-.312.535-.297.492-.275.433-.106.16-.194.278c-.091.124-.172.225-.24.298l-.074.073-1.046.888 5.123 2.566c-2.479 4.355-7.164 7.292-12.536 7.292-5.446 0-10.186-3.018-12.637-7.472l5.016-2.391-.485-.395-.589-.488c-.095-.082-.223-.244-.374-.466l-.192-.294-.247-.405-.131-.224-.273-.483-.283-.52-.287-.543-.284-.555-.275-.554-.26-.54-.24-.516-.212-.476-.179-.426-.14-.363-.068-.2-.026-.087c-.036-.05-.067-.1-.094-.154.918.62 2.737 1.23 5.12 1.657l.731.123c.374.059.76.113 1.156.162l.807.09c.82.085 1.68.147 2.572.183l.494.017.499.012.773.007.774-.007.375-.008.497-.016c1.16-.044 2.267-.132 3.303-.255l.764-.098c2.874-.4 5.12-1.065 6.265-1.757l.162-.102.141-.1.082-.062zM9.279 15.522l.312 1.128c.207.664.444 1.295.726 1.936l.22.483.513 1.01c.06.12.141.225.243.32l.108.093.433.321c.74.498 1.56.853 2.53 1.116l.371.094 1.023.2.194.02h.15l.194-.02 1.053-.206c.98-.235 1.827-.56 2.61-1.037l.29-.187.414-.308c.106-.08.197-.176.271-.288l.07-.116.526-1.037c.296-.628.55-1.252.777-1.916l.165-.507.29-1.052c-.629 1.195-1.876 2.042-3.382 2.188l-.207.016-.221-.025c-1.12-.156-2.104-.753-2.728-1.624l-.12-.177-.065-.109-.126.195c-.611.877-1.581 1.49-2.727 1.687l-.231.034-.21.02-.201-.016c-1.451-.156-2.672-1.026-3.265-2.236zM16.021 3.2c.916 0 2.126.72 3.914 2.145l.273.219.78.643 2.08 1.76 1.494.395.7.196.399.117.323.1.428.143.254.092.225.088c.995.402 1.49.832 1.49 1.401l-.009.117-.023.115-.083.067-.141.106c-1.544 1.092-5.584 2.151-10.558 2.345l-.469.016-.376.009-.776.007-.776-.007-.501-.013c-5.145-.157-9.345-1.245-10.915-2.366-.061-.129-.092-.26-.092-.396 0-.629.53-1.137 1.682-1.587-.184-.193-.269-.37-.492-.516.348-.398.991-.726 1.433-.788.527-.088.933-.029 1.3.043l.359.07c.117.022.234.04.352.05-.458-.197-1.341-1.054-1.652-1.444-.371-.834-.106-1.552.12-1.95l.048-.08.08-.123.098-.13.059-.007.173-.006.25.004c.37.016.846.083 1.036.294.44.624.598 1.265.703 1.798l.065.338c.052.266.103.49.193.65.04-.134.069-.264.096-.393l.078-.385c.069-.322.16-.654.376-1.043.387-.7 1.735-1.659 2.69-1.468.012.097.032.18.054.255l.063.215c.037.14.054.283-.002.49l.479-.35C14.46 3.617 15.328 3.2 16.02 3.2z" transform="translate(-12 -12) translate(12 12) translate(16 8)"/>
                    </g>
                </g>
            </g>
        </g>
    </g>
</svg>
