<svg width="183" height="52" viewBox="0 0 183 52" fill="none" xmlns="http://www.w3.org/2000/svg">
<path d="M64.0238 30.3639C64.4843 30.3639 64.8358 30.2377 65.0782 29.9852C65.3205 29.7327 65.4417 29.378 65.4417 28.9211V18.7674C65.4417 17.8056 64.9691 17.3246 64.0238 17.3246C63.0907 17.3246 62.6241 17.8056 62.6241 18.7674V22.5908H56.6618V18.7674C56.6618 17.8056 56.1952 17.3246 55.2621 17.3246C54.3169 17.3246 53.8442 17.8056 53.8442 18.7674V28.9211C53.8442 29.378 53.9654 29.7327 54.2078 29.9852C54.4502 30.2377 54.8016 30.3639 55.2621 30.3639C56.1952 30.3639 56.6618 29.883 56.6618 28.9211V24.9174H62.6241V28.9211C62.6241 29.378 62.7453 29.7327 62.9877 29.9852C63.2301 30.2377 63.5755 30.3639 64.0238 30.3639ZM70.8042 30.4C71.4222 30.4 71.9464 30.2617 72.3766 29.9852C72.8068 29.7087 73.1128 29.3359 73.2946 28.867V28.9752C73.2946 29.901 73.7248 30.3639 74.5852 30.3639C75.4335 30.3639 75.8576 29.901 75.8576 28.9752V24.9715C75.8576 23.6729 75.5183 22.7141 74.8397 22.0949C74.161 21.4757 73.131 21.1661 71.7494 21.1661C71.3253 21.1661 70.8617 21.2112 70.3588 21.3013C69.8559 21.3915 69.3197 21.5448 68.7501 21.7612C68.4108 21.8815 68.1835 22.0738 68.0684 22.3384C67.9533 22.6029 67.9321 22.8644 68.0048 23.1229C68.0775 23.3814 68.229 23.5738 68.4592 23.7C68.6895 23.8262 68.9743 23.8172 69.3136 23.6729C69.762 23.4926 70.1801 23.3633 70.5679 23.2852C70.9557 23.207 71.3132 23.168 71.6404 23.168C72.2221 23.168 72.6341 23.2792 72.8765 23.5016C73.1188 23.724 73.24 24.0998 73.24 24.6288V24.9354H72.5856C71.3253 24.9354 70.3134 25.0166 69.5499 25.1789C68.7864 25.3412 68.235 25.6147 67.8957 25.9995C67.5564 26.3842 67.3867 26.8952 67.3867 27.5324C67.3867 28.0735 67.5352 28.5604 67.8321 28.9933C68.129 29.4261 68.532 29.7688 69.0409 30.0213C69.5499 30.2738 70.1377 30.4 70.8042 30.4ZM71.4222 28.5785C70.9738 28.5785 70.6315 28.4703 70.3952 28.2538C70.1589 28.0374 70.0407 27.7609 70.0407 27.4242C70.0407 27.0275 70.2346 26.7479 70.6224 26.5856C71.0102 26.4233 71.6707 26.3421 72.6038 26.3421H73.24V26.7028C73.24 27.2559 73.0643 27.7068 72.7129 28.0554C72.3614 28.4041 71.9312 28.5785 71.4222 28.5785ZM85.1829 30.3639C85.5222 30.3639 85.8009 30.2768 86.0191 30.1024C86.2372 29.9281 86.3614 29.7057 86.3917 29.4351C86.422 29.1646 86.322 28.8851 86.0918 28.5965L83.456 25.5847L85.7827 23.0057C86.0251 22.7411 86.1463 22.4676 86.1463 22.1851C86.1463 21.9025 86.0433 21.6681 85.8373 21.4817C85.6313 21.2953 85.3404 21.2022 84.9647 21.2022C84.5769 21.2022 84.274 21.2773 84.0558 21.4276C83.8377 21.5779 83.5953 21.8033 83.3287 22.1039L80.6929 25.0075H80.6566V18.7133C80.6566 17.7875 80.2021 17.3246 79.2932 17.3246C78.3722 17.3246 77.9117 17.7875 77.9117 18.7133V28.9752C77.9117 29.901 78.3722 30.3639 79.2932 30.3639C80.2021 30.3639 80.6566 29.901 80.6566 28.9752V26.3782H80.6929L83.4378 29.4081C83.7044 29.7327 83.9559 29.9732 84.1922 30.1295C84.4285 30.2858 84.7587 30.3639 85.1829 30.3639ZM95.3261 30.3639C95.6654 30.3639 95.9442 30.2768 96.1623 30.1024C96.3804 29.9281 96.5047 29.7057 96.5349 29.4351C96.5652 29.1646 96.4653 28.8851 96.235 28.5965L93.5992 25.5847L95.926 23.0057C96.1684 22.7411 96.2895 22.4676 96.2895 22.1851C96.2895 21.9025 96.1865 21.6681 95.9805 21.4817C95.7745 21.2953 95.4837 21.2022 95.108 21.2022C94.7202 21.2022 94.4172 21.2773 94.1991 21.4276C93.981 21.5779 93.7386 21.8033 93.472 22.1039L90.8362 25.0075H90.7998V18.7133C90.7998 17.7875 90.3454 17.3246 89.4365 17.3246C88.5155 17.3246 88.055 17.7875 88.055 18.7133V28.9752C88.055 29.901 88.5155 30.3639 89.4365 30.3639C90.3454 30.3639 90.7998 29.901 90.7998 28.9752V26.3782H90.8362L93.581 29.4081C93.8477 29.7327 94.0991 29.9732 94.3354 30.1295C94.5717 30.2858 94.902 30.3639 95.3261 30.3639ZM101.216 30.4C101.834 30.4 102.358 30.2617 102.788 29.9852C103.218 29.7087 103.524 29.3359 103.706 28.867V28.9752C103.706 29.901 104.136 30.3639 104.997 30.3639C105.845 30.3639 106.269 29.901 106.269 28.9752V24.9715C106.269 23.6729 105.93 22.7141 105.251 22.0949C104.573 21.4757 103.543 21.1661 102.161 21.1661C101.737 21.1661 101.273 21.2112 100.77 21.3013C100.267 21.3915 99.7312 21.5448 99.1616 21.7612C98.8223 21.8815 98.5951 22.0738 98.48 22.3384C98.3648 22.6029 98.3436 22.8644 98.4164 23.1229C98.4891 23.3814 98.6405 23.5738 98.8708 23.7C99.1011 23.8262 99.3858 23.8172 99.7252 23.6729C100.174 23.4926 100.592 23.3633 100.979 23.2852C101.367 23.207 101.725 23.168 102.052 23.168C102.634 23.168 103.046 23.2792 103.288 23.5016C103.53 23.724 103.652 24.0998 103.652 24.6288V24.9354H102.997C101.737 24.9354 100.725 25.0166 99.9615 25.1789C99.198 25.3412 98.6466 25.6147 98.3073 25.9995C97.968 26.3842 97.7983 26.8952 97.7983 27.5324C97.7983 28.0735 97.9468 28.5604 98.2437 28.9933C98.5406 29.4261 98.9435 29.7688 99.4525 30.0213C99.9615 30.2738 100.549 30.4 101.216 30.4ZM101.834 28.5785C101.385 28.5785 101.043 28.4703 100.807 28.2538C100.57 28.0374 100.452 27.7609 100.452 27.4242C100.452 27.0275 100.646 26.7479 101.034 26.5856C101.422 26.4233 102.082 26.3421 103.015 26.3421H103.652V26.7028C103.652 27.2559 103.476 27.7068 103.124 28.0554C102.773 28.4041 102.343 28.5785 101.834 28.5785ZM115.067 30.3639C115.988 30.3639 116.449 29.871 116.449 28.8851V24.9534H120.921C121.672 24.9534 122.048 24.5867 122.048 23.8533C122.048 23.1319 121.672 22.7712 120.921 22.7712H116.449V19.6692H121.32C122.06 19.6692 122.429 19.3025 122.429 18.569C122.429 17.8476 122.06 17.4869 121.32 17.4869H115.104C114.122 17.4869 113.631 17.9739 113.631 18.9478V28.8851C113.631 29.366 113.755 29.7327 114.004 29.9852C114.252 30.2377 114.607 30.3639 115.067 30.3639ZM125.138 19.7233C126.18 19.7233 126.701 19.2724 126.701 18.3707C126.701 17.4569 126.18 17 125.138 17C124.629 17 124.238 17.1172 123.965 17.3517C123.693 17.5861 123.556 17.9258 123.556 18.3707C123.556 18.8035 123.693 19.1371 123.965 19.3716C124.238 19.6061 124.629 19.7233 125.138 19.7233ZM125.138 30.3459C125.586 30.3459 125.926 30.2166 126.156 29.9581C126.386 29.6996 126.501 29.3359 126.501 28.867V22.6991C126.501 22.2181 126.383 21.8484 126.147 21.5899C125.91 21.3314 125.574 21.2022 125.138 21.2022C124.217 21.2022 123.756 21.7011 123.756 22.6991V28.867C123.756 29.3359 123.874 29.6996 124.111 29.9581C124.347 30.2166 124.689 30.3459 125.138 30.3459ZM136.008 30.3639C136.929 30.3639 137.39 29.901 137.39 28.9752V24.8813C137.39 23.6188 137.129 22.684 136.608 22.0769C136.087 21.4697 135.299 21.1661 134.245 21.1661C133.615 21.1661 133.045 21.2923 132.536 21.5448C132.027 21.7973 131.621 22.164 131.318 22.645V22.5728C131.318 21.659 130.87 21.2022 129.973 21.2022C129.076 21.2022 128.628 21.659 128.628 22.5728V28.9752C128.628 29.901 129.088 30.3639 130.009 30.3639C130.918 30.3639 131.373 29.901 131.373 28.9752V25.26C131.373 24.6589 131.546 24.1779 131.891 23.8172C132.236 23.4565 132.7 23.2762 133.281 23.2762C133.73 23.2762 134.069 23.4114 134.299 23.682C134.53 23.9525 134.645 24.3943 134.645 25.0075V28.9752C134.645 29.4201 134.763 29.7628 134.999 30.0032C135.236 30.2437 135.572 30.3639 136.008 30.3639ZM142.461 30.4C143.079 30.4 143.603 30.2617 144.034 29.9852C144.464 29.7087 144.77 29.3359 144.952 28.867V28.9752C144.952 29.901 145.382 30.3639 146.242 30.3639C147.091 30.3639 147.515 29.901 147.515 28.9752V24.9715C147.515 23.6729 147.175 22.7141 146.497 22.0949C145.818 21.4757 144.788 21.1661 143.407 21.1661C142.982 21.1661 142.519 21.2112 142.016 21.3013C141.513 21.3915 140.977 21.5448 140.407 21.7612C140.068 21.8815 139.841 22.0738 139.726 22.3384C139.61 22.6029 139.589 22.8644 139.662 23.1229C139.735 23.3814 139.886 23.5738 140.116 23.7C140.347 23.8262 140.631 23.8172 140.971 23.6729C141.419 23.4926 141.837 23.3633 142.225 23.2852C142.613 23.207 142.97 23.168 143.298 23.168C143.879 23.168 144.291 23.2792 144.534 23.5016C144.776 23.724 144.897 24.0998 144.897 24.6288V24.9354H144.243C142.982 24.9354 141.971 25.0166 141.207 25.1789C140.444 25.3412 139.892 25.6147 139.553 25.9995C139.214 26.3842 139.044 26.8952 139.044 27.5324C139.044 28.0735 139.192 28.5604 139.489 28.9933C139.786 29.4261 140.189 29.7688 140.698 30.0213C141.207 30.2738 141.795 30.4 142.461 30.4ZM143.079 28.5785C142.631 28.5785 142.289 28.4703 142.052 28.2538C141.816 28.0374 141.698 27.7609 141.698 27.4242C141.698 27.0275 141.892 26.7479 142.28 26.5856C142.667 26.4233 143.328 26.3421 144.261 26.3421H144.897V26.7028C144.897 27.2559 144.721 27.7068 144.37 28.0554C144.019 28.4041 143.588 28.5785 143.079 28.5785ZM156.949 30.3639C157.87 30.3639 158.331 29.901 158.331 28.9752V24.8813C158.331 23.6188 158.07 22.684 157.549 22.0769C157.028 21.4697 156.24 21.1661 155.186 21.1661C154.556 21.1661 153.986 21.2923 153.477 21.5448C152.968 21.7973 152.562 22.164 152.259 22.645V22.5728C152.259 21.659 151.811 21.2022 150.914 21.2022C150.017 21.2022 149.569 21.659 149.569 22.5728V28.9752C149.569 29.901 150.029 30.3639 150.95 30.3639C151.859 30.3639 152.314 29.901 152.314 28.9752V25.26C152.314 24.6589 152.486 24.1779 152.832 23.8172C153.177 23.4565 153.641 23.2762 154.222 23.2762C154.671 23.2762 155.01 23.4114 155.24 23.682C155.471 23.9525 155.586 24.3943 155.586 25.0075V28.9752C155.586 29.4201 155.704 29.7628 155.94 30.0032C156.177 30.2437 156.513 30.3639 156.949 30.3639ZM164.729 30.4C165.105 30.4 165.499 30.3549 165.911 30.2647C166.323 30.1746 166.735 30.0273 167.147 29.8229C167.438 29.6786 167.619 29.4742 167.692 29.2097C167.765 28.9452 167.759 28.6897 167.674 28.4432C167.589 28.1967 167.435 28.0134 167.21 27.8931C166.986 27.7729 166.723 27.7909 166.42 27.9472C166.177 28.0795 165.935 28.1727 165.693 28.2268C165.45 28.2809 165.22 28.3079 165.002 28.3079C164.287 28.3079 163.732 28.0825 163.339 27.6316C162.945 27.1808 162.748 26.5585 162.748 25.765C162.748 24.9594 162.945 24.3372 163.339 23.8984C163.732 23.4595 164.287 23.2401 165.002 23.2401C165.462 23.2401 165.935 23.3664 166.42 23.6188C166.723 23.7751 166.986 23.7962 167.21 23.682C167.435 23.5677 167.598 23.3844 167.701 23.1319C167.804 22.8794 167.819 22.6239 167.747 22.3654C167.674 22.1069 167.486 21.9055 167.183 21.7612C166.783 21.5448 166.368 21.3915 165.938 21.3013C165.508 21.2112 165.105 21.1661 164.729 21.1661C163.76 21.1661 162.914 21.3494 162.193 21.7162C161.472 22.0829 160.918 22.6089 160.53 23.2942C160.142 23.9795 159.948 24.7971 159.948 25.747C159.948 26.6968 160.142 27.5204 160.53 28.2178C160.918 28.9151 161.472 29.4532 162.193 29.8319C162.914 30.2106 163.76 30.4 164.729 30.4ZM173.709 30.4C174.182 30.4 174.676 30.3429 175.191 30.2287C175.706 30.1144 176.175 29.9431 176.599 29.7147C176.914 29.5463 177.117 29.3329 177.208 29.0744C177.299 28.8159 177.299 28.5664 177.208 28.326C177.117 28.0855 176.951 27.9142 176.708 27.812C176.466 27.7098 176.169 27.7428 175.818 27.9112C175.478 28.0795 175.124 28.1967 174.754 28.2629C174.385 28.329 174.054 28.362 173.764 28.362C173.024 28.362 172.446 28.2027 172.028 27.8841C171.61 27.5655 171.352 27.0575 171.255 26.3602H176.599C177.169 26.3602 177.454 26.1317 177.454 25.6748C177.454 24.2921 177.072 23.195 176.308 22.3834C175.545 21.5719 174.515 21.1661 173.218 21.1661C172.321 21.1661 171.531 21.3615 170.846 21.7522C170.161 22.143 169.622 22.684 169.228 23.3754C168.834 24.0667 168.637 24.8693 168.637 25.783C168.637 26.7209 168.84 27.5354 169.246 28.2268C169.652 28.9181 170.234 29.4532 170.991 29.8319C171.749 30.2106 172.655 30.4 173.709 30.4ZM175.181 24.9534H171.255C171.34 24.3282 171.561 23.8413 171.919 23.4926C172.276 23.1439 172.746 22.9696 173.327 22.9696C174.491 22.9696 175.109 23.6309 175.181 24.9534Z" fill="#2DA287"/>
<g filter="url(#filter0_d_1884_4838)">
<ellipse cx="25.8473" cy="24" rx="15.8473" ry="16" fill="white"/>
</g>
<path fill-rule="evenodd" clip-rule="evenodd" d="M38.0357 20.1609C38.0204 20.2139 37.9995 20.2662 37.9732 20.3174C37.9594 20.3844 37.9332 20.4718 37.8961 20.5765L37.808 20.8082L37.6936 21.0812L37.4948 21.5226L37.2575 22.0203L36.9895 22.5599L36.6981 23.1272L36.391 23.7079L36.0758 24.2877L35.76 24.8523L35.4511 25.3874L35.1568 25.8788L34.8845 26.3122L34.7794 26.4722L34.5868 26.7505C34.4969 26.8746 34.4172 26.9753 34.3501 27.0479L34.2758 27.1211L33.2398 28.0095L38.314 30.5754C35.8591 34.93 31.2183 37.8669 25.8975 37.8669C20.5037 37.8669 15.8086 34.8487 13.3811 30.3952L18.3499 28.0037L17.8691 27.6088L17.2859 27.1212C17.1919 27.0394 17.065 26.8773 16.9151 26.6553L16.7248 26.3614L16.4801 25.9564L16.3504 25.7324L16.0799 25.2493L15.7998 24.7297L15.5161 24.1862L15.2349 23.6312L14.9624 23.077L14.7045 22.5363L14.4674 22.0214L14.2571 21.5449L14.0797 21.1191L13.9413 20.7565L13.8736 20.5561C13.8641 20.5257 13.8555 20.4968 13.8479 20.4696C13.812 20.4193 13.7812 20.3684 13.7545 20.3147C14.6638 20.935 16.466 21.5445 18.8257 21.9726L19.5501 22.0954C19.9202 22.1539 20.3022 22.2079 20.6948 22.2569L21.494 22.348C22.3067 22.432 23.159 22.4943 24.0418 22.5303L24.5304 22.5474L25.0249 22.559L25.7911 22.5658L26.5574 22.559L26.9288 22.5508L27.4215 22.535C28.5692 22.4914 29.6662 22.4033 30.6928 22.2807L31.4493 22.1824C34.2962 21.7819 36.5209 21.1169 37.6549 20.4256L37.8152 20.3229L37.9548 20.2231L38.0357 20.1609ZM19.1908 23.5212L19.4996 24.6491C19.7048 25.3133 19.9392 25.9442 20.2183 26.585L20.4362 27.0681L20.9447 28.0778C21.0046 28.1974 21.0843 28.3033 21.1848 28.3991L21.2923 28.4916L21.7211 28.8125C22.4538 29.3102 23.2656 29.665 24.227 29.928L24.5947 30.0225L25.608 30.223L25.7997 30.2418H25.9488L26.1402 30.2231L27.1836 30.0161C28.1547 29.7815 28.9934 29.4568 29.7685 28.9789L30.0563 28.7923L30.4654 28.4847C30.5704 28.4038 30.6606 28.3077 30.7344 28.1963L30.8028 28.0799L31.3244 27.0433C31.6172 26.4148 31.8691 25.7909 32.0937 25.1269L32.2573 24.6206L32.545 23.5684C31.9219 24.763 30.6867 25.6105 29.1947 25.7565L28.9897 25.772L28.7708 25.7474C27.6626 25.5915 26.6872 24.9947 26.0693 24.1235L25.9506 23.9457L25.8863 23.8372L25.7615 24.0322C25.1558 24.9093 24.1947 25.5219 23.0603 25.7189L22.8311 25.7527L22.6224 25.7734L22.4241 25.7567C20.9866 25.6009 19.7776 24.731 19.1908 23.5212ZM25.8679 11.2002C26.7753 11.2002 27.9739 11.9209 29.7451 13.3451L30.0151 13.564L30.7879 14.2076L32.8475 15.9677L34.3278 16.3626L35.0204 16.5577L35.4157 16.6751L35.7362 16.7754L36.1597 16.9181L36.4118 17.0106L36.6342 17.0983C37.6202 17.5006 38.1093 17.9303 38.1093 18.4993L38.1014 18.6161L38.0781 18.7311L37.9967 18.7982L37.8566 18.9039C36.3273 19.9966 32.3263 21.0556 27.3994 21.2495L26.9349 21.2651L26.5623 21.2738L25.7935 21.281L25.0248 21.2738L24.5288 21.2615C19.4327 21.1038 15.2732 20.0161 13.7178 18.8953C13.6576 18.7664 13.6265 18.6343 13.6265 18.4993C13.6265 17.8703 14.1511 17.3627 15.2925 16.9125C15.1106 16.7189 15.0265 16.5416 14.8052 16.396C15.1504 15.9979 15.7873 15.6701 16.2253 15.608C16.7473 15.5207 17.1486 15.5794 17.513 15.6507L17.8681 15.7212C17.9844 15.7428 18.0997 15.7609 18.217 15.7705C17.7633 15.5746 16.8884 14.717 16.5801 14.3273C16.2131 13.493 16.4756 12.7752 16.6994 12.377L16.7465 12.2967L16.8266 12.174L16.9231 12.0438L16.9816 12.0369L17.153 12.031L17.4011 12.0352C17.7667 12.0516 18.239 12.1185 18.4265 12.3295C18.8627 12.9528 19.019 13.594 19.1231 14.1271L19.1873 14.465C19.2386 14.731 19.2893 14.955 19.3786 15.1153C19.4173 14.9809 19.4466 14.8508 19.4732 14.7221L19.5506 14.3374C19.6188 14.0153 19.7094 13.6832 19.9228 13.2942C20.3069 12.5941 21.6419 11.6352 22.5876 11.8261C22.5993 11.9231 22.6193 12.0057 22.6409 12.0815L22.7039 12.2961C22.7404 12.4358 22.7571 12.5789 22.7013 12.7867L23.1757 12.4368C24.3228 11.6159 25.1813 11.2002 25.8679 11.2002Z" fill="#2DA287"/>
<defs>
<filter id="filter0_d_1884_4838" x="0" y="0" width="51.6946" height="52" filterUnits="userSpaceOnUse" color-interpolation-filters="sRGB">
<feFlood flood-opacity="0" result="BackgroundImageFix"/>
<feColorMatrix in="SourceAlpha" type="matrix" values="0 0 0 0 0 0 0 0 0 0 0 0 0 0 0 0 0 0 127 0" result="hardAlpha"/>
<feMorphology radius="4" operator="erode" in="SourceAlpha" result="effect1_dropShadow_1884_4838"/>
<feOffset dy="2"/>
<feGaussianBlur stdDeviation="7"/>
<feComposite in2="hardAlpha" operator="out"/>
<feColorMatrix type="matrix" values="0 0 0 0 0.0745098 0 0 0 0 0.427451 0 0 0 0 0.415686 0 0 0 0.3 0"/>
<feBlend mode="normal" in2="BackgroundImageFix" result="effect1_dropShadow_1884_4838"/>
<feBlend mode="normal" in="SourceGraphic" in2="effect1_dropShadow_1884_4838" result="shape"/>
</filter>
</defs>
</svg>
