<svg xmlns="http://www.w3.org/2000/svg" width="24" height="24" viewBox="0 0 24 24">
    <g fill="none" fill-rule="evenodd">
        <g>
            <g>
                <g transform="translate(-758.000000, -308.000000) translate(730.000000, 160.000000) translate(28.000000, 148.000000)">
                    <path d="M0 0H24V24H0z"/>
                    <rect width="16" height="16" x="4" y="4" fill="#2DA287" fill-rule="nonzero" rx="2"/>
                    <g>
                        <path d="M0 0H16V16H0z" transform="translate(4.000000, 4.000000)"/>
                        <path fill="#FFF" fill-rule="nonzero" d="M12.19 3.69c.585-.586 1.535-.586 2.12 0 .55.549.584 1.418.104 2.007l-.103.114-7 7c-.55.549-1.419.583-2.008.103l-.114-.103-3-3c-.585-.586-.585-1.536 0-2.122.55-.549 1.419-.583 2.008-.103l.114.103L6.25 9.63l5.94-5.94z" transform="translate(4.000000, 4.000000)"/>
                    </g>
                </g>
            </g>
        </g>
    </g>
</svg>
