<svg xmlns="http://www.w3.org/2000/svg" width="48" height="48" viewBox="0 0 48 48">
    <g fill="none" fill-rule="evenodd">
        <g fill="#3EBD93" fill-rule="nonzero">
            <g>
                <path d="M24 0c13.255 0 24 10.745 24 24S37.255 48 24 48 0 37.255 0 24 10.745 0 24 0zm0 2.933C12.365 2.933 2.933 12.365 2.933 24S12.365 45.067 24 45.067 45.067 35.635 45.067 24 35.635 2.933 24 2.933zm16.408 15.948c-.02.07-.049.14-.084.209-.044.208-.178.564-.377 1.018l-.267.589-.32.663-.36.72-.393.756-.413.774-.425.773-.425.753-.415.714-.397.655-.366.578-.17.254-.302.426c-.092.122-.175.223-.248.3l-.1.098-1.394 1.185 6.83 3.421c-3.304 5.806-9.552 9.722-16.714 9.722-7.261 0-13.582-4.024-16.85-9.962l6.69-3.189-1.433-1.177c-.118-.101-.275-.296-.46-.563l-.295-.45-.504-.838-.365-.645-.377-.692-.382-.725-.378-.74-.367-.739L9 22.05l-.32-.687-.282-.636-.24-.568-.186-.483c-.052-.145-.094-.274-.125-.382-.049-.068-.09-.135-.126-.207 1.224.827 3.65 1.64 6.827 2.21l.975.164c.498.078 1.012.15 1.541.216l1.076.121c1.094.112 2.241.195 3.43.243l.657.023.666.015 1.031.01 1.032-.01 1.163-.032c6.373-.24 11.586-1.49 13.776-2.812l.216-.137.297-.216zm-25.369 4.48l.416 1.504c.276.886.592 1.727.967 2.581l.294.645.684 1.346c.08.16.188.3.324.428l.144.124.577.427c.987.664 2.08 1.137 3.374 1.488l.495.126 1.364.267.258.025h.2l.258-.025 1.405-.276c1.307-.313 2.436-.745 3.48-1.383l.387-.249.55-.41c.142-.108.264-.236.363-.384l.092-.155.702-1.383c.394-.838.733-1.67 1.036-2.555l.22-.675.387-1.403c-.838 1.593-2.501 2.723-4.51 2.918l-.276.02-.294-.032c-1.492-.208-2.805-1.004-3.637-2.166l-.16-.237-.086-.144-.168.26c-.816 1.17-2.11 1.986-3.637 2.249l-.308.045-.281.027-.267-.022c-1.935-.208-3.563-1.368-4.353-2.98zm8.989-16.428c1.069 0 2.438.736 4.36 2.192l.86.668.363.292 1.04.858 2.773 2.347 2.323.617.602.17.532.156.431.134.57.19.34.124.3.116c1.327.537 1.985 1.11 1.985 1.868l-.01.156-.032.154-.298.23c-1.47 1.04-4.639 2.058-8.746 2.65l-1.26.163-1.311.136c-.89.081-1.813.141-2.76.178l-1.127.033-1.035.01-1.035-.01-.668-.017c-6.86-.21-12.46-1.66-14.553-3.155-.081-.171-.123-.347-.123-.528 0-.838.706-1.515 2.242-2.115-.244-.258-.358-.495-.656-.689.465-.53 1.323-.968 1.912-1.05 1.171-.195 1.891.152 2.681.216-.61-.261-1.788-1.405-2.203-1.924-.494-1.113-.14-2.07.16-2.6l.064-.108.108-.163.13-.174.078-.01.333-.007c.502.003 1.318.07 1.612.398.482.682.71 1.38.854 2.001l.122.592c.089.467.158.858.306 1.122l.087-.34.137-.661c.093-.441.213-.894.509-1.428.517-.933 2.314-2.212 3.587-1.957l.036.205.14.502c.034.162.041.336-.023.574 1.87-1.404 3.215-2.116 4.263-2.116z" transform="translate(-48.000000, -231.000000) translate(16.000000, 159.000000) translate(32.000000, 72.000000)"/>
            </g>
        </g>
    </g>
</svg>
