<svg width="20" height="18" viewBox="0 0 20 18" fill="none" xmlns="http://www.w3.org/2000/svg">
<path fill-rule="evenodd" clip-rule="evenodd" d="M11.9 12.4C14.1091 12.4 15.9 10.6092 15.9 8.40002C15.9 6.19089 14.1091 4.40002 11.9 4.40002C9.69083 4.40002 7.89997 6.19089 7.89997 8.40002C7.89997 10.6092 9.69083 12.4 11.9 12.4ZM11.9 10.9C13.2807 10.9 14.4 9.78074 14.4 8.40002C14.4 7.01931 13.2807 5.90002 11.9 5.90002C10.5193 5.90002 9.39997 7.01931 9.39997 8.40002C9.39997 9.78074 10.5193 10.9 11.9 10.9Z" fill="#253E47" fill-opacity="0.5"/>
<path fill-rule="evenodd" clip-rule="evenodd" d="M3.69995 0.199951C2.0431 0.199951 0.699951 1.5431 0.699951 3.19995V13.6C0.699951 15.1913 1.93902 16.4933 3.50503 16.5937C3.50168 16.6287 3.49997 16.6641 3.49997 16.6999C3.49997 17.3074 3.99246 17.7999 4.59997 17.7999C5.20748 17.7999 5.69997 17.3074 5.69997 16.6999C5.69997 16.6662 5.69845 16.6329 5.69549 16.6H14.3044C14.3015 16.6329 14.3 16.6662 14.3 16.6999C14.3 17.3074 14.7924 17.7999 15.4 17.7999C16.0075 17.7999 16.5 17.3074 16.5 16.6999C16.5 16.6641 16.4982 16.6287 16.4949 16.5937C18.0609 16.4933 19.3 15.1913 19.3 13.5999V3.19995C19.3 1.5431 17.9568 0.199951 16.2999 0.199951H3.69995ZM16.2999 1.69995H3.69995C2.87152 1.69995 2.19995 2.37152 2.19995 3.19995V7.75L5.24997 7.75C5.66418 7.75 5.99997 8.08579 5.99997 8.5C5.99997 8.91421 5.66418 9.25 5.24997 9.25H2.19995V13.6C2.19995 14.4284 2.87153 15.1 3.69995 15.1H16.3C17.1284 15.1 17.8 14.4284 17.8 13.5999V3.19995C17.8 2.37153 17.1284 1.69995 16.2999 1.69995Z" fill="#253E47" fill-opacity="0.5"/>
</svg>
