<svg width="18" height="20" viewBox="0 0 18 20" fill="none" xmlns="http://www.w3.org/2000/svg">
<path d="M3.84263 3.32355L9.00012 0.375L14.1576 3.32355L12.2614 4.41277L9.00012 2.55355L5.73862 4.41277L3.84263 3.32355ZM14.1576 7.0421L12.2614 5.95277L9.00012 7.8121L5.73862 5.95277L3.84263 7.0421V9.22065L7.1039 11.0798V14.7984L9.00012 15.8877L10.8963 14.7984V11.0798L14.1576 9.22065V7.0421ZM14.1576 12.9391V10.7605L12.2614 11.8498V14.0284L14.1576 12.9391ZM15.5038 13.7091L12.2425 15.5683V17.7469L17.4 14.7984V8.90138L15.5038 9.99049V13.7091ZM13.6076 5.18277L15.5038 6.27205V8.45059L17.4 7.36132V5.18277L15.5038 4.09355L13.6076 5.18277ZM7.1039 16.3572V18.5357L9.00012 19.625L10.8963 18.5357V16.3572L9.00012 17.4465L7.1039 16.3572ZM3.84263 12.9391L5.73862 14.0284V11.8498L3.84263 10.7605V12.9391ZM7.1039 5.18277L9.00012 6.27205L10.8963 5.18277L9.00012 4.09355L7.1039 5.18277ZM2.49617 6.27205L4.39238 5.18277L2.49617 4.09355L0.600006 5.18277V7.36132L2.49617 8.45059V6.27205ZM2.49617 9.99049L0.600006 8.90138V14.7984L5.75766 17.7469V15.5683L2.49617 13.7091V9.99049Z" fill="#253E47" fill-opacity="0.5"/>
</svg>
