<svg xmlns="http://www.w3.org/2000/svg" width="24" height="24" viewBox="0 0 24 24">
    <g fill="none" fill-rule="evenodd">
        <g>
            <g>
                <g>
                    <path d="M0 0H24V24H0z" transform="translate(-330 -80) translate(330 12) translate(0 68)"/>
                    <path fill="#2DA287" fill-rule="nonzero" d="M12 5.725c1.433 0 2.707 1.038 3.065 2.38 1.385-.076 2.766.815 3.209 2.178.443 1.363-.15 2.895-1.316 3.65.5 1.295.079 2.883-1.08 3.725-1.16.842-2.8.752-3.878-.123-1.077.875-2.718.966-3.877.123-1.16-.842-1.58-2.43-1.081-3.726-1.165-.754-1.758-2.286-1.315-3.65.442-1.362 1.823-2.253 3.21-2.178.356-1.341 1.63-2.379 3.063-2.379zm-1.327 7.711l-2.319.753-.057.111c-.31.674-.165 1.542.348 2.092l.115.113.127.101c.66.48 1.623.432 2.254-.05l.121-.101.087-.09V13.93l-.044.148-.092.277c-.06.17-.12.308-.17.38-.228.312-.645.396-.932.188-.288-.209-.336-.632-.109-.944.052-.071.165-.17.308-.28l.235-.173.128-.089zm3.325.542c.227.313.179.735-.109.944-.287.209-.704.124-.931-.189-.065-.089-.141-.282-.217-.513l-.09-.292-.001 2.437.088.09c.545.503 1.415.634 2.096.315l.143-.075.136-.089c.66-.48.912-1.41.65-2.158l-.06-.148-.058-.11-2.317-.753.25.176.214.165c.094.078.167.146.206.2zM9.005 9.415c-.85-.116-1.77.431-2.042 1.27-.256.789.102 1.706.776 2.15l.13.077.084.04 2.317-.752-.305.004c-.243-.001-.45-.014-.555-.048-.368-.12-.577-.49-.467-.828.11-.338.497-.514.864-.395.084.027.213.104.363.207l.236.17.124.095L9.096 9.43l-.09-.016zm8.032 1.27c-.256-.79-1.086-1.32-1.891-1.283l-.151.013-.093.016-1.434 1.974c.292-.224.578-.424.725-.472.367-.12.754.058.864.395.11.338-.1.708-.467.828-.105.034-.312.047-.556.048l-.306-.004 2.317.752.086-.04c.67-.359 1.078-1.17.973-1.934l-.028-.152-.039-.141zM12 7.025c-.914 0-1.745.758-1.853 1.643l1.435 1.971-.099-.289c-.074-.232-.126-.433-.126-.543 0-.387.288-.7.643-.7.355 0 .643.314.643.7 0 .11-.052.312-.127.544l-.098.29 1.434-1.974c-.107-.884-.938-1.642-1.852-1.642z" transform="translate(-330 -80) translate(330 12) translate(0 68)"/>
                </g>
            </g>
        </g>
    </g>
</svg>
