<svg xmlns="http://www.w3.org/2000/svg" width="24" height="24" viewBox="0 0 24 24">
    <g fill="none" fill-rule="evenodd">
        <g>
            <g>
                <g>
                    <g>
                        <g>
                            <path d="M0 0H24V24H0z" transform="translate(-1066 -556) translate(330 12) translate(0 412) translate(594) translate(142 132)"/>
                            <path fill="#2da287" fill-opacity="1" fill-rule="nonzero" d="M12 3.321c4.793 0 8.679 3.886 8.679 8.679S16.793 20.679 12 20.679 3.321 16.793 3.321 12 7.207 3.321 12 3.321zm0 1.5c-3.965 0-7.179 3.214-7.179 7.179 0 3.965 3.214 7.179 7.179 7.179 3.965 0 7.179-3.214 7.179-7.179 0-3.965-3.214-7.179-7.179-7.179zm0 3.215c.38 0 .693.282.743.648l.007.102v4.616l1.291-1.29c.266-.266.683-.29.977-.072l.084.073c.266.266.29.682.072.976l-.072.084-2.572 2.572c-.266.266-.683.29-.976.072l-.084-.072-2.572-2.572c-.293-.293-.293-.768 0-1.06.267-.267.683-.29.977-.073l.084.073 1.29 1.29.001-4.617c0-.414.336-.75.75-.75z" transform="translate(-1066 -556) translate(330 12) translate(0 412) translate(594) translate(142 132)"/>
                        </g>
                    </g>
                </g>
            </g>
        </g>
    </g>
</svg>
