<svg width="24" height="24" viewBox="0 0 24 24" fill="none" xmlns="http://www.w3.org/2000/svg">
<path d="M2.52898 14.8094L3.43968 19.911C3.46891 20.0741 3.54613 20.2229 3.66162 20.3384C3.77711 20.4539 3.9259 20.5311 4.08899 20.5603L9.1906 21.471C10.0379 21.5991 10.9126 21.2977 11.5283 20.6658L16.3255 15.8686C16.4877 15.7063 16.5818 15.489 16.5868 15.2645C16.5918 15.04 16.5073 14.8266 16.3521 14.6714L13.4256 11.7449L15.2614 9.90916L15.8467 10.4944C16.0019 10.6497 16.2153 10.7341 16.4398 10.7291C16.6643 10.7241 16.8817 10.6301 17.0439 10.4678L20.7155 6.79624C21.3714 6.14032 21.6428 5.19955 21.4274 4.32851C21.2121 3.45734 20.5427 2.7879 19.6715 2.57264C18.8005 2.35724 17.8597 2.62858 17.2038 3.28449L13.5322 6.95606C13.3699 7.11833 13.2759 7.33572 13.2709 7.56019C13.2659 7.78467 13.3503 7.99808 13.5056 8.15328L14.0908 8.73857L12.2551 10.5744L9.3286 7.6479C9.1734 7.4927 8.95998 7.40823 8.73551 7.41323C8.51103 7.41822 8.29365 7.51227 8.13138 7.67454L3.33421 12.4717C2.7023 13.0874 2.40092 13.9621 2.52898 14.8094ZM18.3743 4.45511C18.593 4.23643 18.9066 4.14599 19.1969 4.21779C19.4873 4.28959 19.7104 4.51274 19.7822 4.80308C19.854 5.09343 19.7636 5.40702 19.5449 5.62569L16.4852 8.68533L15.3147 7.51475L18.3743 4.45511ZM8.69 9.45709L11.0312 11.7983L9.80731 13.0221C9.58863 13.2408 9.49819 13.5544 9.56999 13.8447C9.64179 14.1351 9.86494 14.3582 10.1553 14.43C10.4456 14.5018 10.7592 14.4114 10.9779 14.1927L12.2018 12.9688L14.5429 15.31L10.3577 19.4952C10.151 19.7183 9.85402 19.833 9.55939 19.8036L5.00878 18.9912L4.19652 14.4405C4.16715 14.1458 4.28167 13.8489 4.50475 13.6423L8.69 9.45709Z" fill="#253E47"/>
</svg>
