<svg width="28" height="28" viewBox="0 0 28 28" fill="none" xmlns="http://www.w3.org/2000/svg">
<rect width="28" height="28" rx="8" fill="#F0B90B"/>
<path d="M8.84263 7.32355L14.0001 4.375L19.1576 7.32355L17.2614 8.41277L14.0001 6.55355L10.7386 8.41277L8.84263 7.32355ZM19.1576 11.0421L17.2614 9.95277L14.0001 11.8121L10.7386 9.95277L8.84263 11.0421V13.2207L12.1039 15.0798V18.7984L14.0001 19.8877L15.8963 18.7984V15.0798L19.1576 13.2207V11.0421ZM19.1576 16.9391V14.7605L17.2614 15.8498V18.0284L19.1576 16.9391ZM20.5038 17.7091L17.2425 19.5683V21.7469L22.4 18.7984V12.9014L20.5038 13.9905V17.7091ZM18.6076 9.18277L20.5038 10.272V12.4506L22.4 11.3613V9.18277L20.5038 8.09355L18.6076 9.18277ZM12.1039 20.3572V22.5357L14.0001 23.625L15.8963 22.5357V20.3572L14.0001 21.4465L12.1039 20.3572ZM8.84263 16.9391L10.7386 18.0284V15.8498L8.84263 14.7605V16.9391ZM12.1039 9.18277L14.0001 10.272L15.8963 9.18277L14.0001 8.09355L12.1039 9.18277ZM7.49617 10.272L9.39238 9.18277L7.49617 8.09355L5.60001 9.18277V11.3613L7.49617 12.4506V10.272ZM7.49617 13.9905L5.60001 12.9014V18.7984L10.7577 21.7469V19.5683L7.49617 17.7091V13.9905Z" fill="white"/>
</svg>
