<svg width="80" height="80" viewBox="0 0 80 80" fill="none" xmlns="http://www.w3.org/2000/svg">
<path d="M31.25 80.0001H0V41.6429L44.5159 25.4404L56.7681 59.103C58.8288 64.7646 55.9096 71.0247 50.248 73.0853L31.25 80.0001Z" fill="url(#paint0_linear_877_2031)"/>
<path d="M31.25 80.0001H0V41.6429L44.5159 25.4404L56.7681 59.103C58.8288 64.7646 55.9096 71.0247 50.248 73.0853L31.25 80.0001Z" fill="url(#paint1_linear_877_2031)"/>
<path d="M57.7982 0L68.634 29.7712C72.0684 39.2071 67.2032 49.6406 57.7672 53.075L0 74.1006V0H57.7982Z" fill="url(#paint2_linear_877_2031)"/>
<path d="M15.6784 0L16.1926 1.41269C18.5967 8.01786 15.191 15.3213 8.58587 17.7254L0 20.8504V0H15.6784Z" fill="url(#paint3_linear_877_2031)"/>
<path d="M8.23818 64.6764C7.30042 64.6803 6.87353 63.5074 7.59442 62.9076L8.18259 62.4183C8.41207 62.2274 8.54425 61.9439 8.54301 61.6454L8.53981 60.8802C8.53589 59.9425 9.70874 59.5156 10.3085 60.2365L10.7979 60.8247C10.9888 61.0541 11.2723 61.1863 11.5708 61.1851L12.3359 61.1819C13.2737 61.178 13.7006 62.3508 12.9797 62.9506L12.3915 63.44C12.162 63.6309 12.0298 63.9143 12.0311 64.2129L12.0343 64.978C12.0382 65.9157 10.8654 66.3426 10.2656 65.6217L9.77621 65.0336C9.58528 64.8041 9.30182 64.6719 9.00331 64.6732L8.23818 64.6764Z" fill="#C0FFD3"/>
<path d="M42.7836 20.8697C41.8458 20.8736 41.4189 19.7008 42.1398 19.101L43.8869 17.6474C44.1164 17.4565 44.2486 17.173 44.2473 16.8745L44.2378 14.6019C44.2339 13.6641 45.4067 13.2372 46.0065 13.9581L47.4601 15.7052C47.651 15.9346 47.9345 16.0668 48.233 16.0656L50.5057 16.0561C51.4434 16.0522 51.8703 17.225 51.1494 17.8248L49.4024 19.2784C49.1729 19.4693 49.0407 19.7528 49.042 20.0513L49.0514 22.3239C49.0554 23.2617 47.8825 23.6886 47.2827 22.9677L45.8292 21.2206C45.6382 20.9912 45.3548 20.859 45.0563 20.8602L42.7836 20.8697Z" fill="#D2FFFF"/>
<path d="M0 12.0346V9.77692L0.419973 9.4275C0.628589 9.25393 0.748753 8.99624 0.74762 8.72487L0.741086 7.16132C0.737524 6.30881 1.80376 5.92073 2.34901 6.57608L3.34904 7.77803C3.5226 7.98664 3.7803 8.10681 4.05167 8.10567L5.61522 8.09914C6.46773 8.09558 6.85581 9.16181 6.20046 9.70706L4.99851 10.7071C4.7899 10.8807 4.66973 11.1384 4.67087 11.4097L4.6774 12.9733C4.68096 13.8258 3.61473 14.2139 3.06948 13.5585L2.06945 12.3566C1.89588 12.148 1.63819 12.0278 1.36681 12.0289L0 12.0346Z" fill="#C5FFDE"/>
<path fill-rule="evenodd" clip-rule="evenodd" d="M30.0582 33.1081C28.6166 29.1474 25.8117 26.3441 23.223 27.2864C20.6343 28.2286 20.2875 32.1789 21.7291 36.1397C23.1707 40.1004 25.9755 42.9037 28.5643 41.9614C31.153 41.0192 31.4998 37.0689 30.0582 33.1081ZM23.8709 31.2608C23.94 30.4741 24.1388 30.0972 24.2335 30.0627C24.3282 30.0283 24.7228 30.1892 25.2814 30.7474C26.0403 31.5059 26.77 32.7123 27.2818 34.1186C27.7937 35.5249 28.0102 36.9181 27.9164 37.987C27.8473 38.7737 27.6485 39.1506 27.5538 39.1851C27.459 39.2195 27.0645 39.0586 26.5059 38.5004C25.7469 37.7419 25.0173 36.5355 24.5054 35.1292C23.9936 33.7229 23.7771 32.3297 23.8709 31.2608Z" fill="url(#paint4_linear_877_2031)"/>
<path fill-rule="evenodd" clip-rule="evenodd" d="M0 35.675V30.6827C0.500215 29.8009 1.27749 29.0708 2.2643 28.6374L2.56065 28.5185L11.9258 25.1078C12.1164 23.7739 12.9764 22.5876 14.2437 22.0166L14.5432 21.896L14.7813 21.82L15.0096 21.762L26.0994 19.5095C28.3471 19.0538 30.5905 20.2328 31.5045 22.3045L31.6259 22.6065L38.0097 40.146C38.7941 42.301 37.9606 44.6944 36.0473 45.906L35.7667 46.0708L35.3701 46.2871C35.3217 46.9284 34.9071 47.5132 34.2635 47.7475C33.7892 47.9201 33.2877 47.8669 32.8769 47.6428L25.9064 51.4312C24.3549 52.2746 22.5248 51.9818 21.3092 50.8911L14.7083 53.2937C14.8951 54.1116 14.4479 54.9598 13.6391 55.2541C12.8977 55.524 12.09 55.2421 11.6658 54.6181L11.5505 54.4239C9.24298 55.0504 6.80685 53.8919 5.84155 51.6944L5.72269 51.398L4.2791 47.4318C4.00006 46.6651 4.39536 45.8174 5.16203 45.5383C5.86481 45.2825 6.6357 45.5934 6.97423 46.2375L7.05547 46.4213L8.49906 50.3875C8.83217 51.3027 9.79588 51.8064 10.721 51.5864L10.9335 51.5227L19.8559 48.2743L12.4933 28.0457L3.57116 31.2949C2.65595 31.628 2.15229 32.5917 2.37223 33.5168L2.43597 33.7293L3.59085 36.9023C3.86989 37.669 3.47459 38.5167 2.70792 38.7957C2.00514 39.0515 1.23425 38.7407 0.895715 38.0966L0.814482 37.9128L0 35.675ZM14.8569 25.8471C14.7722 25.353 15.0516 24.8626 15.522 24.6846L15.7586 24.6206L26.6867 22.4051L26.9167 22.3728C27.7573 22.3067 28.5548 22.8073 28.8495 23.617L35.2334 41.1565L35.2994 41.3791C35.4895 42.2004 35.1127 43.0633 34.3553 43.4752L24.4953 48.8354L24.3377 48.9053C23.8038 49.092 23.2003 48.8203 22.9997 48.2691L14.906 26.032L14.8569 25.8471Z" fill="url(#paint5_linear_877_2031)"/>
<path d="M8.66843 34.8409L8.46382 34.7632C7.77361 34.5577 7.01871 34.8832 6.70525 35.5554L6.62751 35.7601C6.42208 36.4503 6.74758 37.2052 7.41979 37.5186L9.59454 38.5333L3.42972 40.7788L3.24596 40.8601C2.60184 41.1986 2.291 41.9695 2.54679 42.6723C2.82584 43.439 3.67356 43.8343 4.44023 43.5552L10.6051 41.3097L9.59243 43.4879L9.51469 43.6925C9.30926 44.3827 9.63476 45.1376 10.307 45.4511C11.0464 45.7959 11.9254 45.476 12.2702 44.7366L14.7928 39.3267L14.8705 39.1221C15.076 38.4319 14.7505 37.677 14.0783 37.3635L8.66843 34.8409Z" fill="url(#paint6_linear_877_2031)"/>
<defs>
<linearGradient id="paint0_linear_877_2031" x1="11.8182" y1="53.6365" x2="20" y2="80.0001" gradientUnits="userSpaceOnUse">
<stop stop-color="#8CEBB9"/>
<stop offset="1" stop-color="#B5F8CE"/>
</linearGradient>
<linearGradient id="paint1_linear_877_2031" x1="-10" y1="62.7274" x2="19.8159" y2="55.0007" gradientUnits="userSpaceOnUse">
<stop stop-color="#8CEBB9"/>
<stop offset="1" stop-color="#8CEBB9" stop-opacity="0"/>
</linearGradient>
<linearGradient id="paint2_linear_877_2031" x1="-65.1123" y1="36.1882" x2="76.2218" y2="44.3236" gradientUnits="userSpaceOnUse">
<stop stop-color="#8CEBB9"/>
<stop offset="1" stop-color="#B5F8CE"/>
</linearGradient>
<linearGradient id="paint3_linear_877_2031" x1="-56.7373" y1="-4.75231" x2="18.8071" y2="-9.84663" gradientUnits="userSpaceOnUse">
<stop stop-color="#8CEBB9"/>
<stop offset="1" stop-color="#B5F8CE"/>
</linearGradient>
<linearGradient id="paint4_linear_877_2031" x1="-2.44973" y1="36.9272" x2="40.2775" y2="36.9272" gradientUnits="userSpaceOnUse">
<stop stop-color="#C0FFD3"/>
<stop offset="1" stop-color="#D1FFFF"/>
</linearGradient>
<linearGradient id="paint5_linear_877_2031" x1="-2.44973" y1="36.9272" x2="40.2775" y2="36.9272" gradientUnits="userSpaceOnUse">
<stop stop-color="#C0FFD3"/>
<stop offset="1" stop-color="#D1FFFF"/>
</linearGradient>
<linearGradient id="paint6_linear_877_2031" x1="-2.44973" y1="36.9272" x2="40.2775" y2="36.9272" gradientUnits="userSpaceOnUse">
<stop stop-color="#C0FFD3"/>
<stop offset="1" stop-color="#D1FFFF"/>
</linearGradient>
</defs>
</svg>
