<svg xmlns="http://www.w3.org/2000/svg" width="24" height="24" viewBox="0 0 24 24">
    <g fill="none" fill-rule="evenodd">
        <g>
            <g>
                <g>
                    <path d="M0 0H24V24H0z" transform="translate(-28 -393) translate(12 381) translate(16 12)"/>
                    <path fill="#253E47" fill-rule="nonzero" d="M11.536 3.482c.242-.19.572-.212.834-.063l.094.063 6.092 4.8c.746.587 1.202 1.464 1.26 2.406l.005.202v6.896c0 1.306-1.016 2.375-2.302 2.459l-.162.005H6.643c-1.307 0-2.376-1.017-2.46-2.302l-.004-.162V10.89c0-.95.406-1.85 1.11-2.478l.156-.13 6.09-4.8zM12 5.026L6.373 9.46c-.395.31-.641.769-.687 1.264l-.007.166v6.896c0 .494.372.902.851.958l.113.006h10.714c.495 0 .902-.372.958-.852l.006-.112V10.89c0-.502-.207-.979-.568-1.321l-.126-.11L12 5.027zm-.363 3.96c.227-.125.504-.124.73.003l.094.062.086.069c.517.42 1.105.992 1.639 1.677.845 1.084 1.35 2.205 1.35 3.346 0 1.953-1.583 3.536-3.536 3.536s-3.536-1.583-3.536-3.536c0-1.141.505-2.262 1.35-3.346.458-.587.955-1.09 1.417-1.49l.227-.191.071-.057.108-.072zm.362 1.645l-.19.182c-.273.267-.552.572-.812.906-.658.845-1.033 1.676-1.033 2.424 0 .656.31 1.24.793 1.612-.028-.104-.043-.214-.043-.326 0-.71.44-1.373.734-1.737l.132-.156.117-.125c.168-.167.438-.167.606 0l.117.125.132.156c.294.364.734 1.027.734 1.737 0 .112-.015.222-.042.326.48-.372.792-.956.792-1.612 0-.748-.375-1.58-1.033-2.424-.195-.25-.4-.485-.606-.698l-.204-.207-.194-.183z" transform="translate(-28 -393) translate(12 381) translate(16 12)"/>
                </g>
            </g>
        </g>
    </g>
</svg>
