<svg xmlns="http://www.w3.org/2000/svg" width="24" height="24" viewBox="0 0 24 24">
    <g fill="none" fill-rule="evenodd">
        <g>
            <g>
                <g>
                    <path d="M0 0H24V24H0z" transform="translate(-28.000000, -598.000000) translate(12.000000, 586.000000) translate(16.000000, 12.000000)"/>
                    <path fill="#253E47" fill-opacity=".5" fill-rule="nonzero" d="M7.226 5.82c3.411 0 6.176 2.767 6.176 6.18 0 3.412-2.765 6.179-6.176 6.179-3.41 0-6.176-2.767-6.176-6.18 0-3.412 2.765-6.179 6.176-6.179zm9.863.362c1.705 0 3.088 2.604 3.088 5.818 0 3.212-1.383 5.817-3.088 5.817-1.706 0-3.088-2.605-3.088-5.817 0-3.213 1.382-5.818 3.088-5.818zm4.773.606c.6 0 1.086 2.333 1.086 5.212 0 2.877-.486 5.211-1.086 5.211-.6 0-1.086-2.333-1.086-5.211 0-2.879.486-5.212 1.086-5.212z" transform="translate(-28.000000, -598.000000) translate(12.000000, 586.000000) translate(16.000000, 12.000000)"/>
                </g>
            </g>
        </g>
    </g>
</svg>
