<svg xmlns="http://www.w3.org/2000/svg" width="48" height="48" viewBox="0 0 48 48">
    <g fill="none" fill-rule="evenodd">
        <g>
            <g>
                <g>
                    <g>
                        <path d="M0 0H48V48H0z" transform="translate(-1108 -12) translate(330 12) translate(682) translate(96)"/>
                        <g>
                            <path d="M0 0H24V24H0z" transform="translate(-1108 -12) translate(330 12) translate(682) translate(96) translate(12 12)"/>
                            <path fill="#253E47" fill-rule="nonzero" d="M19.114 6.244c-.008-.008-.021-.017-.034-.03-1.024-.823-2.396-1.243-3.364-1.444-.956-.201-1.912.343-2.22 1.264-.005.017-.013.03-.017.047 1.607.163 3.042.605 4.208 1.295.304.18.403.574.223.883-.12.201-.334.312-.553.312-.111 0-.227-.03-.33-.09C15.716 7.701 13.976 7.29 12 7.29s-3.716.411-5.027 1.191c-.309.18-.703.082-.883-.222-.18-.309-.081-.703.223-.883 1.166-.69 2.601-1.132 4.208-1.295-.004-.017-.012-.03-.017-.047-.308-.921-1.264-1.465-2.22-1.264-.968.201-2.34.621-3.364 1.444-.013.013-.026.022-.034.03-.952.883-2.709 5.375-2.709 9.455 0 .111.026.218.082.317 1.045 1.838 3.51 2.511 4.525 2.713.125.025.249.038.373.038.609 0 1.196-.291 1.56-.797l.223-.304c-2.207-.523-3.339-1.466-3.403-1.522-.27-.231-.304-.634-.073-.904.232-.27.635-.304.905-.077.034.03 1.924 1.56 5.631 1.56 3.724 0 5.614-1.543 5.631-1.56.27-.227.678-.193.905.081.227.27.197.673-.073.9-.064.056-1.196.999-3.403 1.522l.223.304c.364.506.951.797 1.56.797.124 0 .248-.013.373-.038 1.015-.202 3.48-.875 4.525-2.713.056-.099.082-.206.082-.317 0-4.08-1.757-8.572-2.709-9.455zm-9.887 8.293c-.818 0-1.483-.758-1.483-1.697 0-.939.665-1.697 1.483-1.697.823 0 1.487.758 1.487 1.697 0 .939-.664 1.697-1.487 1.697zm5.533.034c-.827 0-1.5-.767-1.5-1.714s.673-1.714 1.5-1.714c.831 0 1.5.767 1.5 1.714s-.669 1.714-1.5 1.714z" transform="translate(-1108 -12) translate(330 12) translate(682) translate(96) translate(12 12)"/>
                        </g>
                    </g>
                </g>
            </g>
        </g>
    </g>
</svg>
