<svg width="18" height="18" viewBox="0 0 18 18" fill="none" xmlns="http://www.w3.org/2000/svg">
<path d="M9.77539 0.75C10.0811 0.75 10.3789 0.836909 10.6356 0.999601L10.7604 1.08721L10.9555 1.24506L11.1895 1.44566L11.6281 1.83828L13.0517 3.14674L13.4344 3.49218L13.7708 3.78851L14.0734 4.0464C15.5937 5.38741 16.0825 6.34752 15.562 7.70226L15.4884 7.88127L15.4043 8.06067L15.1467 8.58275L14.3544 10.1296L13.3925 11.968V15.75H16.9287C17.3429 15.75 17.6787 16.0858 17.6787 16.5C17.6787 16.8797 17.3965 17.1935 17.0304 17.2432L16.9287 17.25H1.07153C0.65732 17.25 0.321533 16.9142 0.321533 16.5C0.321533 16.1203 0.603687 15.8065 0.969763 15.7568L1.07153 15.75H4.60653V9.544L3.13192 6.33419L3.02398 6.06768C2.96038 5.87856 2.92345 5.66635 2.90299 5.42763C2.88851 5.25882 2.8833 5.08686 2.88474 4.9187L2.89156 4.67018L2.90736 4.40615C2.93255 4.11955 2.99871 3.80954 3.10382 3.44533L3.21294 3.0894L3.50728 2.20753L3.59053 1.93138C3.76843 1.27908 4.3335 0.815293 4.99685 0.756354L5.14039 0.75H9.77539ZM11.8922 7.39271H8.84825L9.56967 9.04636L9.63927 9.23041C10.0213 10.4011 9.43466 11.6839 8.27539 12.1509C7.53397 12.4497 6.7302 12.345 6.10684 11.9408L6.10653 15.75H11.8925L11.8922 7.39271ZM9.77539 2.25H5.14039C5.10339 2.25 5.07098 2.26759 5.05191 2.29538L5.03762 2.32628L4.93693 2.66155L4.6413 3.54742L4.54306 3.8685C4.46925 4.12657 4.42322 4.33936 4.40401 4.52346L4.39462 4.65641L4.38482 4.92627C4.38365 5.05291 4.38734 5.18091 4.3975 5.29949C4.40714 5.41187 4.42225 5.50357 4.44056 5.56875L4.45986 5.62487L4.48222 5.67801L6.31239 9.65117L6.59419 10.2819C6.7721 10.7234 7.27392 10.9373 7.71482 10.7596C8.12241 10.5954 8.33598 10.1552 8.2269 9.74212L8.19283 9.6396L7.51479 8.08939L7.02443 6.93702L6.99219 6.84261C6.87198 6.40113 7.1691 5.95641 7.61635 5.89907L7.71439 5.89286H12.643C13.0227 5.89286 13.3365 6.17501 13.3861 6.54109L13.393 6.64286L13.3922 8.72071L13.7934 7.93523L14.1184 7.27061C14.4196 6.58192 14.2346 6.18872 13.0969 5.18481L12.965 5.07377L12.5307 4.69602L12.018 4.23424L10.4714 2.81439L10.2145 2.58571L10.0055 2.40597L9.84099 2.2724L9.81011 2.25571L9.77539 2.25Z" fill="#253E47"/>
</svg>
