<svg width="20" height="20" viewBox="0 0 20 20" fill="none" xmlns="http://www.w3.org/2000/svg">
<path d="M10.6433 5.42709C10.8755 5.19491 11.1511 5.01074 11.4545 4.88509C11.7578 4.75944 12.0829 4.69476 12.4113 4.69476C12.7396 4.69476 13.0648 4.75944 13.3681 4.88509C13.6715 5.01074 13.9471 5.19491 14.1793 5.42709C14.4115 5.65927 14.5956 5.9349 14.7213 6.23826C14.8469 6.54161 14.9116 6.86674 14.9116 7.19509C14.9116 7.52344 14.8469 7.84857 14.7213 8.15193C14.5956 8.45528 14.4115 8.73091 14.1793 8.96309C13.7098 9.42861 13.0751 9.6892 12.4139 9.68785C11.7528 9.68649 11.1191 9.4233 10.6515 8.95587C10.1839 8.48844 9.92058 7.85482 9.91903 7.19368C9.91749 6.53253 10.1779 5.8977 10.6433 5.42809V5.42709ZM13.1183 6.48809C13.0254 6.39525 12.9151 6.32161 12.7937 6.27139C12.6724 6.22117 12.5423 6.19534 12.4109 6.19539C12.2796 6.19544 12.1495 6.22135 12.0282 6.27166C11.9069 6.32197 11.7966 6.39568 11.7038 6.48859C11.6109 6.5815 11.5373 6.69179 11.4871 6.81316C11.4369 6.93453 11.411 7.0646 11.4111 7.19595C11.4111 7.32729 11.4371 7.45735 11.4874 7.57868C11.5377 7.70001 11.6114 7.81025 11.7043 7.90309C11.8919 8.0906 12.1464 8.19589 12.4116 8.19579C12.6769 8.1957 12.9313 8.09023 13.1188 7.90259C13.3063 7.71495 13.4116 7.46051 13.4115 7.19524C13.4114 6.92997 13.3059 6.6756 13.1183 6.48809ZM19.0953 2.31909C18.9629 1.89314 18.7288 1.5058 18.4133 1.19047C18.0978 0.875138 17.7103 0.64129 17.2843 0.509092L16.6213 0.303092C15.4469 -0.0612168 14.1954 -0.0978387 13.0017 0.19718C11.8081 0.492198 10.7177 1.10765 9.84829 1.97709L8.85229 2.97309C8.17861 2.46876 7.3457 2.2242 6.5063 2.28426C5.66691 2.34432 4.8773 2.70498 4.28229 3.30009L3.04129 4.54209C2.90084 4.68272 2.82195 4.87334 2.82195 5.07209C2.82195 5.27084 2.90084 5.46147 3.04129 5.60209L4.63229 7.19409L4.45229 7.37409C4.12437 7.70224 3.94017 8.14718 3.94017 8.61109C3.94017 9.07501 4.12437 9.51994 4.45229 9.84809L4.94829 10.3441L3.55229 11.1401C3.45227 11.1973 3.36679 11.2769 3.30248 11.3725C3.23817 11.4682 3.19677 11.5773 3.18149 11.6916C3.16621 11.8058 3.17745 11.922 3.21436 12.0312C3.25127 12.1404 3.31284 12.2396 3.39429 12.3211L7.28329 16.2111C7.36482 16.2925 7.46403 16.3541 7.57321 16.391C7.68239 16.4279 7.7986 16.4392 7.91283 16.4239C8.02706 16.4086 8.13623 16.3672 8.23187 16.3029C8.32751 16.2386 8.40704 16.1531 8.46429 16.0531L9.26229 14.6581L9.75929 15.1551C9.9218 15.3176 10.1147 15.4465 10.3271 15.5345C10.5394 15.6224 10.767 15.6677 10.9968 15.6677C11.2266 15.6677 11.4542 15.6224 11.6665 15.5345C11.8789 15.4465 12.0718 15.3176 12.2343 15.1551L12.4113 14.9781L14.0013 16.5681C14.1419 16.7085 14.3325 16.7874 14.5313 16.7874C14.73 16.7874 14.9207 16.7085 15.0613 16.5681L16.3033 15.3251C16.8979 14.7305 17.2584 13.9415 17.3187 13.1027C17.3789 12.264 17.1349 11.4316 16.6313 10.7581L17.6293 9.76009C18.4993 8.89019 19.115 7.79907 19.4098 6.60464C19.7047 5.41022 19.6675 4.15792 19.3023 2.98309L19.0963 2.31909H19.0953ZM16.8393 1.94109C17.2323 2.06309 17.5403 2.37109 17.6623 2.76409L17.8693 3.42909C18.1531 4.34277 18.1818 5.31663 17.9523 6.24543C17.7228 7.17424 17.2439 8.02268 16.5673 8.69909L11.1723 14.0941C11.1254 14.1408 11.062 14.167 10.9958 14.167C10.9296 14.167 10.8662 14.1408 10.8193 14.0941L5.51229 8.78809C5.48901 8.76487 5.47054 8.73728 5.45794 8.70691C5.44533 8.67654 5.43884 8.64398 5.43884 8.61109C5.43884 8.57821 5.44533 8.54565 5.45794 8.51527C5.47054 8.4849 5.48901 8.45731 5.51229 8.43409L10.9083 3.03809C11.5846 2.36166 12.4329 1.88286 13.3615 1.65339C14.2901 1.42393 15.2638 1.45252 16.1773 1.73609L16.8393 1.94109ZM15.5503 11.8381C16.0033 12.6041 15.9003 13.6071 15.2423 14.2651L14.5303 14.9771L13.4703 13.9171L15.5503 11.8371V11.8381ZM5.34429 4.36009C5.6577 4.04698 6.06628 3.84692 6.50579 3.79134C6.9453 3.73577 7.39082 3.82785 7.77229 4.05309L5.69229 6.13309L4.63229 5.07309L5.34429 4.36009ZM8.16229 13.5581L7.64829 14.4561L5.14829 11.9561L6.04629 11.4431L8.16229 13.5591V13.5581ZM4.27629 16.3921C4.40877 16.2499 4.48089 16.0619 4.47747 15.8676C4.47404 15.6733 4.39533 15.4879 4.25791 15.3505C4.1205 15.2131 3.93512 15.1343 3.74081 15.1309C3.54651 15.1275 3.35847 15.1996 3.21629 15.3321L0.740292 17.8061C0.670625 17.8758 0.615363 17.9585 0.57766 18.0495C0.539957 18.1405 0.520551 18.2381 0.520551 18.3366C0.520551 18.4351 0.539957 18.5327 0.57766 18.6237C0.615363 18.7147 0.670625 18.7974 0.740292 18.8671C0.809958 18.9368 0.892664 18.992 0.983687 19.0297C1.07471 19.0674 1.17227 19.0868 1.27079 19.0868C1.36931 19.0868 1.46687 19.0674 1.5579 19.0297C1.64892 18.992 1.73163 18.9368 1.80129 18.8671L4.27629 16.3921ZM2.33129 13.3871C2.47174 13.5277 2.55063 13.7183 2.55063 13.9171C2.55063 14.1158 2.47174 14.3065 2.33129 14.4471L1.27129 15.5081C1.1299 15.6448 0.940488 15.7205 0.743839 15.7188C0.54719 15.7172 0.359042 15.6384 0.21992 15.4995C0.0807977 15.3605 0.0018324 15.1724 3.14899e-05 14.9757C-0.00176942 14.7791 0.0737383 14.5896 0.210292 14.4481L1.27029 13.3871C1.33994 13.3174 1.42264 13.2621 1.51367 13.2244C1.60469 13.1867 1.70226 13.1673 1.80079 13.1673C1.89932 13.1673 1.99689 13.1867 2.08792 13.2244C2.17894 13.2621 2.26164 13.3174 2.33129 13.3871ZM6.21829 18.3391C6.29198 18.2704 6.35108 18.1876 6.39207 18.0956C6.43306 18.0036 6.45511 17.9043 6.45688 17.8036C6.45866 17.7029 6.44014 17.6029 6.40241 17.5095C6.36469 17.4161 6.30855 17.3313 6.23733 17.2601C6.16611 17.1888 6.08128 17.1327 5.98789 17.095C5.8945 17.0572 5.79447 17.0387 5.69377 17.0405C5.59307 17.0423 5.49375 17.0643 5.40175 17.1053C5.30975 17.1463 5.22695 17.2054 5.15829 17.2791L4.09929 18.3371C3.96681 18.4793 3.89469 18.6673 3.89812 18.8616C3.90154 19.0559 3.98026 19.2413 4.11767 19.3787C4.25508 19.5161 4.44047 19.5948 4.63477 19.5983C4.82907 19.6017 5.01712 19.5296 5.15929 19.3971L6.21929 18.3391H6.21829Z" fill="#253E47"/>
</svg>
