<svg xmlns="http://www.w3.org/2000/svg" width="24" height="24" viewBox="0 0 24 24">
    <g fill="none" fill-rule="evenodd">
        <g>
            <g>
                <g>
                    <path d="M0 0H24V24H0z" transform="translate(-28 -297) translate(12 285) translate(16 12)"/>
                    <g fill="#253E47" fill-rule="nonzero">
                        <g>
                            <path d="M11.455 0c1.521 0 2.785 1.146 2.955 2.635l.015.174.005.166v1.042h.595c1.46 0 2.687 1.061 2.931 2.466l.025.17.014.173.005.166v9.798c0 .457-.253.87-.66 1.077-.172.088-.36.133-.55.133-.152 0-.301-.029-.444-.085l-.14-.066-.127-.081-3.95-2.89H6.545c-1.398 0-2.596-.977-2.9-2.313l-.012-.06L1.92 13.75c-.654.476-1.549.18-1.832-.52l-.04-.113-.028-.12-.015-.112L0 12.773V2.975C0 1.454 1.146.19 2.635.02L2.81.005 2.975 0h8.48zm3.567 5.505h-.592v2.38c0 1.522-1.146 2.786-2.635 2.956l-.174.015-.166.005-5.542-.015-.855.584v.472c0 .73.53 1.344 1.23 1.466l.133.017.124.005h5.802c.078 0 .156.012.231.037l.112.047.094.058 3.728 2.71v-9.25c0-.729-.53-1.343-1.23-1.465l-.132-.017-.128-.005zm-3.57-4.017H2.975c-.73 0-1.344.529-1.465 1.23l-.017.132-.005.125v9.25l3.727-2.71c.043-.03.088-.057.137-.078l.076-.03.114-.026.11-.008h5.803c.73 0 1.344-.529 1.465-1.23l.017-.133.005-.125v-4.91c0-.73-.529-1.344-1.23-1.465l-.132-.017-.128-.005zm-2.675 4.76c.41 0 .744.334.744.744 0 .34-.229.63-.55.718l-.098.02-.096.006H4.314c-.41 0-.744-.333-.744-.744 0-.339.229-.63.55-.717l.098-.02.096-.006h4.463zm1.339-3.124c.41 0 .744.333.744.744 0 .34-.229.63-.55.718l-.098.02-.096.006H4.314c-.41 0-.744-.333-.744-.744 0-.34.229-.63.55-.717l.098-.02.096-.007h5.802z" transform="translate(-28 -297) translate(12 285) translate(16 12) translate(3 3)"/>
                        </g>
                    </g>
                </g>
            </g>
        </g>
    </g>
</svg>
