<svg width="312" height="34" viewBox="0 0 312 34" fill="none" xmlns="http://www.w3.org/2000/svg">
<path d="M13.7909 15.0152L20.3734 2.02792H27.5817L17.1145 21.2931V33.5685H10.4672V21.5089L0 2.02792H7.25154L13.7909 15.0152Z" fill="url(#paint0_radial_1884_4845)"/>
<path d="M40.1001 8.99619C42.3303 8.99619 44.2511 9.42767 45.8625 10.2906C47.474 11.1392 48.7185 12.3761 49.5962 14.0013C50.4739 15.6265 50.9127 17.6113 50.9127 19.9556V23.1485H35.3521C35.424 25.0038 35.978 26.4636 37.0139 27.5279C38.0642 28.5778 39.5174 29.1028 41.3735 29.1028C42.913 29.1028 44.323 28.9446 45.6035 28.6282C46.8841 28.3118 48.2006 27.8371 49.553 27.2043V32.2957C48.3588 32.8854 47.1071 33.3168 45.7978 33.5901C44.5029 33.8634 42.9274 34 41.0713 34C38.6542 34 36.5103 33.5541 34.6399 32.6624C32.7839 31.7707 31.3235 30.4116 30.2588 28.585C29.2084 26.7585 28.6833 24.4573 28.6833 21.6815C28.6833 18.8625 29.1581 16.5182 30.1077 14.6485C31.0717 12.7644 32.4098 11.3549 34.1219 10.4201C35.8341 9.47081 37.8268 8.99619 40.1001 8.99619ZM40.1433 13.6777C38.8628 13.6777 37.7981 14.0876 36.9492 14.9074C36.1147 15.7272 35.6327 17.0144 35.5032 18.769H44.7403C44.7259 17.791 44.546 16.9209 44.2007 16.1586C43.8698 15.3964 43.3662 14.7923 42.69 14.3464C42.0281 13.9006 41.1792 13.6777 40.1433 13.6777Z" fill="url(#paint1_radial_1884_4845)"/>
<path d="M65.2656 8.95305C68.5029 8.95305 70.9848 9.65778 72.7113 11.0673C74.4379 12.4767 75.3012 14.6197 75.3012 17.4962V33.5685H70.7042L69.4309 30.2893H69.2582C68.5676 31.1523 67.8626 31.857 67.1432 32.4036C66.4238 32.9501 65.5965 33.3528 64.6613 33.6117C63.7261 33.8706 62.5894 34 61.2513 34C59.8269 34 58.5464 33.7267 57.4097 33.1802C56.2875 32.6337 55.4026 31.7995 54.7552 30.6777C54.1077 29.5415 53.784 28.1032 53.784 26.3629C53.784 23.8029 54.6832 21.9188 56.4817 20.7107C58.2802 19.4882 60.978 18.8122 64.5749 18.6827L68.7618 18.5533V17.4962C68.7618 16.2305 68.4309 15.3029 67.7691 14.7132C67.1072 14.1235 66.1864 13.8287 65.0066 13.8287C63.8412 13.8287 62.6973 13.9941 61.5751 14.3249C60.4528 14.6557 59.3305 15.0728 58.2083 15.5761L56.0285 11.132C57.309 10.456 58.7406 9.92386 60.3233 9.53553C61.9204 9.14721 63.5678 8.95305 65.2656 8.95305ZM68.7618 22.3934L66.2152 22.4797C64.0858 22.5372 62.6038 22.9184 61.7693 23.6231C60.9492 24.3278 60.5391 25.2555 60.5391 26.4061C60.5391 27.4129 60.8341 28.132 61.424 28.5635C62.0139 28.9805 62.7836 29.1891 63.7332 29.1891C65.1433 29.1891 66.3303 28.772 67.2943 27.9378C68.2727 27.1036 68.7618 25.9171 68.7618 24.3782V22.3934Z" fill="url(#paint2_radial_1884_4845)"/>
<path d="M94.6826 8.99619C95.0136 8.99619 95.3948 9.01777 95.8265 9.06091C96.2725 9.08968 96.6322 9.13283 96.9056 9.19036L96.4092 15.3604C96.1934 15.2885 95.884 15.2382 95.4812 15.2094C95.0927 15.1662 94.7546 15.1447 94.4668 15.1447C93.6179 15.1447 92.7906 15.2525 91.9849 15.4683C91.1936 15.684 90.4813 16.0364 89.8483 16.5254C89.2152 17 88.7116 17.6328 88.3375 18.4239C87.9778 19.2005 87.798 20.1569 87.798 21.2931V33.5685H81.2155V9.44924H86.2009L87.1721 13.5051H87.4958C87.9706 12.6853 88.5606 11.9374 89.2656 11.2614C89.985 10.5711 90.7979 10.0245 91.7043 9.62183C92.6252 9.20474 93.6179 8.99619 94.6826 8.99619Z" fill="url(#paint3_radial_1884_4845)"/>
<path d="M117.583 9.44924V33.5685H111V9.44924H117.583ZM114.302 0C115.281 0 116.122 0.230118 116.827 0.690355C117.532 1.13621 117.885 1.97758 117.885 3.21447C117.885 4.43697 117.532 5.28553 116.827 5.76015C116.122 6.22039 115.281 6.45051 114.302 6.45051C113.31 6.45051 112.461 6.22039 111.756 5.76015C111.065 5.28553 110.72 4.43697 110.72 3.21447C110.72 1.97758 111.065 1.13621 111.756 0.690355C112.461 0.230118 113.31 0 114.302 0Z" fill="url(#paint4_radial_1884_4845)"/>
<path d="M137.331 8.99619C139.907 8.99619 141.978 9.70093 143.547 11.1104C145.115 12.5055 145.899 14.7492 145.899 17.8414V33.5685H139.317V19.481C139.317 17.7551 139 16.4535 138.367 15.5761C137.748 14.6988 136.77 14.2602 135.432 14.2602C133.418 14.2602 132.044 14.9433 131.31 16.3096C130.576 17.676 130.209 19.6464 130.209 22.2208V33.5685H123.627V9.44924H128.655L129.54 12.5343H129.907C130.425 11.7001 131.065 11.0241 131.828 10.5063C132.605 9.98858 133.461 9.60745 134.396 9.36294C135.346 9.11844 136.324 8.99619 137.331 8.99619Z" fill="url(#paint5_radial_1884_4845)"/>
<path d="M172.101 2.02792C174.965 2.02792 177.324 2.3731 179.18 3.06345C181.051 3.75381 182.439 4.79653 183.346 6.19162C184.252 7.58672 184.705 9.34856 184.705 11.4772C184.705 12.9154 184.432 14.1739 183.885 15.2525C183.338 16.3312 182.619 17.2445 181.727 17.9924C180.835 18.7403 179.871 19.3515 178.835 19.8261L188.115 33.5685H180.691L173.159 21.4657H169.598V33.5685H162.908V2.02792H172.101ZM171.627 7.50761H169.598V16.0292H171.756C173.972 16.0292 175.555 15.6624 176.504 14.9289C177.468 14.181 177.95 13.088 177.95 11.6497C177.95 10.154 177.432 9.08968 176.396 8.45685C175.375 7.82403 173.785 7.50761 171.627 7.50761Z" fill="url(#paint6_radial_1884_4845)"/>
<path d="M200.634 8.99619C202.864 8.99619 204.785 9.42767 206.396 10.2906C208.007 11.1392 209.252 12.3761 210.13 14.0013C211.007 15.6265 211.446 17.6113 211.446 19.9556V23.1485H195.886C195.958 25.0038 196.511 26.4636 197.547 27.5279C198.598 28.5778 200.051 29.1028 201.907 29.1028C203.446 29.1028 204.857 28.9446 206.137 28.6282C207.418 28.3118 208.734 27.8371 210.087 27.2043V32.2957C208.892 32.8854 207.641 33.3168 206.331 33.5901C205.036 33.8634 203.461 34 201.605 34C199.188 34 197.044 33.5541 195.173 32.6624C193.317 31.7707 191.857 30.4116 190.792 28.585C189.742 26.7585 189.217 24.4573 189.217 21.6815C189.217 18.8625 189.692 16.5182 190.641 14.6485C191.605 12.7644 192.943 11.3549 194.655 10.4201C196.368 9.47081 198.36 8.99619 200.634 8.99619ZM200.677 13.6777C199.396 13.6777 198.332 14.0876 197.483 14.9074C196.648 15.7272 196.166 17.0144 196.037 18.769H205.274C205.259 17.791 205.08 16.9209 204.734 16.1586C204.403 15.3964 203.9 14.7923 203.223 14.3464C202.562 13.9006 201.713 13.6777 200.677 13.6777Z" fill="url(#paint7_radial_1884_4845)"/>
<path d="M221.655 33.5685L212.461 9.44924H219.346L224.008 23.1916C224.267 23.997 224.468 24.8456 224.612 25.7373C224.77 26.629 224.878 27.4272 224.936 28.132H225.108C225.152 27.3697 225.252 26.5571 225.411 25.6942C225.583 24.8312 225.806 23.997 226.08 23.1916L230.72 9.44924H237.604L228.41 33.5685H221.655Z" fill="url(#paint8_radial_1884_4845)"/>
<path d="M246.778 9.44924V33.5685H240.195V9.44924H246.778ZM243.497 0C244.476 0 245.317 0.230118 246.022 0.690355C246.727 1.13621 247.08 1.97758 247.08 3.21447C247.08 4.43697 246.727 5.28553 246.022 5.76015C245.317 6.22039 244.476 6.45051 243.497 6.45051C242.504 6.45051 241.655 6.22039 240.95 5.76015C240.26 5.28553 239.915 4.43697 239.915 3.21447C239.915 1.97758 240.26 1.13621 240.95 0.690355C241.655 0.230118 242.504 0 243.497 0Z" fill="url(#paint9_radial_1884_4845)"/>
<path d="M262.771 8.99619C265.001 8.99619 266.922 9.42767 268.533 10.2906C270.145 11.1392 271.389 12.3761 272.267 14.0013C273.144 15.6265 273.583 17.6113 273.583 19.9556V23.1485H258.023C258.095 25.0038 258.649 26.4636 259.684 27.5279C260.735 28.5778 262.188 29.1028 264.044 29.1028C265.584 29.1028 266.994 28.9446 268.274 28.6282C269.555 28.3118 270.871 27.8371 272.224 27.2043V32.2957C271.029 32.8854 269.778 33.3168 268.468 33.5901C267.173 33.8634 265.598 34 263.742 34C261.325 34 259.181 33.5541 257.31 32.6624C255.454 31.7707 253.994 30.4116 252.929 28.585C251.879 26.7585 251.354 24.4573 251.354 21.6815C251.354 18.8625 251.829 16.5182 252.778 14.6485C253.742 12.7644 255.08 11.3549 256.792 10.4201C258.505 9.47081 260.497 8.99619 262.771 8.99619ZM262.814 13.6777C261.533 13.6777 260.469 14.0876 259.62 14.9074C258.785 15.7272 258.303 17.0144 258.174 18.769H267.411C267.396 17.791 267.217 16.9209 266.871 16.1586C266.54 15.3964 266.037 14.7923 265.361 14.3464C264.699 13.9006 263.85 13.6777 262.814 13.6777Z" fill="url(#paint10_radial_1884_4845)"/>
<path d="M297.885 33.5685L296.029 25.1332C295.929 24.6299 295.763 23.8892 295.533 22.9112C295.303 21.9188 295.051 20.8617 294.778 19.7398C294.519 18.6036 294.274 17.5537 294.044 16.5901C293.828 15.6265 293.67 14.9217 293.569 14.4759H293.375C293.274 14.9217 293.116 15.6265 292.9 16.5901C292.684 17.5537 292.44 18.6036 292.166 19.7398C291.907 20.8761 291.663 21.9475 291.432 22.9543C291.202 23.9467 291.03 24.7018 290.914 25.2195L288.972 33.5685H281.893L275.03 9.44924H281.591L284.375 20.1282C284.562 20.8761 284.742 21.7678 284.915 22.8033C285.087 23.8245 285.238 24.8168 285.368 25.7805C285.512 26.7297 285.62 27.4848 285.692 28.0457H285.864C285.893 27.6286 285.951 27.0749 286.037 26.3845C286.138 25.6942 286.246 24.9822 286.361 24.2487C286.49 23.5008 286.605 22.8321 286.706 22.2424C286.821 21.6383 286.907 21.2284 286.965 21.0127L289.943 9.44924H297.195L300.022 21.0127C300.123 21.4298 300.252 22.0914 300.41 22.9975C300.583 23.9036 300.734 24.8384 300.864 25.802C300.993 26.7513 301.065 27.4992 301.08 28.0457H301.252C301.31 27.5567 301.41 26.8304 301.554 25.8668C301.698 24.9031 301.864 23.8964 302.051 22.8464C302.252 21.7822 302.454 20.8761 302.655 20.1282L305.547 9.44924H312L305.051 33.5685H297.885Z" fill="url(#paint11_radial_1884_4845)"/>
<defs>
<radialGradient id="paint0_radial_1884_4845" cx="0" cy="0" r="1" gradientUnits="userSpaceOnUse" gradientTransform="translate(245.611 0.93356) rotate(172.431) scale(247.769 190.609)">
<stop stop-color="#3EC296"/>
<stop offset="1" stop-color="#17597E"/>
</radialGradient>
<radialGradient id="paint1_radial_1884_4845" cx="0" cy="0" r="1" gradientUnits="userSpaceOnUse" gradientTransform="translate(245.611 0.93356) rotate(172.431) scale(247.769 190.609)">
<stop stop-color="#3EC296"/>
<stop offset="1" stop-color="#17597E"/>
</radialGradient>
<radialGradient id="paint2_radial_1884_4845" cx="0" cy="0" r="1" gradientUnits="userSpaceOnUse" gradientTransform="translate(245.611 0.93356) rotate(172.431) scale(247.769 190.609)">
<stop stop-color="#3EC296"/>
<stop offset="1" stop-color="#17597E"/>
</radialGradient>
<radialGradient id="paint3_radial_1884_4845" cx="0" cy="0" r="1" gradientUnits="userSpaceOnUse" gradientTransform="translate(245.611 0.93356) rotate(172.431) scale(247.769 190.609)">
<stop stop-color="#3EC296"/>
<stop offset="1" stop-color="#17597E"/>
</radialGradient>
<radialGradient id="paint4_radial_1884_4845" cx="0" cy="0" r="1" gradientUnits="userSpaceOnUse" gradientTransform="translate(245.611 0.93356) rotate(172.431) scale(247.769 190.609)">
<stop stop-color="#3EC296"/>
<stop offset="1" stop-color="#17597E"/>
</radialGradient>
<radialGradient id="paint5_radial_1884_4845" cx="0" cy="0" r="1" gradientUnits="userSpaceOnUse" gradientTransform="translate(245.611 0.93356) rotate(172.431) scale(247.769 190.609)">
<stop stop-color="#3EC296"/>
<stop offset="1" stop-color="#17597E"/>
</radialGradient>
<radialGradient id="paint6_radial_1884_4845" cx="0" cy="0" r="1" gradientUnits="userSpaceOnUse" gradientTransform="translate(245.611 0.93356) rotate(172.431) scale(247.769 190.609)">
<stop stop-color="#3EC296"/>
<stop offset="1" stop-color="#17597E"/>
</radialGradient>
<radialGradient id="paint7_radial_1884_4845" cx="0" cy="0" r="1" gradientUnits="userSpaceOnUse" gradientTransform="translate(245.611 0.93356) rotate(172.431) scale(247.769 190.609)">
<stop stop-color="#3EC296"/>
<stop offset="1" stop-color="#17597E"/>
</radialGradient>
<radialGradient id="paint8_radial_1884_4845" cx="0" cy="0" r="1" gradientUnits="userSpaceOnUse" gradientTransform="translate(245.611 0.93356) rotate(172.431) scale(247.769 190.609)">
<stop stop-color="#3EC296"/>
<stop offset="1" stop-color="#17597E"/>
</radialGradient>
<radialGradient id="paint9_radial_1884_4845" cx="0" cy="0" r="1" gradientUnits="userSpaceOnUse" gradientTransform="translate(245.611 0.93356) rotate(172.431) scale(247.769 190.609)">
<stop stop-color="#3EC296"/>
<stop offset="1" stop-color="#17597E"/>
</radialGradient>
<radialGradient id="paint10_radial_1884_4845" cx="0" cy="0" r="1" gradientUnits="userSpaceOnUse" gradientTransform="translate(245.611 0.93356) rotate(172.431) scale(247.769 190.609)">
<stop stop-color="#3EC296"/>
<stop offset="1" stop-color="#17597E"/>
</radialGradient>
<radialGradient id="paint11_radial_1884_4845" cx="0" cy="0" r="1" gradientUnits="userSpaceOnUse" gradientTransform="translate(245.611 0.93356) rotate(172.431) scale(247.769 190.609)">
<stop stop-color="#3EC296"/>
<stop offset="1" stop-color="#17597E"/>
</radialGradient>
</defs>
</svg>
