<svg xmlns="http://www.w3.org/2000/svg" width="48" height="48" viewBox="0 0 48 48">
    <g fill="none" fill-rule="evenodd">
        <g>
            <g>
                <g>
                    <g>
                        <path d="M0 0H48V48H0z" transform="translate(-1204 -12) translate(330 12) translate(682) translate(192)"/>
                        <g>
                            <path d="M0 0H24V24H0z" transform="translate(-1204 -12) translate(330 12) translate(682) translate(192) translate(12 12)"/>
                            <path fill="#253E47" fill-rule="nonzero" d="M20.571 12c0 3.84-2.52 7.089-6 8.177V18c0-.733-.308-1.389-.797-1.86 2.246-.407 3.369-1.714 3.369-4.14 0-1.05-.214-1.881-.634-2.529.188-.732.3-1.774-.223-2.614-1.012 0-1.719.596-2.135 1.084-.621-.15-1.337-.227-2.151-.227-.771 0-1.483.086-2.117.262-.412-.493-1.132-1.119-2.169-1.119-.608.977-.36 2.032-.128 2.623-.463.647-.729 1.479-.729 2.52 0 2.426 1.123 3.733 3.369 4.14-.287.279-.51.617-.647 1.003H8.57c-.617 0-.857-.274-1.187-.72-.33-.446-.685-.746-1.11-.87-.227-.026-.381.158-.18.321.673.485.72 1.277.99 1.796.245.467.75.759 1.32.759H9.43v1.748c-3.48-1.088-6-4.337-6-8.177 0-4.736 3.835-8.571 8.571-8.571S20.571 7.264 20.571 12z" transform="translate(-1204 -12) translate(330 12) translate(682) translate(192) translate(12 12)"/>
                        </g>
                    </g>
                </g>
            </g>
        </g>
    </g>
</svg>
