<svg xmlns="http://www.w3.org/2000/svg" width="24" height="24" viewBox="0 0 24 24">
    <g fill="none" fill-rule="evenodd">
        <g>
            <g>
                <g>
                    <path d="M0 0H24V24H0z" transform="translate(-28 -140) translate(12 128) translate(16 12)"/>
                    <path fill="#253E47" fill-rule="nonzero" d="M12 3.328c3.374.001 6.107 2.73 6.107 6.1 0 1.7-.7 3.29-1.915 4.437-.096.091-.172.212-.22.352l-.03.109-1.057 4.759c-.195.876-.938 1.515-1.82 1.587l-.168.007h-1.794c-.898 0-1.683-.587-1.945-1.433l-.042-.161-1.058-4.759c-.041-.186-.13-.347-.25-.462-1.214-1.146-1.915-2.735-1.915-4.435 0-3.371 2.733-6.1 6.107-6.1zm1.66 14.35h-3.32l.24 1.081c.048.215.22.375.43.412l.093.008h1.794c.22 0 .414-.134.496-.332l.028-.088.239-1.08zm-1.661-12.85l-.21.005c-2.448.11-4.396 2.124-4.396 4.596 0 1.282.528 2.479 1.444 3.345.296.279.51.634.633 1.027l.053.2.483 2.177h3.987l.485-2.177c.09-.405.275-.778.544-1.081l.14-.146c.917-.866 1.445-2.063 1.445-3.345 0-2.472-1.948-4.485-4.397-4.596L12 4.828z" transform="translate(-28 -140) translate(12 128) translate(16 12)"/>
                </g>
            </g>
        </g>
    </g>
</svg>
