<svg width="20" height="18" viewBox="0 0 20 18" fill="none" xmlns="http://www.w3.org/2000/svg">
<path d="M19.3334 9.32679V13.5504C19.3318 13.8138 19.2623 14.0723 19.1314 14.3006C19.0005 14.5289 18.8128 14.7192 18.5867 14.8529L14.9408 16.9603C14.7151 17.0954 14.4571 17.1667 14.1942 17.1667C13.9313 17.1667 13.6733 17.0954 13.4475 16.9603L9.80169 14.8529C9.57556 14.7192 9.38789 14.5289 9.25702 14.3006C9.12616 14.0723 9.05654 13.8138 9.05504 13.5504V12.365L10.9217 11.2776V13.3382L14.1883 15.2407L17.455 13.3382V9.5419L14.1883 7.63937L6.53504 12.0884C6.30712 12.2172 6.04993 12.285 5.78834 12.285C5.52675 12.285 5.26961 12.2172 5.04169 12.0884L1.39584 9.97219C1.17321 9.83642 0.989142 9.64539 0.861427 9.41751C0.733712 9.18962 0.666652 8.93258 0.666687 8.67113V4.44751C0.668192 4.18414 0.737807 3.92566 0.868672 3.69736C0.999572 3.46905 1.18724 3.27872 1.41334 3.14502L5.05919 1.0376C5.28546 0.903868 5.54327 0.833344 5.80584 0.833344C6.06845 0.833344 6.32626 0.903868 6.55254 1.0376L10.1983 3.14502C10.4245 3.27872 10.6122 3.46905 10.743 3.69736C10.8739 3.92566 10.9435 4.18414 10.945 4.44751V5.63293L9.06669 6.71299V4.66413L5.80003 2.7616L2.53334 4.66413V8.45599L5.80003 10.3585L13.4533 5.90953C13.6813 5.78066 13.9384 5.71297 14.2 5.71297C14.4616 5.71297 14.7188 5.78066 14.9467 5.90953L18.5925 8.02573C18.8173 8.16006 19.0037 8.35046 19.1335 8.57842C19.2633 8.80641 19.3322 9.06422 19.3334 9.32679Z" fill="#253E47" fill-opacity="1"/>
</svg>
