<svg xmlns="http://www.w3.org/2000/svg" width="24" height="24" viewBox="0 0 24 24">
    <g fill="none" fill-rule="evenodd">
        <g fill="#253E47" fill-rule="nonzero">
            <g>
                <g>
                    <g>
                        <path d="M12 0c6.627 0 12 5.373 12 12s-5.373 12-12 12S0 18.627 0 12 5.373 0 12 0zm0 1.467C6.183 1.467 1.467 6.183 1.467 12c0 5.817 4.716 10.533 10.533 10.533 5.817 0 10.533-4.716 10.533-10.533 0-5.817-4.716-10.533-10.533-10.533zm8.204 7.973c-.01.036-.024.07-.042.105-.022.104-.089.282-.188.509l-.134.294-.16.332-.18.36-.196.378-.207.387-.212.387-.213.376-.208.357-.198.327-.183.29-.085.126-.151.213c-.046.061-.088.112-.124.15l-.05.05-.697.592 3.415 1.71c-1.652 2.904-4.776 4.861-8.357 4.861-3.63 0-6.79-2.012-8.425-4.98l3.345-1.595-.717-.588c-.059-.051-.137-.149-.23-.282l-.147-.225-.252-.42-.182-.321-.189-.347-.19-.362-.19-.37-.183-.37-.174-.36-.16-.343-.141-.318-.12-.284-.093-.241c-.026-.073-.047-.137-.063-.192-.024-.033-.045-.067-.062-.103.612.414 1.825.82 3.413 1.105l.487.082c.25.04.507.075.771.108l.538.06c.547.057 1.12.098 1.715.122l.329.011.332.008.516.005.516-.005.582-.016c3.186-.12 5.792-.745 6.888-1.406l.107-.069.149-.108zM7.52 11.68l.207.753c.139.442.296.863.484 1.29l.147.322.342.673c.04.08.094.15.162.215l.072.061.289.214c.493.332 1.04.569 1.686.744l.248.063.682.134.129.012h.1l.13-.012.701-.138c.654-.157 1.219-.373 1.74-.692l.194-.124.275-.205c.071-.054.132-.118.182-.193l.046-.077.35-.691c.198-.42.367-.835.518-1.278l.11-.337.194-.702c-.42.797-1.25 1.362-2.255 1.459l-.138.01-.147-.016c-.746-.104-1.403-.502-1.819-1.083l-.08-.118-.043-.073-.084.13c-.407.585-1.054.993-1.818 1.125l-.154.022-.14.014-.134-.011c-.968-.104-1.781-.684-2.176-1.49zm4.494-8.213c.534 0 1.219.368 2.18 1.096l.43.334.181.146.52.429 1.387 1.173 1.161.309.301.084.266.079.216.066.285.096.17.061.15.059c.663.268.992.554.992.934l-.005.078-.016.076-.149.115c-.735.52-2.319 1.03-4.373 1.325l-.63.082-.655.068c-.445.04-.906.07-1.38.09l-.564.015-.517.005-.518-.005-.333-.008c-3.43-.105-6.23-.83-7.277-1.577-.04-.086-.062-.174-.062-.264 0-.42.353-.758 1.122-1.058-.123-.13-.18-.247-.328-.344.232-.266.66-.484.956-.526.585-.097.945.077 1.34.109-.305-.131-.894-.703-1.102-.963-.247-.556-.07-1.034.08-1.3l.032-.053.054-.082.065-.087.04-.005.166-.004c.25.002.659.035.806.2.241.34.355.69.427 1l.061.296c.044.233.079.43.153.56l.044-.169.068-.33c.046-.221.107-.448.254-.714.259-.467 1.157-1.106 1.794-.98l.018.103.07.251c.017.082.02.169-.012.287.936-.701 1.608-1.057 2.132-1.057z" transform="translate(-28 -249) translate(12 237) translate(16 12)"/>
                    </g>
                </g>
            </g>
        </g>
    </g>
</svg>
