<svg xmlns="http://www.w3.org/2000/svg" width="48" height="48" viewBox="0 0 48 48">
    <g fill="none" fill-rule="evenodd">
        <g>
            <g>
                <g>
                    <path d="M0 0H48V48H0z" transform="translate(-1012 -12) translate(330 12) translate(682)"/>
                    <g>
                        <path d="M0 0H24V24H0z" transform="translate(-1012 -12) translate(330 12) translate(682) translate(12 12)"/>
                        <path fill="#253E47"  fill-rule="nonzero" d="M4.213 10.978C9.599 8.608 16.569 5.72 17.532 5.32c2.523-1.047 3.298-.846 2.912 1.472-.278 1.665-1.078 7.18-1.715 10.614-.379 2.035-1.228 2.277-2.563 1.396-.642-.424-3.882-2.567-4.586-3.07-.642-.459-1.527-1.01-.417-2.097.396-.387 2.986-2.86 5.004-4.785.264-.253-.068-.668-.373-.465-2.72 1.803-6.491 4.307-6.971 4.633-.726.493-1.422.719-2.672.36-.945-.272-1.867-.595-2.227-.719-1.383-.475-1.054-1.09.289-1.68z" transform="translate(-1012 -12) translate(330 12) translate(682) translate(12 12)"/>
                    </g>
                </g>
            </g>
        </g>
    </g>
</svg>
