<svg width="24" height="24" viewBox="0 0 24 24" fill="none" xmlns="http://www.w3.org/2000/svg">
<path d="M11.9999 3.32141C16.7929 3.32141 20.6784 7.20694 20.6784 12C20.6784 16.793 16.7929 20.6786 11.9999 20.6786C7.20682 20.6786 3.32129 16.793 3.32129 12C3.32129 7.20694 7.20682 3.32141 11.9999 3.32141ZM11.9999 4.82141C8.03524 4.82141 4.82129 8.03537 4.82129 12C4.82129 15.9646 8.03524 19.1786 11.9999 19.1786C15.9645 19.1786 19.1784 15.9646 19.1784 12C19.1784 8.03537 15.9645 4.82141 11.9999 4.82141ZM13.0889 8.82561L13.173 8.89822L15.7445 11.4697C16.0107 11.7359 16.0349 12.1526 15.8171 12.4462L15.7445 12.5303L13.173 15.1017C12.8802 15.3946 12.4053 15.3946 12.1124 15.1017C11.8461 14.8355 11.8219 14.4188 12.0398 14.1252L12.1124 14.0411L13.4023 12.7494L8.78557 12.75C8.37136 12.75 8.03557 12.4142 8.03557 12C8.03557 11.6203 8.31773 11.3065 8.6838 11.2568L8.78557 11.25L13.4033 11.2494L12.1124 9.95888C11.8461 9.69262 11.8219 9.27595 12.0398 8.98234L12.1124 8.89822C12.3787 8.63196 12.7953 8.60775 13.0889 8.82561Z" fill="#253E47" fill-opacity="0.5"/>
</svg>
