<svg width="66" height="72" viewBox="0 0 66 72" fill="none" xmlns="http://www.w3.org/2000/svg">
<path fill-rule="evenodd" clip-rule="evenodd" d="M25.379 2.05649C30.0949 -0.685487 35.9051 -0.685487 40.621 2.05649L58.379 12.3816C63.0949 15.1236 66 20.191 66 25.6749L66 46.3251C66 51.809 63.0949 56.8764 58.379 59.6184L40.621 69.9435C35.9051 72.6855 30.0949 72.6855 25.379 69.9435L7.62102 59.6184C2.90512 56.8765 -8.82574e-07 51.809 -1.12229e-06 46.3251L-2.02493e-06 25.6749C-2.26465e-06 20.191 2.90511 15.1236 7.62102 12.3816L25.379 2.05649Z" fill="#3EBD93" fill-opacity="0.1"/>
<path fill-rule="evenodd" clip-rule="evenodd" d="M56.871 14.975L39.1131 4.64997C35.3294 2.45001 30.6706 2.45001 26.8869 4.64997L9.12896 14.9751C5.34283 17.1764 3 21.2525 3 25.6749L3 46.3251C3 50.7475 5.34283 54.8236 9.12896 57.025L26.8869 67.35C30.6706 69.55 35.3294 69.55 39.1131 67.35L56.871 57.025C60.6572 54.8236 63 50.7475 63 46.3251L63 25.6749C63 21.2525 60.6572 17.1764 56.871 14.975ZM40.621 2.05649C35.9051 -0.685487 30.0949 -0.685487 25.379 2.05649L7.62102 12.3816C2.90511 15.1236 -2.26465e-06 20.191 -2.02493e-06 25.6749L-1.12229e-06 46.3251C-8.82574e-07 51.809 2.90512 56.8765 7.62102 59.6184L25.379 69.9435C30.0949 72.6855 35.9051 72.6855 40.621 69.9435L58.379 59.6184C63.0949 56.8764 66 51.809 66 46.3251L66 25.6749C66 20.191 63.0949 15.1236 58.379 12.3816L40.621 2.05649Z" fill="#3EBD93" fill-opacity="0.1"/>
<path d="M20.2913 25.6581C17.6119 24.7298 15.857 23.1814 15.857 21.428C15.857 18.5877 20.4621 16.2852 26.1428 16.2852C31.0744 16.2852 35.1954 18.0205 36.1964 20.3366C39.3983 21.2082 41.5713 22.9055 41.5713 24.8566C41.5713 26.3885 40.2317 27.764 38.1063 28.7062L38.109 28.7225C40.2329 29.6646 41.5713 31.0396 41.5713 32.5709C41.5713 35.1193 37.8641 37.2348 32.9989 37.6427C32.9996 37.6663 32.9999 37.69 32.9999 37.7137C32.9999 38.9733 32.0943 40.127 30.591 41.0212C31.7102 41.3588 32.6904 41.7999 33.4784 42.3181C33.1676 43.2992 32.9999 44.344 32.9999 45.428C32.9999 46.512 33.1676 47.5568 33.4784 48.5379C31.5998 49.7733 28.629 50.5709 25.2856 50.5709C19.605 50.5709 14.9999 48.2683 14.9999 45.428C14.9999 44.1685 15.9055 43.0147 17.4088 42.1206C14.4243 41.2204 12.4285 39.5836 12.4285 37.7137C12.4285 35.2665 15.847 33.2185 20.4267 32.6985C18.658 31.7749 17.5713 30.522 17.5713 29.1423C17.5713 27.7981 18.6027 26.5744 20.2913 25.6581Z" fill="#3EBD93" fill-opacity="0.1"/>
<circle cx="42.4284" cy="44.5709" r="10.2857" fill="white"/>
<path d="M45.157 38.7016C44.1031 37.8562 43.3904 37.4272 42.8497 37.4272C42.4411 37.4272 41.9303 37.673 41.2451 38.1672L40.9635 38.3755C40.9984 38.2525 40.9884 38.1672 40.966 38.0844L40.9286 37.9565C40.9162 37.9139 40.9037 37.8637 40.8962 37.806C40.3331 37.6906 39.5383 38.2601 39.309 38.6765C39.1819 38.9073 39.1271 39.1055 39.0873 39.2962L39.0399 39.5245L39.0338 39.5508C39.0184 39.6178 39.0024 39.6869 38.9826 39.7578C38.9278 39.6624 38.8979 39.5295 38.868 39.3714L38.8306 39.1707C38.7708 38.8546 38.6761 38.4758 38.417 38.1045C38.3049 37.9791 38.0233 37.9389 37.8065 37.9289L37.6595 37.9264L37.5574 37.9289L37.5225 37.9339L37.4652 38.0117L37.4178 38.0844L37.3904 38.1321C37.2559 38.3704 37.0989 38.7969 37.3182 39.2911C37.5025 39.5245 38.0233 40.0337 38.2924 40.1491C38.2226 40.1416 38.1554 40.1316 38.0856 40.119L37.8738 40.0764C37.657 40.0337 37.4178 39.9986 37.1064 40.0513C36.8472 40.0864 36.466 40.2821 36.2617 40.5179C36.3479 40.5746 36.3999 40.6403 36.4566 40.7118C36.4851 40.7478 36.5149 40.7853 36.5507 40.824C35.8705 41.0899 35.559 41.3909 35.559 41.7647C35.559 41.845 35.5789 41.9253 35.6138 42.0006C36.5407 42.6654 39.015 43.3126 42.0499 43.4054L42.3464 43.413L42.8049 43.418L43.2633 43.413L43.4851 43.4079L43.7617 43.3979C46.6944 43.2825 49.0765 42.6553 49.986 42.0056L50.0682 41.9429L50.1155 41.9027L50.1305 41.835L50.1355 41.7647C50.1355 41.4261 49.8464 41.1702 49.2584 40.9318L49.1263 40.8792L48.9768 40.824L48.7252 40.7387L48.5333 40.6785L48.2991 40.6082L47.8879 40.4928L47.0059 40.2595L45.78 39.2134L45.319 38.832L45.157 38.7016Z" fill="#2DA287"/>
<path fill-rule="evenodd" clip-rule="evenodd" d="M50.0557 42.841C50.0707 42.8109 50.0831 42.7808 50.0931 42.7482L50.0507 42.7833L49.9685 42.8435L49.8738 42.9037C49.1986 43.3151 47.873 43.709 46.1786 43.9473L45.7276 44.005C45.1147 44.0778 44.4619 44.1305 43.7791 44.1555L43.4851 44.1656L43.2633 44.1706L42.8074 44.1756L42.3514 44.1706L42.0574 44.1631L41.7658 44.153C41.2401 44.133 40.7318 44.0953 40.2484 44.0452L39.7725 43.99C39.5383 43.9624 39.309 43.9298 39.0898 43.8946L38.6587 43.8219C37.2534 43.5685 36.1794 43.2072 35.6387 42.8385C35.6537 42.8711 35.6711 42.9012 35.6936 42.9313C35.6985 42.9463 35.7035 42.9639 35.7085 42.9815L35.7484 43.0994L35.8306 43.3151L35.9353 43.5685L36.0598 43.852L36.2019 44.1581L36.3564 44.4792L36.5183 44.8078L36.6853 45.1364L36.8547 45.4601L37.0216 45.7686L37.1836 46.0546L37.2608 46.1876L37.4054 46.4284L37.5175 46.6041C37.6072 46.7345 37.6844 46.8323 37.7393 46.88L38.0856 47.1685L38.3721 47.4018L35.4145 48.8218C36.8597 51.4659 39.6529 53.2572 42.8647 53.2572C46.0341 53.2572 48.7949 51.5136 50.2575 48.9296L47.2376 47.4068L47.8555 46.88L47.9004 46.8374C47.9403 46.7947 47.9901 46.7345 48.0424 46.6618L48.157 46.4962L48.2193 46.4008L48.3813 46.1424L48.5557 45.8514L48.7401 45.5328L48.927 45.1967L49.1139 44.853L49.2957 44.5093L49.4702 44.1731L49.6296 43.852L49.7717 43.556L49.8913 43.2951L49.9585 43.132L50.0109 42.994C50.0308 42.9338 50.0482 42.8811 50.0557 42.841ZM39.0599 45.4124L38.8755 44.7426C39.2243 45.4601 39.9444 45.9769 40.8115 46.0697L40.9286 46.0797L41.0532 46.0672L41.1903 46.0471C41.8655 45.9317 42.4361 45.5679 42.7974 45.0461L42.8721 44.9307L42.9095 44.996L42.9793 45.1013C43.3456 45.6181 43.9261 45.9719 44.5864 46.0647L44.716 46.0797L44.8381 46.0697C45.7252 45.9819 46.4602 45.4801 46.8315 44.7702L46.6595 45.3948L46.5624 45.6959C46.4278 46.0898 46.2783 46.4585 46.1039 46.8323L45.7924 47.447L45.7526 47.5172C45.7102 47.5825 45.6554 47.6401 45.5931 47.6878L45.3489 47.8709L45.177 47.9813C44.7135 48.2648 44.2152 48.4555 43.6371 48.596L43.0167 48.7189L42.9021 48.7289H42.8123L42.6977 48.7189L42.0947 48.601L41.8755 48.5458C41.3024 48.3903 40.819 48.1795 40.3829 47.8835L40.1288 47.6928L40.064 47.6376C40.0042 47.5799 39.9569 47.5172 39.922 47.447L39.618 46.8474L39.4884 46.5614C39.3215 46.1801 39.1819 45.8063 39.0599 45.4124Z" fill="#2DA287"/>
<path fill-rule="evenodd" clip-rule="evenodd" d="M40.6753 29.982C41.8091 29.1426 42.466 28.1457 42.4661 27.0764H42.4685V24.8507H42.466C42.4642 22.9958 40.4691 21.3547 37.4416 20.3799C36.945 17.6121 32.0054 15.4282 26.0221 15.4282C19.7106 15.4282 14.5645 17.8589 14.5616 20.8368V23.0624C14.5616 24.4595 15.6829 25.7329 17.5238 26.6929C16.9017 27.3583 16.5557 28.0931 16.5549 28.8647V31.0903C16.5549 31.52 16.661 31.9381 16.8616 32.3389C13.6851 33.3024 11.5734 34.9852 11.5715 36.8926V39.1181C11.5716 40.6865 12.9847 42.099 15.2425 43.0872C14.8025 43.6602 14.5622 44.2775 14.5616 44.9204V47.146C14.5616 50.1345 19.6927 52.5571 26.0221 52.5571C28.8108 52.5571 31.3668 52.0869 33.3538 51.3052C35.3368 54.371 38.7265 56.4378 42.5887 56.5649C42.7142 56.569 42.8403 56.5711 42.9669 56.5711C43.0935 56.5711 43.2195 56.569 43.3451 56.5649C49.3596 56.3669 54.226 51.465 54.4226 45.4118C54.4266 45.2853 54.4287 45.1584 54.4287 45.031C54.4287 44.9036 54.4266 44.7766 54.4225 44.6502C54.2218 38.4682 49.1519 33.4909 42.9669 33.4909C42.7999 33.4909 42.6338 33.4946 42.4685 33.5017V32.8786H42.466C42.465 31.8141 41.8076 30.8201 40.6753 29.982ZM40.791 33.7001C40.9077 33.4339 40.9688 33.1593 40.9688 32.8787C40.9688 32.0714 40.4635 31.3142 39.5842 30.6645C39.5492 30.6831 39.514 30.7016 39.4785 30.72V31.0903H39.476C39.476 33.0061 37.3674 34.6893 34.1861 35.6509C33.7409 35.7854 33.2746 35.9059 32.7902 36.0108C31.3366 36.3258 29.7195 36.5014 28.0155 36.5014C26.8971 36.5014 25.8161 36.4258 24.7943 36.2847C25.4437 36.5123 26.1591 36.7051 26.9255 36.8567C28.172 37.1031 29.5534 37.2404 31.0056 37.2404C31.6803 37.2404 32.3398 37.2108 32.9776 37.1543C33.4991 37.1081 34.0062 37.044 34.4951 36.9635C34.612 36.9443 34.7278 36.9241 34.8426 36.903C36.4333 35.2914 38.4914 34.1479 40.791 33.7001ZM31.7558 42.6276C29.6568 43.7896 26.5348 44.527 23.0479 44.5293C24.8692 45.5863 27.7609 46.2718 31.0056 46.2718C31.195 46.2718 31.3831 46.2694 31.5699 46.2648C31.5615 46.1856 31.5539 46.1061 31.5471 46.0263C31.5192 45.6982 31.505 45.3662 31.5051 45.031C31.5051 44.2073 31.5915 43.4032 31.7558 42.6276ZM20.9873 24.5981C20.5093 24.4748 20.0567 24.3346 19.6337 24.1794C17.451 23.3781 16.059 22.1763 16.059 20.8369C16.059 18.4347 20.5361 16.4752 26.0222 16.4752C30.8034 16.4752 34.815 17.9621 35.7698 19.9333C35.9111 20.225 35.9854 20.5272 35.9854 20.8369C35.9854 20.9156 35.9806 20.9939 35.9711 21.0716C35.832 22.2099 34.6876 23.2348 32.9214 23.9785C32.2775 24.2497 31.5508 24.4835 30.7601 24.6717C29.3495 25.0076 27.7351 25.1986 26.0222 25.1986C25.0711 25.1986 24.1504 25.1397 23.278 25.0298C22.4941 24.9311 21.7493 24.7912 21.0567 24.6158L20.9873 24.5981ZM18.7624 27.2496C18.3045 27.7496 18.0524 28.2947 18.0524 28.8647L18.0526 28.8966C18.0682 29.8415 18.7764 30.7167 19.9652 31.4293C20.0829 31.4999 20.2053 31.5688 20.3322 31.6361C20.6085 31.7826 20.9062 31.9211 21.2231 32.0507C21.6608 32.2297 22.1352 32.3917 22.6407 32.5342C24.1931 32.9721 26.0389 33.2265 28.0156 33.2265C28.147 33.2265 28.2779 33.2253 28.4081 33.2231C29.316 33.2076 30.1934 33.1384 31.0242 33.0226C32.2006 32.8587 33.2835 32.6014 34.227 32.2707C33.2051 32.4118 32.124 32.4875 31.0055 32.4875C30.5072 32.4875 30.0164 32.4724 29.5349 32.4433C27.6762 32.3309 25.9568 32.0083 24.4869 31.5275C23.7289 31.2796 23.0373 30.9896 22.4273 30.6647C22.0271 30.4516 21.6619 30.2234 21.3362 29.9823C20.3679 29.2655 19.7473 28.4339 19.5865 27.5404C19.4188 27.4866 19.2542 27.4307 19.0929 27.3728C18.9811 27.3327 18.8709 27.2916 18.7624 27.2496ZM34.8992 28.8646C35.6872 28.7173 36.4236 28.5267 37.0927 28.2997C37.3371 28.2168 37.5725 28.129 37.7981 28.0367C38.2606 27.8476 38.6821 27.6395 39.056 27.4153C40.2581 26.6947 40.9688 25.8079 40.9688 24.8508C40.9688 23.5299 39.6158 22.3428 37.4852 21.5418V23.0624H37.4827C37.4827 23.8382 37.1368 24.5759 36.514 25.243C36.2542 25.5213 35.9461 25.7873 35.5948 26.0387C34.7829 26.6197 33.74 27.1224 32.5279 27.5177C30.6798 28.1205 28.4383 28.4735 26.0221 28.4735C25.8287 28.4735 25.6365 28.4713 25.4455 28.4668C25.9683 28.6215 26.5261 28.7551 27.1126 28.8647C28.3096 29.0886 29.6257 29.2125 31.0056 29.2125C32.3857 29.2125 33.702 29.0885 34.8992 28.8646ZM17.5167 33.2635C14.8389 34.0469 13.069 35.3822 13.069 36.8926C13.069 38.6008 15.3327 40.0851 18.6133 40.8002C18.9666 40.8772 19.3318 40.9453 19.7072 41.0038C20.1199 41.0681 20.545 41.1208 20.9805 41.161C21.0477 41.1672 21.1152 41.1731 21.183 41.1788C21.7825 41.2284 22.4006 41.2543 23.0322 41.2543C24.8694 41.2543 26.5935 41.0346 28.0741 40.652C28.3496 40.5809 28.6167 40.504 28.8745 40.422C27.274 40.2799 25.7909 39.9806 24.4997 39.5595C24.0943 39.4273 23.7078 39.2831 23.3426 39.1279C22.8961 38.9382 22.4813 38.7322 22.1024 38.5118C20.5033 37.5815 19.545 36.3957 19.545 35.1042V34.7352C18.7101 34.3029 18.0217 33.8066 17.5167 33.2635ZM16.059 44.9205C16.059 44.4527 16.2288 44.0018 16.5427 43.5788C17.4575 43.8761 18.4683 44.1122 19.5487 44.2748C19.6721 46.5814 22.8525 48.5293 27.2485 49.2492C26.8465 49.271 26.4373 49.2822 26.0222 49.2822C20.5361 49.2822 16.059 47.3227 16.059 44.9205ZM52.2037 45.031C52.2037 50.1538 48.055 54.3308 42.9669 54.3308C37.8789 54.3308 33.7277 50.1513 33.7302 45.031C33.7302 39.9082 37.8789 35.7312 42.9669 35.7312C48.055 35.7312 52.2037 39.9082 52.2037 45.031Z" fill="#2DA287"/>
</svg>
