<svg xmlns="http://www.w3.org/2000/svg" width="24" height="24" viewBox="0 0 24 24">
    <g fill="none" fill-rule="evenodd">
        <g>
            <g>
                <g>
                    <path d="M0 0H24V24H0z" transform="translate(-28 -249) translate(12 237) translate(16 12)"/>
                    <path fill="#253E47" fill-rule="nonzero" d="M12.775 3.75c.306 0 .604.087.86.25l.125.087.195.158.234.2.439.393 1.424 1.309.382.345.337.297.302.257c1.52 1.341 2.01 2.302 1.489 3.656l-.074.18-.084.179-.257.522-.793 1.547-.962 1.838v3.782h3.537c.414 0 .75.336.75.75 0 .38-.283.693-.649.743l-.101.007H4.07c-.414 0-.75-.336-.75-.75 0-.38.283-.693.649-.743l.101-.007h3.535v-6.206l-1.474-3.21-.108-.266c-.064-.19-.1-.402-.121-.64-.015-.17-.02-.341-.018-.51l.006-.248.016-.264c.025-.286.092-.596.197-.96l.109-.357.294-.881.083-.277c.178-.652.743-1.116 1.407-1.175l.143-.006h4.635zm2.117 6.643h-3.044l.722 1.653.07.184c.381 1.171-.205 2.454-1.365 2.92-.741.3-1.545.195-2.168-.21v3.81h5.785v-8.357zM12.775 5.25H8.14c-.037 0-.07.018-.088.045l-.014.031-.101.336-.296.885-.098.322c-.074.258-.12.47-.14.654l-.008.133-.01.27c-.001.127.002.255.012.373.01.113.025.205.043.27l.02.056.022.053 1.83 3.973.282.63c.178.442.68.656 1.12.479.408-.165.622-.605.513-1.018l-.034-.102-.678-1.55-.49-1.153-.033-.094c-.12-.442.177-.887.624-.944l.098-.006h4.929c.38 0 .693.282.743.648l.007.102v2.078l.4-.786.325-.664c.301-.69.116-1.082-1.021-2.086l-.132-.111-.434-.378-.513-.462-1.547-1.42-.257-.228-.209-.18-.164-.134-.031-.016-.035-.006z" transform="translate(-28 -249) translate(12 237) translate(16 12)"/>
                </g>
            </g>
        </g>
    </g>
</svg>
