<svg width="20" height="18" viewBox="0 0 20 18" fill="none" xmlns="http://www.w3.org/2000/svg">
<path d="M6.24997 7.75C5.83576 7.75 5.49997 8.08579 5.49997 8.5C5.49997 8.91421 5.83576 9.25 6.24997 9.25H13.75C14.1642 9.25 14.5 8.91421 14.5 8.5C14.5 8.08579 14.1642 7.75 13.75 7.75H6.24997Z" fill="#253E47" fill-opacity="0.25"/>
<path fill-rule="evenodd" clip-rule="evenodd" d="M0.699951 3.19995C0.699951 1.5431 2.0431 0.199951 3.69995 0.199951H16.2999C17.9568 0.199951 19.3 1.5431 19.3 3.19995V13.5999C19.3 15.1913 18.0609 16.4933 16.4949 16.5937C16.4982 16.6287 16.5 16.6641 16.5 16.6999C16.5 17.3074 16.0075 17.7999 15.4 17.7999C14.7924 17.7999 14.3 17.3074 14.3 16.6999C14.3 16.6662 14.3015 16.6329 14.3044 16.6H5.69549C5.69845 16.6329 5.69997 16.6662 5.69997 16.6999C5.69997 17.3074 5.20748 17.7999 4.59997 17.7999C3.99246 17.7999 3.49997 17.3074 3.49997 16.6999C3.49997 16.6641 3.50168 16.6287 3.50503 16.5937C1.93902 16.4933 0.699951 15.1913 0.699951 13.6V3.19995ZM3.69995 1.69995H16.2999C17.1284 1.69995 17.8 2.37153 17.8 3.19995V13.5999C17.8 14.4284 17.1284 15.1 16.3 15.1H3.69995C2.87153 15.1 2.19995 14.4284 2.19995 13.6V3.19995C2.19995 2.37152 2.87152 1.69995 3.69995 1.69995Z" fill="#253E47" fill-opacity="0.25"/>
</svg>
