<svg width="60" height="60" viewBox="0 0 60 60" fill="none" xmlns="http://www.w3.org/2000/svg">
<rect x="0.5" y="0.5" width="59" height="59" rx="7.5" fill="black" stroke="black"/>
<mask id="path-2-outside-1_2035_7175" maskUnits="userSpaceOnUse" x="15.9141" y="9.91406" width="29" height="40" fill="black">
<rect fill="white" x="15.9141" y="9.91406" width="29" height="40"/>
<path d="M38.2851 41.7749H39.4713V40.5886V39.4024H40.6576H41.8438V38.2162H43.03V37.03V35.8438V34.6576V33.4713V32.2851V31.0989H41.8438H40.6576V29.9127V28.7265H39.4713V27.5402H38.2851H37.0989H35.9127H34.7265H33.5402H32.354H31.1678H29.9816H28.7954V26.354V25.1678V23.9816V22.7954V21.6092V20.4134H29.9816H31.1678H32.354V21.5996V22.7858V23.972H33.5402H34.7265H35.9127H37.0989H38.2851V22.7858V21.5996V20.4134V19.2272V18.0409V16.8452V15.6589H37.0989H35.9127H34.7265H33.5402V14.4727V13.2865V12.1003V10.9141H32.354H31.1678H29.9816H28.7954H27.6092V12.1003V13.2865V14.4727V15.6589H26.4134H25.2272H24.0409H22.8547V16.8452V18.0314V19.2176H21.6685H20.4823V20.4038V21.59V22.7762V23.9625V25.1487V26.3349V27.5211H21.6685H22.8547V28.7073V29.8935H21.6685H20.4823V31.0798H19.2961V32.266H18.1003V33.4522H16.9141V34.6384V35.8246V37.0109V38.1971V39.3833H18.1003H19.2865H20.4727V40.5695V41.7557H21.6589H22.8452H24.0314H25.2176H26.4038H27.59H28.7762V42.9419V44.1282V45.3144V46.5006V47.6868V48.873H29.9625H31.1487H32.3349H33.5211V47.6868V46.5006V45.3144V44.1282V42.9611V41.7749H34.7073H35.8935H37.0798H38.2851ZM24.0409 31.0989V32.2851H25.2272H26.4134H27.5996H28.7858H29.972H31.1582H32.3445H33.5307H34.7169H35.9031V33.4713V34.6576V35.8438V37.03H34.7169H33.5307H32.3445H31.1678H29.9816H28.7954H27.6092H26.4134H25.2272H24.0409H22.8547V35.8438V34.6576V33.4713V32.2851V31.0989H24.0409Z"/>
</mask>
<path d="M38.2851 41.7749H39.4713V40.5886V39.4024H40.6576H41.8438V38.2162H43.03V37.03V35.8438V34.6576V33.4713V32.2851V31.0989H41.8438H40.6576V29.9127V28.7265H39.4713V27.5402H38.2851H37.0989H35.9127H34.7265H33.5402H32.354H31.1678H29.9816H28.7954V26.354V25.1678V23.9816V22.7954V21.6092V20.4134H29.9816H31.1678H32.354V21.5996V22.7858V23.972H33.5402H34.7265H35.9127H37.0989H38.2851V22.7858V21.5996V20.4134V19.2272V18.0409V16.8452V15.6589H37.0989H35.9127H34.7265H33.5402V14.4727V13.2865V12.1003V10.9141H32.354H31.1678H29.9816H28.7954H27.6092V12.1003V13.2865V14.4727V15.6589H26.4134H25.2272H24.0409H22.8547V16.8452V18.0314V19.2176H21.6685H20.4823V20.4038V21.59V22.7762V23.9625V25.1487V26.3349V27.5211H21.6685H22.8547V28.7073V29.8935H21.6685H20.4823V31.0798H19.2961V32.266H18.1003V33.4522H16.9141V34.6384V35.8246V37.0109V38.1971V39.3833H18.1003H19.2865H20.4727V40.5695V41.7557H21.6589H22.8452H24.0314H25.2176H26.4038H27.59H28.7762V42.9419V44.1282V45.3144V46.5006V47.6868V48.873H29.9625H31.1487H32.3349H33.5211V47.6868V46.5006V45.3144V44.1282V42.9611V41.7749H34.7073H35.8935H37.0798H38.2851ZM24.0409 31.0989V32.2851H25.2272H26.4134H27.5996H28.7858H29.972H31.1582H32.3445H33.5307H34.7169H35.9031V33.4713V34.6576V35.8438V37.03H34.7169H33.5307H32.3445H31.1678H29.9816H28.7954H27.6092H26.4134H25.2272H24.0409H22.8547V35.8438V34.6576V33.4713V32.2851V31.0989H24.0409Z" fill="url(#paint0_linear_2035_7175)"/>
<path d="M38.2851 41.7749H39.4713V40.5886V39.4024H40.6576H41.8438V38.2162H43.03V37.03V35.8438V34.6576V33.4713V32.2851V31.0989H41.8438H40.6576V29.9127V28.7265H39.4713V27.5402H38.2851H37.0989H35.9127H34.7265H33.5402H32.354H31.1678H29.9816H28.7954V26.354V25.1678V23.9816V22.7954V21.6092V20.4134H29.9816H31.1678H32.354V21.5996V22.7858V23.972H33.5402H34.7265H35.9127H37.0989H38.2851V22.7858V21.5996V20.4134V19.2272V18.0409V16.8452V15.6589H37.0989H35.9127H34.7265H33.5402V14.4727V13.2865V12.1003V10.9141H32.354H31.1678H29.9816H28.7954H27.6092V12.1003V13.2865V14.4727V15.6589H26.4134H25.2272H24.0409H22.8547V16.8452V18.0314V19.2176H21.6685H20.4823V20.4038V21.59V22.7762V23.9625V25.1487V26.3349V27.5211H21.6685H22.8547V28.7073V29.8935H21.6685H20.4823V31.0798H19.2961V32.266H18.1003V33.4522H16.9141V34.6384V35.8246V37.0109V38.1971V39.3833H18.1003H19.2865H20.4727V40.5695V41.7557H21.6589H22.8452H24.0314H25.2176H26.4038H27.59H28.7762V42.9419V44.1282V45.3144V46.5006V47.6868V48.873H29.9625H31.1487H32.3349H33.5211V47.6868V46.5006V45.3144V44.1282V42.9611V41.7749H34.7073H35.8935H37.0798H38.2851ZM24.0409 31.0989V32.2851H25.2272H26.4134H27.5996H28.7858H29.972H31.1582H32.3445H33.5307H34.7169H35.9031V33.4713V34.6576V35.8438V37.03H34.7169H33.5307H32.3445H31.1678H29.9816H28.7954H27.6092H26.4134H25.2272H24.0409H22.8547V35.8438V34.6576V33.4713V32.2851V31.0989H24.0409Z" stroke="black" stroke-width="2" mask="url(#path-2-outside-1_2035_7175)"/>
<path d="M41.3854 44.1889H41.8854V43.6889V41.8165H43.7578H44.2578V41.3165V40.6303H44.9441H45.4441V40.1303V29.1848V28.6848H44.9441H43.0716V26.8124V26.3124H42.5716H41.8854V25.6262V25.1262H41.3854H40.6992V13.7449V13.2449H40.1992H35.9543V9V8.5H35.4543H25.6951H25.1951V9V13.2449H20.9407H20.4407V13.7449V16.8035H18.5682H18.0682V17.3035V28.6657H17.382H16.882V29.1657V29.8519H16.1862H15.6862V30.3519V31.0381H15H14.5V31.5381V41.2974V41.7974H15H18.0587V43.6698V44.1698H18.5587H26.3622V50.7871V51.2871H26.8622H35.4352H35.9352V50.7871V44.1889H41.3854ZM22.8547 27.0211H20.9823V19.7176H22.8547H23.3547V19.2176V16.1589H27.6092H28.1092V15.6589V11.4141H33.0402V15.6589V16.1589H33.5402H37.7851V23.472H32.854V20.4134V19.9134H32.354H28.7954H28.2954V20.4134V27.5402V28.0402H28.7954H38.9713V28.7265V29.2265H39.4713H40.1576V31.0989V31.5989H40.6576H42.53V37.7162H41.8438H41.3438V38.2162V38.9024H39.4713H38.9713V39.4024V41.2749H33.5211H33.0211V41.7749V48.373H29.2762V41.7557V41.2557H28.7762H20.9727V39.3833V38.8833H20.4727H17.4141V33.9522H18.1003H18.6003V33.4522V32.766H19.2961H19.7961V32.266V31.5798H20.4823H20.9823V31.0798V30.3935H22.8547H23.3547V29.8935V27.5211V27.0211H22.8547ZM35.9031 31.7851H24.5409V31.0989V30.5989H24.0409H22.8547H22.3547V31.0989V37.03V37.53H22.8547H35.9031H36.4031V37.03V32.2851V31.7851H35.9031Z" fill="#FFC700" stroke="black"/>
<defs>
<linearGradient id="paint0_linear_2035_7175" x1="29.972" y1="10.9141" x2="29.972" y2="48.873" gradientUnits="userSpaceOnUse">
<stop stop-color="#0038FF"/>
<stop offset="1" stop-color="#0038FF" stop-opacity="0"/>
</linearGradient>
</defs>
</svg>
