<svg xmlns="http://www.w3.org/2000/svg" width="60" height="60" viewBox="0 0 60 60">
    <g fill="none" fill-rule="evenodd">
        <g>
            <g>
                <g transform="translate(-942 -224) translate(922 204) translate(20 20)">
                    <rect width="60" height="60" fill="#0E101F" rx="8"/>
                    <g fill="#F9A825" fill-rule="nonzero">
                        <path d="M11.588 9.88c1.055 0 2.002.18 2.841.542.746.321 1.382.768 1.907 1.34l.192.221-2.034 1.873-.166-.176c-.73-.737-1.59-1.105-2.579-1.105-.968 0-1.749.298-2.34.895-.592.597-.888 1.394-.888 2.391 0 .636.134 1.202.403 1.7.27.5.646.888 1.13 1.168.485.279 1.039.419 1.663.419.526 0 1.024-.093 1.494-.278l.233-.1v-3.155h2.826v4.765l-.283.195c-.577.377-1.226.674-1.945.89-.84.252-1.68.378-2.519.378-1.184 0-2.249-.255-3.196-.765-.947-.509-1.69-1.218-2.228-2.128-.538-.909-.807-1.939-.807-3.089s.269-2.18.807-3.09c.538-.908 1.286-1.618 2.244-2.127.958-.51 2.04-.764 3.245-.764zm10.3 2.678c1.452 0 2.56.337 3.325 1.01.713.63 1.094 1.571 1.141 2.825l.005.273v4.946h-2.857v-1.15l-.088.157c-.463.761-1.294 1.141-2.495 1.141-.678 0-1.265-.12-1.76-.361-.495-.241-.869-.567-1.122-.978-.253-.41-.38-.879-.38-1.405 0-.843.318-1.498.953-1.963.586-.43 1.466-.662 2.64-.695l.298-.004h1.744l-.014-.152c-.11-.84-.724-1.261-1.843-1.261-.42 0-.844.068-1.275.205-.344.11-.647.253-.91.429l-.188.138-1.033-2.12.214-.136c.441-.263.959-.473 1.554-.628.694-.18 1.39-.27 2.09-.27zm-18.146.148v8.906H.675v-8.906h3.067zm27.622 0v8.906h-3.068v-8.906h3.068zm7.684-.148c1.087 0 1.961.329 2.623.986.615.61.944 1.509.988 2.696l.005.278v5.094h-3.067v-4.584l-.004-.187c-.048-1.091-.526-1.637-1.433-1.637-.527 0-.95.175-1.267.526-.282.311-.44.761-.47 1.35l-.006.227v4.305h-3.068v-8.906h2.922v.97l.178-.174c.305-.278.655-.496 1.05-.656.473-.192.99-.288 1.549-.288zm-15.756 5.423h-1.324l-.173.004c-.778.037-1.167.337-1.167.9 0 .274.102.493.307.657.204.164.484.247.84.247.355 0 .667-.088.936-.263.224-.146.396-.35.515-.61l.066-.163v-.772zM2.209 8.401c.56 0 1.011.15 1.356.452.344.301.516.687.516 1.158 0 .493-.172.901-.516 1.225-.345.323-.797.484-1.356.484-.56 0-1.012-.159-1.356-.476-.345-.318-.517-.712-.517-1.183 0-.471.172-.866.517-1.183.344-.318.796-.477 1.356-.477zm27.621 0c.56 0 1.012.15 1.356.452.344.301.517.687.517 1.158 0 .493-.173.901-.517 1.225-.344.323-.796.484-1.356.484s-1.012-.159-1.356-.476c-.344-.318-.517-.712-.517-1.183 0-.471.173-.866.517-1.183.344-.318.796-.477 1.356-.477zM43 0v8.401l-1.167-.182c-1.992-.322-3.981-.66-5.97-1.006L29.9 6.168c-3.976-.697-7.954-1.38-11.947-1.968l-2.237-.333-.658-.092-.665-.088-.669-.08-.335-.037-.674-.067c-4.05-.363-8.191-.074-11.22 2.864l-.215.212-.262.27C.691 7.194.305 7.634 0 8.078V0h43z" transform="translate(9 19)"/>
                    </g>
                </g>
            </g>
        </g>
    </g>
</svg>
