<svg xmlns="http://www.w3.org/2000/svg" width="40" height="40" viewBox="0 0 40 40">
    <g fill="none" fill-rule="evenodd">
        <g>
            <g>
                <g>
                    <g>
                        <g transform="translate(-714 -916) translate(330 760) translate(0 140) translate(364) translate(20 16)">
                            <rect width="40" height="40" fill="#E6FAF4" rx="8"/>
                            <path fill="#3BB88A" d="M15.524 6.403c1.181-.37 2.531-.443 3.78-.385l.463.028.45.038.435.047.416.053.581.088.355.062.475.092.613.135.408.102v1.894h-2.437v2.526H23.5v2.451h2.51v2.563h-2.473v2.562h-2.511v2.452h-2.548v2.563h2.511v2.488h2.51v2.6h2.918l.029.22.046.287.06.34.115.59.323 1.55.498 2.25H16.706l-.039-.246-.088-.636-.056-.336-.075-.385c-.071-.342-.166-.735-.297-1.183-.495-1.702-1.92-1.899-3.404-1.871l-.372.01-1.1.045-.176.003-.345-.002c-.057-.001-.113-.003-.168-.006-.512-.027-1.055-.198-1.354-.616-.19-.268-.259-.602-.307-.927-.041-.271-.072-.567-.1-.876l-.076-.95c-.053-.64-.117-1.277-.244-1.811-.065-.274-.15-.552-.326-.773-.132-.166-.314-.306-.51-.438l-.359-.236c-.477-.317-.907-.666-.79-1.328.048-.28.206-.527.374-.755l.489-.646c.46-.613.949-1.313 1.13-1.962.229-.823.303-1.557.346-2.263l.058-1.047c.06-.926.176-1.858.647-2.94 1.09-2.507 3.357-4.606 5.96-5.42zm4.42 20.432H17.47v2.489h2.474v-2.49zm11.611-.517v2.488h-2.474v-2.488h2.474zm-4.3-1.545v2.489H24.78v-2.489h2.474zm2.474-3.345v2.489h-2.475v-2.49h2.475zm-5.44-.263v2.49h-2.475v-2.49h2.474zM27 18.077v2.489h-2.475v-2.49h2.475zm2.961-2.49v2.49h-2.474v-2.49h2.474zM19.324 15.4h-2.475v2.49h2.475v-2.49zM33.5 12.655v2.488h-2.474v-2.488H33.5zm-12.319-.574h-2.474v2.49h2.474v-2.49zm-5.028-1.063h-2.475v2.489h2.475v-2.489zm13.688-.852v2.489h-2.474v-2.49h2.474zm-3.199-1.802v2.489h-2.474V8.364h2.474z"/>
                        </g>
                    </g>
                </g>
            </g>
        </g>
    </g>
</svg>
