<svg width="24" height="24" viewBox="0 0 24 24" xmlns="http://www.w3.org/2000/svg">
    <g fill="none" fill-rule="evenodd">
        <path d="M0 0h24v24H0z"/>
        <path d="m19.737 15.106.12.01a.762.762 0 0 1 .634.633l.009.12v3.869a.761.761 0 0 1-.642.753l-.12.009h-3.875a.762.762 0 0 1-.097-1.515l.103-.01h3.106V15.87c0-.121.03-.24.084-.346l.062-.102.078-.091a.762.762 0 0 1 .42-.214l.118-.01zm-15.475.01c.38 0 .697.279.754.65l.009.103-.001 3.106h3.113a.762.762 0 0 1 .718.553l.023.108.006.102c0 .38-.279.697-.65.753l-.103.009H4.262a.762.762 0 0 1-.752-.642l-.01-.12v-3.875a.762.762 0 0 1 .762-.747zM12 6.772a2.604 2.604 0 0 1 2.597 2.401l.007.207v.411l.106-.033c.137-.053.267-.125.385-.214l.113-.096.105-.106c.265-.3.402-.692.38-1.108a.762.762 0 0 1 1.525-.01 3.064 3.064 0 0 1-1.501 2.734l-.218.117-.012.004.053.017c.883.294 1.555.927 1.757 1.715l.036.171.02.155.006.16a.762.762 0 0 1-.762.747l-.052-.001-.05-.005-.069-.014.072.087.066.087.12.182c.265.436.404.938.4 1.446a.762.762 0 0 1-1.517.101l-.015-.249a1.246 1.246 0 0 0-.063-.278l-.055-.131-.069-.123-.052.106c-1.333 2.549-5.092 2.594-6.529.173l-.098-.177-.051-.104-.07.124a1.25 1.25 0 0 0-.117.412l-.014.25a.762.762 0 0 1-1.518-.102 2.75 2.75 0 0 1 .564-1.69l.093-.114-.068.013-.102.007a.763.763 0 0 1-.762-.753c0-.937.666-1.739 1.63-2.125l.184-.068.058-.018-.194-.101a3.064 3.064 0 0 1-.503-.36l-.15-.143-.142-.154a3.057 3.057 0 0 1-.742-2.088c0-.42.341-.762.762-.762.42 0 .762.342.762.778a1.526 1.526 0 0 0 .85 1.449l.134.059.105.033V9.38c0-.553.175-1.088.495-1.53l.127-.162.14-.152A2.605 2.605 0 0 1 12 6.772zm.002 1.233a1.394 1.394 0 0 0-1.379 1.22l-.01.155v1.724l-.009.086a.455.455 0 0 1-.179.282 2.515 2.515 0 0 0-.968 1.993c.102 3.232 4.617 3.354 5.054.372l.02-.182.012-.19-.007-.194a2.514 2.514 0 0 0-.962-1.8.455.455 0 0 1-.179-.281l-.008-.086V9.38l-.008-.157c-.034-.31-.174-.6-.398-.821a1.394 1.394 0 0 0-.979-.397zM8.131 3.5a.762.762 0 0 1 .103 1.515l-.103.01-3.107-.001v3.113a.763.763 0 0 1-.552.718l-.108.023-.102.006a.762.762 0 0 1-.753-.65L3.5 8.131V4.262a.763.763 0 0 1 .642-.753l.12-.009h3.869zm11.607 0a.762.762 0 0 1 .753.642l.009.12v3.875a.762.762 0 0 1-1.515.097l-.01-.103V5.024h-3.112a.763.763 0 0 1-.718-.552l-.023-.108-.006-.102c0-.38.279-.697.645-.753l.102-.009h3.875z" fill="#253E47" fill-rule="nonzero"/>
    </g>
</svg>
