<svg width="120" height="120" viewBox="0 0 120 120" fill="none" xmlns="http://www.w3.org/2000/svg">
<path d="M70.8079 65.6066C79.7722 65.6066 87.0388 58.3343 87.0388 49.3638C87.0388 40.3933 79.7722 33.1216 70.8079 33.1216C61.8436 33.1216 54.5763 40.3933 54.5763 49.3638C54.5763 58.3343 61.8436 65.6066 70.8079 65.6066ZM89.7792 64.6359L108.813 83.683C110.393 85.2642 110.401 87.8201 108.805 89.4169C107.22 91.0029 104.652 91.0042 103.075 89.4258L83.6985 70.0359C79.9602 72.3749 75.542 73.7271 70.8084 73.7271C57.3621 73.7271 46.4617 62.8192 46.4617 49.3636C46.4617 35.9079 57.3621 25 70.8084 25C84.2548 25 95.1552 35.9079 95.1552 49.3636C95.1552 55.1459 93.1425 60.4579 89.7792 64.6359ZM14 39.2125C14 36.9699 15.379 35.1522 17.0345 35.1522H35.3119C36.9878 35.1522 38.3464 36.9542 38.3464 39.2125C38.3464 41.4552 36.9674 43.2729 35.3119 43.2729H17.0345C15.3586 43.2729 14 41.4708 14 39.2125ZM14 63.5761C14 61.3334 15.379 59.5157 17.0345 59.5157H35.3119C36.9878 59.5157 38.3464 61.3177 38.3464 63.5761C38.3464 65.8187 36.9674 67.6364 35.3119 67.6364H17.0345C15.3586 67.6364 14 65.8344 14 63.5761ZM14 87.9396C14 85.697 15.3349 83.8793 17.0393 83.8793H74.8715C76.5501 83.8793 77.9109 85.6813 77.9109 87.9396C77.9109 90.1823 76.576 92 74.8715 92H17.0393C15.3608 92 14 90.198 14 87.9396Z" fill="#3EBD93"/>
<path d="M87.039 49.364C87.039 58.3345 79.7723 65.6068 70.808 65.6068C61.8437 65.6068 54.5764 58.3345 54.5764 49.364C54.5764 40.3935 61.8437 33.1218 70.808 33.1218C79.7723 33.1218 87.039 40.3935 87.039 49.364Z" fill="#3EBD93" fill-opacity="0.1"/>
</svg>
