<svg xmlns="http://www.w3.org/2000/svg" width="24" height="24" viewBox="0 0 24 24">
    <g fill="none" fill-rule="evenodd">
        <g>
            <g>
                <g>
                    <path d="M0 0H24V24H0z" transform="translate(-190 -249) translate(12 237) translate(178 12)"/>
                    <path fill="#253E47" fill-opacity=".5" fill-rule="nonzero" d="M12.775 10.789h.542c1.406 0 2.811.004 4.217-.005.211-.001.376.04.438.259.058.2.034.366-.152.527-.78.675-1.538 1.376-2.31 2.06-.94.836-1.89 1.661-2.83 2.498-.802.716-1.594 1.443-2.393 2.163-.42.378-.852.742-1.264 1.129-.168.136-.388.087-.528-.058-.123-.127-.127-.31-.078-.41.68-1.419 1.373-2.83 2.071-4.239.237-.478.5-.942.782-1.472H7.672c-.425 0-.851-.009-1.276.004-.189.006-.33-.099-.38-.268-.049-.162.024-.338.113-.431.377-.392.781-.755 1.186-1.116.48-.429.974-.84 1.457-1.265.847-.748 1.693-1.497 2.535-2.251.8-.717 1.595-1.443 2.394-2.163.427-.385.86-.763 1.286-1.15.203-.183.41-.084.51.031.137.16.127.352.076.457l-2.798 5.7z" transform="translate(-190 -249) translate(12 237) translate(178 12)"/>
                </g>
            </g>
        </g>
    </g>
</svg>
