<svg width="66" height="72" viewBox="0 0 66 72" fill="none" xmlns="http://www.w3.org/2000/svg">
<g clip-path="url(#clip0_1881_5329)">
<path fill-rule="evenodd" clip-rule="evenodd" d="M25.379 2.05649C30.0949 -0.685487 35.9051 -0.685487 40.621 2.05649L58.379 12.3816C63.0949 15.1236 66 20.191 66 25.6749L66 46.3251C66 51.809 63.0949 56.8764 58.379 59.6184L40.621 69.9435C35.9051 72.6855 30.0949 72.6855 25.379 69.9435L7.62102 59.6184C2.90512 56.8765 -8.82574e-07 51.809 -1.12229e-06 46.3251L-2.02493e-06 25.6749C-2.26465e-06 20.191 2.90511 15.1236 7.62102 12.3816L25.379 2.05649Z" fill="#3EBD93" fill-opacity="0.1"/>
<path fill-rule="evenodd" clip-rule="evenodd" d="M56.871 14.975L39.1131 4.64997C35.3294 2.45001 30.6706 2.45001 26.8869 4.64997L9.12896 14.9751C5.34283 17.1764 3 21.2525 3 25.6749L3 46.3251C3 50.7475 5.34283 54.8236 9.12896 57.025L26.8869 67.35C30.6706 69.55 35.3294 69.55 39.1131 67.35L56.871 57.025C60.6572 54.8236 63 50.7475 63 46.3251L63 25.6749C63 21.2525 60.6572 17.1764 56.871 14.975ZM40.621 2.05649C35.9051 -0.685487 30.0949 -0.685487 25.379 2.05649L7.62102 12.3816C2.90511 15.1236 -2.26465e-06 20.191 -2.02493e-06 25.6749L-1.12229e-06 46.3251C-8.82574e-07 51.809 2.90512 56.8765 7.62102 59.6184L25.379 69.9435C30.0949 72.6855 35.9051 72.6855 40.621 69.9435L58.379 59.6184C63.0949 56.8764 66 51.809 66 46.3251L66 25.6749C66 20.191 63.0949 15.1236 58.379 12.3816L40.621 2.05649Z" fill="#3EBD93" fill-opacity="0.1"/>
<rect x="21" y="23.1431" width="24" height="25.7143" fill="white"/>
<path d="M15 45.4288H20.1429V22.2859H41.5714V17.1431H15V45.4288Z" fill="#3EBD93" fill-opacity="0.1"/>
<path d="M51 26.5716H45.8571V49.7145H24.4286V54.8574H51V26.5716Z" fill="#3EBD93" fill-opacity="0.1"/>
<path fill-rule="evenodd" clip-rule="evenodd" d="M15 16.457C14.6213 16.457 14.3143 16.764 14.3143 17.1427V45.4285C14.3143 45.8072 14.6213 46.1142 15 46.1142H19.2857V49.8511C19.2857 50.2486 19.5894 50.5713 19.9636 50.5713H23.7429V54.857C23.7429 55.2357 24.0499 55.5427 24.4286 55.5427H51C51.3787 55.5427 51.6857 55.2357 51.6857 54.857V26.5713C51.6857 26.1926 51.3787 25.8856 51 25.8856H46.7143V22.1487C46.7143 21.7511 46.4106 21.4284 46.0364 21.4284H42.2572V17.1427C42.2572 16.764 41.9502 16.457 41.5714 16.457H15ZM40.8857 21.4284V17.8285H15.6857V44.7427H19.2857V22.1487C19.2857 21.7511 19.5894 21.4284 19.9636 21.4284H40.8857ZM25.1143 50.5713V54.1713H50.3143V27.257H46.7143V49.8511C46.7143 50.2486 46.4106 50.5713 46.0364 50.5713H25.1143ZM27.8571 27.857C27.8571 29.5139 26.514 30.857 24.8571 30.857C23.2003 30.857 21.8571 29.5139 21.8571 27.857C21.8571 26.2002 23.2003 24.857 24.8571 24.857C26.514 24.857 27.8571 26.2002 27.8571 27.857ZM45 38.0741V35.2114L43.1257 32.8999C42.9524 32.6855 42.6927 32.5643 42.4234 32.5716C42.1529 32.5777 41.899 32.7113 41.7353 32.933L36.0873 40.5951L29.3765 32.8766C29.2033 32.677 28.9553 32.5655 28.6967 32.5716C28.4369 32.5765 28.1937 32.699 28.0288 32.9048L21 41.6902V44.5713C21.0142 44.5566 21.0285 44.5407 21.0415 44.5235L28.743 34.8978L35.4811 42.6493C35.6579 42.8527 35.9141 42.9642 36.1787 42.9531C36.4444 42.9421 36.69 42.8098 36.8513 42.5918L42.4767 34.9615L45 38.0741Z" fill="#2DA287"/>
</g>
<defs>
<clipPath id="clip0_1881_5329">
<rect width="66" height="72" rx="8" fill="white"/>
</clipPath>
</defs>
</svg>
