<svg width="24" height="24" viewBox="0 0 24 24" fill="none" xmlns="http://www.w3.org/2000/svg">
<path fill-rule="evenodd" clip-rule="evenodd" d="M12.9551 5.29999C13.3196 5.29999 13.62 5.57525 13.664 5.93098L13.6696 6.02148V9.37049L15.4344 9.70828V8.72551C15.4344 8.32707 15.754 8.00402 16.1488 8.00402C16.5133 8.00402 16.8137 8.27928 16.8577 8.63501L16.8633 8.72551V9.98202L20.4181 10.6627C20.7245 10.7209 20.9543 10.9726 20.9939 11.2789L21 11.3723V16.0385C21 16.4063 20.7277 16.7093 20.3752 16.7538L20.2855 16.7594H18.6865C18.3691 17.8646 17.3581 18.6802 16.1488 18.6802C14.995 18.6802 14.0214 17.9365 13.6593 16.9082L13.6117 16.7594H10.2333C9.56374 17.9173 8.31064 18.7 6.875 18.7C4.73838 18.7 3 16.9697 3 14.8432C3 14.1163 3.20306 13.4363 3.55562 12.8558C3.4232 10.5328 4.31436 9.13609 6.15914 8.92508L6.15998 6.02148C6.15998 5.65369 6.43278 5.35013 6.78531 5.30561L6.875 5.29999H12.9551ZM6.875 12.4276C5.52698 12.4276 4.43002 13.5107 4.43002 14.842C4.43002 16.1734 5.52698 17.2564 6.875 17.2564C8.22302 17.2564 9.31997 16.1734 9.31997 14.842C9.31997 13.5107 8.22302 12.4276 6.875 12.4276ZM16.1483 14.8386C15.4754 14.8386 14.9277 15.3765 14.9277 16.0373C14.9277 16.6987 15.4754 17.2366 16.1483 17.2366C16.8211 17.2366 17.3693 16.6987 17.3693 16.0373C17.3693 15.3765 16.8211 14.8386 16.1483 14.8386Z" fill="url(#paint0_linear_264_343)"/>
<defs>
<linearGradient id="paint0_linear_264_343" x1="5.9375" y1="9.08464" x2="10.4801" y2="17.5317" gradientUnits="userSpaceOnUse">
<stop stop-color="#FFCD59"/>
<stop offset="1" stop-color="#FF8833"/>
</linearGradient>
</defs>
</svg>
