<svg width="24" height="24" viewBox="0 0 24 24" fill="none" xmlns="http://www.w3.org/2000/svg">
<path fill-rule="evenodd" clip-rule="evenodd" d="M19.4142 18.0475C19.0392 18.4013 18.5305 18.6 18 18.6L7.19998 18.5999C6.35133 18.5999 5.53731 18.2819 4.93724 17.7159C4.33717 17.1499 4 16.3821 4 15.5816V7.98217C4.00144 7.29777 4.29026 6.64169 4.80334 6.15774C5.31641 5.67379 6.01196 5.40122 6.7376 5.40002H17.5998C18.2365 5.40002 18.8469 5.63841 19.2969 6.06307C19.7469 6.48756 19.9999 7.06328 19.9999 7.66364V7.91843C19.9999 8.18812 19.8473 8.43711 19.5998 8.57194C19.3523 8.70677 19.0474 8.70677 18.7999 8.57194C18.5523 8.43707 18.3999 8.1881 18.3999 7.91843V7.66364C18.3999 7.46354 18.3156 7.27163 18.1656 7.13013C18.0156 6.98863 17.812 6.90917 17.5998 6.90917H6.80533C6.49077 6.91395 6.19039 7.03272 5.96609 7.24052C5.7418 7.4485 5.6108 7.72979 5.60011 8.02628C5.61098 8.304 5.73545 8.567 5.94761 8.75976C6.15995 8.9527 6.44313 9.06036 6.73773 9.06019H17.5999C18.2366 9.06019 18.847 9.29857 19.297 9.72323C19.7471 10.1477 20 10.7234 20 11.3238V16.7136C20 17.2139 19.7893 17.6938 19.4142 18.0475ZM15.52 12.6601C14.9898 12.6601 14.56 13.1033 14.56 13.6501C14.56 14.1968 14.9898 14.6401 15.52 14.6401H18.08V12.6601H15.52Z" fill="url(#paint0_linear_264_345)"/>
<defs>
<linearGradient id="paint0_linear_264_345" x1="7.83576" y1="9.29416" x2="12.7809" y2="16.9045" gradientUnits="userSpaceOnUse">
<stop stop-color="#FFCD59"/>
<stop offset="1" stop-color="#FF8833"/>
</linearGradient>
</defs>
</svg>
