<svg xmlns="http://www.w3.org/2000/svg" width="24" height="24" viewBox="0 0 24 24">
    <g fill="none" fill-rule="evenodd">
        <g>
            <g>
                <g>
                    <g>
                        <g>
                            <path d="M0 0H24V24H0z" transform="translate(-868 -556) translate(330 12) translate(0 412) translate(396) translate(142 132)"/>
                            <path fill="#2DA287" fill-opacity="1" fill-rule="nonzero" d="M11.41 5.554c.415 0 .75.335.75.75 0 .38-.281.693-.648.743l-.101.007H7.482c-.838 0-1.527.641-1.6 1.46l-.007.147v7.857c0 .838.642 1.527 1.46 1.6l.147.007h7.857c.839 0 1.527-.642 1.6-1.46l.007-.147v-3.929c0-.414.336-.75.75-.75.38 0 .694.282.744.649l.006.101v3.929c0 1.657-1.296 3.01-2.93 3.102l-.177.005H7.482c-1.657 0-3.01-1.297-3.102-2.93l-.005-.177V8.66c0-1.657 1.297-3.011 2.93-3.103l.177-.004h3.929zm1.863-1.172l.102-.007 5.547.001.09.012.133.037.099.047.067.043.094.08c.037.037.07.077.097.119l.05.09.019.04.022.063c.011.037.02.076.025.116l.007.102v5.5c0 .414-.336.75-.75.75-.38 0-.693-.282-.743-.648l-.007-.102-.001-3.689-5.79 5.79c-.293.294-.768.294-1.06 0-.267-.266-.291-.682-.073-.976l.072-.084 5.791-5.792-3.689.001c-.38 0-.693-.282-.743-.648l-.007-.102c0-.38.282-.693.648-.743z" transform="translate(-868 -556) translate(330 12) translate(0 412) translate(396) translate(142 132)"/>
                        </g>
                    </g>
                </g>
            </g>
        </g>
    </g>
</svg>
