<svg width="20" height="20" viewBox="0 0 20 20" fill="none" xmlns="http://www.w3.org/2000/svg">
<rect width="20" height="20" rx="6.64" fill="#52666D"/>
<path d="M6.31616 5.23111L10.0001 3.125L13.684 5.23111L12.3296 6.00912L10.0001 4.68111L7.67044 6.00912L6.31616 5.23111ZM13.684 7.88721L12.3296 7.10912L10.0001 8.43721L7.67044 7.10912L6.31616 7.88721V9.44332L8.64564 10.7713V13.4274L10.0001 14.2055L11.3545 13.4274V10.7713L13.684 9.44332V7.88721ZM13.684 12.0993V10.5432L12.3296 11.3213V12.8774L13.684 12.0993ZM14.6456 12.6494L12.3161 13.9774V15.5335L16 13.4274V9.21527L14.6456 9.9932V12.6494ZM13.2912 6.55912L14.6456 7.33718V8.89328L16 8.11523V6.55912L14.6456 5.78111L13.2912 6.55912ZM8.64564 14.5408V16.0969L10.0001 16.875L11.3545 16.0969V14.5408L10.0001 15.3189L8.64564 14.5408ZM6.31616 12.0993L7.67044 12.8774V11.3213L6.31616 10.5432V12.0993ZM8.64564 6.55912L10.0001 7.33718L11.3545 6.55912L10.0001 5.78111L8.64564 6.55912ZM5.3544 7.33718L6.70884 6.55912L5.3544 5.78111L4 6.55912V8.11523L5.3544 8.89328V7.33718ZM5.3544 9.9932L4 9.21527V13.4274L7.68404 15.5335V13.9774L5.3544 12.6494V9.9932Z" fill="white"/>
</svg>
