<svg xmlns="http://www.w3.org/2000/svg" width="24" height="24" viewBox="0 0 24 24">
    <defs>
        <linearGradient id="1cvnsjyiua" x1="50%" x2="50%" y1="0%" y2="100%">
            <stop offset="0%" stop-color="#FFD580"/>
            <stop offset="100%" stop-color="#FFF" stop-opacity="0"/>
        </linearGradient>
    </defs>
    <g fill="none" fill-rule="evenodd">
        <g>
            <g>
                <g>
                    <g>
                        <g>
                            <path d="M0 0H24V24H0z" transform="translate(-662 -452) translate(330 12) translate(0 412) translate(324 20) translate(8 8)"/>
                            <path fill="url(#1cvnsjyiua)" d="M12 7.304l-.21.005c-2.445.111-4.392 2.13-4.392 4.609 0 1.286.528 2.486 1.443 3.355.295.28.51.635.631 1.03l.053.2.483 2.184h3.983l.484-2.184c.09-.406.275-.78.543-1.084l.141-.146c.916-.869 1.443-2.069 1.443-3.355 0-2.479-1.947-4.498-4.391-4.609L12 7.304z" transform="translate(-662 -452) translate(330 12) translate(0 412) translate(324 20) translate(8 8)"/>
                            <path fill="#253E47" fill-opacity=".5" fill-rule="nonzero" d="M12 5.8l.224.004c3.266.119 5.876 2.808 5.876 6.114 0 1.705-.7 3.298-1.912 4.449-.097.091-.173.213-.22.353l-.03.109L14.88 21.6c-.194.88-.937 1.52-1.818 1.592l-.167.007h-1.792c-.897 0-1.68-.588-1.942-1.437l-.043-.162-1.056-4.771c-.042-.188-.13-.349-.25-.464C6.6 15.216 5.9 13.623 5.9 11.918c0-3.306 2.61-5.995 5.876-6.114L12 5.8zm1.658 14.391h-3.316l.24 1.084c.047.215.22.376.43.413l.092.008h1.792c.22 0 .414-.134.495-.332l.028-.089.239-1.084zm6.085-1.828l.707.707c.391.39.391 1.023 0 1.414-.39.39-1.023.39-1.414 0l-.707-.707c-.39-.39-.39-1.024 0-1.414.39-.39 1.024-.39 1.414 0zm-14.106-.035c.39.39.39 1.024 0 1.414l-.707.707c-.391.39-1.024.39-1.415 0-.39-.39-.39-1.024 0-1.414l.708-.707c.39-.39 1.023-.39 1.414 0zM12 7.304l-.21.005c-2.445.111-4.392 2.13-4.392 4.609 0 1.286.528 2.486 1.443 3.355.295.28.51.635.631 1.03l.053.2.483 2.184h3.983l.484-2.184c.09-.406.275-.78.543-1.084l.141-.146c.916-.869 1.443-2.069 1.443-3.355 0-2.479-1.947-4.498-4.391-4.609L12 7.304zM23 11c.552 0 1 .448 1 1s-.448 1-1 1h-1c-.552 0-1-.448-1-1s.448-1 1-1h1zM2 11c.552 0 1 .448 1 1s-.448 1-1 1H1c-.552 0-1-.448-1-1s.448-1 1-1h1zm18.485-7.451c.39.39.39 1.023 0 1.414l-.707.707c-.39.39-1.023.39-1.414 0-.39-.39-.39-1.023 0-1.414l.707-.707c.39-.39 1.024-.39 1.414 0zM4.964 3.514l.707.707c.39.39.39 1.024 0 1.415-.39.39-1.024.39-1.414 0l-.707-.707c-.39-.39-.39-1.024 0-1.415.39-.39 1.023-.39 1.414 0zM12 0c.552 0 1 .448 1 1v1c0 .552-.448 1-1 1s-1-.448-1-1V1c0-.552.448-1 1-1z" transform="translate(-662 -452) translate(330 12) translate(0 412) translate(324 20) translate(8 8)"/>
                        </g>
                    </g>
                </g>
            </g>
        </g>
    </g>
</svg>
