<svg xmlns="http://www.w3.org/2000/svg" width="24" height="24" viewBox="0 0 24 24">
    <g fill="none" fill-rule="evenodd">
        <g>
            <g>
                <g>
                    <g>
                        <g>
                            <g>
                                <path d="M0 0H24V24H0z" transform="translate(-998 -1083) translate(137 991) translate(812) translate(21) translate(12 80) translate(16 12)"/>
                                <path fill="#253E47" fill-rule="nonzero" d="M11.536 3.482l-6.091 4.8c-.8.63-1.266 1.591-1.266 2.608v8.181c0 .651.527 1.179 1.178 1.179h4.286c.65 0 1.178-.528 1.178-1.179v-4.285c0-.06.048-.107.108-.107h2.142c.06 0 .108.047.108.107v4.285c0 .651.527 1.179 1.178 1.179h4.286c.65 0 1.178-.528 1.178-1.179v-8.18c0-1.018-.466-1.98-1.265-2.61l-6.092-4.799c-.272-.214-.656-.214-.928 0zM12 5.026l5.627 4.434.126.109c.361.342.568.82.568 1.321v7.859h-3.643v-3.963c0-.888-.719-1.607-1.607-1.607H10.93l-.147.006c-.819.074-1.46.762-1.46 1.6L9.32 18.75H5.678V10.89c0-.557.256-1.085.695-1.43L12 5.026z" transform="translate(-998 -1083) translate(137 991) translate(812) translate(21) translate(12 80) translate(16 12)"/>
                            </g>
                        </g>
                    </g>
                </g>
            </g>
        </g>
    </g>
</svg>
