<svg width="28" height="28" viewBox="0 0 28 28" fill="none" xmlns="http://www.w3.org/2000/svg">
<path d="M14 3.5C19.799 3.5 24.5 8.20101 24.5 14C24.5 19.799 19.799 24.5 14 24.5C8.20101 24.5 3.5 19.799 3.5 14C3.5 8.20101 8.20101 3.5 14 3.5ZM14 4.78333C8.90977 4.78333 4.78333 8.90977 4.78333 14C4.78333 19.0902 8.90977 23.2167 14 23.2167C19.0902 23.2167 23.2167 19.0902 23.2167 14C23.2167 8.90977 19.0902 4.78333 14 4.78333ZM21.1784 11.7604C21.1694 11.7914 21.1571 11.8218 21.1416 11.8517C21.1227 11.9429 21.0639 12.0986 20.977 12.2972L20.8599 12.5547L20.7201 12.845L20.5622 13.1598L20.3906 13.4907L20.2098 13.8295L20.0241 14.1677L19.8381 14.497L19.6562 14.8092L19.4829 15.0959L19.3225 15.3486L19.2486 15.4597L19.1161 15.6461C19.0758 15.6996 19.0394 15.744 19.0078 15.7778L18.964 15.8205L18.3539 16.3388L21.3424 17.8356C19.8965 20.3757 17.1633 22.0889 14.0296 22.0889C10.8529 22.0889 8.08769 20.3283 6.65803 17.7304L9.58444 16.3354L8.95774 15.8206C8.90608 15.7761 8.83752 15.6907 8.75685 15.5742L8.62734 15.3774L8.4068 15.0104L8.24748 14.7286L8.0825 14.4256L7.91543 14.1085L7.74985 13.7847L7.58934 13.4615L7.43747 13.1461L7.29782 12.8457L7.17396 12.5677L7.06948 12.3193L6.98795 12.1078C6.965 12.0443 6.94646 11.9881 6.93294 11.9405C6.9118 11.9111 6.89365 11.8814 6.87794 11.8501C7.41347 12.212 8.47488 12.5675 9.86466 12.8172L10.2913 12.8888C10.5093 12.923 10.7342 12.9545 10.9655 12.9831L11.4361 13.0362C11.9148 13.0852 12.4167 13.1216 12.9367 13.1426L13.2245 13.1525L13.5157 13.1593L13.9669 13.1633L14.4182 13.1593L14.9272 13.1453C17.7153 13.0405 19.9959 12.4934 20.9542 11.9148L21.0485 11.8549L21.1784 11.7604ZM10.0797 13.7206L10.2615 14.3785C10.3824 14.766 10.5204 15.134 10.6848 15.5078L10.8131 15.7896L11.1127 16.3786C11.1479 16.4484 11.1948 16.5101 11.254 16.566L11.3173 16.62L11.5699 16.8072C12.0014 17.0975 12.4795 17.3045 13.0458 17.4579L13.2623 17.513L13.8591 17.63L13.972 17.6409H14.0598L14.1726 17.63L14.787 17.5093C15.359 17.3724 15.8529 17.183 16.3094 16.9042L16.479 16.7954L16.7199 16.6159C16.7817 16.5687 16.8348 16.5127 16.8783 16.4478L16.9186 16.3798L17.2258 15.7752C17.3982 15.4085 17.5466 15.0446 17.6789 14.6572L17.7752 14.3619L17.9447 13.7481C17.5777 14.445 16.8502 14.9393 15.9715 15.0245L15.8508 15.0336L15.7219 15.0192C15.0691 14.9283 14.4947 14.5801 14.1308 14.0719L14.0609 13.9682L14.023 13.9049L13.9495 14.0187C13.5927 14.5303 13.0267 14.8876 12.3586 15.0026L12.2236 15.0223L12.1007 15.0344L11.9839 15.0246C11.1373 14.9338 10.4253 14.4263 10.0797 13.7206ZM14.0122 6.53333C14.4798 6.53333 15.0787 6.85521 15.9199 7.49225L16.2956 7.78455L16.4547 7.91225L16.9098 8.28765L18.1228 9.31437L19.1391 9.58439L19.4025 9.65855L19.6354 9.72704L19.8241 9.78552L20.0736 9.86876L20.222 9.92276L20.353 9.97387C20.9337 10.2086 21.2218 10.4592 21.2218 10.7911L21.2172 10.8593L21.2034 10.9264L21.0729 11.0272C20.4296 11.4825 19.0435 11.9277 17.2466 12.1862L16.6955 12.258L16.1217 12.3175C15.7321 12.3528 15.3287 12.3793 14.9142 12.3954L14.4211 12.4096L13.9684 12.4138L13.5156 12.4096L13.2235 12.4024C10.2221 12.3104 7.77238 11.6759 6.85635 11.0221C6.82085 10.947 6.80258 10.8699 6.80258 10.7911C6.80258 10.4242 7.11151 10.1281 7.78376 9.86551C7.67663 9.75255 7.62709 9.64915 7.49677 9.56423C7.70008 9.332 8.07517 9.14078 8.33311 9.10454C8.84553 9.01968 9.16051 9.1714 9.50617 9.19934C9.23895 9.08507 8.72364 8.58478 8.5421 8.35749C8.32593 7.87079 8.48055 7.45206 8.61236 7.21982L8.64011 7.17295L8.68726 7.10136L8.74412 7.02542L8.77853 7.02139L8.92424 7.01787C9.14357 7.01932 9.5007 7.04852 9.62952 7.19208C9.84034 7.49042 9.94014 7.79578 10.0031 8.06757L10.0564 8.32665C10.0952 8.53071 10.1255 8.70206 10.1903 8.81717L10.2284 8.66861L10.2882 8.37946C10.3288 8.1865 10.3815 7.98822 10.5108 7.75484C10.737 7.34642 11.5233 6.78709 12.0802 6.89842L12.0961 6.98804L12.1571 7.20777C12.1721 7.27872 12.1753 7.35489 12.1472 7.45879C12.9655 6.84477 13.5539 6.53333 14.0122 6.53333Z" fill="#3EBD93"/>
</svg>
