<svg width="20" height="20" xmlns="http://www.w3.org/2000/svg">
  <g fill="none" fill-rule="evenodd">
    <circle stroke="#2DA287" fill="#EBF8F4" cx="10" cy="10" r="9.5"/>
    <path d="M13.39 15v-1.415H8.646v-.068l1.736-1.682c.78-.734 1.336-1.316 1.671-1.747.335-.43.584-.848.745-1.254.162-.406.243-.834.243-1.285 0-.82-.28-1.473-.84-1.959-.561-.485-1.306-.728-2.236-.728-.593 0-1.15.098-1.675.294-.524.196-1.064.529-1.62.998l.868 1.06c.47-.37.883-.624 1.24-.766a2.998 2.998 0 0 1 1.112-.212c.478 0 .853.13 1.124.39.271.26.407.615.407 1.066 0 .329-.057.636-.171.923a3.958 3.958 0 0 1-.543.92c-.249.326-.754.878-1.515 1.657l-2.577 2.591V15h6.775Z" fill="#2DA287" fill-rule="nonzero"/>
  </g>
</svg>
