<svg xmlns="http://www.w3.org/2000/svg" width="24" height="24" viewBox="0 0 24 24">
    <g fill="none" fill-rule="evenodd">
        <g>
            <g>
                <g>
                    <g>
                        <path d="M0 0H24V24H0z" transform="translate(-327 -24) translate(16) translate(299 12) translate(12 12)"/>
                        <path fill="#253E47" fill-opacity=".5" fill-rule="nonzero" d="M12 2c5.523 0 10 4.477 10 10s-4.477 10-10 10S2 17.523 2 12 6.477 2 12 2zm0 1.5c-4.694 0-8.5 3.806-8.5 8.5s3.806 8.5 8.5 8.5 8.5-3.806 8.5-8.5-3.806-8.5-8.5-8.5zM9.196 8.147l.084.073L12 10.939l2.72-2.72c.293-.292.767-.292 1.06 0 .267.267.29.684.073.977l-.073.084L13.061 12l2.72 2.72c.292.293.292.767 0 1.06-.267.267-.684.29-.977.073l-.084-.073L12 13.061l-2.72 2.72c-.293.292-.767.292-1.06 0-.267-.267-.29-.684-.073-.977l.073-.084L10.939 12l-2.72-2.72c-.292-.293-.292-.767 0-1.06.267-.267.684-.29.977-.073z" transform="translate(-327 -24) translate(16) translate(299 12) translate(12 12)"/>
                    </g>
                </g>
            </g>
        </g>
    </g>
</svg>
