<svg xmlns="http://www.w3.org/2000/svg" width="20" height="20" viewBox="0 0 20 20">
    <g fill="none" fill-rule="evenodd">
        <g>
            <g>
                <g>
                    <g>
                        <g>
                            <path d="M0 0H20V20H0z" transform="translate(-1003.000000, -372.000000) translate(330.000000, 260.000000) translate(450.000000, 80.000000) translate(199.000000, 28.000000) translate(24.000000, 4.000000)"/>
                            <g fill-rule="nonzero" stroke-linecap="round" stroke-linejoin="round" stroke-width=".25">
                                <path fill="#E17726" stroke="#E17726" d="M12.357 0L7.279 3.75 8.223 1.54z" transform="translate(-1003.000000, -372.000000) translate(330.000000, 260.000000) translate(450.000000, 80.000000) translate(199.000000, 28.000000) translate(24.000000, 4.000000) translate(3.500000, 4.000000)"/>
                                <path fill="#E27625" stroke="#E27625" d="M.643 0l5.033 3.785-.899-2.245L.643 0zm9.886 8.695l-1.351 2.06 2.893.795.829-2.81-2.37-.045zM.106 8.74l.823 2.81 2.889-.795-1.346-2.06-2.366.045z" transform="translate(-1003.000000, -372.000000) translate(330.000000, 260.000000) translate(450.000000, 80.000000) translate(199.000000, 28.000000) translate(24.000000, 4.000000) translate(3.500000, 4.000000)"/>
                                <path fill="#E27625" stroke="#E27625" d="M3.661 5.215l-.803 1.21 2.864.13-.096-3.076-1.965 1.736zm5.677 0l-1.994-1.77-.066 3.11 2.864-.13-.804-1.21zm-5.52 5.54L5.55 9.92 4.06 8.76l-.242 1.995zm3.631-.835l1.728.835-.236-1.995L7.45 9.92z" transform="translate(-1003.000000, -372.000000) translate(330.000000, 260.000000) translate(450.000000, 80.000000) translate(199.000000, 28.000000) translate(24.000000, 4.000000) translate(3.500000, 4.000000)"/>
                                <path fill="#D5BFB2" stroke="#D5BFB2" d="M9.178 10.755L7.449 9.92l.141 1.12-.015.475 1.603-.76zm-5.36 0l1.607.76-.01-.475.136-1.12-1.733.835z" transform="translate(-1003.000000, -372.000000) translate(330.000000, 260.000000) translate(450.000000, 80.000000) translate(199.000000, 28.000000) translate(24.000000, 4.000000) translate(3.500000, 4.000000)"/>
                                <path fill="#233447" stroke="#233447" d="M5.455 8.135l-1.437-.474 1.015-.526.422 1zm2.09 0l.421-1 1.02.526-1.441.474z" transform="translate(-1003.000000, -372.000000) translate(330.000000, 260.000000) translate(450.000000, 80.000000) translate(199.000000, 28.000000) translate(24.000000, 4.000000) translate(3.500000, 4.000000)"/>
                                <path fill="#CC6228" stroke="#CC6228" d="M3.818 10.755l.251-2.06-1.597.045 1.346 2.015zm5.113-2.06l.247 2.06 1.35-2.015-1.597-.045zm1.211-2.27l-2.863.13.266 1.465.422-.885 1.02.465 1.155-1.175zM4.02 7.6l1.014-.465.422.885.267-1.465-2.864-.13L4.018 7.6z" transform="translate(-1003.000000, -372.000000) translate(330.000000, 260.000000) translate(450.000000, 80.000000) translate(199.000000, 28.000000) translate(24.000000, 4.000000) translate(3.500000, 4.000000)"/>
                                <path fill="#E27525" stroke="#E27525" d="M2.858 6.425L4.06 8.76l-.04-1.16-1.16-1.175zM8.987 7.6l-.045 1.16 1.2-2.335L8.987 7.6zM5.722 6.555L5.455 8.02l.337 1.73.075-2.28-.145-.915zm1.557 0l-.141.91.07 2.285.337-1.73-.266-1.465z" transform="translate(-1003.000000, -372.000000) translate(330.000000, 260.000000) translate(450.000000, 80.000000) translate(199.000000, 28.000000) translate(24.000000, 4.000000) translate(3.500000, 4.000000)"/>
                                <path fill="#F5841F" stroke="#F5841F" d="M7.545 8.02l-.337 1.73.241.17 1.492-1.16.045-1.16-1.441.42zM4.018 7.6l.04 1.16L5.55 9.92l.242-.17-.337-1.73-1.437-.42z" transform="translate(-1003.000000, -372.000000) translate(330.000000, 260.000000) translate(450.000000, 80.000000) translate(199.000000, 28.000000) translate(24.000000, 4.000000) translate(3.500000, 4.000000)"/>
                                <path fill="#C0AC9D" stroke="#C0AC9D" d="M7.575 11.515L7.59 11.04 7.46 10.93 5.541 10.93 5.415 11.04 5.425 11.515 3.818 10.755 4.38 11.215 5.521 12 7.475 12 8.62 11.215 9.178 10.755z" transform="translate(-1003.000000, -372.000000) translate(330.000000, 260.000000) translate(450.000000, 80.000000) translate(199.000000, 28.000000) translate(24.000000, 4.000000) translate(3.500000, 4.000000)"/>
                                <path fill="#161616" stroke="#161616" d="M7.45 9.92L7.208 9.75 5.792 9.75 5.551 9.92 5.416 11.04 5.541 10.93 7.46 10.93 7.591 11.04z" transform="translate(-1003.000000, -372.000000) translate(330.000000, 260.000000) translate(450.000000, 80.000000) translate(199.000000, 28.000000) translate(24.000000, 4.000000) translate(3.500000, 4.000000)"/>
                                <path fill="#763E1A" stroke="#763E1A" d="M12.573 3.995L13 1.925 12.357 0 7.45 3.625l1.889 1.59 2.667.775.588-.685-.257-.185.407-.37-.311-.24.407-.31-.267-.205zM0 1.925l.432 2.07-.276.205.412.31-.312.24.407.37-.256.185.588.685 2.667-.775 1.889-1.59L.643 0 0 1.925z" transform="translate(-1003.000000, -372.000000) translate(330.000000, 260.000000) translate(450.000000, 80.000000) translate(199.000000, 28.000000) translate(24.000000, 4.000000) translate(3.500000, 4.000000)"/>
                                <path fill="#F5841F" stroke="#F5841F" d="M12.006 5.99l-2.668-.775.804 1.21-1.2 2.335 1.587-.02h2.37l-.893-2.75zm-8.344-.775L.994 5.99.105 8.74h2.366l1.588.02-1.2-2.335.803-1.21zm3.617 1.34l.17-2.93.774-2.085H4.777l.774 2.085.17 2.93.066.92.005 2.275h1.416l.005-2.275.066-.92z" transform="translate(-1003.000000, -372.000000) translate(330.000000, 260.000000) translate(450.000000, 80.000000) translate(199.000000, 28.000000) translate(24.000000, 4.000000) translate(3.500000, 4.000000)"/>
                            </g>
                        </g>
                    </g>
                </g>
            </g>
        </g>
    </g>
</svg>
