<svg width="24" height="24" viewBox="0 0 24 24" fill="none" xmlns="http://www.w3.org/2000/svg">
<path d="M20.6786 12C20.6786 16.793 16.7931 20.6786 12 20.6786C7.20697 20.6786 3.32145 16.793 3.32145 12C3.32145 7.20694 7.20697 3.32141 12 3.32141C16.7931 3.32141 20.6786 7.20694 20.6786 12ZM19.1786 12C19.1786 8.03537 15.9646 4.82141 12 4.82141C8.0354 4.82141 4.82145 8.03537 4.82145 12C4.82145 15.9646 8.0354 19.1786 12 19.1786C15.9646 19.1786 19.1786 15.9646 19.1786 12ZM15.1744 13.0891L15.1018 13.1732L12.5303 15.7446C12.2641 16.0109 11.8474 16.0351 11.5538 15.8172L11.4697 15.7446L8.89826 13.1732C8.60536 12.8803 8.60536 12.4054 8.89826 12.1125C9.16453 11.8462 9.58119 11.822 9.8748 12.0399L9.95892 12.1125L11.2506 13.4024L11.25 8.7857C11.25 8.37148 11.5858 8.0357 12 8.0357C12.3797 8.0357 12.6935 8.31785 12.7432 8.68393L12.75 8.7857L12.7506 13.4034L14.0411 12.1125C14.3074 11.8462 14.724 11.822 15.0177 12.0399L15.1018 12.1125C15.368 12.3788 15.3922 12.7954 15.1744 13.0891Z" fill="#253E47" fill-opacity="0.5"/>
</svg>
