<svg xmlns="http://www.w3.org/2000/svg" width="24" height="24" viewBox="0 0 24 24">
    <g fill="none" fill-rule="evenodd">
        <g>
            <g>
                <g>
                    <g>
                        <g>
                            <path d="M0 0H24V24H0z" transform="translate(-589 -1500) translate(330 1132) translate(0 272) translate(0 72) translate(259 24)"/>
                            <path fill="#253E47" fill-opacity=".5" fill-rule="nonzero" d="M8.255 3.113c.267-.267.683-.29.977-.073l.084.073 8.357 8.357c.266.266.29.683.073.976l-.073.084-8.357 8.357c-.293.293-.768.293-1.06 0-.267-.266-.291-.682-.073-.976l.072-.084L16.082 12 8.255 4.173c-.266-.266-.29-.683-.072-.976l.072-.084z" transform="translate(-589 -1500) translate(330 1132) translate(0 272) translate(0 72) translate(259 24)"/>
                        </g>
                    </g>
                </g>
            </g>
        </g>
    </g>
</svg>
