<svg width="48" height="48" viewBox="0 0 48 48" xmlns="http://www.w3.org/2000/svg">
    <g fill="none" fill-rule="evenodd">
        <path d="M0 0h48v48H0z"/>
        <path d="M12 12h24v24H12z"/>
        <path d="M25.736 15c-.914 0-1.982.708-2.143 3.87.136-.003.27-.013.407-.013.153 0 .31.009.461.014.104-1.9.561-3.014 1.275-3.014.305 0 .478.164.8.51.377.403.868.927 1.831 1.124a2.631 2.631 0 0 1-.027-.348c0-.18.019-.352.054-.522-.596-.161-.912-.501-1.22-.83-.344-.37-.74-.791-1.438-.791zm5.208.429c-.958 0-1.736.77-1.736 1.714s.778 1.714 1.736 1.714 1.736-.77 1.736-1.714-.778-1.714-1.736-1.714zM24 19.714c-5.266 0-9.548 2.649-9.548 6.429C14.452 29.923 18.734 33 24 33s9.548-3.077 9.548-6.857c0-3.78-4.282-6.429-9.548-6.429zm-7.595.402c-.634 0-1.236.256-1.695.71a2.309 2.309 0 0 0-.475 2.678c.656-1.253 1.785-2.323 3.241-3.12a2.403 2.403 0 0 0-1.071-.268zm15.19 0c-.375 0-.74.102-1.071.268 1.456.797 2.585 1.867 3.241 3.12a2.309 2.309 0 0 0-.475-2.678 2.408 2.408 0 0 0-1.695-.71zm-11.067 3.455c.719 0 1.302.576 1.302 1.286 0 .71-.583 1.286-1.302 1.286a1.294 1.294 0 0 1-1.302-1.286c0-.71.583-1.286 1.302-1.286zm6.944 0c.719 0 1.302.576 1.302 1.286 0 .71-.583 1.286-1.302 1.286a1.294 1.294 0 0 1-1.302-1.286c0-.71.583-1.286 1.302-1.286zm-7.35 4.715a.448.448 0 0 1 .284.174c.046.063 1.063 1.406 3.594 1.406 2.565 0 3.584-1.38 3.594-1.393a.445.445 0 0 1 .61-.107.415.415 0 0 1 .095.59c-.05.071-1.288 1.767-4.299 1.767-3.013 0-4.249-1.696-4.3-1.768a.414.414 0 0 1 .096-.589.447.447 0 0 1 .325-.08z" fill="#253E47" fill-rule="nonzero"/>
    </g>
</svg>
