<svg width="18" height="18" viewBox="0 0 18 18" fill="none" xmlns="http://www.w3.org/2000/svg">
<path d="M16.4145 13.848C16.4776 13.7267 16.5065 13.5905 16.498 13.454C16.4896 13.3175 16.4441 13.1859 16.3665 13.0733L9.61649 3.32325C9.54747 3.22362 9.45533 3.14221 9.34796 3.08597C9.24059 3.02974 9.12119 3.00037 8.99999 3.00037C8.87879 3.00037 8.75939 3.02974 8.65202 3.08597C8.54466 3.14221 8.45251 3.22362 8.38349 3.32325L1.63349 13.0733C1.55564 13.1858 1.51004 13.3174 1.50166 13.454C1.49327 13.5906 1.5224 13.7269 1.5859 13.8481C1.64939 13.9693 1.74484 14.0708 1.8619 14.1416C1.97895 14.2125 2.11316 14.25 2.24999 14.25H15.75C15.8869 14.25 16.0212 14.2126 16.1383 14.1417C16.2555 14.0708 16.351 13.9693 16.4145 13.848Z" fill="#253E47"/>
</svg>
