<svg width="20" height="20" xmlns="http://www.w3.org/2000/svg">
  <g fill="none" fill-rule="evenodd">
    <circle stroke="#2DA287" fill="#EBF8F4" cx="10" cy="10" r="9.5"/>
    <path d="M9.39 15.137c1.254 0 2.22-.261 2.9-.783.678-.522 1.018-1.264 1.018-2.225 0-.66-.2-1.19-.602-1.59-.401-.398-1.003-.648-1.805-.748v-.055c.67-.146 1.19-.43 1.559-.85.37-.422.554-.95.554-1.583 0-.761-.283-1.358-.848-1.791-.565-.433-1.351-.65-2.358-.65-1.213 0-2.277.338-3.193 1.012l.786 1.121c.479-.31.894-.518 1.245-.625.35-.107.715-.161 1.093-.161.543 0 .953.116 1.23.349.279.232.418.562.418.99 0 1.104-.798 1.655-2.393 1.655h-.882v1.306h.868c.907 0 1.573.125 1.997.376.423.25.635.642.635 1.176 0 .601-.191 1.045-.574 1.333-.383.287-.962.43-1.736.43-.438 0-.893-.057-1.367-.17a6.401 6.401 0 0 1-1.347-.486v1.429c.761.36 1.695.54 2.803.54Z" fill="#2DA287" fill-rule="nonzero"/>
  </g>
</svg>
