<svg xmlns="http://www.w3.org/2000/svg" width="24" height="24" viewBox="0 0 24 24">
    <g fill="none" fill-rule="evenodd">
        <g>
            <g>
                <g>
                    <path d="M0 0H24V24H0z" transform="translate(-190 -502) translate(12 490) translate(178 12)"/>
                    <path fill="#253E47" fill-opacity=".5" fill-rule="nonzero" d="M11.518 6.714c.345 0 .625.28.625.625 0 .314-.231.574-.533.619l-.092.006H8.304c-.675 0-1.23.513-1.297 1.17L7 9.269v6.428c0 .675.513 1.23 1.17 1.297l.134.007h6.428c.675 0 1.23-.513 1.297-1.17l.007-.134v-3.214c0-.345.28-.625.625-.625.314 0 .573.231.618.533l.007.092v3.214c0 1.354-1.054 2.462-2.386 2.549l-.168.005H8.304c-1.354 0-2.462-1.054-2.549-2.386l-.005-.168V9.268c0-1.354 1.054-2.462 2.386-2.548l.168-.006h3.214zm1.607-.964h4.5l.069.004.087.016.075.024.07.033.062.039.079.067c.046.046.083.097.112.152.032.061.054.127.064.198l.007.092v4.5c0 .345-.28.625-.625.625-.314 0-.574-.231-.618-.533L17 10.875l-.001-2.992-4.718 4.72c-.244.244-.64.244-.884 0-.217-.217-.24-.554-.072-.798l.072-.086 4.72-4.72L13.125 7c-.314 0-.574-.231-.618-.533l-.007-.092c0-.314.231-.574.533-.618l.092-.007z" transform="translate(-190 -502) translate(12 490) translate(178 12)"/>
                </g>
            </g>
        </g>
    </g>
</svg>
