<svg xmlns="http://www.w3.org/2000/svg" width="24" height="24" viewBox="0 0 24 24">
    <g fill="none" fill-rule="evenodd">
        <g>
            <g>
                <g>
                    <g>
                        <g>
                            <path d="M0 0H24V24H0z" transform="translate(-841.000000, -484.000000) translate(730.000000, 160.000000) translate(28.000000, 148.000000) translate(0.000000, 176.000000) translate(83.000000, 0.000000)"/>
                            <path fill="currentColor" fill-opacity=".5" fill-rule="nonzero" d="M17.008 10l-.717 6.695c-.095.888-.807 1.567-1.683 1.633l-.14.005H9.531c-.893 0-1.645-.635-1.803-1.5l-.02-.138L6.99 10h10.018zm-3.842-4.667c.276 0 .5.224.5.5 0 .059-.01.115-.028.167h1.481c.615 0 1.185.305 1.526.816L17.433 8h.066c.276 0 .5.224.5.5 0 .26-.198.473-.452.498L17.5 9h-11c-.276 0-.5-.224-.5-.5 0-.26.199-.473.452-.498L6.565 8l.789-1.184C7.694 6.306 8.265 6 8.88 6h1.481c-.018-.052-.028-.108-.028-.167 0-.26.198-.473.452-.497l.048-.003h2.333z" transform="translate(-841.000000, -484.000000) translate(730.000000, 160.000000) translate(28.000000, 148.000000) translate(0.000000, 176.000000) translate(83.000000, 0.000000)"/>
                        </g>
                    </g>
                </g>
            </g>
        </g>
    </g>
</svg>
