<svg width="28" height="28" viewBox="0 0 28 28" fill="none" xmlns="http://www.w3.org/2000/svg">
<rect width="28" height="28" rx="8" fill="#3EBD93" fill-opacity="0.1"/>
<path fill-rule="evenodd" clip-rule="evenodd" d="M13.3064 7.42323C9.98027 7.76994 7.38728 10.5822 7.38728 14C7.38728 17.6521 10.3479 20.6127 14 20.6127C16.0055 20.6127 17.8027 19.7205 19.0162 18.3091L13.3064 14.3638V7.42323ZM14.6936 7.42322V12.7885L19.3206 10.0724C18.2448 8.61751 16.5878 7.62061 14.6936 7.42322ZM20.024 11.2681L15.2891 14.0476L19.8058 17.1684C20.3203 16.2279 20.6127 15.1488 20.6127 14C20.6127 13.0249 20.4021 12.1003 20.024 11.2681ZM6 14C6 9.58172 9.58172 6 14 6C16.941 6 19.5106 7.58743 20.8998 9.94888C21.5991 11.1376 22 12.523 22 14C22 15.6886 21.4761 17.2569 20.5819 18.5485C19.1392 20.6326 16.7294 22 14 22C9.58172 22 6 18.4183 6 14Z" fill="#2DA287" fill-opacity="0.5"/>
</svg>
