<svg width="60" height="60" viewBox="0 0 60 60" xmlns="http://www.w3.org/2000/svg" xmlns:xlink="http://www.w3.org/1999/xlink">
    <defs>
        <linearGradient x1="19.167%" y1="100%" x2="19.167%" y2="0%" id="b">
            <stop stop-color="#F29C24" offset="0%"/>
            <stop stop-color="#F29C24" stop-opacity=".9" offset="35.649%"/>
            <stop stop-color="#0F1C4D" offset="100%"/>
        </linearGradient>
        <rect id="a" x="0" y="0" width="60" height="60" rx="8"/>
    </defs>
    <g fill="none" fill-rule="evenodd">
        <mask id="c" fill="#fff">
            <use xlink:href="#a"/>
        </mask>
        <use fill="#0F1C4D" fill-rule="nonzero" xlink:href="#a"/>
        <path fill="url(#b)" fill-rule="nonzero" mask="url(#c)" d="m59.797 29.496.102.122.101.123V0H0v34.21l.102.114.101.114.102.113.101.112.102.112.101.112.102.11.101.111.102.11.101.11.102.109.101.108.102.108.101.107.102.106.101.106.102.105.101.105.102.104.101.103.102.103.102.102.101.101.102.1.101.1.102.1.101.098.102.098.101.097.102.096.101.096.102.094.101.094.102.093.101.093.102.091.101.09.102.09.101.09.102.088.101.087.102.087.101.085.102.085.102.084.101.083.102.082.101.08.102.08.101.08.102.078.101.078.102.076.101.075.102.075.101.073.102.073.101.071.102.07.101.07.102.069.101.067.102.067.101.065.102.064.102.064.101.062.102.061.101.06.102.06.101.057.102.057.101.056.102.055.101.053.102.053.101.051.102.05.101.05.102.048.101.047.102.045.101.045.102.044.101.042.102.041.101.04.102.039.102.038.101.036.102.035.101.035.102.033.101.032.102.03.101.03.102.028.101.027.102.026.101.024.102.024.101.022.102.021.101.02.102.019.101.017.102.016.101.015.102.014.101.013.102.011.102.01.101.009.102.008.101.006.102.005.101.004.102.003.101.002h.203l.102-.003.101-.003.102-.005.101-.006.102-.007.101-.008.102-.01.101-.01.102-.012.101-.013.102-.015.101-.015.102-.017.102-.018.101-.02.102-.02.101-.021.102-.023.101-.024.102-.025.101-.027.102-.028.101-.028.102-.03.101-.032.102-.032.101-.034.102-.034.101-.036.102-.037.101-.038.102-.04.101-.04.102-.042.102-.043.101-.044.102-.045.101-.047.102-.047.101-.049.102-.05.101-.05.102-.052.101-.053.102-.054.101-.056.102-.056.101-.057.102-.059.101-.06.102-.06.101-.062.102-.062.102-.064.101-.065.102-.066.101-.067.102-.068.101-.069.102-.07.101-.07.102-.073.101-.073.102-.073.101-.075.102-.076.101-.077.102-.078.101-.079.102-.08.101-.08.102-.081.101-.083.102-.083.101-.084.102-.085.102-.087.101-.086.102-.088.101-.089.102-.09.101-.09.102-.09.101-.092.102-.093.101-.093.102-.095.101-.095.102-.096.101-.096.102-.098.101-.098.102-.099.101-.099.102-.1.102-.101.101-.102.101-.102.102-.103.101-.104.102-.104.102-.105.101-.105.102-.107.101-.106.102-.108.101-.108.102-.108.101-.11.102-.11.101-.11.102-.11.101-.111.102-.112.101-.112.102-.113.101-.113.102-.114.102-.114.101-.115.102-.115.101-.115.102-.116.101-.116.102-.117.101-.117.102-.117.101-.118.102-.118.101-.118.102-.119.101-.119.102-.12.101-.119.102-.12.101-.12.102-.12.101-.12.102-.121.101-.121.102-.121.102-.122.101-.121.102-.122.101-.122.102-.122.101-.122.102-.122.101-.122.102-.122.101-.123.102-.122.101-.123.102-.122.101-.123.102-.123.101-.122.102-.123.101-.122.102-.123.101-.122.102-.123.101-.122.102-.122.101-.122.102-.122.102-.122.101-.122.102-.122.101-.121.102-.121.101-.121.102-.121.101-.121.102-.12.101-.12.102-.12.101-.12.102-.12.101-.119.102-.119.101-.119.102-.118.102-.118.101-.117.102-.117.101-.117.102-.117.101-.116.102-.116.101-.115.102-.115.101-.114.102-.114.101-.114.102-.113.101-.113.102-.112.101-.111.102-.111.101-.11.102-.11.101-.11.102-.11.101-.108.102-.108.102-.107.101-.106.101-.106.102-.106.102-.104.101-.104.102-.104.101-.103.102-.102.101-.101.102-.1.101-.1.102-.1.101-.099.102-.098.101-.097.102-.096.101-.096.102-.094.101-.095.102-.093.102-.092.101-.092.102-.09.101-.09.102-.09.101-.088.102-.088.101-.086.102-.086.101-.085.102-.083.101-.084.102-.082.101-.08.102-.081.101-.08.102-.078.101-.078.102-.076.101-.076.102-.074.101-.074.102-.072.102-.072.101-.07.101-.07.102-.069.102-.068.101-.066.102-.066.101-.064.102-.064.101-.062.102-.061.101-.06.102-.06.101-.058.102-.057.101-.056.102-.055.101-.054.102-.053.101-.051.102-.05.102-.05.101-.048.102-.047.101-.046.102-.045.101-.044.102-.042.101-.042.102-.04.101-.039.102-.038.101-.036.102-.036.101-.034.102-.034.101-.032.102-.03.101-.03.102-.029.101-.027.102-.026.102-.025.101-.023.102-.023.101-.021.102-.02.101-.019.102-.017.101-.017.102-.015.101-.014.102-.013.101-.011.102-.01.101-.01.102-.008.101-.006.102-.006.101-.004.102-.003.101-.002h.203l.102.003.101.003.102.004.102.006.101.007.102.008.101.009.102.01.101.012.102.013.101.014.102.016.101.016.102.018.101.019.102.02.101.022.102.022.101.024.102.025.101.026.102.028.102.029.101.03.102.03.101.033.102.033.101.035.102.035.101.037.102.038.101.04.102.04.101.041.102.043.101.044.102.045.101.046.102.047.101.049.102.05.101.05.102.052.101.053.102.053.102.056.101.056.102.057.101.058.102.06.101.06.102.062.101.062.102.064.101.065.102.065.101.067.102.068.101.069.102.07.101.07.102.072.101.073.102.074.101.074.102.076.102.077.101.077.101.079.102.08.102.08.101.081.102.083.101.083.102.084.101.085.102.086.101.086.102.088.101.088.102.09.101.09.102.09.101.092.102.093.101.093.102.095.101.095.102.095.102.097.101.097.101.098.102.099.102.099.101.1.102.101.101.102.102.102.101.103.102.103.101.104.102.105.101.106.102.106.101.106.102.108.101.107.102.109.101.109.102.11.102.11.101.11.102.112.101.111.102.112.101.113.102.113.101.114.102.114.101.114.102.115.101.116.102.116.101.116.102.116.101.117.102.117.101.118.102.118.101.118.102.119.101.119.102.12.102.119.101.12.101.12.102.12.102.12.101.121.102.12.101.122.102.121.101.122.102.121.101.122.102.122.101.122.102.122.101.123.102.122.101.122.102.123.101.122z"/>
        <path stroke="#FABA4B" stroke-width="2" stroke-linecap="round" mask="url(#c)" d="m60 29.741-.102-.123-.101-.122-.102-.123-.101-.122-.102-.123-.101-.122-.102-.122-.101-.123-.102-.122-.101-.122-.102-.122-.101-.122-.102-.121-.101-.122-.102-.121-.101-.121-.102-.121-.101-.12-.102-.121-.102-.12-.101-.12-.102-.12-.101-.12-.102-.119-.101-.119-.102-.119-.101-.118-.102-.118-.101-.118-.102-.117-.101-.117-.102-.116-.101-.117-.102-.115-.101-.116-.102-.115-.101-.114-.102-.114-.101-.114-.102-.113-.101-.113-.102-.112-.101-.111-.102-.112-.102-.11-.101-.11-.102-.11-.101-.109-.102-.108-.101-.108-.102-.108-.101-.106-.102-.106-.101-.106-.102-.105-.101-.104-.102-.103-.101-.103-.102-.102-.101-.102-.102-.1-.101-.101-.102-.1-.102-.098-.101-.098-.102-.097-.101-.097-.102-.095-.101-.095-.102-.095-.101-.093-.102-.093-.101-.091-.102-.091-.101-.09-.102-.09-.101-.088-.102-.088-.101-.086-.102-.086-.101-.085-.102-.084-.101-.083-.102-.083-.101-.081-.102-.08-.102-.08-.101-.079-.102-.077-.101-.077-.102-.076-.101-.074-.102-.074-.101-.073-.102-.072-.101-.07-.102-.07-.101-.07-.102-.067-.101-.067-.102-.065-.101-.065-.102-.064-.101-.062-.102-.062-.101-.06-.102-.06-.102-.058-.101-.057-.101-.056-.102-.055-.102-.054-.101-.053-.102-.052-.101-.05-.102-.05-.101-.049-.102-.047-.101-.046-.102-.045-.101-.044-.102-.043-.101-.041-.102-.04-.101-.04-.102-.038-.101-.037-.102-.035-.101-.035-.102-.033-.102-.033-.101-.03-.101-.03-.102-.029-.102-.027-.101-.027-.102-.025-.101-.024-.102-.022-.101-.022-.102-.02-.101-.019-.102-.018-.101-.016-.102-.016-.101-.014-.102-.013-.101-.012-.102-.01-.101-.01-.102-.007-.102-.007-.101-.006-.102-.004-.101-.003-.102-.002-.101-.001h-.102l-.101.002-.102.003-.101.004-.102.006-.101.006-.102.008-.101.01-.102.01-.101.011-.102.013-.101.014-.102.015-.101.017-.102.017-.101.019-.102.02-.102.021-.101.023-.101.023-.102.025-.102.026-.101.027-.102.029-.101.03-.102.03-.101.032-.102.034-.101.034-.102.036-.101.036-.102.038-.101.04-.102.04-.101.04-.102.043-.101.044-.102.045-.102.046-.101.047-.102.048-.101.05-.102.05-.101.051-.102.053-.101.054-.102.055-.101.056-.102.057-.101.058-.102.06-.101.06-.102.06-.101.063-.102.064-.101.064-.102.066-.101.066-.102.068-.102.069-.101.07-.102.07-.101.072-.102.072-.101.074-.102.074-.101.076-.102.076-.101.078-.102.078-.101.08-.102.08-.101.081-.102.082-.101.084-.102.083-.101.085-.102.086-.101.087-.102.087-.101.088-.102.09-.101.09-.102.09-.102.092-.101.092-.102.093-.101.095-.102.094-.101.096-.102.096-.101.097-.102.098-.101.099-.102.1-.101.1-.102.1-.101.101-.102.102-.101.103-.102.104-.101.104-.102.104-.102.106-.101.106-.102.106-.101.107-.102.108-.101.109-.102.109-.101.11-.102.11-.101.11-.102.11-.101.112-.102.113-.101.112-.102.113-.101.114-.102.114-.101.114-.102.115-.101.115-.102.116-.101.116-.102.117-.101.116-.102.118-.101.117-.102.118-.102.118-.101.12-.102.118-.101.12-.102.119-.101.12-.102.12-.101.12-.102.12-.101.12-.102.122-.101.12-.102.122-.101.121-.102.122-.101.122-.102.122-.102.122-.101.122-.102.122-.101.122-.102.123-.101.122-.102.123-.101.122-.102.123-.101.122-.102.123-.101.123-.102.122-.101.123-.102.122-.101.123-.102.122-.101.122-.102.122-.101.122-.102.122-.101.122-.102.122-.101.121-.102.122-.102.12-.101.122-.102.12-.101.121-.102.12-.101.12-.102.12-.101.12-.102.119-.101.119-.102.119-.101.118-.102.118-.101.118-.102.117-.101.117-.102.117-.101.116-.102.116-.102.115-.101.115-.101.115-.102.114-.102.114-.101.113-.102.113-.101.112-.102.112-.101.11-.102.112-.101.11-.102.11-.101.109-.102.108-.101.108-.102.108-.101.106-.102.107-.101.105-.102.105-.102.104-.101.104-.102.103-.101.102-.102.102-.101.1-.102.101-.101.1-.102.098-.101.098-.102.098-.101.096-.102.096-.101.095-.102.094-.101.094-.102.093-.101.092-.102.09-.101.09-.102.09-.101.089-.102.088-.101.087-.102.086-.102.085-.101.084-.102.083-.101.083-.102.081-.101.08-.102.08-.101.08-.102.077-.101.077-.102.076-.101.075-.102.073-.101.073-.102.072-.101.071-.102.07-.101.07-.102.067-.102.067-.101.066-.101.065-.102.064-.102.062-.101.062-.102.06-.101.06-.102.059-.101.057-.102.056-.101.056-.102.054-.101.053-.102.052-.101.05-.102.05-.101.049-.102.047-.101.047-.102.045-.101.044-.102.043-.102.041-.101.041-.101.04-.102.038-.102.037-.101.036-.102.035-.101.033-.102.032-.101.032-.102.03-.101.028-.102.028-.101.027-.102.025-.101.024-.102.023-.101.021-.102.02-.101.02-.102.018-.101.017-.102.015-.101.015-.102.013-.102.012-.101.01-.102.01-.101.008-.102.007-.101.006-.102.005-.101.003-.102.002-.101.001h-.102l-.101-.002-.102-.003-.101-.004-.102-.005-.101-.006-.102-.008-.101-.009-.102-.01-.101-.011-.102-.013-.102-.014-.101-.015-.102-.016-.101-.017-.102-.019-.101-.02-.102-.02-.101-.023-.102-.023-.101-.025-.102-.026-.101-.027-.102-.028-.101-.03-.102-.03-.101-.032-.102-.033-.101-.035-.102-.035-.101-.036-.102-.038-.102-.039-.101-.04-.102-.041-.101-.043-.102-.043-.101-.045-.102-.045-.101-.047-.102-.048-.101-.05-.102-.05-.101-.051-.102-.053-.101-.053-.102-.055-.101-.056-.102-.057-.101-.058-.102-.059-.101-.06-.102-.061-.101-.062-.102-.064-.102-.064-.101-.065-.102-.067-.101-.067-.102-.069-.101-.07-.102-.07-.101-.071-.102-.073-.101-.073-.102-.075-.101-.075-.102-.076-.101-.078-.102-.078-.101-.08-.102-.08-.101-.08-.102-.082-.101-.083-.102-.084-.102-.085-.101-.085-.102-.087-.101-.087-.102-.088-.101-.09-.102-.09-.101-.09-.102-.091-.101-.093-.102-.093-.101-.094-.102-.094-.101-.096-.102-.096-.101-.097-.102-.098-.101-.098-.102-.1-.101-.1-.102-.1-.101-.101-.102-.102-.102-.103-.101-.103-.102-.104-.101-.105-.102-.105-.101-.106-.102-.106-.101-.107-.102-.108-.101-.108-.102-.11-.101-.109-.102-.11-.101-.11-.102-.111-.101-.112-.102-.112-.101-.112-.102-.113-.101-.114L0 34.21"/>
    </g>
</svg>
