<svg width="66" height="72" viewBox="0 0 66 72" fill="none" xmlns="http://www.w3.org/2000/svg">
<g clip-path="url(#clip0_1881_5322)">
<path fill-rule="evenodd" clip-rule="evenodd" d="M25.379 2.05649C30.0949 -0.685487 35.9051 -0.685487 40.621 2.05649L58.379 12.3816C63.0949 15.1236 66 20.191 66 25.6749L66 46.3251C66 51.809 63.0949 56.8764 58.379 59.6184L40.621 69.9435C35.9051 72.6855 30.0949 72.6855 25.379 69.9435L7.62102 59.6184C2.90512 56.8765 -8.82574e-07 51.809 -1.12229e-06 46.3251L-2.02493e-06 25.6749C-2.26465e-06 20.191 2.90511 15.1236 7.62102 12.3816L25.379 2.05649Z" fill="#3EBD93" fill-opacity="0.1"/>
<path fill-rule="evenodd" clip-rule="evenodd" d="M56.871 14.975L39.1131 4.64997C35.3294 2.45001 30.6706 2.45001 26.8869 4.64997L9.12896 14.9751C5.34283 17.1764 3 21.2525 3 25.6749L3 46.3251C3 50.7475 5.34283 54.8236 9.12896 57.025L26.8869 67.35C30.6706 69.55 35.3294 69.55 39.1131 67.35L56.871 57.025C60.6572 54.8236 63 50.7475 63 46.3251L63 25.6749C63 21.2525 60.6572 17.1764 56.871 14.975ZM40.621 2.05649C35.9051 -0.685487 30.0949 -0.685487 25.379 2.05649L7.62102 12.3816C2.90511 15.1236 -2.26465e-06 20.191 -2.02493e-06 25.6749L-1.12229e-06 46.3251C-8.82574e-07 51.809 2.90512 56.8765 7.62102 59.6184L25.379 69.9435C30.0949 72.6855 35.9051 72.6855 40.621 69.9435L58.379 59.6184C63.0949 56.8764 66 51.809 66 46.3251L66 25.6749C66 20.191 63.0949 15.1236 58.379 12.3816L40.621 2.05649Z" fill="#3EBD93" fill-opacity="0.1"/>
<path fill-rule="evenodd" clip-rule="evenodd" d="M31.3522 15.4287L32.2844 15.7402C32.8978 15.9452 35.7715 16.9502 38.8708 19.106C41.9694 21.2613 45.3361 24.5973 46.8541 29.4733C48.6656 35.2948 47.9349 43.7044 41.4605 48.4309C40.3457 49.2439 35.5398 52.521 29.2038 51.5916C27.8399 51.3922 26.6241 51.029 25.5669 50.5912C25.5078 50.5667 25.4545 50.536 25.4071 50.5004L25.386 50.4987L25.3241 50.4814C23.3132 49.9185 22.4206 49.479 21.5443 49.0459L21.446 48.9973L21.3693 48.9195C21.1757 48.723 20.9964 48.5798 20.7795 48.4065L20.7104 48.3513C20.4627 48.1529 20.1846 47.9237 19.8672 47.5826C19.2372 46.9052 18.4913 45.8286 17.4134 43.6978L17.3863 43.6444L17.3697 43.5869C16.481 40.5124 16.4507 36.4368 19.6686 33.2563C21.4337 31.5117 23.1272 30.4693 24.6411 29.5681L24.885 29.423C26.3047 28.5794 27.5132 27.8612 28.5579 26.7688C30.0629 25.1948 31.6393 22.4929 31.4905 17.5463L31.4871 17.4424L31.484 17.3529C31.4726 17.0455 31.4536 16.7274 31.4279 16.3985L31.3522 15.4287ZM26.6383 49.2651C25.8159 48.097 25.175 46.7673 24.8057 45.2102C24.3029 43.0903 24.3127 40.5873 25.0063 37.5482L25.2691 36.3969L26.105 37.2398C27.617 38.7646 28.7933 39.5821 29.6669 39.8795C30.0924 40.0244 30.4111 40.0338 30.6509 39.9752C30.8838 39.9182 31.1011 39.783 31.306 39.5301C31.7421 38.9917 32.0713 37.9801 32.2182 36.4355C32.3627 34.9173 32.3227 32.9863 32.1137 30.7092L31.9268 28.6728L33.2588 30.2374C36.7186 34.3012 37.894 37.8511 36.8864 41.2413C36.1197 43.8211 34.1168 46.1872 31.1976 48.547C33.6094 47.7822 35.2972 46.6239 35.8874 46.1921C37.4218 45.0722 38.6077 43.7162 39.492 42.2257C41.2025 39.3423 41.7841 35.9555 41.5751 32.8003C41.4784 31.3435 41.2132 29.9361 40.8129 28.6502C39.5585 24.6156 36.924 21.6901 34.2707 19.6475C33.7771 19.2676 33.2829 18.9182 32.7967 18.5978C32.7081 23.2088 31.1296 25.9505 29.503 27.6516C28.3316 28.8766 26.9785 29.6798 25.5927 30.5023L25.5902 30.5039C25.4976 30.5588 25.4048 30.6138 25.312 30.6691C23.8168 31.5592 22.2364 32.5361 20.5881 34.1652C17.8509 36.8706 17.8027 40.3572 18.6038 43.1768C19.6438 45.2259 20.3184 46.1685 20.8246 46.7127C21.0776 46.9847 21.2979 47.1675 21.5291 47.3527L21.5994 47.4088C21.7895 47.5604 21.9997 47.7281 22.2208 47.9432C23.0108 48.3331 23.8243 48.722 25.6163 49.2273C25.6992 49.2334 25.7818 49.2387 25.8641 49.2433C25.8715 49.2435 25.8788 49.2441 25.8863 49.2446C26.1401 49.2583 26.3909 49.2648 26.6383 49.2651ZM28.1988 49.1821C27.2183 47.9745 26.469 46.5919 26.0718 44.9169C25.6841 43.282 25.6249 41.3399 26.0431 38.9732C27.2354 40.0608 28.2991 40.7733 29.2434 41.0948C29.8384 41.2973 30.4189 41.3559 30.9631 41.2229C31.5142 41.0882 31.9659 40.772 32.3211 40.3334C33.0052 39.4889 33.3606 38.1573 33.513 36.5559C33.6184 35.4478 33.6306 34.1591 33.5605 32.7182C35.8116 35.871 36.3491 38.4889 35.6387 40.8791C34.8196 43.6348 32.2965 46.2822 28.2165 49.1802C28.2106 49.1808 28.2047 49.1815 28.1988 49.1821Z" fill="#2DA287"/>
<path fill-rule="evenodd" clip-rule="evenodd" d="M26.6382 49.2649C25.8159 48.0969 25.1749 46.7671 24.8057 45.21C24.3029 43.0901 24.3127 40.5871 25.0063 37.5481L25.2691 36.3967L26.1049 37.2396C27.617 38.7644 28.7933 39.5819 29.6669 39.8793C30.0924 40.0242 30.4111 40.0336 30.6509 39.975C30.8838 39.9181 31.1011 39.7829 31.3059 39.5299C31.7421 38.9915 32.0713 37.98 32.2182 36.4354C32.3626 34.9172 32.3227 32.9861 32.1137 30.7091L31.9268 28.6727L33.2587 30.2372C36.7186 34.3011 37.894 37.851 36.8864 41.2412C36.1196 43.821 34.1168 46.1871 31.1976 48.5468C33.6094 47.7821 35.2972 46.6237 35.8874 46.1919C37.4218 45.072 38.6077 43.716 39.492 42.2255C41.2025 39.3422 41.7841 35.9553 41.5751 32.8001C41.4784 31.3434 41.2132 29.9359 40.8129 28.65C39.5585 24.6155 36.924 21.6899 34.2707 19.6474C33.7771 19.2674 33.2829 18.918 32.7967 18.5977C32.7081 23.2087 31.1296 25.9504 29.503 27.6515C28.3316 28.8764 26.9785 29.6796 25.5927 30.5022L25.5901 30.5037C25.4976 30.5586 25.4048 30.6137 25.312 30.6689C23.8168 31.559 22.2364 32.5359 20.5881 34.165C17.8509 36.8704 17.8027 40.357 18.6038 43.1767C19.6438 45.2257 20.3184 46.1683 20.8246 46.7125C21.0776 46.9845 21.2979 47.1673 21.5291 47.3525L21.5994 47.4086C21.7895 47.5602 21.9997 47.7279 22.2208 47.943C23.0108 48.3329 23.8243 48.7218 25.6163 49.2271C25.6992 49.2332 25.7818 49.2385 25.8641 49.2432C25.8715 49.2433 25.8788 49.244 25.8863 49.2444C26.1401 49.2582 26.3909 49.2646 26.6382 49.2649ZM28.1988 49.1819C27.2182 47.9743 26.469 46.5917 26.0718 44.9167C25.6841 43.2818 25.6249 41.3397 26.0431 38.973C27.2353 40.0606 28.2991 40.7731 29.2434 41.0946C29.8384 41.2972 30.4189 41.3558 30.9631 41.2227C31.5142 41.088 31.9659 40.7718 32.3211 40.3332C33.0052 39.4887 33.3606 38.1571 33.513 36.5557C33.6183 35.4477 33.6306 34.1589 33.5605 32.718C35.8116 35.8708 36.3491 38.4887 35.6387 40.8789C34.8196 43.6347 32.2965 46.282 28.2165 49.18C28.2106 49.1807 28.2047 49.1813 28.1988 49.1819Z" fill="white"/>
<path d="M19.3851 47.0095C15.1177 48.0108 12.4265 49.4752 12.4265 51.1066C12.4265 54.1247 21.6371 56.5714 32.999 56.5714C44.3608 56.5714 53.5714 54.1247 53.5714 51.1066C53.5714 49.1277 49.6118 47.3945 43.6823 46.4355C43.0323 47.1527 42.294 47.8223 41.4605 48.4308C40.3457 49.2438 35.5398 52.5209 29.2038 51.5915C27.8399 51.392 26.6241 51.0288 25.5669 50.591C25.5078 50.5666 25.4545 50.5359 25.4071 50.5002L25.386 50.4986L25.3241 50.4812C23.3133 49.9183 22.4206 49.4788 21.5443 49.0457L21.446 48.9971L21.3693 48.9193C21.1757 48.7229 20.9964 48.5796 20.7795 48.4063L20.7105 48.3512C20.4627 48.1528 20.1846 47.9236 19.8672 47.5824C19.7144 47.418 19.5547 47.2302 19.3851 47.0095Z" fill="#3EBD93" fill-opacity="0.4"/>
<path fill-rule="evenodd" clip-rule="evenodd" d="M28.1989 49.1821C27.2183 47.9745 26.469 46.5919 26.0718 44.9169C25.6841 43.282 25.6249 41.3399 26.0431 38.9732C27.2354 40.0608 28.2991 40.7733 29.2434 41.0948C29.8384 41.2974 30.4189 41.356 30.9632 41.2229C31.5142 41.0882 31.9659 40.772 32.3211 40.3334C33.0052 39.4889 33.3606 38.1573 33.513 36.5559C33.6184 35.4479 33.6306 34.1591 33.5605 32.7183C35.8116 35.871 36.3491 38.4889 35.6387 40.8791C34.8197 43.6349 32.2966 46.2822 28.2165 49.1802C28.2106 49.1809 28.2047 49.1815 28.1989 49.1821Z" fill="#3EBD93" fill-opacity="0.1"/>
</g>
<defs>
<clipPath id="clip0_1881_5322">
<rect width="66" height="72" rx="8" fill="white"/>
</clipPath>
</defs>
</svg>
