<svg xmlns="http://www.w3.org/2000/svg" width="24" height="24" viewBox="0 0 24 24">
    <g fill="none" fill-rule="evenodd">
        <g>
            <g>
                <g>
                    <path d="M0 0H24V24H0z" transform="translate(-28 -345) translate(12 333) translate(16 12)"/>
                    <path fill="#253E47" fill-rule="nonzero" d="M12.652 3.957l.127.005.119.012 5.682.851c1.151.173 2.017 1.125 2.093 2.272l.006.165v9.476c0 1.165-.814 2.162-1.937 2.407l-.162.03-.227.035c-.135.297-.434.504-.782.504-.256 0-.486-.112-.643-.29l-3.983.597c-.887.133-1.71-.325-2.1-1.056H7.28c-.053.422-.413.75-.85.75-.401 0-.737-.275-.831-.647l-.022-.112c-1.21-.102-2.17-1.078-2.25-2.294l-.005-.162v-2.143c0-.414.336-.75.75-.75.38 0 .694.282.744.648l.006.102V16.5c0 .494.373.902.852.958l.113.006h4.82V6.534l-4.82.002c-.495 0-.902.372-.958.852L4.82 7.5v1.714c0 .414-.335.75-.75.75-.38 0-.693-.282-.743-.648l-.007-.102V7.5c0-1.306 1.017-2.376 2.303-2.459l.162-.005 5.06-.001c.322-.604.939-1.02 1.642-1.073l.164-.005zm-.017 1.5c-.255.003-.474.189-.52.44l-.008.096v12.014c0 .298.24.532.528.536l.087-.006 5.635-.845c.433-.065.762-.411.814-.836l.008-.118V7.262c0-.437-.294-.815-.706-.929l-.116-.025-5.598-.84-.124-.01zm3.222 2.579c1.399 0 2.25 1.824 2.25 3.964 0 2.14-.851 3.964-2.25 3.964-1.398 0-2.25-1.824-2.25-3.964 0-2.14.852-3.964 2.25-3.964zM7.517 9.04l.085.073 2.143 2.142c.266.267.29.683.072.977l-.072.084-2.143 2.143c-.293.293-.768.293-1.06 0-.267-.266-.291-.683-.074-.977l.073-.084.861-.863h-3.33c-.415 0-.75-.335-.75-.75 0-.379.282-.693.648-.742l.101-.007 3.331-.001-.86-.862c-.267-.266-.291-.683-.074-.976l.073-.084c.266-.267.683-.29.977-.073zm8.34.496c-.051 0-.211.145-.38.508-.231.494-.37 1.196-.37 1.956s.139 1.462.37 1.956c.169.363.329.508.38.508.051 0 .212-.145.381-.508.23-.494.37-1.196.37-1.956s-.14-1.462-.37-1.956c-.17-.363-.33-.508-.38-.508z" transform="translate(-28 -345) translate(12 333) translate(16 12)"/>
                </g>
            </g>
        </g>
    </g>
</svg>
