<svg width="60" height="60" viewBox="0 0 60 60" xmlns="http://www.w3.org/2000/svg" xmlns:xlink="http://www.w3.org/1999/xlink">
    <defs>
        <linearGradient x1="0%" y1="50.001%" x2="100%" y2="100%" id="c">
            <stop stop-color="#6BBAAD" offset="0%"/>
            <stop stop-color="#CDCE69" offset="100%"/>
        </linearGradient>
        <rect id="a" x="0" y="0" width="60" height="60" rx="8"/>
    </defs>
    <g fill="none" fill-rule="evenodd">
        <mask id="b" fill="#fff">
            <use xlink:href="#a"/>
        </mask>
        <use fill="#1B2121" xlink:href="#a"/>
        <g mask="url(#b)">
            <path d="M30 5c13.81 0 25 11.19 25 25S43.81 55 30 55 5 43.81 5 30 16.19 5 30 5zm0 1.042c-13.234 0-23.958 10.724-23.958 23.957 0 13.235 10.724 23.96 23.957 23.96 13.235 0 23.96-10.725 23.96-23.96 0-13.233-10.725-23.957-23.96-23.957z" fill="#FFF" fill-rule="nonzero"/>
            <path d="M5.556 25c0 10.74 8.704 19.444 19.443 19.444 10.741 0 19.445-8.704 19.445-19.445C44.444 14.26 35.74 5.556 25 5.556c-10.74 0-19.443 8.704-19.443 19.443z" fill="url(#c)" fill-rule="nonzero" transform="translate(5 5)"/>
            <path d="M8.704 8.704h42.593v42.593H8.704z"/>
            <path d="M44.484 25.764a1.028 1.028 0 0 1-.074.185c-.038.184-.157.5-.332.901l-.237.521-.282.588-.318.637-.347.67-.364.685-.375.685-.375.666-.367.632-.35.58-.324.512-.149.225-.267.377a3.426 3.426 0 0 1-.219.266l-.088.087-1.231 1.049 6.03 3.029c-2.918 5.14-8.433 8.608-14.756 8.608-6.41 0-11.99-3.563-14.874-8.821l5.905-2.823-1.265-1.042c-.104-.09-.242-.263-.405-.499l-.261-.398-.445-.743-.322-.57-.333-.613-.337-.642-.334-.655-.324-.655-.306-.638-.282-.608-.25-.562-.21-.503-.165-.428a5.225 5.225 0 0 1-.111-.339c-.043-.06-.08-.12-.111-.183 1.08.733 3.222 1.452 6.026 1.958l.861.145c.44.069.894.132 1.36.19l.95.108c.966.099 1.979.173 3.028.215l.58.02.588.014.91.008.912-.008 1.026-.028c5.626-.213 10.228-1.32 12.162-2.49l.19-.122.262-.191zM22.089 29.73l.367 1.331c.244.784.523 1.53.854 2.286l.26.57.604 1.192c.07.141.165.266.285.38l.128.109.51.379c.87.587 1.835 1.006 2.977 1.316l.437.112 1.204.237.228.022h.177l.228-.022 1.24-.245c1.154-.277 2.15-.66 3.072-1.224l.342-.22.486-.364c.125-.095.232-.208.32-.34l.08-.137.62-1.224c.348-.742.648-1.479.915-2.263l.194-.597.342-1.242c-.74 1.41-2.208 2.41-3.981 2.583l-.244.018-.26-.03a4.744 4.744 0 0 1-3.21-1.916l-.142-.21-.076-.128-.148.23c-.72 1.036-1.862 1.759-3.21 1.991l-.273.04-.248.025-.235-.02c-1.709-.184-3.145-1.211-3.843-2.64zm7.935-14.546c.944 0 2.152.652 3.85 1.94l.758.592.32.259.919.76 2.448 2.077 2.05.547.532.15.47.139.38.118.504.168.3.11.264.103c1.171.475 1.752.982 1.752 1.654l-.009.138-.028.136-.263.204c-1.298.921-4.095 1.822-7.72 2.346l-1.113.145-1.157.12c-.786.072-1.6.125-2.437.158l-.995.029-.913.008-.914-.008-.59-.015c-6.055-.186-10.998-1.47-12.847-2.793a1.088 1.088 0 0 1-.108-.468c0-.742.623-1.342 1.98-1.873-.217-.229-.316-.438-.58-.61.41-.47 1.168-.857 1.688-.93 1.034-.172 1.67.135 2.367.192-.54-.232-1.579-1.244-1.945-1.704-.436-.985-.124-1.832.142-2.302l.056-.095.095-.145.114-.154.07-.008.294-.007c.442.003 1.163.062 1.423.352.425.604.627 1.222.754 1.772l.107.525c.079.413.14.76.27.992l.077-.3.121-.586a4.25 4.25 0 0 1 .45-1.264c.456-.826 2.042-1.958 3.166-1.733l.032.181.123.445c.03.144.037.298-.02.508 1.651-1.243 2.838-1.873 3.763-1.873z" fill="#1B2020" fill-rule="nonzero"/>
        </g>
    </g>
</svg>
