<svg xmlns="http://www.w3.org/2000/svg" width="40" height="40" viewBox="0 0 40 40">
    <g fill="none" fill-rule="evenodd">
        <g>
            <g>
                <g>
                    <g>
                        <path d="M0 0H40V40H0z" transform="translate(-354.000000, -512.000000) translate(330.000000, 368.000000) translate(20.000000, 140.000000) translate(4.000000, 4.000000)"/>
                        <path fill="#253E47" fill-opacity=".5" fill-rule="nonzero" d="M32.2 28.363v1.859c0 1.37-2.468 2.478-5.512 2.478-3.044 0-5.512-1.109-5.512-2.478v-1.859c0 1.37 2.468 2.478 5.512 2.478 3.044 0 5.512-1.108 5.512-2.478zm-13.376-3.642v1.858c0 1.37-2.468 2.478-5.512 2.478-3.044 0-5.512-1.109-5.512-2.478v-1.858c0 1.369 2.468 2.478 5.512 2.478 3.044 0 5.512-1.11 5.512-2.478zm13.376-.075v1.859c0 1.369-2.468 2.478-5.512 2.478-3.044 0-5.512-1.109-5.512-2.478v-1.859c0 1.37 2.468 2.478 5.512 2.478 3.044 0 5.512-1.109 5.512-2.478zm-13.376-3.642v1.858c0 1.37-2.468 2.478-5.512 2.478-3.044 0-5.512-1.109-5.512-2.478v-1.858c0 1.369 2.468 2.478 5.512 2.478 3.044 0 5.512-1.11 5.512-2.478zm7.864-.694c3.044 0 5.512 1.11 5.512 2.478s-2.468 2.478-5.512 2.478c-3.045 0-5.512-1.11-5.512-2.478 0-1.369 2.467-2.478 5.512-2.478zm-13.376-3.643c3.045 0 5.512 1.11 5.512 2.478 0 1.369-2.467 2.478-5.512 2.478-3.044 0-5.512-1.11-5.512-2.478s2.468-2.478 5.512-2.478zm13.743-1.313v1.858c0 1.37-2.468 2.478-5.512 2.478-.606 0-1.1-.02-1.587-.105.092-.204.14-.414.14-.629 0-.471-.232-.919-.649-1.32.685.139 1.297.196 2.096.196 3.044 0 5.512-1.11 5.512-2.478zm0-3.717v1.858c0 1.37-2.468 2.478-5.512 2.478-3.044 0-5.512-1.109-5.512-2.478v-1.858c0 1.369 2.468 2.478 5.512 2.478 3.044 0 5.512-1.11 5.512-2.478zM21.543 7.3c3.045 0 5.512 1.11 5.512 2.478 0 1.369-2.467 2.478-5.512 2.478-3.044 0-5.512-1.11-5.512-2.478S18.5 7.3 21.543 7.3z" transform="translate(-354.000000, -512.000000) translate(330.000000, 368.000000) translate(20.000000, 140.000000) translate(4.000000, 4.000000)"/>
                    </g>
                </g>
            </g>
        </g>
    </g>
</svg>
