<svg width="28" height="28" viewBox="0 0 28 28" fill="none" xmlns="http://www.w3.org/2000/svg">
<path d="M23.3333 14.3267V18.5503C23.3318 18.8137 23.2622 19.0722 23.1313 19.3005C23.0005 19.5288 22.8128 19.7191 22.5867 19.8528L18.9408 21.9602C18.715 22.0953 18.4571 22.1666 18.1942 22.1666C17.9313 22.1666 17.6733 22.0953 17.4475 21.9602L13.8017 19.8528C13.5755 19.7191 13.3879 19.5288 13.257 19.3005C13.1261 19.0722 13.0565 18.8137 13.055 18.5503V17.3649L14.9217 16.2775V18.3381L18.1883 20.2406L21.455 18.3381V14.5418L18.1883 12.6393L10.535 17.0883C10.3071 17.2171 10.0499 17.2849 9.78831 17.2849C9.52672 17.2849 9.26958 17.2171 9.04166 17.0883L5.39581 14.9721C5.17318 14.8363 4.98911 14.6453 4.8614 14.4174C4.73368 14.1895 4.66662 13.9325 4.66666 13.671V9.44742C4.66816 9.18404 4.73778 8.92557 4.86864 8.69726C4.99954 8.46896 5.18721 8.27863 5.41331 8.14493L9.05916 6.03751C9.28543 5.90378 9.54325 5.83325 9.80582 5.83325C10.0684 5.83325 10.3262 5.90378 10.5525 6.03751L14.1983 8.14493C14.4245 8.27863 14.6121 8.46896 14.743 8.69726C14.8739 8.92557 14.9435 9.18404 14.945 9.44742V10.6328L13.0667 11.7129V9.66403L9.80001 7.76151L6.53331 9.66403V13.4559L9.80001 15.3584L17.4533 10.9094C17.6812 10.7806 17.9384 10.7129 18.2 10.7129C18.4616 10.7129 18.7187 10.7806 18.9467 10.9094L22.5925 13.0256C22.8173 13.16 23.0037 13.3504 23.1335 13.5783C23.2633 13.8063 23.3322 14.0641 23.3333 14.3267Z" fill="#929FA3"/>
</svg>
