<svg width="66" height="72" viewBox="0 0 66 72" fill="none" xmlns="http://www.w3.org/2000/svg">
<g clip-path="url(#clip0_1881_5335)">
<path fill-rule="evenodd" clip-rule="evenodd" d="M25.379 2.05649C30.0949 -0.685487 35.9051 -0.685487 40.621 2.05649L58.379 12.3816C63.0949 15.1236 66 20.191 66 25.6749L66 46.3251C66 51.809 63.0949 56.8764 58.379 59.6184L40.621 69.9435C35.9051 72.6855 30.0949 72.6855 25.379 69.9435L7.62102 59.6184C2.90512 56.8765 -8.82574e-07 51.809 -1.12229e-06 46.3251L-2.02493e-06 25.6749C-2.26465e-06 20.191 2.90511 15.1236 7.62102 12.3816L25.379 2.05649Z" fill="#3EBD93" fill-opacity="0.1"/>
<path fill-rule="evenodd" clip-rule="evenodd" d="M56.871 14.975L39.1131 4.64997C35.3294 2.45001 30.6706 2.45001 26.8869 4.64997L9.12896 14.9751C5.34283 17.1764 3 21.2525 3 25.6749L3 46.3251C3 50.7475 5.34283 54.8236 9.12896 57.025L26.8869 67.35C30.6706 69.55 35.3294 69.55 39.1131 67.35L56.871 57.025C60.6572 54.8236 63 50.7475 63 46.3251L63 25.6749C63 21.2525 60.6572 17.1764 56.871 14.975ZM40.621 2.05649C35.9051 -0.685487 30.0949 -0.685487 25.379 2.05649L7.62102 12.3816C2.90511 15.1236 -2.26465e-06 20.191 -2.02493e-06 25.6749L-1.12229e-06 46.3251C-8.82574e-07 51.809 2.90512 56.8765 7.62102 59.6184L25.379 69.9435C30.0949 72.6855 35.9051 72.6855 40.621 69.9435L58.379 59.6184C63.0949 56.8764 66 51.809 66 46.3251L66 25.6749C66 20.191 63.0949 15.1236 58.379 12.3816L40.621 2.05649Z" fill="#3EBD93" fill-opacity="0.1"/>
<path fill-rule="evenodd" clip-rule="evenodd" d="M33 44.6218C41.4947 44.6218 48.381 37.7142 48.381 29.1932C48.381 20.6723 41.4947 13.7646 33 13.7646C24.5053 13.7646 17.619 20.6723 17.619 29.1932C17.619 37.7142 24.5053 44.6218 33 44.6218ZM33 39.1764C38.4965 39.1764 42.9524 34.7068 42.9524 29.1932C42.9524 23.6797 38.4965 19.21 33 19.21C27.5035 19.21 23.0476 23.6797 23.0476 29.1932C23.0476 34.7068 27.5035 39.1764 33 39.1764Z" fill="#3EBD93" fill-opacity="0.1"/>
<path d="M43.8571 29.1931C43.8571 35.2079 38.9962 40.0838 33 40.0838C27.0038 40.0838 22.1429 35.2079 22.1429 29.1931C22.1429 23.1783 27.0038 18.3023 33 18.3023C38.9962 18.3023 43.8571 23.1783 43.8571 29.1931Z" fill="#2DA287"/>
<path fill-rule="evenodd" clip-rule="evenodd" d="M42.7602 42.2717C46.7222 39.2918 49.2857 34.5427 49.2857 29.1931C49.2857 20.1709 41.9944 12.8569 33 12.8569C24.0057 12.8569 16.7143 20.1709 16.7143 29.1931C16.7143 34.5427 19.2778 39.2918 23.2398 42.2716L20.3333 56.9998L26.6323 55.869L31.8727 59.1426L32.9972 53.4485L33.0009 53.4341L33.3249 55.078L33.3343 55.1274L34.1273 59.1426L39.3677 55.869L45.6666 56.9998L42.7602 42.2717ZM33 43.7141C40.995 43.7141 47.4762 37.2128 47.4762 29.1931C47.4762 21.1733 40.995 14.6721 33 14.6721C25.005 14.6721 18.5238 21.1733 18.5238 29.1931C18.5238 37.2128 25.005 43.7141 33 43.7141Z" fill="#2DA287"/>
<path d="M35.0809 35.5462H31.6972V28.8202C31.6972 28.0033 31.7148 27.2554 31.7483 26.5782C31.5403 26.8396 31.2812 27.1119 30.9728 27.3951L29.5717 28.586L27.8428 26.3949L32.0778 22.8403H35.0809V35.5462Z" fill="white"/>
</g>
<defs>
<clipPath id="clip0_1881_5335">
<rect width="66" height="72" rx="8" fill="white"/>
</clipPath>
</defs>
</svg>
