<svg xmlns="http://www.w3.org/2000/svg" width="24" height="24" viewBox="0 0 24 24">
    <g fill="none" fill-rule="evenodd">
        <g>
            <g>
                <g>
                    <path d="M0 0H24V24H0z" transform="translate(-28 -297) translate(12 285) translate(16 12)"/>
                    <path fill="#253E47" fill-rule="nonzero" d="M14.143 2.893c1.597 0 2.893 1.295 2.893 2.893 0 .505-.13.98-.357 1.393h1.964c.61 0 1.112.463 1.172 1.058l.006.12v3c0 .54-.362.994-.856 1.134v5.295c0 1.54-1.205 2.8-2.724 2.888l-.17.005H7.93c-1.54 0-2.8-1.205-2.888-2.723l-.005-.17V12.49c-.454-.128-.796-.521-.85-1l-.007-.134v-3c0-.61.463-1.112 1.058-1.172l.12-.006h1.964c-.227-.413-.357-.888-.357-1.393 0-1.598 1.296-2.893 2.893-2.893.85 0 1.614.366 2.143.95.529-.584 1.293-.95 2.143-.95zm-2.893 9.642H6.536v5.25c0 .725.552 1.32 1.258 1.387l.135.007 3.32-.001v-6.643zm6.214 0H12.75v6.643h3.321c.724 0 1.32-.552 1.387-1.258l.006-.134v-5.251zM11.25 8.678H5.678v2.357h5.572V8.678zm7.071 0H12.75v2.357h5.571V8.678zM9.857 4.393c-.769 0-1.393.624-1.393 1.393 0 .724.553 1.319 1.259 1.386l.134.007 1.393-.001V5.786c0-.77-.624-1.393-1.393-1.393zm4.286 0c-.724 0-1.32.552-1.387 1.259l-.006.134v1.392h1.393c.769 0 1.393-.623 1.393-1.392 0-.77-.624-1.393-1.393-1.393z" transform="translate(-28 -297) translate(12 285) translate(16 12)"/>
                </g>
            </g>
        </g>
    </g>
</svg>
