<svg xmlns="http://www.w3.org/2000/svg" width="40" height="40" viewBox="0 0 40 40">
    <g fill="none" fill-rule="evenodd">
        <g>
            <g>
                <g>
                    <g>
                        <g transform="translate(-532 -916) translate(330 760) translate(0 140) translate(182) translate(20 16)">
                            <rect width="40" height="40" fill="#FBCA69" rx="8"/>
                            <path fill="#FFF" d="M29.059 23.273c1.592 0 2.882 1.282 2.882 2.863 0 1.582-1.29 2.864-2.882 2.864s-2.883-1.282-2.883-2.864c0-1.581 1.29-2.863 2.883-2.863zM25.765 11c.253 0 .49.115.645.31l.06.087 2.177 3.694 4.665.83c.36.059.634.347.68.699l.008.107v8.591c0 .417-.314.762-.72.812l-.104.006h-.411c0-2.033-1.66-3.681-3.706-3.681-1.98 0-3.599 1.543-3.7 3.486l-.006.195h-3.964c.168-.515.258-1.065.258-1.636 0-2.937-2.397-5.318-5.353-5.318l-.207.004-.205.011v-4.925h-3.857l1.768 6.327c.013.044.021.089.026.132.71-.462 1.561-.731 2.475-.731 2.502 0 4.53 2.015 4.53 4.5s-2.028 4.5-4.53 4.5c-1.453 0-2.747-.68-3.576-1.738-.725.589-1.637.92-2.6.92H6.824c-.556 0-.952-.536-.787-1.062l2.06-6.546c.107-.341.425-.574.785-.574h3.038l-1.605-5.727h-.197c-.455 0-.824-.367-.824-.818 0-.452.369-.819.824-.819h5.763l.001-.818c0-.417.315-.761.72-.812l.104-.006h9.059zm3.294 13.91c-.682 0-1.235.549-1.235 1.226 0 .678.553 1.228 1.235 1.228s1.235-.55 1.235-1.228c0-.677-.553-1.227-1.235-1.227zm-12.765-3.274c-1.592 0-2.882 1.282-2.882 2.864 0 1.582 1.29 2.864 2.882 2.864s2.882-1.282 2.882-2.864c0-1.582-1.29-2.864-2.882-2.864zm-3.493 0H9.49l-1.546 4.91h2.174c.665 0 1.286-.262 1.747-.72l.08-.068c-.118-.4-.18-.821-.18-1.258 0-1.088.388-2.086 1.036-2.864zm16.67-4.09h-7.827c-.198 0-.362.138-.4.328l-.009.084v.81c0 .2.14.367.327.405l.082.009h7.003V20c0 .198.14.363.33.4l.086.01h.815c.201 0 .369-.14.408-.327l.008-.083v-1.636c0-.417-.314-.762-.72-.812l-.103-.007z"/>
                        </g>
                    </g>
                </g>
            </g>
        </g>
    </g>
</svg>
