<svg xmlns="http://www.w3.org/2000/svg" width="40" height="40" viewBox="0 0 40 40">
    <g fill="none" fill-rule="evenodd">
        <g>
            <g>
                <g>
                    <g>
                        <path d="M0 0H40V40H0z" transform="translate(-784.000000, -284.000000) translate(330.000000, 260.000000) translate(450.000000, 20.000000) translate(4.000000, 4.000000)"/>
                        <path fill="#2DA287" fill-rule="nonzero" d="M25.452 18.905c3.616 0 6.548 2.931 6.548 6.547C32 29.068 29.068 32 25.452 32s-6.547-2.932-6.547-6.548 2.931-6.547 6.547-6.547zM18.905 7C25.47 7 30.81 12.34 30.81 18.905c0 .315-.012.625-.042.928-.518-.494-1.107-.916-1.75-1.25-.173-5.428-4.643-9.797-10.113-9.797-5.578 0-10.12 4.541-10.12 10.119 0 5.47 4.37 9.94 9.798 10.113.334.643.756 1.232 1.25 1.75-.303.03-.613.042-.928.042C12.339 30.81 7 25.47 7 18.905 7 12.339 12.34 7 18.905 7zm10.54 15.65c-.207-.206-.527-.23-.76-.068l-.082.069-4.341 4.34-1.96-1.96c-.233-.232-.61-.232-.842 0-.207.207-.23.528-.069.76l.07.082 2.38 2.381c.116.116.269.175.42.175.123 0 .245-.038.348-.112l.074-.063 4.762-4.762c.232-.232.232-.609 0-.841zm-12.909-.5l.035.106c.173.649.756 1.107 1.429 1.113-.16.566-.256 1.16-.274 1.774-1.369-.12-2.53-1.09-2.88-2.435-.126-.476.16-.964.636-1.089.44-.115.89.12 1.054.53zm2.071-10.983c.494 0 .893.398.893.893v.619c1.351.125 2.506 1.065 2.863 2.392.131.477-.155.97-.63 1.096-.471.13-.965-.155-1.096-.625-.173-.65-.762-1.102-1.435-1.102h-1.041c-.905 0-1.637.733-1.637 1.637 0 .905.732 1.637 1.637 1.637h1.19c.935 0 1.786.346 2.44.917-.553.304-1.07.667-1.535 1.09-.274-.144-.583-.221-.905-.221h-1.19c-1.887 0-3.423-1.536-3.423-3.423 0-1.738 1.298-3.172 2.976-3.392v-.625c0-.495.4-.893.893-.893z" transform="translate(-784.000000, -284.000000) translate(330.000000, 260.000000) translate(450.000000, 20.000000) translate(4.000000, 4.000000)"/>
                    </g>
                </g>
            </g>
        </g>
    </g>
</svg>
