<svg xmlns="http://www.w3.org/2000/svg" width="60" height="60" viewBox="0 0 60 60">
    <defs>
        <filter id="0bawymp6ma" width="215.9%" height="215.9%" x="-57.9%" y="-57.9%" filterUnits="objectBoundingBox">
            <feGaussianBlur in="SourceGraphic" stdDeviation="8"/>
        </filter>
    </defs>
    <g fill="none" fill-rule="evenodd">
        <g>
            <g>
                <g transform="translate(-350 -224) translate(330 204) translate(20 20)">
                    <rect width="60" height="60" fill="#000625" rx="8"/>
                    <g fill-rule="nonzero">
                        <g>
                            <path fill="#FF6D00" fill-opacity=".5" d="M20.714 0C32.154 0 41.43 9.274 41.43 20.714S32.154 41.43 20.714 41.43 0 32.154 0 20.714 9.274 0 20.714 0zm1.838 6.682c-8.765 0-15.87 7.105-15.87 15.87 0 8.765 7.105 15.87 15.87 15.87 8.765 0 15.87-7.105 15.87-15.87 0-8.765-7.105-15.87-15.87-15.87z" filter="url(#0bawymp6ma)" transform="translate(9.167 9.167) translate(.119 .119) rotate(180 20.714 20.714)"/>
                            <path fill="#FF6D00" fill-opacity=".2" d="M20.714 0C32.154 0 41.43 9.274 41.43 20.714S32.154 41.43 20.714 41.43 0 32.154 0 20.714 9.274 0 20.714 0zm1.838 6.682c-8.765 0-15.87 7.105-15.87 15.87 0 8.765 7.105 15.87 15.87 15.87 8.765 0 15.87-7.105 15.87-15.87 0-8.765-7.105-15.87-15.87-15.87z" transform="translate(9.167 9.167) translate(.119 .119) rotate(180 20.714 20.714)"/>
                            <path fill="#FF6D00" fill-opacity=".5" d="M20.714 0C32.154 0 41.43 9.274 41.43 20.714S32.154 41.43 20.714 41.43 0 32.154 0 20.714 9.274 0 20.714 0zm.334 4.01c-9.41 0-17.039 7.628-17.039 17.038s7.629 17.04 17.04 17.04c9.41 0 17.039-7.63 17.039-17.04S30.458 4.01 21.048 4.01z" transform="translate(9.167 9.167) translate(.119 .119) rotate(180 20.714 20.714)"/>
                            <path fill="#FF7B18" fill-opacity=".8" d="M20.536.357c11.144 0 20.178 9.034 20.178 20.179 0 11.144-9.034 20.178-20.178 20.178C9.39 40.714.357 31.68.357 20.536.357 9.39 9.391.357 20.536.357zm.672 2.018c-10.401 0-18.833 8.432-18.833 18.833 0 10.402 8.432 18.834 18.833 18.834 10.402 0 18.834-8.432 18.834-18.834 0-10.401-8.432-18.833-18.834-18.833z" transform="translate(9.167 9.167) translate(.119 .119) rotate(180 20.536 20.536)"/>
                            <path fill="#FF8C18" d="M19.821.357c10.75 0 19.465 8.715 19.465 19.464 0 10.75-8.715 19.465-19.465 19.465S.357 30.57.357 19.82 9.072.357 19.821.357zm.333.998c-10.382 0-18.799 8.417-18.799 18.8 0 10.381 8.417 18.798 18.8 18.798 10.381 0 18.798-8.417 18.798-18.799S30.536 1.355 20.154 1.355z" transform="translate(9.167 9.167) translate(.119 .119) rotate(180 19.821 19.821)"/>
                        </g>
                    </g>
                </g>
            </g>
        </g>
    </g>
</svg>
