<svg xmlns="http://www.w3.org/2000/svg" width="60" height="60" viewBox="0 0 60 60">
    <g fill="none" fill-rule="evenodd">
        <g>
            <g>
                <g transform="translate(-350 -704) translate(330 684) translate(20 20)">
                    <rect width="60" height="60" fill="#E6FAF4" rx="8"/>
                    <g fill="#3BB88A">
                        <path d="M13.987.62C15.585.123 17.382-.027 19.1.003l.57.016.281.013.557.033.274.02.538.048.523.056.506.062.487.067.688.107.428.073.59.11.52.106.9.204.387.1v2.908h-3.778v3.879h3.778v3.764h3.892v3.936h-3.835v3.935h-3.892v3.765h-3.95v3.936h3.893v3.82h3.892v3.994h4.522l.032.258.05.325.104.59.18.938.273 1.32.209.976.811 3.635H15.818l-.043-.265-.13-.946-.057-.358-.07-.399-.087-.44-.106-.48c-.038-.168-.08-.342-.127-.524l-.152-.566-.087-.3c-.69-2.353-2.55-2.833-4.591-2.874l-.41-.003-.414.006-.622.021-1.028.045c-.542.022-1.068.033-1.56.008-.795-.04-1.636-.303-2.1-.946-.295-.41-.4-.924-.476-1.423-.076-.5-.13-1.055-.178-1.632l-.095-1.171c-.081-.983-.18-1.963-.377-2.783-.101-.421-.234-.848-.505-1.187-.243-.303-.595-.547-.96-.785l-.407-.263-.253-.174c-.62-.442-1.11-.962-.953-1.852.076-.43.32-.81.581-1.16l.74-.969.393-.528c.588-.81 1.144-1.685 1.376-2.508.335-1.193.456-2.265.525-3.294l.045-.765.04-.757c.088-1.511.244-3.016 1.02-4.783C6.437 5.093 9.951 1.87 13.986.619zm6.851 31.376h-3.835v3.822h3.835v-3.822zm17.998-.794v3.822H35v-3.822h3.836zm-6.667-2.372v3.822h-3.835V28.83h3.835zm3.835-5.138v3.823H32.17v-3.823h3.835zm-8.432-.403v3.823h-3.836v-3.823h3.836zm4.204-4.742v3.822H27.94v-3.822h3.836zm4.59-3.823v3.823h-3.835v-3.823h3.835zm-16.49-.29h-3.835v3.823h3.836v-3.822zM41.85 10.22v3.821h-3.835V10.22h3.835zm-19.094-.881H18.92v3.822h3.835V9.34zm-7.794-1.632h-3.835v3.822h3.835V7.707zm21.216-1.31v3.823h-3.835V6.397h3.835zM31.22 3.631v3.822h-3.835V3.63h3.835z" transform="translate(9 8.5)"/>
                    </g>
                </g>
            </g>
        </g>
    </g>
</svg>
