<svg xmlns="http://www.w3.org/2000/svg" width="24" height="24" viewBox="0 0 24 24">
    <g fill="none" fill-rule="evenodd">
        <g>
            <g>
                <g>
                    <g>
                        <g>
                            <path d="M0 0H24V24H0z" transform="translate(-810.000000, -798.000000) translate(330.000000, 584.000000) translate(60.000000, 64.000000) translate(420.000000, 137.000000) translate(0.000000, 13.000000)"/>
                            <path fill="#253E47" fill-opacity=".5" fill-rule="nonzero" d="M13.668 4.404l.083.074 6.787 7c.254.262.28.662.077.952l-.077.092-6.787 7c-.289.297-.764.305-1.061.016-.27-.262-.3-.678-.088-.975l.072-.085 5.553-5.728H4c-.414 0-.75-.336-.75-.75 0-.38.282-.693.648-.743L4 11.25h14.227l-5.553-5.728c-.262-.27-.28-.687-.058-.977l.074-.083c.27-.263.687-.28.978-.058z" transform="translate(-810.000000, -798.000000) translate(330.000000, 584.000000) translate(60.000000, 64.000000) translate(420.000000, 137.000000) translate(0.000000, 13.000000)"/>
                        </g>
                    </g>
                </g>
            </g>
        </g>
    </g>
</svg>
