<svg width="24" height="24" viewBox="0 0 24 24" fill="none" xmlns="http://www.w3.org/2000/svg">
<path fill-rule="evenodd" clip-rule="evenodd" d="M2 3.1999C2 2.75807 2.35817 2.3999 2.8 2.3999H9.2C9.64183 2.3999 10 2.75807 10 3.1999C10 3.64173 9.64183 3.9999 9.2 3.9999H2.8C2.35817 3.9999 2 3.64173 2 3.1999ZM2 7.1999C2 6.75807 2.35817 6.3999 2.8 6.3999H13.2C13.6418 6.3999 14 6.75807 14 7.1999C14 7.64173 13.6418 7.9999 13.2 7.9999H2.8C2.35817 7.9999 2 7.64173 2 7.1999ZM2.8 18.3999C2.35817 18.3999 2 18.7581 2 19.1999C2 19.6417 2.35817 19.9999 2.8 19.9999H10.2C10.6418 19.9999 11 19.6417 11 19.1999C11 18.7581 10.6418 18.3999 10.2 18.3999H2.8ZM2 11.1999C2 10.7581 2.35817 10.3999 2.8 10.3999H9.2C9.64183 10.3999 10 10.7581 10 11.1999C10 11.6417 9.64183 11.9999 9.2 11.9999H2.8C2.35817 11.9999 2 11.6417 2 11.1999ZM2.8 14.3999C2.35817 14.3999 2 14.7581 2 15.1999C2 15.6417 2.35817 15.9999 2.8 15.9999H8.2C8.64183 15.9999 9 15.6417 9 15.1999C9 14.7581 8.64183 14.3999 8.2 14.3999H2.8ZM11.8988 10.8987C12.9865 9.81097 14.4617 9.1999 16 9.1999C17.5383 9.1999 19.0135 9.81097 20.1012 10.8987C21.1889 11.9864 21.8 13.4616 21.8 14.9999C21.8 16.5382 21.1889 18.0134 20.1012 19.1011C19.0135 20.1888 17.5383 20.7999 16 20.7999C14.4617 20.7999 12.9865 20.1888 11.8988 19.1011C10.8111 18.0134 10.2 16.5382 10.2 14.9999C10.2 13.4616 10.8111 11.9864 11.8988 10.8987ZM16 10.7999C14.8861 10.7999 13.8178 11.2424 13.0302 12.0301C12.2425 12.8177 11.8 13.886 11.8 14.9999C11.8 16.1138 12.2425 17.1821 13.0302 17.9697C13.8178 18.7574 14.8861 19.1999 16 19.1999C17.1139 19.1999 18.1822 18.7574 18.9698 17.9697C19.7575 17.1821 20.2 16.1138 20.2 14.9999C20.2 13.886 19.7575 12.8177 18.9698 12.0301C18.1822 11.2424 17.1139 10.7999 16 10.7999ZM16.8 13.1199C16.8 12.678 16.4418 12.3199 16 12.3199C15.5582 12.3199 15.2 12.678 15.2 13.1199V14.9999C15.2 15.212 15.2843 15.4155 15.4343 15.5656L16.6843 16.8156C16.9967 17.128 17.5033 17.128 17.8157 16.8156C18.1281 16.5031 18.1281 15.9966 17.8157 15.6842L16.8 14.6685V13.1199Z" fill="#253E47"/>
</svg>
