<svg xmlns="http://www.w3.org/2000/svg" width="24" height="24" viewBox="0 0 24 24">
    <g fill="none" fill-rule="evenodd">
        <g>
            <g>
                <g>
                    <g>
                        <g>
                            <g>
                                <g>
                                    <path d="M0 0H24V24H0z" transform="translate(-1121.000000, -684.000000) translate(330.000000, 584.000000) translate(60.000000, 64.000000) translate(600.000000, 0.000000) translate(20.000000, 24.000000) translate(25.000000, 12.000000) translate(86.000000, 0.000000)"/>
                                    <path fill="#2DA287" fill-rule="nonzero" d="M7.988 5.309c.266-.266.682-.29.976-.073l.084.073 6.964 6.964c.267.267.29.683.073.977l-.073.084-6.964 6.964c-.293.293-.768.293-1.06 0-.267-.266-.29-.683-.073-.976l.073-.084 6.433-6.435L7.988 6.37c-.267-.267-.29-.683-.073-.977l.073-.084z" transform="translate(-1121.000000, -684.000000) translate(330.000000, 584.000000) translate(60.000000, 64.000000) translate(600.000000, 0.000000) translate(20.000000, 24.000000) translate(25.000000, 12.000000) translate(86.000000, 0.000000) translate(12.000000, 12.803571) scale(1, -1) rotate(-270.000000) translate(-12.000000, -12.803571)"/>
                                </g>
                            </g>
                        </g>
                    </g>
                </g>
            </g>
        </g>
    </g>
</svg>
