<svg xmlns="http://www.w3.org/2000/svg" width="24" height="24" viewBox="0 0 24 24">
    <defs>
        <linearGradient id="3bwx73n8ca" x1="50%" x2="50%" y1="0%" y2="100%">
            <stop offset="0%" stop-color="#FFD580"/>
            <stop offset="100%" stop-color="#FFF" stop-opacity="0"/>
        </linearGradient>
    </defs>
    <g fill="none" fill-rule="evenodd">
        <g>
            <g>
                <g>
                    <g>
                        <g>
                            <path d="M0 0H24V24H0z" transform="translate(-578.000000, -344.000000) translate(330.000000, 160.000000) translate(0.000000, 156.000000) translate(240.000000, 20.000000) translate(8.000000, 8.000000)"/>
                            <path fill="#253E47" fill-opacity=".5" fill-rule="nonzero" d="M2.025 7.094c.38.166.552.609.385.988-.565 1.286-.86 2.68-.86 4.118 0 5.66 4.589 10.25 10.25 10.25 1.437 0 2.831-.296 4.117-.86.38-.167.822.005.988.385.167.379-.005.821-.385.988-1.475.648-3.074.987-4.72.987C5.31 23.95.05 18.69.05 12.2c0-1.646.339-3.246.987-4.721.167-.38.61-.552.988-.385zm11.757-3.111c.81-.733 1.88-.586 2.523.058l.098.106.103.132c.385.535.46 1.21.242 1.779l-.067.152-1.552 3.16h.884l1.142-.005c.832-.005 1.587.37 1.861 1.329.198.69.046 1.392-.476 1.92l-.127.12-.194.169-1.39 1.244-2.883 2.548-1.92 1.73-1.441 1.287-.337.307-.085.074c-.796.642-1.866.49-2.513-.178-.55-.57-.665-1.413-.347-2.076l.257-.534.53-1.093.762-1.554h-1.01l-.657-.002-.37.005c-.85.026-1.596-.506-1.839-1.323-.204-.69.014-1.401.464-1.869l.109-.112.337-.331.258-.24.563-.507.909-.787 2.425-2.145 3.74-3.364zm1.482 1.14c-.081-.094-.24-.176-.405-.08l-.071.052-1.2 1.073-2.235 2.018-1.181 1.053-1.185 1.048-1.36 1.18c-.377.338-.755.677-1.106 1.042-.084.087-.152.252-.107.403.047.158.18.255.355.25l.596-.006.596.002h3.358l-.381.706c-.122.226-.238.445-.349.668-.652 1.315-1.298 2.632-1.933 3.956-.045.094-.043.265.073.384.13.134.336.18.493.053l.193-.179.986-.874 1.116-1.011 1.118-1.008 2.642-2.33 1.433-1.288.722-.636c.174-.15.196-.305.142-.492-.058-.204-.212-.243-.41-.242l-1.967.006-2.474-.001 2.611-5.32c.049-.098.058-.277-.07-.427zM12.2.05c6.49 0 11.75 5.26 11.75 11.75 0 1.646-.34 3.246-.987 4.721-.167.38-.61.552-.989.385-.379-.166-.551-.609-.385-.988.565-1.286.861-2.68.861-4.118 0-5.66-4.59-10.25-10.25-10.25-1.437 0-2.831.295-4.117.86-.38.167-.822-.006-.989-.385-.166-.38.006-.822.385-.988C8.955.389 10.554.05 12.2.05z" transform="translate(-578.000000, -344.000000) translate(330.000000, 160.000000) translate(0.000000, 156.000000) translate(240.000000, 20.000000) translate(8.000000, 8.000000)"/>
                            <path fill="url(#3bwx73n8ca)" d="M12.723 10.87h.507c1.311 0 2.623.004 3.935-.005.197 0 .35.038.41.242.053.187.03.342-.143.492-.728.63-1.435 1.284-2.155 1.923-.878.78-1.765 1.55-2.642 2.331-.749.668-1.488 1.347-2.234 2.019-.392.352-.795.692-1.18 1.053-.156.127-.362.081-.492-.053-.116-.12-.118-.29-.073-.384.635-1.324 1.28-2.641 1.933-3.956.221-.446.466-.879.73-1.374H7.961c-.397 0-.795-.008-1.192.004-.175.005-.308-.092-.355-.25-.045-.151.023-.316.107-.403.351-.365.729-.704 1.107-1.041.448-.4.909-.784 1.359-1.18.79-.698 1.58-1.398 2.366-2.102.748-.67 1.489-1.347 2.235-2.018.398-.36.802-.713 1.2-1.073.189-.171.383-.08.476.028.128.15.119.329.07.426l-2.61 5.32z" transform="translate(-578.000000, -344.000000) translate(330.000000, 160.000000) translate(0.000000, 156.000000) translate(240.000000, 20.000000) translate(8.000000, 8.000000)"/>
                        </g>
                    </g>
                </g>
            </g>
        </g>
    </g>
</svg>
