<svg width="176" height="176" viewBox="0 0 176 176" fill="none" xmlns="http://www.w3.org/2000/svg">
<g filter="url(#filter0_d_1881_5175)">
<path d="M146.864 69.253C147.168 70.1973 147.805 70.9982 148.657 71.5053C149.132 71.7894 149.545 72.1677 149.869 72.617C150.193 73.0664 150.422 73.5773 150.542 74.1184C150.662 74.6595 150.67 75.2194 150.566 75.7638C150.462 76.3082 150.248 76.8256 149.937 77.2843C149.383 78.1045 149.146 79.0989 149.271 80.0812C149.397 81.0636 149.876 81.9665 150.618 82.6208C151.033 82.9859 151.37 83.432 151.607 83.9316C151.844 84.4313 151.977 84.9741 151.997 85.5268C152.018 86.0795 151.925 86.6307 151.726 87.1465C151.526 87.6623 151.224 88.132 150.837 88.527C150.145 89.2351 149.735 90.1713 149.684 91.1602C149.633 92.1491 149.943 93.1228 150.557 93.899C150.901 94.3325 151.152 94.8315 151.296 95.3655C151.44 95.8994 151.474 96.4572 151.396 97.0047C151.317 97.5522 151.128 98.078 150.84 98.5499C150.551 99.0217 150.17 99.4298 149.719 99.7493C148.911 100.322 148.339 101.171 148.112 102.136C147.885 103.1 148.017 104.115 148.484 104.989C148.743 105.476 148.9 106.011 148.946 106.561C148.991 107.111 148.925 107.664 148.751 108.188C148.576 108.711 148.297 109.193 147.931 109.606C147.564 110.018 147.118 110.351 146.618 110.585C145.722 111.004 145.01 111.736 144.614 112.644C144.218 113.551 144.167 114.572 144.469 115.514C144.638 116.043 144.697 116.6 144.643 117.152C144.589 117.704 144.423 118.239 144.155 118.724C143.887 119.21 143.523 119.635 143.085 119.975C142.647 120.314 142.144 120.56 141.607 120.698C140.651 120.951 139.819 121.544 139.268 122.366C138.717 123.188 138.484 124.183 138.613 125.165C138.684 125.712 138.643 126.268 138.492 126.798C138.341 127.329 138.085 127.823 137.737 128.252C137.39 128.68 136.959 129.033 136.471 129.289C135.983 129.546 135.448 129.7 134.898 129.743C133.911 129.82 132.986 130.255 132.297 130.966C131.607 131.676 131.2 132.615 131.152 133.604C131.125 134.156 130.987 134.697 130.744 135.193C130.502 135.69 130.161 136.131 129.743 136.492C129.324 136.852 128.837 137.123 128.31 137.289C127.784 137.455 127.229 137.511 126.68 137.455C125.697 137.355 124.711 137.616 123.907 138.19C123.103 138.764 122.534 139.611 122.309 140.574C122.184 141.112 121.951 141.618 121.625 142.063C121.298 142.508 120.884 142.882 120.409 143.161C119.933 143.441 119.406 143.621 118.859 143.691C118.312 143.76 117.756 143.717 117.226 143.565C116.275 143.29 115.255 143.371 114.36 143.795C113.464 144.218 112.754 144.954 112.362 145.864C112.143 146.372 111.824 146.83 111.423 147.209C111.022 147.589 110.547 147.883 110.029 148.074C109.511 148.264 108.959 148.347 108.408 148.317C107.856 148.287 107.317 148.145 106.822 147.899C105.936 147.458 104.919 147.356 103.963 147.612C103.007 147.867 102.176 148.463 101.628 149.288C101.323 149.749 100.927 150.143 100.464 150.445C100.002 150.748 99.4832 150.953 98.9391 151.048C98.395 151.143 97.8373 151.127 97.2999 150.999C96.7624 150.871 96.2566 150.635 95.8133 150.306C95.0195 149.714 94.0375 149.433 93.0514 149.514C92.0652 149.596 91.1425 150.035 90.4563 150.748C90.0736 151.147 89.6136 151.464 89.1043 151.679C88.5951 151.895 88.0474 152.004 87.4946 152C86.9419 151.996 86.3957 151.88 85.8895 151.657C85.3833 151.435 84.9276 151.112 84.5504 150.707C83.873 149.985 82.9557 149.535 81.9704 149.441C80.9852 149.348 79.9996 149.617 79.1985 150.199C78.7506 150.522 78.2416 150.751 77.7025 150.871C77.1634 150.991 76.6055 151 76.0629 150.897C75.5202 150.794 75.0042 150.582 74.5462 150.273C74.0883 149.964 73.6981 149.565 73.3993 149.1C72.8638 148.267 72.0435 147.659 71.0921 147.388C70.1406 147.118 69.1232 147.204 68.2304 147.63C67.7302 147.867 67.1869 148 66.6337 148.019C66.0806 148.039 65.5292 147.946 65.0133 147.745C64.4975 147.544 64.0281 147.24 63.6339 146.851C63.2398 146.462 62.9291 145.996 62.7209 145.483C62.3426 144.568 61.6441 143.823 60.7562 143.386C59.8684 142.95 58.852 142.853 57.8975 143.112C57.3656 143.258 56.8095 143.294 56.2631 143.219C55.7167 143.143 55.1914 142.956 54.7193 142.671C54.2472 142.385 53.838 142.007 53.5168 141.558C53.1955 141.109 52.9688 140.599 52.8506 140.06C52.6415 139.092 52.0869 138.233 51.2907 137.645C50.4944 137.057 49.5112 136.78 48.5253 136.865C47.9753 136.913 47.4212 136.849 46.8969 136.675C46.3726 136.502 45.8891 136.223 45.4758 135.857C45.0625 135.49 44.7282 135.043 44.4931 134.543C44.258 134.043 44.1272 133.5 44.1086 132.948C44.0758 131.958 43.6835 131.014 43.0051 130.293C42.3268 129.572 41.409 129.123 40.4238 129.031C39.8736 128.98 39.3397 128.817 38.8546 128.552C38.3695 128.287 37.9434 127.926 37.6024 127.491C37.2614 127.056 37.0125 126.555 36.871 126.021C36.7296 125.486 36.6984 124.928 36.7796 124.381C36.9237 123.401 36.706 122.403 36.167 121.572C35.6281 120.741 34.805 120.136 33.852 119.869C33.3197 119.721 32.8233 119.465 32.393 119.118C31.9627 118.771 31.6075 118.34 31.3493 117.851C31.091 117.362 30.935 116.826 30.8908 116.274C30.8466 115.723 30.9151 115.168 31.0922 114.644C31.4078 113.706 31.3708 112.685 30.9882 111.772C30.6055 110.859 29.9034 110.117 29.0134 109.685C28.5162 109.443 28.0734 109.102 27.7122 108.684C27.3509 108.265 27.0787 107.777 26.9122 107.249C26.7457 106.722 26.6884 106.166 26.7438 105.615C26.7993 105.065 26.9662 104.532 27.2345 104.048C27.7136 103.181 27.8601 102.169 27.6468 101.201C27.4335 100.234 26.8749 99.3775 26.0757 98.7929C25.6367 98.4666 25.268 98.055 24.9915 97.5828C24.7151 97.1106 24.5367 96.5874 24.4669 96.0446C24.3972 95.5017 24.4375 94.9504 24.5856 94.4235C24.7336 93.8966 24.9864 93.4051 25.3286 92.9782C25.9543 92.2107 26.2789 91.2411 26.2415 90.2512C26.2041 89.2613 25.8072 88.3191 25.1253 87.6011C24.7415 87.1988 24.4442 86.722 24.2517 86.2003C24.0592 85.6785 23.9756 85.1227 24.0061 84.5673C24.0366 84.012 24.1805 83.4687 24.4289 82.9712C24.6774 82.4736 25.0251 82.0323 25.4506 81.6745C26.2035 81.0317 26.6963 80.136 26.8366 79.1555C26.977 78.175 26.7552 77.1769 26.213 76.3483C25.9103 75.886 25.705 75.3668 25.6094 74.8224C25.5138 74.2781 25.5299 73.7199 25.6569 73.1821C25.7839 72.6442 26.019 72.1378 26.3479 71.6938C26.6768 71.2499 27.0926 70.8776 27.57 70.5998C28.4266 70.1021 29.0723 69.3086 29.3858 68.3681C29.6993 67.4277 29.6591 66.4051 29.2726 65.4923C29.0576 64.9832 28.9483 64.4356 28.9516 63.8828C28.9549 63.3301 29.0707 62.7838 29.2918 62.2774C29.513 61.7709 29.8349 61.3148 30.2379 60.9369C30.6409 60.5591 31.1167 60.2673 31.636 60.0795C32.5593 59.7345 33.3259 59.0656 33.7933 58.1972C34.2608 57.3289 34.3972 56.3201 34.1773 55.3586C34.0581 54.8187 34.05 54.2601 34.1537 53.7169C34.2573 53.1737 34.4704 52.6574 34.7801 52.1994C35.0897 51.7414 35.4893 51.3514 35.9546 51.0532C36.4198 50.7549 36.9409 50.5547 37.486 50.4648C38.464 50.3019 39.3488 49.787 39.9741 49.0169C40.5993 48.2468 40.9219 47.2746 40.8812 46.2831C40.8584 45.7313 40.9481 45.1806 41.1447 44.6645C41.3414 44.1485 41.641 43.6779 42.0252 43.2814C42.4094 42.885 42.8702 42.5709 43.3795 42.3585C43.8889 42.146 44.4361 42.0395 44.9879 42.0455C45.976 42.0549 46.9338 41.7038 47.6821 41.0578C48.4304 40.4117 48.9181 39.5151 49.0539 38.5354C49.1294 37.9874 49.3158 37.4605 49.6016 36.987C49.8874 36.5136 50.2666 36.1034 50.7162 35.7815C51.1657 35.4597 51.676 35.2329 52.216 35.1151C52.756 34.9973 53.3144 34.991 53.8569 35.0964C54.8281 35.2848 55.8346 35.1123 56.6878 34.6113C57.5411 34.1103 58.1826 33.3152 58.4922 32.3748C58.6624 31.8478 58.9383 31.3611 59.303 30.9445C59.6676 30.5279 60.1134 30.1903 60.613 29.9521C61.1126 29.714 61.6555 29.5805 62.2085 29.5597C62.7614 29.5389 63.3128 29.6313 63.8289 29.8312C64.7512 30.1901 65.7726 30.2001 66.7017 29.8592C67.6308 29.5183 68.4038 28.85 68.8758 27.9795C69.1393 27.4935 69.499 27.0664 69.9328 26.7242C70.3667 26.382 70.8656 26.1318 71.3993 25.989C71.9329 25.8462 72.49 25.8137 73.0366 25.8935C73.5832 25.9734 74.1078 26.1638 74.5785 26.4533C75.4214 26.9717 76.4243 27.1647 77.3992 26.9961C78.3741 26.8276 79.2541 26.309 79.8745 25.5376C80.2185 25.1044 80.6472 24.7459 81.1344 24.4841C81.6216 24.2223 82.157 24.0627 82.7079 24.0151C83.2588 23.9675 83.8136 24.0328 84.3384 24.2071C84.8632 24.3815 85.3469 24.6611 85.7601 25.0289C86.4977 25.6863 87.4493 26.0525 88.4369 26.059C89.4246 26.0656 90.3809 25.7121 91.1272 25.0645C91.5444 24.702 92.031 24.4284 92.5573 24.2604C93.0836 24.0923 93.6386 24.0334 94.1885 24.0872C94.7383 24.141 95.2714 24.3064 95.7552 24.5733C96.2391 24.8401 96.6635 25.2029 97.0027 25.6394C97.6082 26.4234 98.4787 26.9594 99.451 27.1467C100.423 27.334 101.43 27.1598 102.283 26.6568C102.759 26.376 103.286 26.195 103.834 26.1248C104.381 26.0546 104.937 26.0967 105.468 26.2485C105.998 26.4003 106.493 26.6587 106.92 27.0079C107.348 27.3571 107.7 27.7898 107.956 28.2796C108.414 29.1579 109.178 29.8384 110.102 30.1934C111.027 30.5483 112.049 30.5534 112.977 30.2077C113.495 30.0155 114.046 29.9308 114.598 29.9588C115.149 29.9868 115.689 30.127 116.184 30.3707C116.68 30.6144 117.121 30.9566 117.48 31.3763C117.839 31.7961 118.109 32.2847 118.273 32.8123C118.568 33.7536 119.194 34.5558 120.036 35.0695C120.877 35.5833 121.876 35.7736 122.847 35.6051C123.392 35.5077 123.95 35.5222 124.488 35.648C125.026 35.7738 125.533 36.0081 125.978 36.3366C126.423 36.6651 126.796 37.081 127.075 37.5587C127.354 38.0365 127.532 38.5661 127.6 39.1153C127.723 40.0964 128.199 40.999 128.939 41.6543C129.679 42.3096 130.632 42.6729 131.62 42.6763C132.174 42.6754 132.723 42.7879 133.232 43.0069C133.741 43.2259 134.2 43.5468 134.581 43.9498C134.962 44.3529 135.256 44.8296 135.446 45.3507C135.636 45.8718 135.718 46.4263 135.686 46.9801C135.63 47.969 135.936 48.9444 136.547 49.7236C137.158 50.5028 138.032 51.0322 139.005 51.2126C139.548 51.3133 140.065 51.5236 140.524 51.8307C140.983 52.1378 141.374 52.5353 141.675 52.999C141.976 53.4626 142.179 53.9826 142.272 54.5274C142.365 55.0721 142.346 55.6302 142.217 56.1675C141.986 57.131 142.114 58.1457 142.577 59.0214C143.04 59.8971 143.807 60.5736 144.733 60.924C145.25 61.12 145.721 61.4194 146.118 61.8039C146.516 62.1884 146.83 62.65 147.044 63.1604C147.257 63.6707 147.364 64.2192 147.358 64.7724C147.352 65.3255 147.234 65.8716 147.01 66.3774C146.613 67.2862 146.561 68.3088 146.864 69.253Z" fill="white"/>
</g>
<path d="M86.1376 113.51C91.7953 114.105 96.615 112.931 100.597 109.989C104.556 107.044 107.255 102.965 108.694 97.7523L98.622 96.6937C97.6758 99.1316 96.6194 100.924 95.4529 102.07C93.3364 104.206 90.4951 105.087 86.9288 104.713C83.4505 104.347 80.72 102.691 78.7371 99.7452C76.7786 96.7794 76.0862 92.5668 76.66 87.1073C77.2339 81.6478 78.7446 77.5443 81.1924 74.7968C83.6424 72.0273 86.7166 70.8369 90.415 71.2256C94.0473 71.6074 96.677 72.9522 98.3041 75.2599C99.2138 76.5574 99.8763 78.4076 100.291 80.8105L110.462 81.8795C110.627 78.8253 109.823 75.6804 108.048 72.4446C104.826 66.6752 99.1208 63.3601 90.9315 62.4994C84.8116 61.8562 79.5598 63.3296 75.1761 66.9197C70.1356 71.0417 67.1688 77.3514 66.2757 85.8489C65.4497 93.708 66.8028 100.104 70.335 105.039C73.8696 109.951 79.1371 112.774 86.1376 113.51Z" fill="#45D1A3"/>
<path fill-rule="evenodd" clip-rule="evenodd" d="M83.8187 127.781C105.789 130.09 125.472 114.152 127.781 92.1812C130.09 70.2109 114.151 50.5284 92.181 48.2192C70.2107 45.91 50.5282 61.8486 48.219 83.819C45.9098 105.789 61.8484 125.472 83.8187 127.781ZM83.9651 126.389C105.166 128.617 124.16 113.236 126.388 92.0349C128.617 70.8335 113.236 51.8399 92.0347 49.6116C70.8333 47.3832 51.8397 62.7639 49.6113 83.9653C47.383 105.167 62.7637 124.16 83.9651 126.389Z" fill="#45D1A3"/>
<path fill-rule="evenodd" clip-rule="evenodd" d="M133.748 92.808C131.092 118.074 108.457 136.403 83.1914 133.748C57.9255 131.092 39.5962 108.457 42.2517 83.1914C44.9073 57.9254 67.5421 39.5961 92.8081 42.2517C118.074 44.9072 136.403 67.5421 133.748 92.808ZM132.355 92.6616C129.781 117.159 107.835 134.93 83.3378 132.355C58.8408 129.781 41.0693 107.835 43.6441 83.3377C46.2188 58.8407 68.1648 41.0693 92.6617 43.644C117.159 46.2187 134.93 68.1647 132.355 92.6616Z" fill="#45D1A3"/>
<path fill-rule="evenodd" clip-rule="evenodd" d="M140.939 77.0703C141.116 77.9198 141.598 78.675 142.292 79.1942C142.68 79.4849 143.004 79.8518 143.246 80.2725C143.487 80.6932 143.639 81.1587 143.694 81.6405C143.749 82.1224 143.705 82.6104 143.565 83.0746C143.424 83.5389 143.191 83.9695 142.878 84.3403C142.321 85.0032 142.024 85.8469 142.043 86.7133C142.062 87.5796 142.396 88.4091 142.983 89.0464C143.311 89.4021 143.563 89.821 143.723 90.2775C143.884 90.734 143.95 91.2185 143.917 91.7013C143.884 92.1842 143.753 92.6553 143.533 93.086C143.312 93.5166 143.006 93.8977 142.633 94.206C141.966 94.7589 141.524 95.5361 141.389 96.392C141.254 97.2478 141.435 98.1236 141.898 98.8552C142.157 99.2638 142.33 99.721 142.407 100.199C142.484 100.677 142.462 101.165 142.344 101.634C142.225 102.104 142.013 102.544 141.719 102.928C141.424 103.312 141.055 103.633 140.633 103.869C139.878 104.294 139.303 104.98 139.017 105.799C138.731 106.618 138.753 107.513 139.079 108.316C139.26 108.764 139.348 109.244 139.338 109.726C139.327 110.209 139.219 110.684 139.019 111.124C138.819 111.563 138.533 111.958 138.176 112.283C137.819 112.608 137.4 112.857 136.944 113.015C136.126 113.298 135.439 113.87 135.012 114.623C134.584 115.377 134.446 116.26 134.623 117.108C134.722 117.583 134.722 118.074 134.625 118.549C134.528 119.024 134.334 119.475 134.057 119.873C133.779 120.271 133.423 120.608 133.011 120.863C132.598 121.118 132.138 121.287 131.659 121.357C130.803 121.49 130.025 121.93 129.471 122.595C128.916 123.26 128.622 124.104 128.645 124.97C128.656 125.453 128.57 125.933 128.39 126.381C128.21 126.829 127.941 127.236 127.6 127.577C127.258 127.917 126.851 128.185 126.403 128.364C125.955 128.542 125.475 128.628 124.993 128.615C124.127 128.591 123.282 128.885 122.617 129.441C121.952 129.996 121.512 130.775 121.38 131.632C121.306 132.11 121.136 132.568 120.88 132.978C120.624 133.387 120.287 133.741 119.89 134.016C119.492 134.291 119.043 134.483 118.57 134.579C118.097 134.675 117.609 134.673 117.136 134.574C116.29 134.397 115.408 134.534 114.656 134.96C113.903 135.386 113.332 136.071 113.047 136.888C112.889 137.345 112.64 137.764 112.316 138.122C111.991 138.479 111.597 138.766 111.157 138.966C110.718 139.166 110.243 139.275 109.76 139.285C109.278 139.295 108.798 139.207 108.351 139.026C107.548 138.7 106.653 138.677 105.835 138.964C105.017 139.25 104.332 139.826 103.908 140.582C103.671 141.004 103.351 141.373 102.967 141.667C102.583 141.961 102.144 142.173 101.675 142.292C101.207 142.41 100.719 142.431 100.242 142.355C99.7651 142.278 99.3086 142.105 98.9006 141.846C98.1696 141.382 97.2943 141.2 96.4387 141.335C95.5832 141.47 94.8062 141.913 94.2534 142.58C93.9456 142.953 93.5652 143.259 93.1352 143.48C92.7053 143.702 92.2349 143.833 91.7527 143.866C91.2705 143.899 90.7867 143.833 90.3307 143.673C89.8747 143.513 89.4562 143.261 89.1006 142.934C88.4638 142.346 87.635 142.012 86.7694 141.993C85.9038 141.973 85.0608 142.271 84.3984 142.829C84.0288 143.141 83.5995 143.375 83.1367 143.515C82.6739 143.656 82.1872 143.701 81.7066 143.647C81.2259 143.593 80.7613 143.442 80.3411 143.202C79.9209 142.962 79.554 142.64 79.2627 142.253C78.7393 141.563 77.9822 141.087 77.1334 140.915C76.2846 140.744 75.4023 140.888 74.652 141.321C74.2327 141.561 73.7688 141.714 73.2887 141.769C72.8086 141.824 72.3223 141.781 71.8594 141.642C71.3966 141.503 70.967 141.271 70.5968 140.96C70.2265 140.649 69.9234 140.266 69.706 139.834C69.3161 139.061 68.658 138.456 67.8547 138.134C67.0515 137.811 66.1583 137.793 65.3424 138.082C64.8854 138.243 64.4005 138.309 63.9173 138.275C63.4342 138.242 62.9629 138.11 62.5324 137.888C62.1019 137.666 61.7213 137.358 61.4138 136.984C61.1064 136.609 60.8786 136.176 60.7444 135.71C60.4988 134.88 59.9591 134.167 59.2264 133.706C58.4937 133.245 57.6182 133.067 56.7639 133.206C56.2876 133.284 55.8004 133.265 55.3318 133.149C54.8633 133.033 54.4233 132.823 54.0385 132.531C53.6538 132.239 53.3324 131.872 53.0939 131.453C52.8554 131.033 52.7047 130.568 52.6512 130.088C52.5578 129.227 52.1537 128.429 51.5146 127.844C50.8755 127.26 50.0452 126.928 49.1795 126.913C48.6964 126.904 48.2202 126.797 47.7798 126.598C47.3394 126.399 46.9441 126.113 46.618 125.756C46.2919 125.399 46.0418 124.98 45.883 124.523C45.7242 124.067 45.66 123.582 45.6943 123.1C45.7563 122.236 45.5012 121.378 44.9769 120.689C44.4525 119.999 43.6949 119.525 42.846 119.354C42.3719 119.259 41.9222 119.068 41.5243 118.794C41.1264 118.519 40.7887 118.166 40.5317 117.756C40.2747 117.346 40.1039 116.888 40.0297 116.41C39.9555 115.932 39.9794 115.443 40.1001 114.975C40.3151 114.135 40.217 113.246 39.824 112.474C39.431 111.702 38.7701 111.1 37.9652 110.78C37.5156 110.602 37.1069 110.335 36.7642 109.993C36.4215 109.652 36.1519 109.244 35.9718 108.795C35.7918 108.346 35.7051 107.865 35.7171 107.381C35.7291 106.897 35.8394 106.421 36.0414 105.981C36.4019 105.194 36.4631 104.302 36.2136 103.472C35.9641 102.643 35.4211 101.933 34.6861 101.475C34.2755 101.219 33.9214 100.883 33.6453 100.485C33.3692 100.088 33.177 99.6382 33.0803 99.1639C32.9837 98.6896 32.9847 98.2005 33.0833 97.7266C33.1819 97.2527 33.3759 96.8038 33.6537 96.4074C34.1498 95.6968 34.3699 94.8294 34.2728 93.968C34.1756 93.1066 33.7678 92.3103 33.1259 91.7285C32.7737 91.4044 32.4905 91.0125 32.2931 90.5763C32.0957 90.1401 31.9883 89.6685 31.9773 89.1897C31.9662 88.711 32.0518 88.2349 32.2288 87.7899C32.4058 87.345 32.6707 86.9404 33.0075 86.6002C33.6223 85.9896 33.9934 85.1755 34.0514 84.3107C34.1094 83.4458 33.8502 82.5895 33.3224 81.9024C33.0253 81.5172 32.8102 81.0751 32.6904 80.6035C32.5706 80.1318 32.5487 79.6405 32.626 79.16C32.7033 78.6795 32.8782 78.22 33.1399 77.8097C33.4016 77.3995 33.7446 77.0472 34.1476 76.7748C34.8615 76.2843 35.3723 75.5499 35.5841 74.7095C35.7959 73.8691 35.6943 72.9802 35.2981 72.2096C35.0771 71.7796 34.9458 71.309 34.9124 70.8266C34.879 70.3442 34.9442 69.8599 35.1039 69.4035C35.2636 68.947 35.5145 68.5279 35.8413 68.1716C36.1681 67.8154 36.564 67.5294 37.0048 67.3313C37.7958 66.9766 38.4302 66.3451 38.7891 65.5554C39.1479 64.7657 39.2064 63.8722 38.9536 63.0425C38.813 62.5798 38.768 62.0933 38.8215 61.6126C38.8749 61.1319 39.0256 60.6671 39.2643 60.2466C39.5031 59.8261 39.825 59.4586 40.2102 59.1667C40.5955 58.8747 41.0362 58.6643 41.5053 58.5484C42.3403 58.3326 43.0686 57.8207 43.5548 57.1078C44.041 56.3948 44.252 55.5295 44.1485 54.6727C44.0942 54.1919 44.1382 53.7051 44.2781 53.2419C44.418 52.7787 44.6507 52.3489 44.962 51.9787C45.2734 51.6084 45.6568 51.3056 46.0889 51.0886C46.5211 50.8716 46.9928 50.7451 47.4754 50.7166C48.3414 50.6643 49.1584 50.2972 49.7729 49.6842C50.3875 49.0713 50.7571 48.2548 50.8124 47.3883C50.843 46.906 50.9714 46.4349 51.1897 46.0039C51.4081 45.5728 51.7118 45.1907 52.0824 44.8808C52.453 44.571 52.8827 44.3398 53.3454 44.2015C53.8081 44.0632 54.294 44.0206 54.7736 44.0763C55.6327 44.1748 56.4982 43.9569 57.2085 43.4632C57.9188 42.9694 58.4251 42.2337 58.633 41.3936C58.7488 40.9237 58.9592 40.4822 59.2512 40.0964C59.5432 39.7105 59.9107 39.3882 60.3313 39.1492C60.7519 38.9103 61.2168 38.7596 61.6975 38.7065C62.1782 38.6534 62.6646 38.6989 63.1271 38.8403C63.955 39.0931 64.8466 39.0351 65.6349 38.6771C66.4233 38.3192 67.0542 37.6859 67.4097 36.8959C67.606 36.4529 67.8906 36.0546 68.246 35.7254C68.6015 35.3963 69.0203 35.1432 69.4768 34.9817C69.9333 34.8201 70.418 34.7536 70.9011 34.7861C71.3842 34.8186 71.8556 34.9494 72.2863 35.1706C73.0561 35.5672 73.944 35.6693 74.7837 35.4577C75.6234 35.246 76.3572 34.7351 76.8476 34.0208C77.1213 33.622 77.4733 33.2832 77.8822 33.0251C78.291 32.767 78.7481 32.5949 79.2256 32.5195C79.703 32.444 80.1908 32.4667 80.6591 32.5861C81.1275 32.7056 81.5666 32.9193 81.9496 33.2143C82.6358 33.7425 83.4908 34.0022 84.3546 33.9447C85.2184 33.8871 86.0316 33.5164 86.642 32.9018C86.981 32.5563 87.3869 32.2835 87.8348 32.1003C88.2826 31.917 88.7632 31.8271 89.2469 31.8361C89.7306 31.845 90.2075 31.9526 90.6482 32.1523C91.0889 32.352 91.4843 32.6396 91.8102 32.9975C92.392 33.637 93.1866 34.0427 94.0454 34.1387C94.9043 34.2347 95.7688 34.0146 96.4775 33.5193C96.8737 33.242 97.3222 33.0484 97.7955 32.9504C98.2689 32.8523 98.7573 32.8518 99.2308 32.9489C99.7043 33.046 100.153 33.2386 100.55 33.5151C100.946 33.7916 101.283 34.1461 101.538 34.557C101.993 35.2946 102.702 35.8406 103.53 36.0926C104.359 36.3445 105.252 36.285 106.04 35.9253C106.479 35.7244 106.955 35.6151 107.438 35.6041C107.921 35.5931 108.401 35.6806 108.848 35.8613C109.296 36.0419 109.703 36.312 110.043 36.655C110.383 36.998 110.65 37.4067 110.828 37.8563C111.147 38.6626 111.749 39.3245 112.521 39.718C113.293 40.1115 114.182 40.2094 115.021 39.9934C115.489 39.8735 115.977 39.8502 116.454 39.925C116.931 39.9999 117.388 40.1712 117.797 40.4286C118.206 40.686 118.558 41.0241 118.832 41.4222C119.106 41.8203 119.297 42.2702 119.391 42.7443C119.562 43.5905 120.033 44.3458 120.719 44.8698C121.404 45.3938 122.256 45.6508 123.117 45.5931C123.599 45.558 124.083 45.6217 124.54 45.7804C124.997 45.9391 125.417 46.1894 125.774 46.5159C126.131 46.8425 126.418 47.2385 126.617 47.6798C126.816 48.121 126.922 48.5982 126.931 49.0823C126.949 49.9473 127.28 50.7763 127.864 51.4142C128.448 52.0522 129.244 52.4555 130.104 52.5488C130.586 52.5987 131.053 52.7467 131.476 52.9839C131.899 53.221 132.269 53.5423 132.564 53.9278C132.858 54.3134 133.071 54.7552 133.189 55.226C133.306 55.6968 133.327 56.1868 133.248 56.6658C133.109 57.5212 133.286 58.3981 133.747 59.132C134.207 59.8659 134.919 60.4066 135.749 60.6526C136.213 60.7898 136.643 61.0201 137.014 61.3294C137.386 61.6386 137.69 62.0203 137.91 62.4513C138.129 62.8822 138.258 63.3534 138.289 63.8359C138.32 64.3185 138.253 64.8024 138.091 65.2581C137.802 66.0754 137.821 66.9702 138.144 67.7746C138.467 68.579 139.072 69.2378 139.846 69.6274C140.277 69.8452 140.66 70.1489 140.971 70.5198C141.281 70.8908 141.513 71.3212 141.652 71.7848C141.791 72.2485 141.834 72.7356 141.778 73.2164C141.722 73.6972 141.569 74.1616 141.328 74.5813C140.9 75.3358 140.761 76.2209 140.939 77.0703ZM136 88.0002C136 114.51 114.51 136 87.9999 136C61.4902 136 39.9999 114.51 39.9999 88.0002C39.9999 61.4906 61.4902 40.0002 87.9999 40.0002C114.51 40.0002 136 61.4906 136 88.0002Z" fill="#45D1A3"/>
<defs>
<filter id="filter0_d_1881_5175" x="0" y="0" width="176" height="176" filterUnits="userSpaceOnUse" color-interpolation-filters="sRGB">
<feFlood flood-opacity="0" result="BackgroundImageFix"/>
<feColorMatrix in="SourceAlpha" type="matrix" values="0 0 0 0 0 0 0 0 0 0 0 0 0 0 0 0 0 0 127 0" result="hardAlpha"/>
<feMorphology radius="16" operator="erode" in="SourceAlpha" result="effect1_dropShadow_1881_5175"/>
<feOffset/>
<feGaussianBlur stdDeviation="20"/>
<feComposite in2="hardAlpha" operator="out"/>
<feColorMatrix type="matrix" values="0 0 0 0 0.0745098 0 0 0 0 0.427451 0 0 0 0 0.415686 0 0 0 0.15 0"/>
<feBlend mode="normal" in2="BackgroundImageFix" result="effect1_dropShadow_1881_5175"/>
<feBlend mode="normal" in="SourceGraphic" in2="effect1_dropShadow_1881_5175" result="shape"/>
</filter>
</defs>
</svg>
