<svg xmlns="http://www.w3.org/2000/svg" width="24" height="24" viewBox="0 0 24 24">
    <g fill="none" fill-rule="evenodd">
        <g>
            <g>
                <g>
                    <g>
                        <path d="M0 0H24V24H0z" transform="translate(-323 -24) translate(0 12) translate(311) translate(12 12)"/>
                        <path fill="#253E47" fill-rule="nonzero" d="M19.5 17.036c.414 0 .75.336.75.75 0 .38-.282.693-.648.743l-.102.007H3.643c-.414 0-.75-.336-.75-.75 0-.38.282-.694.648-.743l.102-.007H19.5zm0-5.786c.414 0 .75.336.75.75 0 .38-.282.693-.648.743l-.102.007H3.643c-.414 0-.75-.336-.75-.75 0-.38.282-.693.648-.743l.102-.007H19.5zm0-5.786c.414 0 .75.336.75.75 0 .38-.282.694-.648.743l-.102.007H3.643c-.414 0-.75-.336-.75-.75 0-.38.282-.693.648-.743l.102-.007H19.5z" transform="translate(-323 -24) translate(0 12) translate(311) translate(12 12)"/>
                    </g>
                </g>
            </g>
        </g>
    </g>
</svg>
