<svg xmlns="http://www.w3.org/2000/svg" width="48" height="48" viewBox="0 0 48 48">
    <g fill="none" fill-rule="evenodd">
        <g>
            <g>
                <g transform="translate(-730 -1996) translate(330 1836) translate(400 160)">
                    <path d="M0 0H48V48H0z"/>
                    <path fill="#6AD7A8" fill-rule="nonzero" d="M43.25 20.4h-2.475c-.396-.77-.852-1.51-1.384-2.207l1.184-6.978c.145-.845-.519-1.615-1.391-1.615-2.737 0-5.277 1.21-6.994 3.211-2.217-.896-4.674-1.411-7.273-1.411-8.57 0-15.675 5.44-17.13 12.6H6.584c-.506 0-.916-.405-.916-.9 0-.292.144-.565.388-.733.829-.572 1.03-1.693.45-2.507-.582-.815-1.722-1.012-2.554-.443C2.73 20.257 2 21.635 2 23.1c0 2.482 2.057 4.5 4.583 4.5h.968c.195 2.929 1.315 5.634 3.124 7.891l-.247.243c-1.46 1.433-1.46 3.757 0 5.19 1.46 1.432 3.826 1.432 5.285 0l.827-.812C19.026 41.314 21.88 42 24.917 42c3.037 0 5.89-.686 8.376-1.886l.827.811c1.46 1.433 3.826 1.433 5.286 0 1.459-1.432 1.459-3.756 0-5.189l-.248-.243c.625-.78 1.166-1.613 1.619-2.491h2.475c1.518 0 2.75-1.21 2.75-2.7v-7.2C46 21.61 44.768 20.4 43.25 20.4z" opacity=".398"/>
                    <ellipse cx="34.083" cy="24.9" fill="#2DA287" fill-rule="nonzero" rx="2.75" ry="2.7"/>
                    <path fill="#2DA287" fill-rule="nonzero" d="M24.917 11.4c.779 0 1.54.061 2.291.148C26.114 8.333 23.06 6 19.417 6c-4.556 0-8.25 3.627-8.25 8.1 0 .947.196 1.84.5 2.684 3.194-3.29 7.94-5.384 13.25-5.384z"/>
                </g>
            </g>
        </g>
    </g>
</svg>
