<svg xmlns="http://www.w3.org/2000/svg" width="24" height="24" viewBox="0 0 24 24">
    <g fill="none" fill-rule="evenodd">
        <g>
            <g>
                <g>
                    <g>
                        <path d="M0 0H24V24H0z" transform="translate(-307.000000, -452.000000) translate(16.000000, 424.000000) translate(217.000000, 28.000000) translate(74.000000, 0.000000)"/>
                        <path fill="#253E47" fill-opacity=".5" fill-rule="nonzero" d="M12 2c5.523 0 10 4.477 10 10s-4.477 10-10 10S2 17.523 2 12 6.477 2 12 2zm0 1.5c-4.694 0-8.5 3.806-8.5 8.5s3.806 8.5 8.5 8.5 8.5-3.806 8.5-8.5-3.806-8.5-8.5-8.5zM12 7c.38 0 .693.282.743.648l.007.102v3.5h3.5c.414 0 .75.336.75.75 0 .38-.282.693-.648.743l-.102.007h-3.5v3.5c0 .414-.336.75-.75.75-.38 0-.693-.282-.743-.648l-.007-.102v-3.5h-3.5c-.414 0-.75-.336-.75-.75 0-.38.282-.693.648-.743l.102-.007h3.5v-3.5c0-.414.336-.75.75-.75z" transform="translate(-307.000000, -452.000000) translate(16.000000, 424.000000) translate(217.000000, 28.000000) translate(74.000000, 0.000000)"/>
                    </g>
                </g>
            </g>
        </g>
    </g>
</svg>
