<svg width="26" height="26" viewBox="0 0 28 28" fill="none" xmlns="http://www.w3.org/2000/svg">
<path d="M13.9772 23.9166C13.6383 23.9166 13.3131 23.8428 13.0589 23.709L8.24864 21.1738C7.89881 20.9908 7.69383 20.6875 7.68563 20.346C7.68563 20.316 7.68563 20.2941 7.68563 20.2723V7.68658C7.68563 7.66746 7.68563 7.6456 7.68563 7.62648V7.59643C7.68563 7.58004 7.68836 7.56365 7.69109 7.54726C7.72935 7.24948 7.92614 6.99542 8.24864 6.82604L13.0589 4.29087C13.3131 4.15701 13.6411 4.08325 13.9772 4.08325C14.3134 4.08325 14.6414 4.15701 14.8955 4.29087L19.7058 6.82604C20.0146 6.98722 20.2169 7.24129 20.2661 7.52813C20.2743 7.54999 20.2798 7.57184 20.2798 7.59643C20.2798 7.59643 20.2798 20.3406 20.2798 20.3433C20.2716 20.6821 20.0611 20.9826 19.7058 21.1711L14.8955 23.7062C14.6414 23.8428 14.3161 23.9166 13.9772 23.9166ZM13.2366 22.5042C13.4935 22.6408 13.7422 22.7637 13.9663 22.7692H13.98C14.1877 22.7692 14.4091 22.6599 14.6414 22.5479L14.6878 22.5261L19.1346 20.1657V14.9998L14.8955 17.2399C14.6414 17.3738 14.3134 17.4475 13.9772 17.4475C13.6411 17.4475 13.3131 17.3738 13.0589 17.2399L8.83079 15.0052V20.1849L13.2366 22.5042ZM14.5703 16.1772L18.8913 13.8906L14.5703 11.6041V16.1772ZM13.4224 16.1772V11.6041L9.10137 13.8906L13.4224 16.1772ZM19.1346 12.7269V8.82577L15.4203 10.7763L19.1346 12.7269ZM8.83079 12.7269L12.5451 10.7763L8.83079 8.82577V12.7269ZM13.6083 10.0715C13.6984 10.1207 13.8433 10.148 13.9964 10.148C14.1467 10.148 14.2915 10.1179 14.3845 10.0715L18.8913 7.68931L14.3845 5.30713C14.2943 5.25795 14.1494 5.23063 13.9964 5.23063C13.846 5.23063 13.7012 5.26069 13.6083 5.30713L9.10137 7.68931L13.6083 10.0715ZM7.95074 22.7965C7.91521 22.7965 7.88241 22.7883 7.85235 22.7692L7.54897 22.5862L7.49704 22.5534C7.40412 22.496 7.33032 22.4468 7.262 22.4004C6.4694 21.8622 6.18515 21.2585 6.17969 20.1002V20.0647C6.17969 20.0128 6.19882 19.9663 6.23435 19.9281C6.26988 19.8925 6.31908 19.8707 6.371 19.8707H7.11987C7.22646 19.8707 7.31119 19.9554 7.31119 20.0619C7.31119 20.5072 7.35765 20.8077 7.45878 21.0126C7.5353 21.1683 7.65283 21.2885 7.88241 21.4442L7.89607 21.4524C7.948 21.488 8.00813 21.5262 8.08193 21.5726L8.16938 21.6273L8.43996 21.7912C8.53015 21.8458 8.55748 21.9633 8.50556 22.0535L8.11746 22.7009C8.09012 22.7446 8.04913 22.7774 7.99993 22.7883C7.9808 22.7938 7.96713 22.7965 7.95074 22.7965ZM20.8728 8.12641C20.7662 8.12641 20.6815 8.04172 20.6815 7.93518C20.6815 7.48989 20.6351 7.18938 20.5339 6.98449C20.4574 6.82878 20.3399 6.70857 20.113 6.55286L20.0994 6.54466C20.0474 6.50915 19.9873 6.4709 19.9135 6.42446L19.8261 6.36982L19.5555 6.20591C19.4653 6.15127 19.438 6.0338 19.4899 5.94365L19.878 5.2962C19.9053 5.25249 19.9463 5.21971 19.9955 5.20878C20.0119 5.20605 20.0256 5.20332 20.042 5.20332C20.0775 5.20332 20.1103 5.21151 20.1404 5.23063L20.4437 5.41367L20.4957 5.44645C20.5886 5.50382 20.6624 5.55299 20.7307 5.59944C21.5233 6.13761 21.8076 6.74136 21.813 7.89967V7.93518C21.813 7.98709 21.7939 8.03353 21.7584 8.07177C21.7228 8.10729 21.6736 8.12914 21.6217 8.12914H20.8728V8.12641Z" fill="#929FA3"/>
</svg>
