<svg width="18" height="18" viewBox="0 0 18 18" fill="none" xmlns="http://www.w3.org/2000/svg">
<path d="M1.58551 4.152C1.5224 4.27332 1.49353 4.40954 1.50199 4.54604C1.51044 4.68253 1.55591 4.81414 1.63351 4.92675L8.38351 14.6768C8.45253 14.7764 8.54467 14.8578 8.65204 14.914C8.75941 14.9703 8.87881 14.9996 9.00001 14.9996C9.12121 14.9996 9.24061 14.9703 9.34798 14.914C9.45534 14.8578 9.54749 14.7764 9.61651 14.6768L16.3665 4.92675C16.4444 4.81423 16.49 4.68256 16.4983 4.54599C16.5067 4.40941 16.4776 4.27315 16.4141 4.15195C16.3506 4.03074 16.2552 3.92922 16.1381 3.85837C16.021 3.78752 15.8868 3.75005 15.75 3.75L2.25001 3.75C2.11311 3.74998 1.97881 3.78743 1.86167 3.85829C1.74454 3.92915 1.64903 4.03073 1.58551 4.152Z" fill="#253E47"/>
</svg>
