<svg xmlns="http://www.w3.org/2000/svg" width="24" height="24" viewBox="0 0 24 24">
    <g fill="none" fill-rule="evenodd">
        <g>
            <g>
                <g>
                    <g>
                        <path d="M0 0H24V24H0z" transform="translate(-1154.000000, -88.000000) translate(806.000000, 76.000000) translate(336.000000, 0.000000) translate(12.000000, 12.000000)"/>
                        <path fill="#3EBD93" d="M14.205 2.326l.532.361.226.159.646.466 1.726 1.28 1.39.27.36.077.319.07.259.063.342.09.205.058.18.058c.802.264 1.212.577 1.244 1.027v.093l-.012.092-.165.15c-.686.566-2.068 1.172-3.897 1.66l-.01-.198c.174 2.496-1.345 4.718-3.579 5.544 4.36.53 7.529 2.809 7.529 5.675v.675l-.003.119c-.066 1.342-1.235 2.412-2.669 2.412H5.172l-.126-.003C3.63 22.462 2.5 21.354 2.5 19.996v-.675l.002-.139c.101-2.821 3.284-5.047 7.623-5.549-1.884-.709-3.298-2.43-3.53-4.545-1.945-.225-3.449-.643-4.22-1.121-.054-.099-.086-.202-.094-.309-.035-.498.352-.928 1.23-1.348-.155-.143-.232-.279-.414-.382.25-.334.736-.629 1.078-.702.68-.163 1.117.013 1.584.018-.37-.13-1.109-.76-1.374-1.052-.336-.64-.169-1.223-.014-1.55l.033-.066.057-.102.069-.108.046-.01.195-.018c.294-.018.776-.012.963.17.311.386.474.79.584 1.154l.097.346c.071.274.128.503.226.654l.037-.206.053-.398c.036-.265.088-.54.24-.868.264-.576 1.266-1.409 2.024-1.31l.03.12.103.293c.027.095.038.198.01.341 1.04-.91 1.8-1.388 2.416-1.43.627-.044 1.462.336 2.651 1.122z" transform="translate(-1154.000000, -88.000000) translate(806.000000, 76.000000) translate(336.000000, 0.000000) translate(12.000000, 12.000000)"/>
                    </g>
                </g>
            </g>
        </g>
    </g>
</svg>
