<svg xmlns="http://www.w3.org/2000/svg" width="40" height="40" viewBox="0 0 40 40">
    <g fill="none" fill-rule="evenodd">
        <g>
            <g>
                <g>
                    <g>
                        <path d="M0 0H40V40H0z" transform="translate(-354.000000, -284.000000) translate(330.000000, 260.000000) translate(20.000000, 20.000000) translate(4.000000, 4.000000)"/>
                        <path fill="#253E47" fill-opacity=".5" fill-rule="nonzero" d="M32 27.833v1.786C32 30.935 29.601 32 26.643 32s-5.357-1.065-5.357-2.381v-1.786c0 1.316 2.399 2.381 5.357 2.381S32 29.15 32 27.834zM18.905 7c6.564 0 11.905 5.34 11.905 11.905l-.007.25-.031.496c-.535-.224-1.13-.4-1.76-.522l.012-.224c0-5.58-4.54-10.12-10.12-10.12-5.579 0-10.118 4.54-10.118 10.12 0 5.58 4.539 10.119 10.119 10.119.269 0 .534-.014.797-.036l.393-.04v.671c0 .397.101.759.273 1.091-.48.059-.967.1-1.463.1C12.34 30.81 7 25.469 7 18.905 7 12.34 12.34 7 18.905 7zM32 24.262v1.786c0 1.315-2.399 2.38-5.357 2.38s-5.357-1.065-5.357-2.38v-1.786c0 1.315 2.399 2.38 5.357 2.38S32 25.578 32 24.263zm-5.357-4.167c2.959 0 5.357 1.066 5.357 2.381 0 1.315-2.398 2.381-5.357 2.381-2.96 0-5.357-1.066-5.357-2.38 0-1.316 2.398-2.382 5.357-2.382zm-7.44-8.34c.458 0 .837.343.892.787l.007.113v7.143c0 .458-.343.837-.787.893l-.113.007H14.44c-.497 0-.9-.403-.9-.9 0-.46.344-.838.788-.893l.112-.007 3.862-.001v-6.242c0-.46.344-.838.787-.893l.113-.007z" transform="translate(-354.000000, -284.000000) translate(330.000000, 260.000000) translate(20.000000, 20.000000) translate(4.000000, 4.000000)"/>
                    </g>
                </g>
            </g>
        </g>
    </g>
</svg>
