<svg width="48" height="48" viewBox="0 0 48 48" xmlns="http://www.w3.org/2000/svg">
    <g fill="none" fill-rule="evenodd">
        <path d="M0 0h48v48H0z"/>
        <path d="M12 12h24v24H12z"/>
        <path d="M33.442 19.078c-.185-1.03-1.066-1.781-2.088-2.016-1.53-.328-4.361-.562-7.425-.562-3.061 0-5.938.234-7.47.562-1.02.235-1.903.938-2.087 2.016A31.062 31.062 0 0 0 14 24c0 2.11.185 3.75.417 4.922.187 1.03 1.068 1.781 2.088 2.016 1.624.328 4.408.562 7.471.562 3.064 0 5.848-.234 7.472-.562 1.02-.235 1.901-.938 2.088-2.016.185-1.172.417-2.86.464-4.922-.094-2.11-.326-3.75-.558-4.922zm-12.018 8.203V20.72L27.085 24l-5.66 3.281z" fill="#253E47" fill-rule="nonzero"/>
    </g>
</svg>
