<svg width="24" height="24" viewBox="0 0 24 24" fill="none" xmlns="http://www.w3.org/2000/svg">
<path d="M12 3.32141C16.793 3.32141 20.6786 7.20694 20.6786 12C20.6786 16.793 16.793 20.6786 12 20.6786C7.20694 20.6786 3.32141 16.793 3.32141 12C3.32141 7.20694 7.20694 3.32141 12 3.32141ZM12 4.82141C8.03537 4.82141 4.82141 8.03537 4.82141 12C4.82141 15.9646 8.03537 19.1786 12 19.1786C15.9646 19.1786 19.1786 15.9646 19.1786 12C19.1786 8.03537 15.9646 4.82141 12 4.82141ZM13.0891 8.82561L13.1732 8.89822L15.7446 11.4697C16.0109 11.7359 16.0351 12.1526 15.8172 12.4462L15.7446 12.5303L13.1732 15.1017C12.8803 15.3946 12.4054 15.3946 12.1125 15.1017C11.8462 14.8355 11.822 14.4188 12.0399 14.1252L12.1125 14.0411L13.4024 12.7494L8.7857 12.75C8.37148 12.75 8.0357 12.4142 8.0357 12C8.0357 11.6203 8.31785 11.3065 8.68393 11.2568L8.7857 11.25L13.4034 11.2494L12.1125 9.95888C11.8462 9.69262 11.822 9.27595 12.0399 8.98234L12.1125 8.89822C12.3788 8.63196 12.7954 8.60775 13.0891 8.82561Z" fill="#253E47" fill-opacity="0.5"/>
</svg>
