<svg xmlns="http://www.w3.org/2000/svg" width="24" height="24" viewBox="0 0 24 24">
    <g fill="none" fill-rule="evenodd">
        <g>
            <g>
                <g>
                    <g>
                        <g>
                            <path d="M0 0H24V24H0z" transform="translate(-1077.000000, -554.000000) translate(770.000000, 368.000000) translate(20.000000, 132.000000) translate(279.000000, 46.000000) translate(8.000000, 8.000000)"/>
                            <path fill="#253E47" fill-opacity=".5" fill-rule="nonzero" d="M12 3.25c2.75 0 4.932 2.14 4.998 4.871L17 8.25v.833c.889 0 1.621.706 1.665 1.584l.002.083v8.333c0 .89-.706 1.621-1.584 1.665L17 20.75H7c-.889 0-1.621-.705-1.665-1.584l-.002-.083V10.75c0-.889.706-1.621 1.584-1.665L7 9.083V8.25c0-2.794 2.206-5 5-5zm0 10c-.917 0-1.667.75-1.667 1.667 0 .916.75 1.666 1.667 1.666s1.667-.75 1.667-1.666c0-.917-.75-1.667-1.667-1.667zm0-8.333c-1.838 0-3.278 1.405-3.332 3.227l-.001.106v.833h6.666V8.25c0-1.873-1.46-3.333-3.333-3.333z" transform="translate(-1077.000000, -554.000000) translate(770.000000, 368.000000) translate(20.000000, 132.000000) translate(279.000000, 46.000000) translate(8.000000, 8.000000)"/>
                        </g>
                    </g>
                </g>
            </g>
        </g>
    </g>
</svg>
