<svg xmlns="http://www.w3.org/2000/svg" width="60" height="60" viewBox="0 0 60 60">
    <g fill="none" fill-rule="evenodd">
        <g>
            <g>
                <g transform="translate(-646 -1004) translate(626 984) translate(20 20)">
                    <rect width="60" height="60" fill="#43BFBF" rx="8"/>
                    <g>
                        <path fill="#FFE4BF" d="M18.889 0C21.712 0 24 2.303 24 5.144c0 2.84-2.288 5.143-5.111 5.143-.075 0-.149-.001-.222-.005v.005c-4.664 0-8.445 3.805-8.445 8.498 0 3.694 2.342 6.838 5.614 8.01C13.592 27.666 12 29.86 12 32.426c0 1.827.807 3.465 2.081 4.572C5.99 34.943 0 27.568 0 18.785 0 8.523 8.177.183 18.331.003L18.667 0h.222z" transform="translate(11 11)"/>
                        <path fill="#CBFFF2" d="M38 18.814c0 10.263-8.177 18.603-18.331 18.783l-.336.003c-.073-.002-.147 0-.222 0-2.823 0-5.111-2.303-5.111-5.144 0-2.84 2.288-5.143 5.111-5.143.075 0 .149.001.222.004v-.004c4.664 0 8.445-3.805 8.445-8.499 0-3.694-2.342-6.838-5.614-8.009C24.408 9.932 26 7.74 26 5.172c0-1.827-.806-3.464-2.08-4.571C32.01 2.657 38 10.03 38 18.814z" transform="translate(11 11)"/>
                    </g>
                </g>
            </g>
        </g>
    </g>
</svg>
