<svg xmlns="http://www.w3.org/2000/svg" width="48" height="48" viewBox="0 0 48 48">
    <g fill="none" fill-rule="evenodd">
        <g>
            <g>
                <g>
                    <g>
                        <path d="M0 0H48V48H0z" transform="translate(-1060 -12) translate(330 12) translate(682) translate(48)"/>
                        <g>
                            <path d="M0 0H24V24H0z" transform="translate(-1060 -12) translate(330 12) translate(682) translate(48) translate(12 12)"/>
                            <path fill="#253E47" fill-rule="nonzero" d="M20.88 6.13c-.127-.13-.321-.167-.487-.091l-.07.032-.18.082c.175-.278.313-.576.409-.883.053-.17-.005-.356-.146-.465-.14-.11-.334-.122-.486-.029-.489.297-.959.511-1.444.66-.733-.71-1.731-1.15-2.833-1.15-2.249 0-4.072 1.822-4.072 4.071v.214l-.428-.034C6.976 8.044 5.79 5.241 5.741 5.121c-.08-.202-.256-.349-.468-.393-.212-.045-.431.021-.585.174-.085.086-.83.875-.83 2.384 0 1.075.478 1.946 1.098 2.624-.288-.176-.457-.319-.461-.322-.198-.173-.48-.209-.715-.09-.234.12-.372.37-.349.632.008.09.19 1.805 2.172 3.1l-.361.066c-.22.04-.402.19-.484.398-.08.208-.049.442.085.62.045.06.882 1.149 2.7 1.775-.971.323-2.305.625-3.9.625-.252 0-.481.148-.586.377-.104.23-.064.5.102.69.069.078 1.742 1.933 6.055 1.933 7.163 0 10.5-6.649 10.5-11.143v-.214c0-.063-.007-.125-.01-.188.897-.867 1.235-1.517 1.251-1.549.081-.163.051-.359-.075-.49z" transform="translate(-1060 -12) translate(330 12) translate(682) translate(48) translate(12 12)"/>
                        </g>
                    </g>
                </g>
            </g>
        </g>
    </g>
</svg>
