<svg xmlns="http://www.w3.org/2000/svg" width="16" height="16" viewBox="0 0 16 16">
    <g fill="none" fill-rule="evenodd">
        <g>
            <g>
                <g>
                    <path d="M0 0H16V16H0z" transform="translate(-36.000000, -836.000000) translate(16.000000, 416.000000) translate(20.000000, 420.000000)"/>
                    <path fill="#253E47" fill-opacity=".5" d="M8 2.5c3.314 0 6 2.686 6 6s-2.686 6-6 6-6-2.686-6-6 2.686-6 6-6zm0 8.024c-.497 0-.9.403-.9.9s.403.9.9.9.9-.403.9-.9-.403-.9-.9-.9zm0-5.85c-.407 0-.737.33-.737.738v3.9l.002.059.017.103c.078.336.372.575.718.575.407 0 .738-.33.738-.737v-3.9l-.003-.059-.017-.103c-.078-.336-.372-.575-.718-.575z" transform="translate(-36.000000, -836.000000) translate(16.000000, 416.000000) translate(20.000000, 420.000000)"/>
                </g>
            </g>
        </g>
    </g>
</svg>
