<svg width="16" height="16" viewBox="0 0 16 16" fill="none" xmlns="http://www.w3.org/2000/svg">
<path fill-rule="evenodd" clip-rule="evenodd" d="M14 8C14 4.68629 11.3137 2 8 2C4.68629 2 2 4.68629 2 8C2 11.3137 4.68629 14 8 14C11.3137 14 14 11.3137 14 8ZM5.71719 5.36433C5.50573 5.69749 5.39999 6.02721 5.39999 6.3535C5.39999 6.51149 5.46586 6.65918 5.59759 6.79657C5.73279 6.93052 5.89746 6.99749 6.09159 6.99749C6.42093 6.99749 6.64453 6.80343 6.76239 6.41532C6.88719 6.04439 7.03973 5.76447 7.21999 5.57556C7.40026 5.38322 7.68106 5.28705 8.06239 5.28705C8.38826 5.28705 8.65346 5.38151 8.85799 5.57041C9.06599 5.75931 9.16999 5.99115 9.16999 6.26592C9.16999 6.40674 9.13533 6.53725 9.06599 6.65746C9.00013 6.77768 8.91693 6.88758 8.81639 6.98719C8.71933 7.08336 8.55986 7.22761 8.33799 7.41995C8.08493 7.63976 7.88386 7.83038 7.73479 7.99181C7.58573 8.1498 7.46613 8.33527 7.37599 8.54822C7.28586 8.75773 7.24079 9.00674 7.24079 9.29524C7.24079 9.52536 7.30146 9.69881 7.42279 9.81559C7.54759 9.93236 7.70013 9.99075 7.88039 9.99075C8.22706 9.99075 8.43333 9.81215 8.49919 9.45495C8.53733 9.28666 8.56506 9.16988 8.58239 9.10462C8.60319 9.03593 8.63093 8.96896 8.66559 8.9037C8.70026 8.83501 8.75226 8.76116 8.82159 8.68217C8.89439 8.59974 8.98973 8.50528 9.10759 8.39881C9.53399 8.021 9.82866 7.7531 9.99159 7.59511C10.158 7.43369 10.3001 7.24306 10.418 7.02325C10.5393 6.80343 10.6 6.54756 10.6 6.25561C10.6 5.88468 10.4943 5.54122 10.2828 5.22523C10.0748 4.90925 9.77839 4.66024 9.39359 4.4782C9.00879 4.29273 8.56506 4.2 8.06239 4.2C7.52159 4.2 7.04839 4.30991 6.64279 4.52972C6.23719 4.74954 5.92866 5.02774 5.71719 5.36433ZM7.38119 11.7991C7.54066 11.933 7.72613 12 7.93759 12C8.14213 12 8.32239 11.9313 8.47839 11.7939C8.63439 11.6565 8.71239 11.4676 8.71239 11.2272C8.71239 11.0108 8.63786 10.8288 8.48879 10.6811C8.33973 10.5334 8.15599 10.4596 7.93759 10.4596C7.71573 10.4596 7.52853 10.5334 7.37599 10.6811C7.22346 10.8288 7.14719 11.0108 7.14719 11.2272C7.14719 11.4711 7.22519 11.6617 7.38119 11.7991Z" fill="#253E47" fill-opacity="0.5"/>
</svg>
