<svg xmlns="http://www.w3.org/2000/svg" width="24" height="24" viewBox="0 0 24 24">
    <g fill="none" fill-rule="evenodd">
        <g>
            <g>
                <g>
                    <g>
                        <path d="M0 0H24V24H0z" transform="translate(-44.000000, -345.000000) translate(16.000000, -0.000000) translate(12.000000, 333.000000) translate(16.000000, 12.000000)"/>
                        <path fill="#253E47" fill-rule="nonzero" d="M13.114 4.5c.426 0 .776.308.827.706l.007.102v3.749l2.059.378v-1.1c0-.446.373-.808.833-.808.426 0 .776.308.827.706l.007.102V9.74l4.147.762c.358.065.626.347.672.69l.007.104v5.224c0 .411-.318.75-.729.8l-.105.007h-1.865c-.37 1.237-1.55 2.15-2.96 2.15-1.347 0-2.483-.833-2.905-1.984l-.056-.166H9.94C9.158 18.624 7.696 19.5 6.02 19.5c-2.493 0-4.521-1.937-4.521-4.317 0-.814.237-1.575.648-2.225-.154-2.6.885-4.164 3.038-4.4v-3.25c0-.412.319-.752.73-.802l.105-.006h7.093zm-7.093 7.979c-1.573 0-2.853 1.212-2.853 2.702s1.28 2.703 2.853 2.703c1.573 0 2.852-1.212 2.852-2.703 0-1.49-1.28-2.702-2.852-2.702zm10.819 2.699c-.785 0-1.424.602-1.424 1.341 0 .74.639 1.343 1.424 1.343.785 0 1.424-.602 1.424-1.343 0-.74-.64-1.341-1.424-1.341zm-10.82-1.04c.596 0 1.078.467 1.078 1.044s-.482 1.045-1.077 1.045-1.077-.468-1.077-1.045.482-1.045 1.077-1.045zm6.26-8.023H6.857v4.826c2.095.375 3.687 2.133 3.687 4.241 0 .12-.007.238-.018.355l-.02.175h3.376c.37-1.236 1.55-2.15 2.96-2.15 1.345 0 2.481.833 2.904 1.984l.055.166h1.034v-3.747l-7.874-1.447-.082-.032c-.055-.017-.105-.036-.155-.062-.046-.024-.088-.052-.129-.084-.041-.033-.078-.067-.112-.107-.035-.04-.063-.081-.09-.128-.024-.044-.044-.088-.06-.137-.018-.053-.028-.106-.034-.162l-.017-.081v-3.61zm-7.094 3.957c-.8.136-1.283.578-1.47 1.4l.1-.055c.336-.18.699-.32 1.08-.414l.29-.062v-.869z" transform="translate(-44.000000, -345.000000) translate(16.000000, -0.000000) translate(12.000000, 333.000000) translate(16.000000, 12.000000)"/>
                    </g>
                </g>
            </g>
        </g>
    </g>
</svg>
