<svg width="20" height="20" viewBox="0 0 20 20" fill="none" xmlns="http://www.w3.org/2000/svg">
<rect width="20" height="20" rx="6.64" fill="#52666D"/>
<path d="M16.6666 10.2334V13.2503C16.6656 13.4384 16.6159 13.623 16.5224 13.7861C16.4289 13.9492 16.2948 14.0851 16.1333 14.1806L13.5291 15.6859C13.3679 15.7824 13.1836 15.8333 12.9958 15.8333C12.808 15.8333 12.6238 15.7824 12.4625 15.6859L9.85832 14.1806C9.69679 14.0851 9.56274 13.9492 9.46927 13.7861C9.37579 13.623 9.32607 13.4384 9.32499 13.2503V12.4035L10.6583 11.6269V13.0987L12.9916 14.4576L15.325 13.0987V10.3871L12.9916 9.02812L7.52499 12.206C7.36219 12.298 7.17849 12.3464 6.99164 12.3464C6.80479 12.3464 6.62111 12.298 6.45831 12.206L3.85414 10.6944C3.69511 10.5974 3.56364 10.461 3.47241 10.2982C3.38119 10.1354 3.33329 9.95184 3.33331 9.76509V6.74822C3.33439 6.5601 3.38411 6.37547 3.47759 6.2124C3.57109 6.04932 3.70514 5.91337 3.86664 5.81787L6.47081 4.31257C6.63244 4.21705 6.81659 4.16667 7.00414 4.16667C7.19172 4.16667 7.37587 4.21705 7.53749 4.31257L10.1416 5.81787C10.3032 5.91337 10.4372 6.04932 10.5307 6.2124C10.6242 6.37547 10.6739 6.5601 10.675 6.74822V7.59494L9.33332 8.36642V6.90294L6.99999 5.544L4.66664 6.90294V9.61142L6.99999 10.9704L12.4666 7.79252C12.6294 7.70047 12.8131 7.65212 13 7.65212C13.1868 7.65212 13.3705 7.70047 13.5333 7.79252L16.1375 9.30409C16.2981 9.40004 16.4312 9.53604 16.5239 9.69887C16.6166 9.86172 16.6658 10.0459 16.6666 10.2334Z" fill="white"/>
</svg>
