<svg xmlns="http://www.w3.org/2000/svg" xmlns:xlink="http://www.w3.org/1999/xlink" width="400" height="300" viewBox="0 0 400 300">
    <defs>
        <radialGradient id="f0igajwfne" cx="0%" cy="100%" r="138.567%" fx="0%" fy="100%" gradientTransform="scale(.5 1) rotate(-27.597 0 1)">
            <stop offset="0%" stop-color="#FFF" stop-opacity="0"/>
            <stop offset="100%" stop-color="#FFF" stop-opacity="0"/>
        </radialGradient>
        <ellipse id="okqauds2ic" cx="30.533" cy="30.556" rx="30.533" ry="30.556"/>
        <path id="eku7h3nkma" d="M0 0H400V300H0z"/>
    </defs>
    <g fill="none" fill-rule="evenodd">
        <g>
            <g transform="translate(-880 -680) translate(880 680)">
                <mask id="rfaean35kb" fill="#fff">
                    <use xlink:href="#eku7h3nkma"/>
                </mask>
                <use fill="none" xlink:href="#eku7h3nkma"/>
                <g mask="url(#rfaean35kb)">
                    <path d="M0 0H600V300H0z"/>
                    <g>
                        <g>
                            <g>
                                <g>
                                    <g transform="rotate(-6 641.7 -175.411) rotate(6 -672.351 2338.335)">
                                        <mask id="sc50htcybd" fill="#fff">
                                            <use xlink:href="#okqauds2ic"/>
                                        </mask>
                                        <use fill="none" xlink:href="#okqauds2ic"/>
                                        <path fill="#DAE1E3" d="M54.139 24.863c-.03.1-.07.199-.12.296-.016.07-.038.154-.068.248l-.049.15-.06.165-.068.18-.038.096-.083.202-.092.215-.1.227-.164.364-.12.256-.19.403-.206.423-.218.44-.23.457-.16.311-.33.637-.257.487-.263.492-.268.495-.272.496-.274.494-.275.489-.275.482-.273.473-.27.462-.353.592-.258.424-.168.272-.244.389-.158.246-.077.119-.151.229-.145.216-.14.203-.134.189-.127.174-.12.159c-.117.15-.223.277-.316.376l-.143.138-2 1.68 9.274 4.46c-4.726 8.1-13.553 13.547-23.663 13.547-10.142 0-18.993-5.483-23.708-13.624l9.358-4.393-.928-.747-1.126-.923c-.183-.156-.432-.469-.726-.897l-.129-.19-.134-.204-.069-.107-.213-.339-.073-.119-.225-.372-.155-.26-.238-.409-.161-.282-.164-.29-.25-.448-.252-.46-.17-.314-.254-.476-.254-.484-.254-.488-.25-.489-.248-.489-.242-.486-.236-.48-.23-.474-.292-.615-.207-.446-.197-.431-.124-.278-.176-.4-.11-.254-.102-.244-.095-.232-.088-.222-.041-.105-.076-.202-.069-.189-.059-.174c-.027-.084-.052-.161-.072-.233-.07-.095-.129-.192-.18-.293.434.29.974.58 1.61.862l.259.113c.308.132.637.261.986.39l.304.108.155.054.318.108c.16.053.326.106.494.159l.34.104.174.052.354.103.362.1.185.05.375.1.19.048.388.097.396.094.404.093.412.091.419.09.427.087.216.042.438.085.222.04.448.082.456.078.23.039.467.075.235.036.476.072.483.069.488.066.495.063.501.061.507.058.255.028.516.054.26.025.523.05.529.046.534.043.54.04.543.036.274.017.551.03.278.015.558.026.28.012.943.032.955.022 1.478.013 1.48-.013.716-.015.951-.03.547-.022.542-.026.537-.029.268-.015.531-.034.527-.037.522-.04.259-.02.514-.045.51-.047.505-.05.499-.054.494-.055.488-.059.242-.03.48-.062.238-.032.47-.067.465-.068.46-.07.452-.074.223-.037.443-.077.436-.078.216-.04.426-.082.419-.084.207-.042.408-.087.401-.088.198-.045.39-.09.192-.047.379-.093.37-.095.363-.096.355-.098.347-.1.17-.05.335-.1.163-.051.322-.103.313-.104.304-.105.148-.053.29-.107c.049-.017.096-.035.143-.053l.277-.108c.09-.036.18-.072.267-.109l.258-.109.126-.055.243-.11c.398-.184.756-.37 1.07-.558l.31-.195.269-.188.156-.118zm-36.183 6.38l.595 2.14c.395 1.261.846 2.459 1.384 3.676l.42.917.979 1.917c.115.227.268.428.462.61l.207.175.826.61c1.41.944 2.974 1.618 4.826 2.117l.708.18 1.95.38.37.036h.287l.369-.036 2.009-.393c1.87-.445 3.485-1.062 4.978-1.969l.554-.354.788-.584c.202-.154.376-.336.518-.547l.132-.222 1.004-1.967c.564-1.194 1.049-2.378 1.482-3.639l.315-.96.554-1.998c-1.2 2.268-3.579 3.877-6.452 4.154l-.395.03-.421-.048c-2.135-.296-4.013-1.429-5.203-3.082l-.228-.338-.124-.206-.24.37c-1.167 1.665-3.018 2.828-5.202 3.202l-.442.065-.401.039-.382-.032c-2.769-.296-5.097-1.947-6.227-4.244zM30.654 7.638c1.101 0 2.425.541 4.107 1.616l.262.17.267.177.136.092.276.191.282.199.288.207.295.216.15.111.304.228.31.237.317.245.324.253.165.13.521.415 1.492 1.222 3.975 3.342 2.857.75.408.11.572.159.357.1.763.224.619.19.817.27.487.177.429.166.243.1c1.74.735 2.604 1.527 2.604 2.56l-.015.222-.045.218-.158.127-.27.2c-.738.52-1.774 1.034-3.062 1.52l-.313.116-.324.115-.165.057-.337.113-.347.112-.355.11-.365.108-.185.054-.378.106-.192.053-.39.103-.398.102-.407.1c-.205.05-.414.098-.625.146l-.426.095-.434.093-.442.09-.449.089-.456.085-.463.084-.47.08-.477.079-.484.075-.49.073-.247.035-.5.068-.252.033-.509.064-.514.061-.26.03-.523.056-.53.052-.266.026-.537.047-.542.045-.547.04-.276.02-.555.035c-.278.017-.558.032-.84.046l-.567.026-.284.012-.897.03-.72.016-1.483.014-1.484-.014-.957-.023c-.295-.01-.589-.02-.88-.032l-.581-.026-.577-.03-.571-.035-.567-.038-.561-.042-.556-.046-.55-.049-.546-.053-.27-.027-.536-.058-.53-.062-.263-.031-.52-.067c-.087-.01-.173-.022-.258-.034l-.511-.07-.505-.074-.497-.077-.246-.04-.487-.08c-.242-.042-.481-.084-.717-.127l-.47-.088-.46-.09c-.305-.06-.605-.124-.9-.188l-.437-.097-.216-.05-.425-.1-.21-.05-.412-.104-.202-.053-.4-.106c-.526-.144-1.03-.292-1.507-.444l-.353-.115-.344-.116-.334-.117-.324-.12c-1.328-.497-2.393-1.025-3.143-1.557-.117-.244-.176-.495-.176-.751 0-1.194 1.012-2.158 3.215-3.013-.081-.085-.152-.168-.218-.249l-.192-.237c-.147-.18-.3-.345-.53-.494.666-.756 1.895-1.378 2.74-1.496.921-.152 1.648-.072 2.303.047l.228.043.444.088.218.04.217.037c.144.023.289.042.435.053-.292-.124-.674-.387-1.076-.71l-.203-.167-.101-.087-.204-.177-.202-.182-.198-.184-.193-.185-.185-.182-.09-.09-.17-.174-.08-.085-.152-.163-.07-.077-.127-.145-.109-.131c-.531-1.188-.379-2.252-.087-3.028l.054-.138.057-.132.029-.063.059-.121.06-.114.058-.107.074-.122c.219-.181.44-.358.665-.532l.139-.003h.158l.173.003.186.007.195.012c.66.048 1.421.187 1.744.545.633.89.96 1.799 1.17 2.626l.054.223.05.219.065.318.06.306.074.385.037.182.037.174c.077.34.163.63.29.856.08-.273.14-.536.193-.796l.089-.438.048-.23.052-.232c.127-.544.306-1.11.669-1.762.741-1.329 3.318-3.15 5.143-2.787.023.184.061.341.103.485l.103.341c.083.287.13.57.014.998l.3-.222.294-.214.288-.205.282-.197.275-.188.136-.091.267-.176.131-.084.259-.163.252-.154.247-.146c1.345-.78 2.446-1.172 3.38-1.172z" mask="url(#sc50htcybd)"/>
                                    </g>
                                </g>
                            </g>
                            <g fill="#DAE1E3" fill-rule="nonzero">
                                <g>
                                    <g transform="rotate(-6 641.7 -175.411)">
                                        <path d="M296.593 101.26c-.357-.627-.702-1.196-1.112-1.766-1.58-2.391-3.511-4.612-5.677-6.434-.702-.627-1.404-1.196-2.107-1.709-2.165-1.651-4.506-2.96-7.017-4.043 0-.057 0-.057-.064 0-1.756-.74-3.629-1.31-5.554-1.708-2.289-.512-4.747-.797-7.199-.797s-4.916.285-7.199.797c-1.931.399-3.804.968-5.56 1.708-.058-.057-.058-.057-.058 0-2.517 1.082-4.858 2.392-7.023 4.043-.702.513-1.405 1.082-2.107 1.709-2.165 1.822-4.097 4.043-5.677 6.434-.41.57-.76 1.14-1.112 1.766-2.634 4.612-4.155 9.908-4.155 15.546 0 5.637 1.521 10.933 4.155 15.545.293.57.644 1.134 1.054 1.646 1.58 2.454 3.511 4.67 5.735 6.549.702.626 1.405 1.196 2.107 1.708 2.165 1.651 4.506 2.967 7.023 4.043 0 .063 0 .063.058 0 1.756.74 3.629 1.31 5.56 1.714 2.283.513 4.74.797 7.199.797 2.458 0 4.916-.284 7.199-.797 1.925-.398 3.798-.974 5.554-1.714.064.063.064.063.064 0 2.517-1.076 4.852-2.392 7.017-4.043.703-.512 1.405-1.076 2.107-1.708 2.224-1.88 4.155-4.1 5.736-6.549.403-.512.76-1.076 1.053-1.646 2.634-4.618 4.155-9.908 4.155-15.545 0-5.638-1.521-10.934-4.155-15.546zm-1.99 31.66c-.357.57-.76 1.14-1.17 1.652-1.756 2.392-3.804 4.556-6.21 6.321-.76.62-1.58 1.196-2.458 1.646-2.926 1.942-6.256 3.303-9.774 4.049-2.282.569-4.682.848-7.14.848-2.458 0-4.857-.285-7.14-.849-3.511-.745-6.847-2.106-9.774-4.048-.877-.45-1.697-1.025-2.458-1.646-2.4-1.77-4.448-3.93-6.203-6.32-.41-.513-.82-1.083-1.17-1.652-2.986-4.67-4.741-10.193-4.741-16.115 0-5.923 1.755-11.446 4.74-16.116.351-.57.761-1.139 1.23-1.708 1.696-2.392 3.803-4.499 6.144-6.264.761-.626 1.58-1.196 2.458-1.651 2.927-1.936 6.263-3.303 9.774-4.043 2.283-.57 4.682-.855 7.14-.855 2.458 0 4.858.285 7.14.855 3.518.74 6.848 2.107 9.774 4.043.878.455 1.697 1.025 2.458 1.651 2.341 1.765 4.454 3.872 6.151 6.264.468.57.872 1.139 1.23 1.708 2.984 4.67 4.74 10.193 4.74 16.116 0 5.922-1.756 11.445-4.74 16.115z"/>
                                        <path d="M295.481 99.494c-.702-.227-1.399-.398-2.101-.512.468.57.872 1.139 1.23 1.708.701.171 1.34.342 1.989.57 12.29 3.473 20.308 9.168 20.308 15.546 0 6.377-8.018 12.072-20.308 15.545-.644.222-1.288.393-1.99.57-7.673 1.993-16.855 3.132-26.746 3.132-9.89 0-19.08-1.14-26.746-3.132-.702-.171-1.346-.348-1.99-.57-12.29-3.473-20.308-9.168-20.308-15.545 0-6.378 8.018-12.073 20.308-15.546.644-.228 1.288-.399 1.99-.57.351-.57.76-1.139 1.229-1.708-.702.114-1.405.285-2.107.512-13.87 3.588-22.825 9.966-22.825 17.312 0 7.231 9.072 13.552 22.767 17.197.702.228 1.404.398 2.106.575 7.492 1.822 16.27 2.847 25.576 2.847 9.306 0 18.084-1.025 25.576-2.847.702-.17 1.404-.347 2.106-.575 13.695-3.645 22.767-9.965 22.767-17.197-.006-7.346-8.96-13.724-22.83-17.312z"/>
                                        <path d="M287.697 91.351c-.93-.114-1.931-.227-2.926-.284.878.455 1.697 1.025 2.458 1.651.878.114 1.697.228 2.575.342 24.58 3.53 42.197 12.812 42.197 23.746 0 10.933-17.616 20.215-42.197 23.745-.878.12-1.697.228-2.575.348-6.087.797-12.636 1.196-19.372 1.196-6.73 0-13.285-.399-19.372-1.196-.878-.12-1.697-.228-2.575-.348-24.58-3.53-42.197-12.812-42.197-23.745 0-10.934 17.616-20.216 42.197-23.746.878-.114 1.697-.228 2.575-.342.761-.626 1.58-1.196 2.458-1.651-.995.057-1.99.17-2.926.284-26.512 3.417-45.767 13.553-45.767 25.455 0 11.9 19.255 22.037 45.767 25.454.936.12 1.931.228 2.926.284 5.385.627 11.062.974 16.914.974 5.853 0 11.53-.347 16.914-.974.995-.056 1.996-.165 2.926-.284 26.512-3.417 45.767-13.553 45.767-25.454 0-11.902-19.255-22.038-45.767-25.455z"/>
                                        <path d="M275.056 85.6c-2.4-.114-4.8-.17-7.199-.17-2.4 0-4.799.056-7.198.17-39.271 1.424-70.114 14.863-70.114 31.206s30.843 29.782 70.114 31.205c2.4.114 4.799.165 7.198.165 2.4 0 4.8-.057 7.199-.165 39.27-1.423 70.113-14.862 70.113-31.205 0-16.343-30.843-29.782-70.113-31.206zm5.618 60.703c0 .062 0 .062-.064 0-1.814.17-3.746.228-5.619.29-2.335.114-4.74.165-7.14.165-2.4 0-4.799-.057-7.14-.165-1.873-.062-3.804-.12-5.618-.29-.059.062-.059.062-.059 0-35.753-2.392-63.026-14.692-63.026-29.497 0-14.806 27.273-27.106 63.032-29.498 0-.057 0-.057.059 0 1.814-.17 3.745-.227 5.618-.284 2.283-.57 4.682-.855 7.14-.855 2.458 0 4.858.285 7.14.855 1.873.057 3.804.114 5.619.284.064-.057.064-.057.064 0 35.753 2.392 63.026 14.692 63.026 29.498 0 14.805-27.273 27.105-63.032 29.497z"/>
                                        <path d="M267.857 153.108c-49.384 0-89.567-16.28-89.567-36.302 0-20.016 40.178-36.303 89.567-36.303 49.39 0 89.567 16.287 89.567 36.303 0 20.021-40.183 36.302-89.567 36.302zm0-71.18c-48.582 0-88.104 15.647-88.104 34.878 0 19.23 39.522 34.878 88.104 34.878s88.104-15.648 88.104-34.878-39.522-34.879-88.104-34.879z"/>
                                        <path d="M267.857 172.417c-75.767 0-137.412-24.896-137.412-55.492 0-30.596 61.645-55.48 137.412-55.48s137.412 24.89 137.412 55.48c0 30.59-61.645 55.492-137.412 55.492zm0-109.51c-74.942 0-135.907 24.23-135.907 54.018s60.965 54.023 135.907 54.023c74.942 0 135.908-24.235 135.908-54.023 0-29.787-60.966-54.017-135.908-54.017z"/>
                                        <path d="M267.857 192.599c-103.555 0-187.796-33.95-187.796-75.674 0-41.723 84.247-75.668 187.796-75.668 103.549 0 187.802 33.945 187.802 75.668 0 41.723-84.253 75.674-187.802 75.674zm0-149.878c-102.724 0-186.298 33.29-186.298 74.204 0 40.915 83.574 74.204 186.298 74.204s186.292-33.29 186.292-74.204c0-40.92-83.568-74.204-186.292-74.204z"/>
                                        <path d="M267.857 207.393c-123.916 0-224.725-40.585-224.725-90.468s100.81-90.462 224.725-90.462c123.916 0 224.726 40.579 224.726 90.462s-100.81 90.468-224.726 90.468zm0-179.466c-123.085 0-223.221 39.923-223.221 88.998 0 49.08 100.136 88.999 223.221 88.999 123.085 0 223.222-39.924 223.222-88.999 0-49.075-100.137-88.998-223.222-88.998z"/>
                                        <path d="M267.857 224.499c-147.454 0-267.42-48.26-267.42-107.574 0-59.313 119.966-107.568 267.42-107.568 147.455 0 267.42 48.255 267.42 107.568 0 59.32-119.965 107.574-267.42 107.574zm0-213.678c-146.63 0-265.921 47.6-265.921 106.104 0 58.51 119.292 106.105 265.921 106.105 146.63 0 265.916-47.594 265.916-106.105 0-58.505-119.286-106.104-265.916-106.104z"/>
                                        <ellipse cx="317.604" cy="119.653" rx="3.646" ry="3.548"/>
                                        <path d="M317.604 123.912c-2.412 0-4.378-1.907-4.378-4.26 0-2.351 1.966-4.259 4.378-4.259 2.41 0 4.377 1.908 4.377 4.26s-1.966 4.26-4.377 4.26zm0-7.095c-1.604 0-2.915 1.276-2.915 2.836 0 1.56 1.311 2.836 2.915 2.836 1.603 0 2.914-1.276 2.914-2.836 0-1.56-1.31-2.836-2.914-2.836z"/>
                                        <ellipse cx="203.479" cy="119.653" rx="4.875" ry="4.743"/>
                                        <path d="M203.48 125.108c-3.09 0-5.607-2.449-5.607-5.455 0-3.007 2.516-5.456 5.606-5.456s5.607 2.45 5.607 5.456c0 3.006-2.517 5.455-5.607 5.455zm0-9.487c-2.29 0-4.144 1.805-4.144 4.032 0 2.226 1.855 4.031 4.143 4.031 2.289 0 4.144-1.805 4.144-4.031 0-2.227-1.855-4.032-4.144-4.032z"/>
                                        <ellipse cx="326.382" cy="136.736" rx="4.875" ry="4.743"/>
                                        <path d="M326.382 142.191c-3.09 0-5.606-2.448-5.606-5.455s2.516-5.455 5.606-5.455 5.607 2.448 5.607 5.455-2.516 5.455-5.607 5.455zm0-9.487c-2.288 0-4.143 1.806-4.143 4.032 0 2.227 1.855 4.032 4.143 4.032 2.289 0 4.144-1.805 4.144-4.032 0-2.226-1.855-4.032-4.144-4.032z"/>
                                        <ellipse cx="267.857" cy="79.792" rx="3.658" ry="3.559"/>
                                        <path d="M267.857 84.063c-2.423 0-4.39-1.914-4.39-4.271 0-2.358 1.967-4.271 4.39-4.271 2.423 0 4.39 1.913 4.39 4.27 0 2.358-1.967 4.272-4.39 4.272zm0-7.119c-1.615 0-2.926 1.276-2.926 2.848 0 1.571 1.31 2.847 2.926 2.847 1.615 0 2.926-1.276 2.926-2.847 0-1.572-1.31-2.848-2.926-2.848z"/>
                                        <ellipse cx="147.506" cy="90.577" rx="9.774" ry="9.51"/>
                                        <path d="M147.506 100.816c-5.806 0-10.523-4.596-10.523-10.24 0-5.642 4.723-10.238 10.523-10.238s10.522 4.596 10.522 10.239c0 5.649-4.723 10.239-10.522 10.239zm0-19.014c-4.975 0-9.025 3.935-9.025 8.775s4.044 8.78 9.025 8.78c4.974 0 9.018-3.934 9.018-8.78 0-4.84-4.044-8.775-9.018-8.775z"/>
                                        <ellipse cx="364.137" cy="178.402" rx="7.515" ry="7.312"/>
                                        <path d="M355.019 186.363c-.708 0-1.077-.29-1.258-.53-1.768-2.351 7.49-9.082 8.556-9.84 3.857-2.761 8.738-5.551 10.944-5.551.708 0 1.077.29 1.259.53 1.767 2.35-7.492 9.082-8.557 9.84-3.857 2.767-8.738 5.551-10.944 5.551zM355 185.14h.018c1.317 0 5.29-1.948 10.078-5.37 5.425-3.878 7.907-6.896 8.176-7.824-1.586.102-5.46 2.016-10.09 5.33-5.466 3.9-7.936 7.864-8.182 7.864z"/>
                                        <path d="M364.137 186.449c-4.559 0-8.27-3.61-8.27-8.047 0-4.436 3.711-8.046 8.27-8.046 4.56 0 8.27 3.61 8.27 8.046s-3.71 8.047-8.27 8.047zm0-14.624c-3.734 0-6.76 2.95-6.76 6.577 0 3.628 3.032 6.577 6.76 6.577 3.728 0 6.76-2.95 6.76-6.577s-3.026-6.577-6.76-6.577z"/>
                                        <path d="M374.52 170.977c1.767 2.352-7.492 9.082-8.557 9.84-3.857 2.762-8.738 5.552-10.944 5.552-.708 0-1.077-.29-1.258-.53m0-.005l1.258-.695c1.317 0 5.29-1.948 10.078-5.37 5.425-3.878 7.655-6.776 7.924-7.71"/>
                                        <ellipse cx="243.786" cy="8.611" rx="7.515" ry="7.312"/>
                                        <path d="M243.786 16.48c-4.466 0-8.094-3.53-8.094-7.875 0-4.344 3.628-7.875 8.094-7.875 4.465 0 8.094 3.536 8.094 7.881 0 4.345-3.629 7.87-8.094 7.87zm0-14.623c-3.828 0-6.941 3.03-6.941 6.754 0 3.724 3.113 6.754 6.94 6.754 3.828 0 6.942-3.03 6.942-6.754 0-3.724-3.114-6.754-6.941-6.754z"/>
                                    </g>
                                </g>
                            </g>
                        </g>
                    </g>
                    <path fill="url(#f0igajwfne)" d="M0 0H600V300H0z"/>
                </g>
            </g>
        </g>
    </g>
</svg>
